<svg viewBox="0 0 330 200" xmlns="http://www.w3.org/2000/svg"><g><g><g><g><g><line x1="51.53200149536133" y1="157.2444441053603" x2="46.53200149536133" y2="157.2444441053603" style="visibility: inherit;" fill="rgb(0, 0, 0)" stroke="rgb(204, 204, 204)" stroke-width="1px"></line><line x1="51.53200149536133" y1="137.58888859219024" x2="46.53200149536133" y2="137.58888859219024" style="visibility: inherit;" fill="rgb(0, 0, 0)" stroke="rgb(204, 204, 204)" stroke-width="1px"></line><line x1="51.53200149536133" y1="117.9333330790202" x2="46.53200149536133" y2="117.9333330790202" style="visibility: inherit;" fill="rgb(0, 0, 0)" stroke="rgb(204, 204, 204)" stroke-width="1px"></line><line x1="51.53200149536133" y1="98.2777775658502" x2="46.53200149536133" y2="98.2777775658502" style="visibility: inherit;" fill="rgb(0, 0, 0)" stroke="rgb(204, 204, 204)" stroke-width="1px"></line><line x1="51.53200149536133" y1="78.62222205268014" x2="46.53200149536133" y2="78.62222205268014" style="visibility: inherit;" fill="rgb(0, 0, 0)" stroke="rgb(204, 204, 204)" stroke-width="1px"></line><line x1="51.53200149536133" y1="58.9666665395101" x2="46.53200149536133" y2="58.9666665395101" style="visibility: inherit;" fill="rgb(0, 0, 0)" stroke="rgb(204, 204, 204)" stroke-width="1px"></line><line x1="51.53200149536133" y1="39.3111110263401" x2="46.53200149536133" y2="39.3111110263401" style="visibility: inherit;" fill="rgb(0, 0, 0)" stroke="rgb(204, 204, 204)" stroke-width="1px"></line><line x1="51.53200149536133" y1="19.65555551317004" x2="46.53200149536133" y2="19.65555551317004" style="visibility: inherit;" fill="rgb(0, 0, 0)" stroke="rgb(204, 204, 204)" stroke-width="1px"></line><line x1="51.53200149536133" y1="0" x2="46.53200149536133" y2="0" style="visibility: inherit;" fill="rgb(0, 0, 0)" stroke="rgb(204, 204, 204)" stroke-width="1px"></line></g><g transform="translate(41.53200149536133, 0)"><text style="text-anchor: end; visibility: inherit; font-family: Roboto, sans-serif; font-size: 12px; font-weight: 200;" x="0" y="157.2444441053603" dx="0em" dy="0.3em" fill="rgb(33, 33, 33)" stroke="none" stroke-width="1px">0.3</text><text style="text-anchor: end; visibility: hidden; font-family: Roboto, sans-serif; font-size: 12px; font-weight: 200;" x="0" y="137.58888859219024" dx="0em" dy="0.3em" fill="rgb(33, 33, 33)" stroke="none" stroke-width="1px">0.32</text><text style="text-anchor: end; visibility: inherit; font-family: Roboto, sans-serif; font-size: 12px; font-weight: 200;" x="0" y="117.9333330790202" dx="0em" dy="0.3em" fill="rgb(33, 33, 33)" stroke="none" stroke-width="1px">0.34</text><text style="text-anchor: end; visibility: hidden; font-family: Roboto, sans-serif; font-size: 12px; font-weight: 200;" x="0" y="98.2777775658502" dx="0em" dy="0.3em" fill="rgb(33, 33, 33)" stroke="none" stroke-width="1px">0.36</text><text style="text-anchor: end; visibility: inherit; font-family: Roboto, sans-serif; font-size: 12px; font-weight: 200;" x="0" y="78.62222205268014" dx="0em" dy="0.3em" fill="rgb(33, 33, 33)" stroke="none" stroke-width="1px">0.38</text><text style="text-anchor: end; visibility: hidden; font-family: Roboto, sans-serif; font-size: 12px; font-weight: 200;" x="0" y="58.9666665395101" dx="0em" dy="0.3em" fill="rgb(33, 33, 33)" stroke="none" stroke-width="1px">0.4</text><text style="text-anchor: end; visibility: inherit; font-family: Roboto, sans-serif; font-size: 12px; font-weight: 200;" x="0" y="39.3111110263401" dx="0em" dy="0.3em" fill="rgb(33, 33, 33)" stroke="none" stroke-width="1px">0.42</text><text style="text-anchor: end; visibility: hidden; font-family: Roboto, sans-serif; font-size: 12px; font-weight: 200;" x="0" y="19.65555551317004" dx="0em" dy="0.3em" fill="rgb(33, 33, 33)" stroke="none" stroke-width="1px">0.44</text><text style="text-anchor: end; visibility: hidden; font-family: Roboto, sans-serif; font-size: 12px; font-weight: 200;" x="0" y="0" dx="0em" dy="0.3em" fill="rgb(33, 33, 33)" stroke="none" stroke-width="1px">0.46</text></g><line x1="51.53200149536133" y1="0" x2="51.53200149536133" y2="176.89999961853027" fill="rgb(0, 0, 0)" stroke="rgb(204, 204, 204)" stroke-width="1px"></line></g></g><g transform="translate(51, 0)" clip-path="url(#clip_0)"><clipPath id="clip_0"><rect width="278" height="176"></rect></clipPath><g><g><g><line x1="0" y1="0" x2="0" y2="176.89999961853027" fill="rgb(0, 0, 0)" stroke="rgb(66, 66, 66)" stroke-width="1px" opacity="0.25"></line><line x1="23.205666542053223" y1="0" x2="23.205666542053223" y2="176.89999961853027" fill="rgb(0, 0, 0)" stroke="rgb(66, 66, 66)" stroke-width="1px" opacity="0.25"></line><line x1="46.411333084106445" y1="0" x2="46.411333084106445" y2="176.89999961853027" fill="rgb(0, 0, 0)" stroke="rgb(66, 66, 66)" stroke-width="1px" opacity="0.25"></line><line x1="69.61699962615967" y1="0" x2="69.61699962615967" y2="176.89999961853027" fill="rgb(0, 0, 0)" stroke="rgb(66, 66, 66)" stroke-width="1px" opacity="0.25"></line><line x1="92.82266616821289" y1="0" x2="92.82266616821289" y2="176.89999961853027" fill="rgb(0, 0, 0)" stroke="rgb(66, 66, 66)" stroke-width="1px" opacity="0.25"></line><line x1="116.02833271026611" y1="0" x2="116.02833271026611" y2="176.89999961853027" fill="rgb(0, 0, 0)" stroke="rgb(66, 66, 66)" stroke-width="1px" opacity="0.25"></line><line x1="139.23399925231934" y1="0" x2="139.23399925231934" y2="176.89999961853027" fill="rgb(0, 0, 0)" stroke="rgb(66, 66, 66)" stroke-width="1px" opacity="0.25"></line><line x1="162.43966579437256" y1="0" x2="162.43966579437256" y2="176.89999961853027" fill="rgb(0, 0, 0)" stroke="rgb(66, 66, 66)" stroke-width="1px" opacity="0.25"></line><line x1="185.64533233642578" y1="0" x2="185.64533233642578" y2="176.89999961853027" fill="rgb(0, 0, 0)" stroke="rgb(66, 66, 66)" stroke-width="1px" opacity="0.25"></line><line x1="208.850998878479" y1="0" x2="208.850998878479" y2="176.89999961853027" fill="rgb(0, 0, 0)" stroke="rgb(66, 66, 66)" stroke-width="1px" opacity="0.25"></line><line x1="232.05666542053223" y1="0" x2="232.05666542053223" y2="176.89999961853027" fill="rgb(0, 0, 0)" stroke="rgb(66, 66, 66)" stroke-width="1px" opacity="0.25"></line><line x1="255.26233196258545" y1="0" x2="255.26233196258545" y2="176.89999961853027" fill="rgb(0, 0, 0)" stroke="rgb(66, 66, 66)" stroke-width="1px" opacity="0.25"></line><line x1="278.4679985046387" y1="0" x2="278.4679985046387" y2="176.89999961853027" fill="rgb(0, 0, 0)" stroke="rgb(66, 66, 66)" stroke-width="1px" opacity="0.25"></line></g><g><line x1="0" y1="157.2444441053603" x2="278.4679985046387" y2="157.2444441053603" fill="rgb(0, 0, 0)" stroke="rgb(66, 66, 66)" stroke-width="1px" opacity="0.25"></line><line x1="0" y1="137.58888859219024" x2="278.4679985046387" y2="137.58888859219024" fill="rgb(0, 0, 0)" stroke="rgb(66, 66, 66)" stroke-width="1px" opacity="0.25"></line><line x1="0" y1="117.9333330790202" x2="278.4679985046387" y2="117.9333330790202" fill="rgb(0, 0, 0)" stroke="rgb(66, 66, 66)" stroke-width="1px" opacity="0.25"></line><line x1="0" y1="98.2777775658502" x2="278.4679985046387" y2="98.2777775658502" fill="rgb(0, 0, 0)" stroke="rgb(66, 66, 66)" stroke-width="1px" opacity="0.25"></line><line x1="0" y1="78.62222205268014" x2="278.4679985046387" y2="78.62222205268014" fill="rgb(0, 0, 0)" stroke="rgb(66, 66, 66)" stroke-width="1px" opacity="0.25"></line><line x1="0" y1="58.9666665395101" x2="278.4679985046387" y2="58.9666665395101" fill="rgb(0, 0, 0)" stroke="rgb(66, 66, 66)" stroke-width="1px" opacity="0.25"></line><line x1="0" y1="39.3111110263401" x2="278.4679985046387" y2="39.3111110263401" fill="rgb(0, 0, 0)" stroke="rgb(66, 66, 66)" stroke-width="1px" opacity="0.25"></line><line x1="0" y1="19.65555551317004" x2="278.4679985046387" y2="19.65555551317004" fill="rgb(0, 0, 0)" stroke="rgb(66, 66, 66)" stroke-width="1px" opacity="0.25"></line><line x1="0" y1="0" x2="278.4679985046387" y2="0" fill="rgb(0, 0, 0)" stroke="rgb(66, 66, 66)" stroke-width="1px" opacity="0.25"></line></g></g></g><g><g><line x1="0" y1="452.07777680291076" x2="278.4679985046387" y2="452.07777680291076" fill="rgb(0, 0, 0)" stroke="rgb(153, 153, 153)" stroke-width="1.5px"></line></g></g><g><g><line x1="23.205666542053223" y1="0" x2="23.205666542053223" y2="176.89999961853027" fill="rgb(0, 0, 0)" stroke="rgb(153, 153, 153)" stroke-width="1.5px"></line></g></g><g><g><g><g><g><path style="fill: none;" stroke="rgb(255, 112, 67)" stroke-width="2px" d="M23.745894459152222,-6.068086147436124L23.946391418075564,68.33766785424541L24.057778617477418,80.2889418378963L24.085625417327883,41.322369440605534L24.24156749649048,30.59568648028236L24.520035494995117,29.720758390458688L24.581298454666136,46.89437560880746L25.177219971466062,55.23646823035581L25.305315250778197,50.99288544875796L25.477965409851073,15.280319681251145L25.77871084823608,28.667509763896515L26.29666132545471,30.170635818357493L26.419187244796753,18.37682549950853L26.51386636428833,14.168985817281492L26.664239083480833,11.141468913127554L26.920429642105102,10.219381901838673L27.003970041656494,24.1228297168131L27.048524921417236,12.169687378011592L27.243452520370482,1.6803860920294338L27.399394599533082,-3.19946597135645L27.427241399383547,3.3459603853939557L27.43838011932373,-1.887256364177263L28.195813075256346,-5.962746041280036L28.290492194747923,1.76006938364402L28.396310034179688,4.905448064486318L29.114757470321656,-13.021315458307251L32.918630329895024,-1.7854440607141784L33.469996966934204,3.542152111734957L33.71504880561829,0.9317231335022657L34.03250232391357,3.154140416280134L34.349955842208864,-0.7744889538777955L34.36109456214905,2.9908812121000996L34.63956256065369,8.50798223304872L34.76765783996582,5.902083402195823L34.7843659198761,4.369039733503614L35.073972638320924,9.527426009566904L35.096250078201294,13.754185166565536L35.18535983772278,19.984559431689732L35.44155039634704,25.85625571332485L35.69217159500122,27.564790978518474L35.75900391464233,27.973640847828094L36.05974935302734,26.423244404310818L36.210122072219846,26.825127832815078L36.366064151382446,26.830762658866615L36.37720287132263,28.559748596714808L36.427327111053465,32.678863537404865L36.98983246803284,33.47064163742582L37.58575398483276,35.10334117140407L37.697141184234624,33.93035733727383L38.0201640625,32.17383995902873L38.11484318199158,36.15496744292222L38.35989502067566,33.92324606788816L38.53254517974853,38.88161502017714L38.54368389968872,42.56509970193346L38.68848725891113,40.64724609248303L39.45705893478394,43.32044716320648L39.540599334335326,46.2129015857588L39.61300101394654,47.09494047148389L39.718818853378295,47.725333774813386L40.593208368682866,52.162133857586234L41.51772212371826,51.69657780973247L41.86859180183411,49.83820084145862L42.50906819839478,49.512217116528305L42.54248435821533,50.82892926002568L42.65387155761719,53.55771392923996L42.7207038772583,56.281794300272004L42.74298131713867,54.63614938890817L42.932339556121825,56.55772369885113L43.09385099525451,54.5348679148697L43.199668834686285,51.90870111535169L43.30548667411804,54.17484437437665L43.72875803184509,56.358671856215146L43.734327391815185,57.083922926802586L43.912546910858154,59.29640083769467L44.17430682945251,59.51912498102324L44.22443106918335,61.689165358711506L44.302402108764646,60.25905783807955L44.65884114685059,60.27521564292132L44.74795090637207,62.38194150891901L44.87047682571411,62.20584923569426L44.9595865852356,62.8648851985165L45.171222264099114,64.88753728714256L45.29374818344117,65.07585184405583L45.299317543411256,65.40904525710836L45.304886903381345,67.76342704282916L45.438551542663575,68.96758680598143L45.60006298179626,71.50715329556014L45.82283738059997,74.86702758533028L46.09016665916443,76.65749440802443L46.246108738327024,79.91575129518422L47.22074673309326,81.55612502236582L48.07842816848755,81.48054972208645L48.083997528457644,80.98075880880226L48.25107832756043,83.34090705500162L48.25664768753052,82.16575048668147L48.39031232681275,80.99039098165018L48.579670565795894,81.11592396000835L49.002941923522954,80.65445251148553L49.15331464271545,80.88068280420549L49.35938096160889,81.28603991923612L49.54873920059204,79.03449432257514L49.57101664047241,78.65884909709524L50.378573836135864,77.4887893977587L50.785137113952636,76.26074813693211L51.26410207138061,76.71137697652668L51.47573775024414,77.35588115460037L51.531431349945066,78.37958370073073L51.60383302955627,78.74853889341453L51.826607428359985,79.04740805544151L52.19418518638611,77.71230146820764L52.216462626266484,79.15430748641806L52.49493062477112,78.17802626406095L52.61745654411316,77.90316555149704L52.92934070243836,77.59572253582682L52.95718750228882,79.38591314457054L52.99617302207947,79.23369319750316L53.06857470169068,78.29105001507263L53.09642150154114,80.0528808702322L53.257932940673825,81.56497437901444L53.475137979507444,82.29490827765568L53.92068677711487,82.64175790650361L54.1267530960083,83.89875344098695L54.70039717292785,83.98044137313947L54.71153589286804,84.59956721340183L55.12366853065491,84.52358084755777L55.24062509002686,84.8591214385972L55.296318689727784,86.56502567276212L55.40213652915955,85.57655606419505L55.780853007125856,86.50351961995146L56.11501460533142,87.24536237933295L56.21526308479309,86.78667234628243L56.410190683746336,88.25573898005489L56.744352281951905,88.6871421328689L56.95041860084533,88.29606845550497L57.06180580024719,89.39128176677669L57.08965260009765,91.05521836812007L57.2845801990509,92.60188324858095L57.57975627746582,92.4473449102041L57.65215795707703,91.65324539434356L57.9807501953125,91.55071295207266L58.23694075393677,92.0515809467807L58.77159931106568,90.914576350528L58.85513971061707,89.26094102411624L59.913318104934696,89.31070458991024L60.61505746116638,91.52355197136L60.64847362098694,92.19309367223035L60.84897057991028,89.86467018640714L61.272241937637325,90.3895135468069L61.57298737602234,90.11656386326615L61.92385705413818,90.44260009613672L61.94613449401856,89.97368169920729L61.996258733749386,90.29067328718808L62.07979913330078,90.50436729910673L62.24131057243348,90.85917652952793L62.642304490280154,91.89935419053425L63.15468560752869,92.99513079690803L63.188101767349245,94.63406317942682L63.20480984725952,94.92087809438428L63.27721152687073,94.68762797732693L63.58909568519592,94.67491806805262L63.82857816390991,96.6658553747425L64.02350576286315,97.39076958586469L64.19615592193604,95.44280274213887L64.46905456047058,96.15697621271931L65.31559727592469,96.28784767440918L65.39356831550599,95.59152194952746L65.41027639541626,95.92731306436934L65.77785415344238,96.04210678681427L65.81127031326294,94.34149289640162L65.9226575126648,95.17640616399926L65.97835111236571,96.24250320222498L66.25124975090027,95.25500501242743L66.35149823036194,96.30982121966015L66.59098070907592,95.86794741714418L66.70236790847778,97.55146054819983L66.85830998764038,98.92140083438089L66.93628102722168,98.89478153119025L67.21474902572632,99.41433427998585L67.40967662467956,99.89796351703477L67.43195406455993,100.47278513890997L67.7661156627655,101.20654562556442L67.8385173423767,100.08270405577736L68.11141598091126,99.28274683167315L68.44557757911682,98.69663147436125L68.55139541854858,97.71727847724412L68.59595029830932,98.73750106848728L69.00808293609619,98.84519986463961L70.37257612876893,100.02133236077204L70.89609596595764,99.22901413262036L71.14114780464172,100.25287751614977L71.33607540359496,101.41984215096865L71.79833228111268,101.53286921765425L72.0879389995575,102.57013938476001L72.18818747901916,103.82924922038093L72.81195579566956,104.89265020601637L73.0124527545929,103.03862526189559L73.15725611381531,102.37975481366024L73.26307395324707,101.22643312727024L73.63065171127319,102.352892852616L74.14303282852173,103.97261225445739L74.34909914741517,104.02642413808712L74.38808466720582,104.13783127763385L74.41593146705627,104.50316609560726L75.10653210334779,105.53436969694408L75.26247418251037,103.38389367952537L75.57435834083557,102.46053524494282L76.05889265823365,102.5007689916512L76.07560073814392,104.07148934484779L76.29837513694763,103.42084104100104L76.30951385688782,104.95969389205385L76.34849937667846,104.2588820879053L76.40976233634949,105.20345659984443L77.3175680114746,104.48693181991439L77.80210232887268,103.68219376059717L77.98032184791566,103.62875507565255L78.04715416755676,103.42309723776626L78.15854136695862,102.66752138884766L78.19195752677918,103.45773716544107L78.34789960594178,104.14197552278016L78.38688512573242,104.53293557611038L78.45928680534364,105.26290806995686L78.58738208465576,105.15044974715525L79.08305512199402,106.15511309940804L79.51746519966126,107.52856923961075L79.60100559921266,107.06544797673827L79.79036383819579,106.70989969528553L80.21363519592285,108.20895441185064L80.57564359397888,109.68294221761683L80.63133719367981,110.69073785108588L80.69816951332092,111.70080685639624L80.84297287254333,112.16525847298135L81.18827319068909,112.88701863245153L81.20498127059936,113.05871779489583L81.3219378299713,114.51235672895541L81.85102702713013,115.26861582568547L81.89001254692079,115.64420671053492L81.91228998680114,116.0500587540361L82.40239366416931,115.7321704945909L82.9481909412384,115.90485421240624L82.97046838111878,116.1428468202334L83.0205926208496,116.66121773200858L83.35475421905518,116.45562632707635L83.49398821830749,114.36765862555515L83.78359493675232,115.18673701015723L84.20686629447937,115.44113019434945L84.38508581352234,115.48241751236897L84.7359554916382,115.91949327422117L85.03113157005309,114.25013575939342L85.17593492927551,113.7983891622102L85.31516892852783,114.09463943145201L85.95564532508851,113.27283009744907L86.1895584438324,114.4114458415404L86.23411332359315,114.70296072564292L86.2563907634735,115.13625024289944L86.37891668281554,115.989535200479L86.60726044158935,116.14496985623826L86.70750892105103,116.9101377661092L86.82446548042297,118.22753450200861L86.90800587997437,119.08930898474541L86.99711563949585,118.69404448650903L87.33684659767151,119.01024158988989L87.41481763725281,119.56807984443935L87.43152571716308,119.90136065999518L87.71556307563782,118.94096156703881L87.76568731536867,119.91010901505848L87.8882132347107,117.76382814123693L88.48970411148072,117.95120868996237L88.52312027130128,117.63291927894888L88.74589467010497,117.55898472695478L89.05777882843017,117.60628064923424L89.06334818840027,117.64682576474354L89.30840002708436,118.0419890439737L89.45877274627685,118.94729395079467L89.60914546546935,119.95946905682028L89.96001514358521,120.29765287399489L90.00457002334595,121.01033117869112L90.25519122200012,120.3340620441679L90.7230174594879,121.55697051669027L91.2799534564972,121.15410660527121L91.58626825485229,121.89989654119542L91.97612345275878,120.5458072028134L92.14877361183167,121.6839605808227L92.32142377090454,122.46628549240366L92.78925000839233,122.09383472694623L92.91177592773438,122.30540989483659L93.32947792549135,122.71543243064013L93.44086512489318,121.9908370018242L93.47985064468384,122.12742372715778L93.95881560211181,122.4198170820892L94.04235600166321,122.57762411881819L94.15931256103516,122.43917281094214L94.32639336013794,122.25140720311992L94.46562735939025,123.08811682290532L95.11167311592102,123.21012061466321L95.62405423316956,122.71690863379968L95.67974783287048,122.45061394159491L95.75771887245178,121.84574167074634L96.22554510993957,121.39069286324279L96.29794678955078,120.89225264480618L96.57641478805542,121.60433926608181L96.61540030784607,121.79607982045252L96.88829894638062,122.64986365562238L96.94399254608155,121.44767438472887L97.11107334518432,121.32488442725372L97.16676694488525,120.39389009039627L97.39511070365907,121.46997666190961L97.42295750350952,122.14694534572247L97.61788510246276,122.57622751193995L97.63459318237305,122.13032486115567L98.04115646018982,119.87134812465914L98.1358355796814,119.65820642672168L98.41430357818604,120.12850589513444L98.45885845794679,120.20784927869902L98.5145520576477,120.49734858490709L98.84871365585326,120.69079296631948L98.89326853561403,121.77951839712843L99.43349645271302,121.97312964632256L99.61728533172608,122.56189482664273L99.86233717041016,123.17269672216557L100.10738900909423,123.05381490375888L100.66432500610351,123.25546251619146L100.94279300460815,123.08115894492013L101.49415964164733,123.23179616181552L101.833890599823,124.15510676374045L102.15691347808837,124.4069895449313L102.25159259757996,125.09138884922582L102.32956363716126,125.79318601587987L102.46879763641357,126.39033612057526L102.61917035560609,126.76689306191808L102.72498819503785,127.212445303479L102.83637539443968,128.15891367009343L102.86979155426025,127.48017376834768L102.95333195381164,127.62707732619434L103.55482283058167,128.2787425510244L104.23985410690308,127.84923087287001L104.31782514648438,127.12286549894633L104.48490594558716,128.12611586617177L104.71881906433106,128.68252996016244L105.3815729007721,129.21739060301692L105.38714226074218,128.54829168353785L105.58763921966552,129.5291911311181L105.69902641906738,128.71409570003956L105.7714280986786,128.6241637040383L106.11672841682433,128.40010138754388L106.12229777679444,128.2689075888904L106.27823985595704,127.3133383094125L106.65138697395325,126.87688614701352L106.74606609344484,125.88634520020815L106.86859201278688,126.45887550231714L106.97997921218871,127.06196477679312L107.12478257141113,127.93038967470181L107.35312633018494,128.4146790684463L107.42552800979615,129.03647594300682L107.54805392913819,129.05918981629813L107.82095256767273,129.60614577389447L107.82652192764283,129.76087919927613L107.83209128761291,130.41315754071562L107.91006232719421,130.06436823296005L108.03815760650635,130.5164299503243L108.08271248626708,130.50888200615194L108.2275158454895,130.36574992483264L108.87913096199037,130.97647835259824L109.1464602405548,130.11482354869216L109.41378951911926,130.50196079118047L109.55302351837159,131.13866213501757L109.98743359603883,131.74268512977216L110.12109823532104,132.0119610058831L110.18793055496216,132.62636119981002L110.63347935256958,133.25203574924276L110.72815847206115,133.36043306147775L111.21269278945924,132.51887482820962L111.24053958930969,132.71924410063068L111.24610894927977,132.86337225503647L111.67494966697693,132.78236068714995L112.09265166473389,132.41114398944467L112.13163718452454,132.0423313413717L112.14834526443481,132.35536767539108L112.19846950416566,133.26699580190723L112.57161662216187,132.40058268985837L112.72755870132447,133.18985715092606L113.12298325920105,132.6726255255087L113.23993981857299,132.71090270795344L113.41258997764587,132.7487586442859L113.73004349594116,132.46360850994603L113.81915325546265,132.27742779767928L113.83586133537293,131.868528715023L114.40950541229249,132.494682540609L114.50418453178406,132.8583531041506L114.57101685142517,133.77330290236083L114.99428820915222,132.89748643487295L115.56236292610168,133.02627841297286L116.73192851982115,132.20349917983432L117.13849179763794,132.0602399762683L117.1719079574585,132.41032964772418L117.2554483570099,132.41465288504767L117.4058210762024,132.56926128851924L117.76226011428834,132.52134088623663L117.97389579315185,132.86585112782893L118.01845067291259,132.88976429367887L118.02402003288269,133.75863124828982L118.29691867141723,133.5728270380798L118.402736510849,132.6975970386919L118.77588362884521,132.5000790062111L118.83157722854615,132.62094207655332L118.90397890815736,132.7281917917933L119.88975562286376,133.0783176866276L119.89532498283387,133.37713200128874L120.42998353996276,133.78887285455986L120.50795457954406,134.57501606466963L120.54694009933472,134.45857564884255L120.8699629776001,134.62741111287133L120.91451785736083,134.31772481368156L121.0203356967926,134.55344939816044L121.03147441673278,134.7994843555748L121.54942489395143,135.3319743742452L122.01725113143921,135.83326258720388L122.29014976997375,135.93721008450552L123.07542952575683,136.2365863376416L123.40402176399232,136.87139060748802L123.57667192306519,136.89988645508387L123.66578168258667,136.83495555213722L123.8774173614502,136.70043676148623L124.15031599998476,137.145655993039L124.16702407989501,137.26521986370804L124.20044023971558,136.28195427006816L124.36752103881835,135.82128041632848L124.38979847869874,136.433580726864L124.41764527854919,136.58812205837125L124.54574055786132,136.80794530331892L124.61257287750244,137.31738872766755L124.66826647720337,138.15053776559805L125.28646543388366,137.97685678607328L125.44240751304626,137.40128719656005L125.92694183044435,137.11676938185204L126.38919870796204,137.29520681566316L127.2635882232666,137.24008306381216L127.30257374305725,137.31186970851013L127.83723230018616,137.76074676509108L128.13797773857118,138.57254293507285L128.39973765716553,138.3776454268261L128.4164457370758,139.1403617614728L128.50555549659728,139.21474649999595L128.8118702949524,139.98643604114073L129.14603189315795,140.7932661537146L129.1794480529785,141.23005004463454L129.20729485282897,141.9970902910804L129.4133611717224,142.22613441803642L129.4244998916626,142.75658649093316L129.54702581100463,143.24588912650836L129.6472742904663,142.60337563291728L129.87004868927002,143.06727447220766L129.8811874092102,142.09057633314913L129.8978954891205,142.19263053364108L130.53837188568116,142.9837660409398L130.93936580352783,141.10118365544668L131.37934524116517,140.66454726220414L131.8972957183838,140.47071175564895L132.54334147491457,139.94597666574754L132.61574315452575,139.88698716214927L133.50127138977052,139.95286687285892L133.53468754959107,140.22192565187908L133.67949090881348,139.88359676875868L133.86327978782654,140.3523799480092L134.13617842636108,140.41611565426854L134.17516394615174,141.03914432100387L134.3645221851349,141.01666061674663L134.48147874450683,140.30269510565674L134.5928659439087,140.80610953825212L134.68754506340028,140.5072447951206L134.69868378334044,140.331111059685L134.78222418289184,139.2153299346434L135.16094066085816,139.4003885024639L135.99634465637206,138.9523690748803L136.33050625457764,139.72542624280084L136.5198644935608,139.2474570670298L136.59783553314207,139.0895721037558L136.9654132911682,139.47814237904407L137.35526848907472,139.00408152070364L137.69499944725035,139.75456278674795L137.91777384605408,139.8488826221622L138.24636608428955,139.60019111051145L138.8255795211792,139.67021473589276L139.0650619998932,140.03193402263378L139.1374636795044,140.29687820751357L139.4215010379791,140.47685915206543L139.71667711639404,140.1040955322438L139.87261919555664,139.48746682510983L139.88375791549683,139.38795705228063L139.9227434352875,140.11750220462054L140.02856127471924,140.59569564789004L140.5075262321472,140.63031171823118L140.70245383110046,141.37647321822217L141.2928059879303,141.5588017336714L141.53785782661438,141.02500898630277L141.71050798568726,141.2705297732919L142.0613776638031,140.57919877356122L142.28415206260684,140.9375232728604L142.774255739975,140.9889103106505L142.85779613952636,140.75746602981116L143.0861398983002,141.4724973285432L143.4425789363861,141.95097609760796L143.93268261375425,142.40477077984582L144.02736173324584,142.75758301956554L144.16102637252808,143.17082350136474L144.4617718109131,142.6756107271596L144.65113004989624,143.1178593352636L144.74023980941772,142.38207452334362L144.78479468917848,141.9657520189424L144.88504316864015,141.35386472468173L145.03541588783264,141.7426858290161L145.33616132621765,142.17338726495402L145.40299364585877,141.89992707924918L146.16599596176147,142.0613543124893L146.20498148155212,141.9775374529199L146.26624444122314,142.22275823285673L146.32193804092407,141.6915508702755L146.62825283927918,141.78160585877032L146.63939155921938,141.3705665975099L146.67837707901003,141.28316583276606L146.80090299835206,141.61183585913744L146.87330467796326,141.9688032637939L146.88444339790345,141.97646346906376L147.4469487548828,142.40213359668124L147.458087474823,142.73843483021082L147.80338779296875,142.84152824739945L148.19324299087526,143.25567972598267L148.58309818878175,142.9340872775155L148.7557483478546,143.22774612255617L149.6134297832489,143.75381199969044L149.741525062561,144.07060795923084L149.88632842178345,144.36163297714035L149.9475913814545,143.92539897097151L150.27061425971985,143.24385777840564L150.521235458374,143.0142435244933L150.64376137771606,143.25657037640624L150.6771775375366,143.21817761783905L151.13943441505432,143.45141347109177L151.17285057487487,143.9465329219037L151.28980713424681,143.66825863197704L152.0026852104187,144.27589697581863L152.39810976829528,144.2927857734696L152.40924848823548,144.43658417201928L152.44266464805602,144.4800998572928L152.7823956062317,143.6016968364998L152.89378280563352,143.66241351116858L152.9996006450653,142.97202385265794L153.1444040042877,143.2190107324626L153.33933160324096,143.34591671781905L153.43401072273255,142.94701938689815L153.54539792213438,141.36755008715048L154.57016015663146,141.00747570700642L154.7149635158539,141.68407237791743L154.83748943519595,141.75889129591823L154.94887663459778,142.048175014132L155.03241703414915,141.81135535410937L155.28303823280334,141.84345949159288L155.4668271118164,141.9781336908574L155.57821431121826,142.66152653777704L155.6339079109192,142.76393460409025L155.73415639038086,143.4324072298L155.7898499900818,143.29107685974898L156.01819374885557,143.17988733050564L156.03490182876587,143.2863456801526L157.0151091835022,143.8046421424017L157.19889806251524,143.480866263583L157.24902230224612,143.6287732039081L157.51078222084044,143.04330735217493L157.91177613868712,143.38617193453172L157.98417781829835,144.05447920215292L158.22922965698243,144.28349215149382L158.323908776474,144.46635732671572L158.59680741500856,145.12177587095178L158.65807037467957,145.5159092495911L158.82515117378236,145.74470854307506L158.91983029327395,146.0968502368293L159.3375322910309,145.31760046744643L159.77194236869812,144.5730120877879L159.7830810886383,145.2323701965439L160.724302923584,145.04749807729894L161.10301940155028,145.67083181973237L161.35364060020447,145.6540099267278L161.45945843963622,146.30180275191054L161.53186011924743,146.2525052808558L162.07208803634646,146.4992768234327L162.0776573963165,146.92179847745965L162.5454836338043,147.01865832036947L162.57333043365477,146.7160282440917L162.59003851356508,147.12544521601248L162.6513014732361,146.94362610777463L163.23608427009583,147.2598460857982L163.50341354866026,146.8858560662161L163.90440746650694,147.29909903267244L164.0436414657593,147.22038271910125L164.06591890563965,147.5232525017752L164.17173674507143,147.5249022934067L165.60863161735534,147.44545180166872L165.62533969726564,146.2054175103863L165.71444945678712,146.1254457213687L166.70579553146362,145.3335705449353L166.7392116912842,145.14075574101315L167.2738702484131,145.56810058199704L167.62473992652895,145.53691831676147L167.88649984512327,145.6602056398581L167.89763856506346,145.85420312374444L168.03687256431581,145.89341476314604L168.06471936416628,145.975254041005L168.2596469631195,146.38276047883872L168.60494728126525,146.68407209209326L168.6383634410858,146.2641220128429L169.06720415878294,146.20593334476035L169.18416071815489,145.66742799087842L169.5183223163605,146.07278574159008L169.55173847618104,146.2395972243333L169.729957995224,146.5014032107095L170.13652127304078,146.50547586099617L170.1977842327118,146.9051553165052L170.20892295265196,146.75292299194356L170.34815695190431,147.145456640084L170.44840543136598,147.0760752186222L171.08331246795655,147.00101006636456L171.111159267807,147.1467806391743L171.2615319869995,147.4738781020431L171.3729191864014,147.5171142189705L171.46202894592287,147.30573526136791L171.53999998550415,147.15259138277398L172.57590093994142,146.9459643818143L172.82652213859558,147.25108910168214L172.89892381820678,147.51517073760965L173.6452180541992,148.03936200503964L174.09076685180665,148.3570147832464L174.5641624492645,148.96943413211972L174.69782708854675,148.4666558204517L174.70339644851686,148.81401401495026L174.85376916770934,148.78898082752534L175.0375580467224,148.65781262405147L175.1879307659149,148.84109585277554L175.27704052543638,148.04376842118577L175.54993916397095,148.2895510139806L175.87296204223634,148.8957619317401L176.2795253200531,149.24054268805375L176.7306434776306,149.45495627810388L176.82532259712218,150.0595254208354L176.87544683685303,149.90921517593242L176.8865855567932,149.9053099051898L176.92557107658385,150.29226571818913L177.36555051422118,150.2651189399822L177.52149259338378,149.75416867890135L177.61617171287537,149.21522235366578L177.9670413909912,149.52905624616153L177.99488819084166,149.45435024189803L178.21209322967528,149.72379419244172L178.4404369884491,150.16751170298303L178.57410162773132,150.15209165762732L178.6520726673126,149.8487147633815L178.85813898620606,150.12758991471367L178.94724874572756,150.2401313894891L179.01965042533874,149.98061986340227L179.0586359451294,148.90842707288112L179.09762146492005,149.08254101833992L179.73252850151061,148.66882212320039L180.33958873825074,148.81845100021823L180.84083113555906,149.15211255216477L180.94664897499084,149.73398360574754L181.48130753211976,149.6980939706981L181.48687689208987,150.1558584996991L181.61497217140197,150.20701651785748L181.71522065086364,150.582418204941L181.86002401008605,150.60689822583694L182.07722904891966,150.93859179964784L182.19418560829163,151.10493401168563L182.27772600784303,151.0504284140947L182.58404080619812,151.20001049406116L183.17996232299805,151.5144238109211L183.43058352165224,151.79551739040105L183.48627712135314,151.55417740435522L183.597664320755,151.03037530223935L183.69791280021667,150.5235760237468L184.65584271507262,150.86477361936926L184.66698143501281,150.66057740010666L184.7003975948334,150.73702408619928L184.71710567474366,150.8761305248849L184.81735415420533,151.14561925098383L184.95101879348752,151.7132267243753L185.6082032699585,151.53484204828138L185.8421163887024,151.13479077021478L185.90337934837342,151.19630594559135L185.9089487083435,150.75830011546458L186.40462174568174,150.86999580064966L186.63853486442565,151.10238744468356L187.0116819824219,151.58687092975921L187.03952878227236,151.68025318987188L187.2344563812256,151.184071142942L187.59646477928163,151.28480387377962L187.680005178833,151.47229810601536L187.71899069862366,151.8330643090871L187.72456005859377,151.82458330198557L188.5321172542572,152.38378703795996L188.55439469413759,151.98599070580934L189.12246941108705,151.73979534962018L189.47333908920288,151.32200026347073L189.90217980690002,151.81787325118952L189.98015084648134,151.74463808058098L190.11381548576352,151.69626724979815L190.21406396522522,152.04488696412764L190.24748012504577,151.7424877670701L190.35886732444766,151.9991333741533L190.72087572250368,152.07202223306095L190.79327740211485,151.93774314687485L191.01605180091858,152.14586020177495L191.03832924079896,152.44503702096165L191.43375379867555,152.61987457364725L192.05195275535584,152.2393772160366L192.19675611457825,152.08493764218014L192.35826755371093,152.131171280459L192.41953051338197,152.69009878286948L192.74812275161742,152.96051621093832L193.3106281085968,153.06046548537424L193.33290554847716,152.89492543011548L193.9956593849182,152.86166881874001L194.16830954399109,152.82099234887946L194.4467775424957,152.71765774168898L194.6027196216583,151.68616990081216L194.68626002120973,152.08547678750193L195.22091857833863,152.0888501565397L195.2264879383087,151.7182632323198L195.25990409812928,151.43893652587144L195.36572193756106,151.63605126880051L195.49938657684325,151.64984536293548L196.01176769409182,151.27229418107518L196.53528753128052,150.397030507551L198.03901472320555,150.7193867395208L198.21166488227843,151.04609427738814L198.45114736099245,150.73621210475105L198.73518471946718,150.4705250618837L198.80201703910825,150.24769287962008L198.98580591812132,150.53556884515856L199.13617863731386,150.6575453559526L199.52046447525024,150.68887696015668L199.59843551483155,151.2172427928421L199.7766550338745,151.76280542083424L199.96601327285768,151.61191067800735L200.1609408718109,150.53419814015712L200.30574423103334,151.05239633675092L200.3224523109436,150.66167920080028L200.34472975082397,150.32909391116166L200.65661390914914,149.5288599862804L200.92951254768374,149.21134733316327L201.0965933467865,149.44587757277466L201.11887078666686,149.28330406224424L201.89858118247986,149.06512332268048L201.99326030197142,149.29929089063205L202.22717342071533,149.35143335642186L202.45551717948914,149.8388349079957L202.67272221832275,149.88679543011776L202.7005690181732,149.85181308664102L203.60280533332823,149.85893380534398L203.62508277320862,149.70394779976786L203.75874741249083,149.98122027085333L203.77545549240114,149.9483418256881L203.82001037216187,149.52396832076215L203.87570397186278,149.69984064694492L203.99822989120483,149.78507686268833L204.06506221084595,149.8360118711655L204.4103625289917,149.78287057218296L204.52731908836364,149.9488929835323L205.21791972465516,149.07659318775927L205.38500052375792,149.3765417708794L205.39613924369812,149.59212268541037L205.51309580307006,149.62674207185688L205.57992812271118,149.03666887574L205.6411910823822,149.14107653201572L205.8583961212158,149.44310916766915L205.89738164100646,149.9685022080445L206.07003180007933,149.90388075533616L206.16471091957092,149.9763408340229L206.35963851852418,149.95124302124418L206.45988699798585,150.33075018026963L206.7383549964905,150.59132327249446L207.4178169128418,150.32009139805257L207.65173003158569,149.78706933657318L207.729701071167,150.0323456414071L208.0415852294922,150.09317021476184L208.13069498901368,150.0754542594229L209.11090234375,150.37300494828781L209.13874914360045,149.89282849432317L209.2167201831818,149.98449590471364L209.2501363430023,150.02481400765245L209.2557057029724,150.0501124893088L209.31696866264343,149.48427073529146L209.46734138183592,148.96945563169623L209.8961820995331,148.8993457390446L209.9463063392639,148.67949198989126L209.9630144191742,148.4808046206284L210.31388409729004,148.30070179005773L210.40856321678163,148.8336785000141L211.08802513313293,148.43269476136575L211.15485745277405,148.5361144267999L211.39433993148805,148.84358532236286L213.24893680152894,149.0970986370551L213.45500312042236,148.76803014396728L213.67220815925597,148.79265367993892L213.67777751922605,148.65444260910348L213.86156639823912,148.98503120981823L213.9506761577606,148.60015016633088L214.07877143707276,148.8934425374302L214.2681296760559,149.04382238874408L214.64684615402223,148.69525294325882L215.0422707118988,148.52165432872766L215.1258111114502,148.53525025378966L215.1425191913605,149.04385256637994L215.1982127910614,149.30518774107838L215.33187743034364,149.12540558764513L215.93893766708374,148.86221360035952L215.95007638702393,148.54211234508278L216.2730992652893,148.4852851396215L216.70193998298643,148.98774488530688L216.85788206214903,149.1884454260989L217.11407262077333,149.5044123802589L217.17533558044434,149.4991512674953L217.2700146999359,149.75819454433096L217.5874682182312,149.77514861505057L217.8826442966461,149.15485083312618L218.23351397476196,149.2714041642679L218.3616092540741,149.46461239876587L218.72918701210023,149.7886050066979L219.2081519695282,149.74930383686217L219.40864892845156,149.24991185184697L219.41421828842164,149.51430361150156L220.59492260208128,149.2282018961557L220.817697000885,149.53380320822228L221.1240117992401,149.05248190660208L221.16856667900086,148.96051881895664L221.20755219879152,148.84800565950587L221.73664139595033,148.48652010313523L221.77005755577085,148.20373775194244L221.8925834751129,148.31116595067869L222.09864979400635,148.09130254467334L222.22674507331848,148.01316381019555L223.2849234676361,148.26900418145334L223.6079463459015,148.1810460123576L223.9198305042267,148.27224462406934L224.09248066329954,148.15634527210798L224.18715978279113,148.3851540142423L224.45448906135562,148.74080140598758L224.57701498069764,148.91824675431627L224.81092809944153,149.25191649118764L224.81649745941164,148.54870492416578L225.57393041534422,148.6168494825852L225.86353713378907,148.8775765007463L226.27566977157593,149.0062710872935L226.2979472114563,148.1506929220163L226.58755392990113,148.56021719914804L226.74349600906373,148.6176600211292L226.77691216888425,148.3771345214748L227.35055624580383,148.77781590133495L227.79610504341125,148.9551798374546L228.0634343219757,149.03489777710692L228.26950064086913,148.5177721069752L229.24970799560546,148.47165544134617L229.461343674469,148.34719120495953L230.12966687088013,148.54598627137437L230.2354847103119,148.49095170744468L230.49724462890626,148.72686060362295L230.53623014869692,148.17118366664494L230.89823854675294,148.33220200145792L231.73364254226684,147.4960266293096L232.25159301948545,147.32592665591676L232.4576593383789,147.79912587554284L232.51892229804994,147.68312746489997L232.87536133613585,148.16893134667262L233.0535808551788,148.19639767048508L233.14269061470034,148.1492272609382L233.48799093284606,148.48475028780626L233.76645893135068,148.73016640768975L233.79987509117126,148.75649729570168L233.93910909042359,149.08199118392008L233.95581717033386,148.37302175776892L234.95830196495058,147.51791119536756L235.11981340408326,146.95183298118008L235.19778444366455,146.8912770779737L235.3927120426178,146.97548902232012L235.6990268409729,146.57718354584966L235.82155276031494,146.18629658016698L236.1724224384308,146.48017349764984L236.25039347801209,146.74940478042043L236.6848035556793,146.45902221525552L236.71821971549988,146.7474461610366L236.81289883499147,146.66198626289605L236.9187166744232,146.78047044691357L236.94656347427366,146.4878308372053L237.04124259376525,146.3591691847565L237.2306008327484,146.45113295713875L237.28072507247927,146.5868138304401L237.45337523155212,146.1217017049774L237.75412066993712,146.18725963808822L237.96575634880068,146.16947209167796L237.98803378868104,145.95459666197695L238.13840650787353,146.0943555016479L238.25536306724547,146.29077801699475L238.7844522644043,146.7659006591041L238.80116034431455,146.81481058651684L238.9292556236267,146.93187730517442L239.29126402168276,146.96629259639L239.36923506126402,147.14179585774667L239.74238217926026,147.34721880081287L239.81478385887146,147.79582020972896L239.92617105827333,147.9699433139323L240.46639897537233,147.86964971829403L240.67246529426575,148.12899784319143L241.708366248703,148.19439802132905L242.0870827266693,148.67578959980273L242.29314904556276,148.93210158746064L243.59637927856446,149.17178248137836L243.91383279685974,149.2471005990168L244.02521999626163,149.04755296973232L244.23128631515505,148.8650786088837L244.36495095443726,149.1144189008698L244.38165903434754,149.20905421557293L244.45963007392882,149.41811743813108L244.47633815383912,149.24451527897932L244.8606239917755,149.1451599081243L245.31731150932313,149.39244501857257L245.45654550857543,148.75227209193775L245.46211486854554,149.21123404447073L245.94107982597353,148.77429139853623L246.14157678489684,148.93687365147156L246.23068654441832,148.72180601514555L246.3253656639099,148.89285428857545L246.34764310379026,149.02823467620988L246.84331614112853,149.09530358993945L247.39468277816775,149.2058089197327L247.4615150978088,148.62967858006414L247.7288443763733,148.58645153532902L247.80124605598448,148.77928517613256L247.85137029571533,148.66462932289093L247.92377197532653,148.7001802553912L248.1799625339508,148.13664914368943L248.1966706138611,147.87082232737083L248.4194450126648,147.55905608884623L248.83714701042175,146.89652232234232L249.08219884910585,147.18661391436058L249.1100456489563,147.52766335301305L249.32168132781982,147.4789111624356L249.4274991672516,147.24518380716594L249.43863788719176,147.10926401817702L249.52217828674318,147.1037690524328L250.051267483902,147.4620483115134L250.44112268180848,147.32603862329358L250.48567756156922,147.64972881196806L251.0203361186981,147.6019117908875L251.53828659591673,147.06253050597522L251.77776907463075,147.149077270217L251.84460139427188,147.28841754550731L251.8835869140625,147.56259231956267L251.92257243385316,147.8202011048934L252.01168219337464,147.74399737500602L252.22331787223814,147.73717889219273L252.35698251152039,147.2567237148868L252.6577279499054,146.93088353202765L252.75797642936706,146.7996345746402L252.77468450927734,146.70287103328337L252.79696194915772,146.7745583481456L252.8303781089783,146.78405666269884L253.08656866760253,147.20481085829616L253.26478818664552,146.88672908507155L253.77159994392395,146.39798988923118L253.77716930389406,146.61819628361135L253.78273866386414,146.21162529360467L254.64598945922853,145.68803314055535L255.01356721725463,145.77171790612542L255.15837057647704,145.53504471088598L255.275327135849,145.86342618016735" fill="none"></path></g></g></g></g><g opacity="0.2"><g><g><g><path style="fill: none;" stroke="rgb(255, 112, 67)" stroke-width="2px" d="M23.41730222091675,-37.28249214530343L23.64007661972046,10.989335017878423L23.745894459152222,8.043558508693897L23.946391418075564,291.1087928839044L24.057778617477418,127.97464448564897L24.085625417327883,-152.9267727070773L24.24156749649048,-33.5395259981637L24.520035494995117,23.620710813395956L24.581298454666136,183.66650355787263L25.177219971466062,129.9409069577207L25.305315250778197,8.7897558930052L25.477965409851073,-375.2087135356609L25.77871084823608,188.27340911094834L26.29666132545471,49.57503569164535L26.419187244796753,-145.50351900142385L27.399394599533082,-104.5565928800607L27.427241399383547,145.70088157560215L27.43838011932373,-120.81741042574856L28.14568883552551,-225.91979673994103L28.18467435531616,155.12296718816475L28.195813075256346,19.14727550722164L28.290492194747923,222.39343607946896L28.396310034179688,97.81824744310399L29.114757470321656,-559.947585652118L29.192728509902953,-334.70944140895233L29.409933548736575,140.83772603566223L29.79421938667297,-143.23988470209963L29.855482346343994,123.1960171731739L29.994716345596313,-263.20986655087495L30.947076900482177,-209.01819313726207L31.03061730003357,17.68815311087902L31.130865779495238,-68.85639182978093L31.286807858657838,134.8808291241975L31.414903137969972,72.9171864553134L31.710079216384887,212.33703729219854L31.804758335876464,-70.87739555519006L31.866021295547483,72.84449100813121L32.0108246547699,-260.97856737390737L32.20575225372314,396.20198609435624L32.26701521339417,118.48302664439558L32.512067052078244,49.20130728469742L32.76825761070251,-43.02519816021562L32.79053505058289,235.27104500329457L32.88521417007446,3.123933660870299L32.918630329895024,20.002340327945596L33.469996966934204,288.50118786269957L33.71504880561829,-141.1614158407632L34.03250232391357,126.22591186298182L34.349955842208864,-222.03905485406437L35.44155039634704,400.68272902102683L35.69217159500122,138.22886158487285L35.75900391464233,54.837342542704896L36.05974935302734,-76.89336850088786L36.210122072219846,53.98087184709586L36.366064151382446,27.216763035045826L36.37720287132263,148.60864088476956L36.427327111053465,322.51086829727217L36.98983246803284,89.91755276866859L37.58575398483276,153.01532642296314L37.697141184234624,-51.86850265603074L39.540599334335326,279.1329355426111L39.61300101394654,118.93281874043784L39.718818853378295,99.64629484053721L40.593208368682866,421.65637234453L41.51772212371826,12.499010331963365L41.86859180183411,-108.32820372798376L42.50906819839478,21.469839395478424L42.54248435821533,165.29971472340918L42.65387155761719,293.27843858934966L43.72875803184509,262.092369994261L43.734327391815185,126.06447056367955L43.912546910858154,271.73085782741407L44.17430682945251,81.10544112186595L44.22443106918335,273.9659792267255L44.302402108764646,-80.9251247806692L44.65884114685059,61.88490547438331L44.74795090637207,274.1551426214177L44.87047682571411,44.346411259707274L44.9595865852356,130.29644685834302L45.171222264099114,273.6559105919172L45.29374818344117,84.68145962640357L45.299317543411256,100.39629980266226L45.304886903381345,317.0920699980682L47.22074673309326,264.03959457726404L48.07842816848755,73.00607875273401L48.083997528457644,24.49454992164763L48.25107832756043,352.1751505519223L48.39031232681275,-54.96927687129431L48.579670565795894,95.74783307329663L49.002941923522954,26.458908604812475L49.15331464271545,107.64876899883971L49.35938096160889,129.6058108210521L49.54873920059204,-191.3373248014125L49.57101664047241,33.22017097395831L50.378573836135864,-65.070956545488L50.785137113952636,-74.44064402952161L51.26410207138061,132.4060207015116L51.47573775024414,157.57639459697353L51.531431349945066,206.69363583557453L51.60383302955627,125.31686730448318L51.826607428359985,117.03055286469696L52.19418518638611,-93.12987612668803L52.49493062477112,-48.44824337313492L52.61745654411316,42.01406482537521L52.92934070243836,37.185294641999306L52.95718750228882,316.24235043081353L52.99617302207947,58.961857275840764L53.06857470169068,-48.06127631101925L53.475137979507444,182.02778064496226L53.92068677711487,130.33188662107085L54.1267530960083,257.81240357461445L54.70039717292785,95.35281151965192L54.71153589286804,171.32488443398015L55.12366853065491,73.81436894446928L55.24062509002686,132.43677421462252L55.296318689727784,329.91437385414935L56.11501460533142,194.9740724147356L56.21526308479309,19.785132658202194L56.410190683746336,304.09750985724077L56.744352281951905,152.4383905170023L56.95041860084533,30.171677730983323L57.06180580024719,253.10168294799428L57.2845801990509,326.4209431768446L57.57975627746582,68.95379084181864L57.65215795707703,-29.741613574265784L57.9807501953125,75.78971102517373L58.23694075393677,169.46699148429929L58.77159931106568,-85.78382838347306L58.85513971061707,-169.12045972700304L59.913318104934696,97.12822647607528L60.61505746116638,441.010021278494L60.84897057991028,-281.79008476632816L61.272241937637325,174.60370684562588L61.57298737602234,46.0913070155006L61.92385705413818,143.30354271689566L61.94613449401856,13.554529480050308L61.996258733749386,142.21548342303137L62.07979913330078,125.6869931570381L62.24131057243348,149.57107939984078L62.642304490280154,264.8893141445187L63.188101767349245,369.9298639305631L63.20480984725952,143.33628788609377L63.27721152687073,55.12050917580619L63.58909568519592,92.50834586937277L63.82857816390991,437.69702585596997L64.46905456047058,220.26062136710652L65.31559727592469,119.13769571587677L65.39356831550599,-26.559357193788347L65.41027639541626,155.10902559555447L65.77785415344238,116.36844437194894L65.81127031326294,-208.18122895568342L66.35149823036194,287.41068293231643L66.59098070907592,15.452372707715247L66.70236790847778,405.3055092446798L66.85830998764038,350.47101052326593L66.93628102722168,93.98521743613941L67.21474902572632,195.66189670225637L68.59595029830932,294.3529956265053L69.00808293609619,119.5820986248596L70.37257612876893,327.4286332897791L71.33607540359496,329.87219028533224L71.79833228111268,123.75054694815394L72.0879389995575,307.2981890565247L74.14303282852173,432.72147720900716L74.34909914741517,114.99127276578189L74.38808466720582,126.92703338379054L74.41593146705627,179.52549908389727L75.57435834083557,-89.34947856073326L76.05889265823365,110.89039430415126L76.07560073814392,432.84301399448174L77.80210232887268,-68.56303260376286L77.98032184791566,92.1488519456362L78.04715416755676,59.081620242612715L78.15854136695862,-60.832595235721506L78.45928680534364,265.5043844067371L78.58738208465576,80.37626068147603L79.08305512199402,328.2613944912326L79.51746519966126,412.2342830708348L79.60100559921266,3.9605756627878113L79.79036383819579,27.27800645972672L80.21363519592285,444.27058379173013L81.18827319068909,277.4834928337021L81.20498127059936,152.34686220417217L81.3219378299713,448.2530912034061L81.91228998680114,210.1654292197262L82.40239366416931,41.77137567333991L82.9481909412384,156.21427756770078L82.97046838111878,171.87947278708037L83.0205926208496,238.4574311412469L83.35475421905518,67.9928753578729L83.49398821830749,-379.4093505360113L83.78359493675232,309.5126030903414L84.20686629447937,175.98954801358417L84.38508581352234,125.34067931034905L84.7359554916382,220.6132909398385L85.03113157005309,-286.8828665374963L85.17593492927551,4.904620648112702L85.31516892852783,185.73047433445674L86.37891668281554,325.54514170156585L86.60726044158935,154.43479143192272L86.70750892105103,305.97775035978225L86.90800587997437,333.3230273469784L86.99711563949585,20.136249910748568L87.33684659767151,198.08990120689344L87.8882132347107,-427.03336226777674L88.48970411148072,165.65422950692783L88.52312027130128,36.3664018105058L88.74589467010497,98.6268305254403L89.05777882843017,129.7523146997005L89.06334818840027,128.08928186690244L89.30840002708436,220.10988521927285L90.7230174594879,442.8469615668017L91.2799534564972,15.014618415376406L91.58626825485229,318.93605064419893L92.32142377090454,330.877742296879L92.78925000839233,22.600045646834726L92.91177592773438,178.9789066442059L93.44086512489318,-73.16164935282866L93.47985064468384,159.0134623310566L93.95881560211181,201.595479521877L94.04235600166321,165.42428109603847L94.15931256103516,84.7471256991604L94.32639336013794,70.99755216692988L94.46562735939025,352.08989009795476L95.11167311592102,156.69022479441736L95.62405423316956,-12.9869824751969L95.67974783287048,48.988697997390595L95.75771887245178,-45.45595583650265L96.57641478805542,320.1021799277748L96.61540030784607,175.38285442255602L96.88829894638062,361.8757897706195L96.94399254608155,-216.2638379824349L97.11107334518432,86.74332159066009L97.16676694488525,-142.47163265552877L98.04115646018982,-526.0272807844577L98.1358355796814,58.56361392558443L98.41430357818604,255.2694102200026L98.45885845794679,143.0636946036906L98.5145520576477,204.09702885643935L98.84871365585326,176.68976157352964L98.89326853561403,437.7201028894838L99.86233717041016,301.7207026296683L100.10738900909423,88.21858225912091L100.66432500610351,182.4854222091128L100.94279300460815,71.76003426865991L101.49415964164733,167.69084430137326L101.833890599823,397.31075641484773L102.86979155426025,-77.12551359128514L102.95333195381164,172.0135288151839L103.55482283058167,325.6314712062272L105.69902641906738,-122.65606046294L105.7714280986786,100.82761050177784L106.11672841682433,58.991409937487354L106.12229777679444,87.53805094756643L106.27823985595704,-170.01377606022493L107.42552800979615,325.49464736194375L107.54805392913819,136.25120566842003L107.82095256767273,303.1649754725374L107.83209128761291,338.281496810767L107.91006232719421,18.674755100537393L108.03815760650635,275.19443563020616L108.08271248626708,128.08811030449823L108.2275158454895,84.36343901177658L108.87913096199037,327.67697523041477L110.63347935256958,337.72217095219474L110.72815847206115,168.857486143501L111.21269278945924,-143.63276815435665L111.24610894927977,180.35133342263583L111.67494966697693,106.03608406036322L112.09265166473389,9.604255365482851L112.13163718452454,9.784324507012307L112.14834526443481,236.3329931000747L113.12298325920105,-40.507744866015926L113.23993981857299,145.55235675180646L113.41258997764587,145.47400851602387L113.73004349594116,36.42155311068472L113.81915325546265,69.44619852031461L113.83586133537293,-6.394952295341454L116.73192851982115,-149.2620669285398L117.13849179763794,82.95841350944907L117.1719079574585,252.63266258399267L117.2554483570099,133.90210589170755L117.4058210762024,185.86508685470227L117.76226011428834,115.97110898255586L117.97389579315185,252.0742666530787L118.01845067291259,141.17988083581628L118.02402003288269,435.5405840249336L118.29691867141723,68.9167108917249L118.402736510849,-172.434575456076L118.77588362884521,63.51074120084722L118.83157722854615,174.91466879676742L118.90397890815736,170.32779696080397L119.88975562286376,256.05248253098694L120.50795457954406,412.21705012009517L120.54694009933472,93.26013746416426L120.8699629776001,194.47296588538825L120.91451785736083,24.346464433753532L121.0203356967926,218.41229129555015L122.01725113143921,315.1325586543509L122.29014976997375,173.18350961016364L123.07542952575683,243.70040721263672L123.40402176399232,365.1464405344957L123.57667192306519,147.16518813558346L123.66578168258667,113.402868458133L123.8774173614502,88.06982312284437L124.15031599998476,298.38308242986056L124.66826647720337,444.1077421092414L125.28646543388366,74.08628857849L125.44240751304626,-74.691944165228L125.92694183044435,32.09462168315879L126.38919870796204,203.27301043942737L127.2635882232666,116.82321560820914L127.30257374305725,163.94550574036498L127.83723230018616,304.5809697278745L128.13797773857118,440.77695358270336L128.39973765716553,65.70170934204937L128.4164457370758,424.0295623731793L128.50555549659728,167.04540128382536L128.8118702949524,429.1921729247718L131.37934524116517,-26.495594909938358L131.8972957183838,66.1440620168248L132.54334147491457,-61.58784293960548L132.61574315452575,117.19474733564915L133.50127138977052,165.3361210251205L133.53468754959107,244.05458517196413L133.67949090881348,9.111437640145416L133.86327978782654,321.83534541499574L134.13617842636108,165.12951599513534L134.17516394615174,382.9981666024715L134.3645221851349,132.27117386878527L134.48147874450683,-137.8440197369584L134.5928659439087,337.2331168710809L134.68754506340028,23.711419032543112L134.69868378334044,71.39122642380973L134.78222418289184,-298.18656923842536L136.5198644935608,-49.281927179981736L136.59783553314207,76.71823280864264L136.9654132911682,293.21476417268L137.91777384605408,177.33678620032327L138.24636608428955,40.6068719325999L138.8255795211792,167.58566728653392L139.0650619998932,284.4512430765926L139.87261919555664,-108.18351577106193L139.88375791549683,99.36008214518493L139.9227434352875,434.0128996000162L140.02856127471924,333.519776608238L140.5075262321472,154.6165593389383L140.70245383110046,443.2988679668704L142.28415206260684,286.9905899432213L142.774255739975,161.96465731636064L142.85779613952636,46.14716125312204L143.0861398983002,434.1865965404064L145.33616132621765,321.27024228931765L145.40299364585877,28.02859720305388L146.16599596176147,209.37518108901605L146.20498148155212,106.97781520993978L146.26624444122314,244.76310218044955L146.63939155921938,-31.223171390649284L146.67837707901003,104.53332096446321L146.80090299835206,279.9995402530167L146.87330467796326,292.47752924076104L146.88444339790345,145.2106705766141L147.4469487548828,322.3693874924319L148.19324299087526,319.0682175279256L148.58309818878175,6.22927696951034L148.7557483478546,268.22687576620626L150.27061425971985,-148.81154260599493L150.521235458374,44.48849249027972L150.64376137771606,247.37530558409097L150.6771775375366,126.70039463669313L151.13943441505432,243.92953552984312L151.17285057487487,357.52556621804456L151.28980713424681,23.47148305215775L152.0026852104187,407.081542932498L152.39810976829528,151.60681552248306L152.40924848823548,206.7927207259119L152.44266464805602,163.3746619589061L152.7823956062317,-238.29805647802561L152.89378280563352,170.0942167064615L152.9996006450653,-157.96460820148724L154.7149635158539,438.8886924541086L154.83748943519595,174.66603396553066L154.94887663459778,269.4438069245354L155.03241703414915,37.387711336389366L155.28303823280334,156.0174257947308L155.4668271118164,201.51182996621532L155.73415639038086,440.0513152880199L155.7898499900818,80.50059274162446L156.01819374885557,93.71874556729834L156.03490182876587,190.7018822405471L159.7830810886383,444.3414431809569L160.724302923584,61.08188731346708L161.10301940155028,429.1174748381049L161.35364060020447,137.99548635395112L161.45945843963622,441.5754493296826L161.53186011924743,123.75520390871073L162.07208803634646,259.2493834415172L162.5454836338043,191.3789574430091L162.57333043365477,7.952440242705268L162.59003851356508,335.07482067642655L162.6513014732361,63.37850109447026L163.23608427009583,292.76696373272495L163.90440746650694,337.89601616845175L164.0436414657593,110.87232295406608L164.06591890563965,287.5391740389999L164.17173674507143,148.28848216875483L165.60863161735534,110.63045389571373L165.62533969726564,-429.0538387901039L165.71444945678712,108.98326644443283L166.70579553146362,-222.86904823933787L166.7392116912842,55.38361280273513L167.2738702484131,344.72921246921703L167.62473992652895,130.9880201455573L167.88649984512327,203.2487590976599L167.89763856506346,236.57525756073846L168.03687256431581,164.2511956606875L168.06471936416628,184.3335326127184L168.6383634410858,-51.23498028594583L169.06720415878294,118.80951179739311L169.18416071815489,-108.1563941014041L169.729957995224,270.31733849765595L170.13652127304078,148.43369732875857L170.1977842327118,336.34591462915597L170.20892295265196,74.51765785572583L170.34815695190431,333.6112024093577L170.44840543136598,114.08137882454018L171.08331246795655,111.26409342203907L171.111159267807,216.62126527009048L171.2615319869995,303.5399193754797L171.3729191864014,168.16866602793664L171.46202894592287,46.231250144685326L171.53999998550415,73.84444880919777L172.57590093994142,47.92858046686708L172.82652213859558,293.6280035217104L174.70339644851686,316.5310526962748L174.85376916770934,136.68913569511952L175.0375580467224,85.18974197547679L175.1879307659149,237.62036444795785L176.82532259712218,444.76457124890544L176.87544683685303,76.5616534933179L176.8865855567932,147.99764180190587L176.92557107658385,339.51211328243056L177.36555051422118,136.97660782005633L177.52149259338378,-100.61938168630037L177.9670413909912,303.63184309062126L177.99488819084166,112.73329125505803L178.21209322967528,282.3032566310955L178.4404369884491,368.72294230852515L178.57410162773132,142.54905652857445L178.6520726673126,0.1116709852459743L178.85813898620606,287.9123166647457L178.94724874572756,205.90067846680455L179.01965042533874,21.501002955430824L179.0586359451294,-382.4557642557188L180.94664897499084,439.5630611643602L181.48130753211976,131.80354473513867L181.48687689208987,378.62602751067254L181.61497217140197,175.76554528189627L181.71522065086364,338.32045126070756L181.86002401008605,162.86154691491546L182.07722904891966,317.14903721997365L182.19418560829163,234.54123484811237L182.27772600784303,123.68362144581255L182.58404080619812,226.37825664043098L183.43058352165224,293.3488787789037L183.48627712135314,29.900402456284912L183.597664320755,-113.2651091212697L184.65584271507262,323.36049999734655L184.66698143501281,47.326455969215395L184.7003975948334,189.46078760763086L184.95101879348752,440.070248834812L185.6082032699585,60.82393856111673L185.8421163887024,-52.492652526881855L187.71899069862366,337.2240811960383L187.72456005859377,147.46223778317483L188.5321172542572,440.2904366664211L188.55439469413759,-53.012474765636696L189.12246941108705,24.74757811190024L189.47333908920288,-64.38647121081927L189.90217980690002,408.0774844711975L189.98015084648134,113.86250167837075L190.11381548576352,126.6523312890598L190.21406396522522,332.71007321935264L190.72087572250368,189.95023709105615L190.79327740211485,82.09245315836581L191.01605180091858,260.49763924962923L192.05195275535584,-46.4041012902423L192.19675611457825,71.38413847126417L192.35826755371093,176.31210843252757L192.41953051338197,445.2842214144322L193.3106281085968,205.47812519666053L193.33290554847716,66.0001062864056L193.9956593849182,135.38893573891008L194.16830954399109,131.4306657109338L194.4467775424957,98.32872647168513L194.6027196216583,-391.71263028022554L194.68626002120973,362.63315360909615L195.22091857833863,153.86916110316264L195.2264879383087,-44.035319265138824L195.25990409812928,3.7598577338838934L195.36572193756106,255.94264855559078L195.49938657684325,158.95570430452827L196.01176769409182,-48.869888682415656L198.45114736099245,-14.114552711143695L198.73518471946718,9.006553515907132L198.80201703910825,31.497652060085713L198.98580591812132,304.08242599128636L199.13617863731386,215.7739913393546L199.52046447525024,167.4296444633512L199.59843551483155,433.77354757026666L199.7766550338745,443.7687734096571L199.96601327285768,70.77729843493547L200.1609408718109,-427.29784248053056L201.0965933467865,275.84251466316357L201.11887078666686,61.591897717086525L201.89858118247986,31.279155671697644L201.99326030197142,275.8233449733244L202.45551717948914,413.6357023576369L202.67272221832275,175.8664753830203L202.7005690181732,130.88626995075032L203.60280533332823,153.72265722451425L203.62508277320862,65.53733913673653L203.75874741249083,300.6830644527759L203.77545549240114,132.06342656545598L203.82001037216187,-81.51594370112008L204.06506221084595,177.63573963682148L204.4103625289917,120.75489116960951L204.52731908836364,240.71238123424982L205.39613924369812,267.74118992700454L205.51309580307006,168.61549992890824L205.57992812271118,-174.88472249015297L205.89738164100646,439.0922926095836L206.07003180007933,114.31369964929807L206.16471091957092,189.9161153360331L206.35963851852418,136.1061662427769L206.45988699798585,359.8536584163963L206.7383549964905,294.56812377298115L207.4178169128418,0.3328033890435493L207.65173003158569,-145.20412622902404L208.0415852294922,183.80958061648866L208.13069498901368,140.24722929487248L209.11090234375,315.57644900478186L209.2167201831818,200.96058056596712L209.2501363430023,172.4634966455868L209.2557057029724,164.14095163844988L209.31696866264343,-165.93041245653745L209.46734138183592,-138.2289951429869L209.8961820995331,109.75640976404132L209.9463063392639,25.836428210387385L209.9630144191742,37.376962251330596L210.31388409729004,47.509922641717104L210.40856321678163,447.33711223110663L213.45500312042236,-36.25359675285251L213.67220815925597,162.648205401106L213.67777751922605,70.82339941554174L213.86156639823912,335.2940639358473L214.64684615402223,-48.35340539651287L215.0422707118988,50.30989820969577L215.1258111114502,156.23290540992795L215.1425191913605,437.2212406343671L215.1982127910614,297.4924021120481L215.33187743034364,47.10426915925404L215.93893766708374,-0.6051494717793864L215.95007638702393,-33.38215587821611L216.2730992652893,116.16400673241158L216.70193998298643,434.9850218105849L217.11407262077333,329.6225083701967L217.17533558044434,146.49777832295632L217.2700146999359,297.6488642711325L217.5874682182312,159.46167281785316L217.8826442966461,-205.51082818961208L218.72918701210023,335.4516683682757L219.2081519695282,127.21113726681523L219.40864892845156,-137.3504990741784L221.1240117992401,-127.99440171403381L221.16856667900086,95.98794478804264L221.20755219879152,83.99058927663181L221.73664139595033,-60.04202492535018L221.8925834751129,210.37344012459647L222.09864979400635,20.98153218539724L222.22674507331848,102.80588148849289L223.2849234676361,296.3934033542344L223.6079463459015,97.21878824992193L223.9198305042267,201.1502565192112L224.09248066329954,80.90797427863376L224.18715978279113,281.24284620997093L226.74349600906373,182.21104229404324L226.77691216888425,7.614766668747381L227.35055624580383,383.4337535043626L228.26950064086913,-154.97349222725921L229.24970799560546,121.38765202413168L229.461343674469,75.19895068284303L230.12966687088013,265.4605826173491L230.2354847103119,116.10162103438658L230.49724462890626,287.66246633751456L231.73364254226684,-345.9866667995458L232.25159301948545,46.86907800660577L232.4576593383789,427.4521794254137L232.51892229804994,79.08262147473026L232.87536133613585,435.66736904386585L233.0535808551788,164.4621354715683L233.14269061470034,120.19541154347165L233.48799093284606,347.4565365236037L233.76645893135068,294.3664100160337L233.79987509117126,164.39260324287753L233.93910909042359,342.50233594032534L235.11981340408326,-190.11919279161907L235.19778444366455,110.80885356081716L235.3927120426178,197.18738810879836L236.71821971549988,319.4172552572045L236.81289883499147,95.46577942447935L236.9187166744232,217.80782367309L236.94656347427366,-29.05686463805609L237.04124259376525,69.12800217132697L237.2306008327484,201.6904932328597L237.75412066993712,185.64383729466428L237.96575634880068,135.45682778023496L237.98803378868104,16.459477039447556L238.13840650787353,230.37570078629855L238.7844522644043,433.66391495715874L238.80116034431455,176.3679040920288L238.9292556236267,217.7139083018613L239.29126402168276,167.78837687152503L239.36923506126402,253.39466141623097L239.92617105827333,253.59262617348497L240.46639897537233,86.99242504685853L240.67246529426575,305.65242212465887L243.91383279685974,195.14116650263827L244.02521999626163,27.378175045287996L244.23128631515505,37.53468383999944L244.36495095443726,301.337704235197L244.45963007392882,277.2144435275717L244.47633815383912,43.05754616975874L244.8606239917755,88.33412760123764L245.31731150932313,300.84041992819346L246.14157678489684,248.7602095021259L246.23068654441832,16.59034055999955L246.3253656639099,254.04585973408962L247.4615150978088,-206.43425367662257L247.7288443763733,121.92947034702586L247.80124605598448,267.76844339743286L247.85137029571533,77.87175315184304L247.92377197532653,170.66424039423742L248.1799625339508,-200.23868021435703L249.1100456489563,359.01272556717333L249.32168132781982,117.22916198127326L249.4274991672516,2.133611960578511L249.43863788719176,62.67093598043828L249.52217828674318,143.68802020890237L250.051267483902,370.3087398898246L250.44112268180848,62.677877487683325L250.48567756156922,349.2262547578365L251.0203361186981,117.8060978872341L251.53828659591673,-189.24028667596917L251.92257243385316,308.82495453718127L252.01168219337464,100.08838391377168L252.22331787223814,143.47054893761802L252.35698251152039,-153.5649227486589L252.6577279499054,-57.20502798539798L252.75797642936706,64.5244648601634L252.77468450927734,86.00933774441283L252.79696194915772,191.7660416613652L252.8303781089783,152.74879597600184L253.08656866760253,411.5855962898802" fill="none"></path></g></g></g></g></g></g><g transform="translate(51, 176)" clip-path="url(#clip_1)"><clipPath id="clip_1"><rect width="278" height="23"></rect></clipPath><g><g><line x1="0" y1="0" x2="0" y2="5" style="visibility: inherit;" fill="rgb(0, 0, 0)" stroke="rgb(204, 204, 204)" stroke-width="1px"></line><line x1="23.205666542053223" y1="0" x2="23.205666542053223" y2="5" style="visibility: inherit;" fill="rgb(0, 0, 0)" stroke="rgb(204, 204, 204)" stroke-width="1px"></line><line x1="46.411333084106445" y1="0" x2="46.411333084106445" y2="5" style="visibility: inherit;" fill="rgb(0, 0, 0)" stroke="rgb(204, 204, 204)" stroke-width="1px"></line><line x1="69.61699962615967" y1="0" x2="69.61699962615967" y2="5" style="visibility: inherit;" fill="rgb(0, 0, 0)" stroke="rgb(204, 204, 204)" stroke-width="1px"></line><line x1="92.82266616821289" y1="0" x2="92.82266616821289" y2="5" style="visibility: inherit;" fill="rgb(0, 0, 0)" stroke="rgb(204, 204, 204)" stroke-width="1px"></line><line x1="116.02833271026611" y1="0" x2="116.02833271026611" y2="5" style="visibility: inherit;" fill="rgb(0, 0, 0)" stroke="rgb(204, 204, 204)" stroke-width="1px"></line><line x1="139.23399925231934" y1="0" x2="139.23399925231934" y2="5" style="visibility: inherit;" fill="rgb(0, 0, 0)" stroke="rgb(204, 204, 204)" stroke-width="1px"></line><line x1="162.43966579437256" y1="0" x2="162.43966579437256" y2="5" style="visibility: inherit;" fill="rgb(0, 0, 0)" stroke="rgb(204, 204, 204)" stroke-width="1px"></line><line x1="185.64533233642578" y1="0" x2="185.64533233642578" y2="5" style="visibility: inherit;" fill="rgb(0, 0, 0)" stroke="rgb(204, 204, 204)" stroke-width="1px"></line><line x1="208.850998878479" y1="0" x2="208.850998878479" y2="5" style="visibility: inherit;" fill="rgb(0, 0, 0)" stroke="rgb(204, 204, 204)" stroke-width="1px"></line><line x1="232.05666542053223" y1="0" x2="232.05666542053223" y2="5" style="visibility: inherit;" fill="rgb(0, 0, 0)" stroke="rgb(204, 204, 204)" stroke-width="1px"></line><line x1="255.26233196258545" y1="0" x2="255.26233196258545" y2="5" style="visibility: inherit;" fill="rgb(0, 0, 0)" stroke="rgb(204, 204, 204)" stroke-width="1px"></line><line x1="278.4679985046387" y1="0" x2="278.4679985046387" y2="5" style="visibility: inherit;" fill="rgb(0, 0, 0)" stroke="rgb(204, 204, 204)" stroke-width="1px"></line></g><g transform="translate(0, 8)"><text style="text-anchor: middle; visibility: hidden; font-family: Roboto, sans-serif; font-size: 12px; font-weight: 200;" x="0" y="0" dx="0em" dy="0.95em" fill="rgb(33, 33, 33)" stroke="none" stroke-width="1px">-100k</text><text style="text-anchor: middle; visibility: inherit; font-family: Roboto, sans-serif; font-size: 12px; font-weight: 200;" x="23.205666542053223" y="0" dx="0em" dy="0.95em" fill="rgb(33, 33, 33)" stroke="none" stroke-width="1px">0</text><text style="text-anchor: middle; visibility: hidden; font-family: Roboto, sans-serif; font-size: 12px; font-weight: 200;" x="46.411333084106445" y="0" dx="0em" dy="0.95em" fill="rgb(33, 33, 33)" stroke="none" stroke-width="1px">100k</text><text style="text-anchor: middle; visibility: inherit; font-family: Roboto, sans-serif; font-size: 12px; font-weight: 200;" x="69.61699962615967" y="0" dx="0em" dy="0.95em" fill="rgb(33, 33, 33)" stroke="none" stroke-width="1px">200k</text><text style="text-anchor: middle; visibility: hidden; font-family: Roboto, sans-serif; font-size: 12px; font-weight: 200;" x="92.82266616821289" y="0" dx="0em" dy="0.95em" fill="rgb(33, 33, 33)" stroke="none" stroke-width="1px">300k</text><text style="text-anchor: middle; visibility: inherit; font-family: Roboto, sans-serif; font-size: 12px; font-weight: 200;" x="116.02833271026611" y="0" dx="0em" dy="0.95em" fill="rgb(33, 33, 33)" stroke="none" stroke-width="1px">400k</text><text style="text-anchor: middle; visibility: hidden; font-family: Roboto, sans-serif; font-size: 12px; font-weight: 200;" x="139.23399925231934" y="0" dx="0em" dy="0.95em" fill="rgb(33, 33, 33)" stroke="none" stroke-width="1px">500k</text><text style="text-anchor: middle; visibility: inherit; font-family: Roboto, sans-serif; font-size: 12px; font-weight: 200;" x="162.43966579437256" y="0" dx="0em" dy="0.95em" fill="rgb(33, 33, 33)" stroke="none" stroke-width="1px">600k</text><text style="text-anchor: middle; visibility: hidden; font-family: Roboto, sans-serif; font-size: 12px; font-weight: 200;" x="185.64533233642578" y="0" dx="0em" dy="0.95em" fill="rgb(33, 33, 33)" stroke="none" stroke-width="1px">700k</text><text style="text-anchor: middle; visibility: inherit; font-family: Roboto, sans-serif; font-size: 12px; font-weight: 200;" x="208.850998878479" y="0" dx="0em" dy="0.95em" fill="rgb(33, 33, 33)" stroke="none" stroke-width="1px">800k</text><text style="text-anchor: middle; visibility: hidden; font-family: Roboto, sans-serif; font-size: 12px; font-weight: 200;" x="232.05666542053223" y="0" dx="0em" dy="0.95em" fill="rgb(33, 33, 33)" stroke="none" stroke-width="1px">900k</text><text style="text-anchor: middle; visibility: inherit; font-family: Roboto, sans-serif; font-size: 12px; font-weight: 200;" x="255.26233196258545" y="0" dx="0em" dy="0.95em" fill="rgb(33, 33, 33)" stroke="none" stroke-width="1px">1M</text><text style="text-anchor: middle; visibility: hidden; font-family: Roboto, sans-serif; font-size: 12px; font-weight: 200;" x="278.4679985046387" y="0" dx="0em" dy="0.95em" fill="rgb(33, 33, 33)" stroke="none" stroke-width="1px">1.1M</text></g><line x1="0" y1="0" x2="278.4679985046387" y2="0" fill="rgb(0, 0, 0)" stroke="rgb(204, 204, 204)" stroke-width="1px"></line></g></g></g></g></svg>