<svg viewBox="0 0 330 200" xmlns="http://www.w3.org/2000/svg"><g><g><g><g><g><line x1="51.53200149536133" y1="176.89999961853027" x2="46.53200149536133" y2="176.89999961853027" style="visibility: inherit;" fill="rgb(0, 0, 0)" stroke="rgb(204, 204, 204)" stroke-width="1px"></line><line x1="51.53200149536133" y1="160.81818147139109" x2="46.53200149536133" y2="160.81818147139109" style="visibility: inherit;" fill="rgb(0, 0, 0)" stroke="rgb(204, 204, 204)" stroke-width="1px"></line><line x1="51.53200149536133" y1="144.73636332425204" x2="46.53200149536133" y2="144.73636332425204" style="visibility: inherit;" fill="rgb(0, 0, 0)" stroke="rgb(204, 204, 204)" stroke-width="1px"></line><line x1="51.53200149536133" y1="128.65454517711296" x2="46.53200149536133" y2="128.65454517711296" style="visibility: inherit;" fill="rgb(0, 0, 0)" stroke="rgb(204, 204, 204)" stroke-width="1px"></line><line x1="51.53200149536133" y1="112.57272702997379" x2="46.53200149536133" y2="112.57272702997379" style="visibility: inherit;" fill="rgb(0, 0, 0)" stroke="rgb(204, 204, 204)" stroke-width="1px"></line><line x1="51.53200149536133" y1="96.49090888283473" x2="46.53200149536133" y2="96.49090888283473" style="visibility: inherit;" fill="rgb(0, 0, 0)" stroke="rgb(204, 204, 204)" stroke-width="1px"></line><line x1="51.53200149536133" y1="80.40909073569554" x2="46.53200149536133" y2="80.40909073569554" style="visibility: inherit;" fill="rgb(0, 0, 0)" stroke="rgb(204, 204, 204)" stroke-width="1px"></line><line x1="51.53200149536133" y1="64.32727258855648" x2="46.53200149536133" y2="64.32727258855648" style="visibility: inherit;" fill="rgb(0, 0, 0)" stroke="rgb(204, 204, 204)" stroke-width="1px"></line><line x1="51.53200149536133" y1="48.24545444141744" x2="46.53200149536133" y2="48.24545444141744" style="visibility: inherit;" fill="rgb(0, 0, 0)" stroke="rgb(204, 204, 204)" stroke-width="1px"></line><line x1="51.53200149536133" y1="32.16363629427824" x2="46.53200149536133" y2="32.16363629427824" style="visibility: inherit;" fill="rgb(0, 0, 0)" stroke="rgb(204, 204, 204)" stroke-width="1px"></line><line x1="51.53200149536133" y1="16.0818181471392" x2="46.53200149536133" y2="16.0818181471392" style="visibility: inherit;" fill="rgb(0, 0, 0)" stroke="rgb(204, 204, 204)" stroke-width="1px"></line><line x1="51.53200149536133" y1="0" x2="46.53200149536133" y2="0" style="visibility: inherit;" fill="rgb(0, 0, 0)" stroke="rgb(204, 204, 204)" stroke-width="1px"></line></g><g transform="translate(41.53200149536133, 0)"><text style="text-anchor: end; visibility: hidden; font-family: Roboto, sans-serif; font-size: 12px; font-weight: 200;" x="0" y="176.89999961853027" dx="0em" dy="0.3em" fill="rgb(33, 33, 33)" stroke="none" stroke-width="1px">2.15</text><text style="text-anchor: end; visibility: inherit; font-family: Roboto, sans-serif; font-size: 12px; font-weight: 200;" x="0" y="160.81818147139109" dx="0em" dy="0.3em" fill="rgb(33, 33, 33)" stroke="none" stroke-width="1px">2.2</text><text style="text-anchor: end; visibility: hidden; font-family: Roboto, sans-serif; font-size: 12px; font-weight: 200;" x="0" y="144.73636332425204" dx="0em" dy="0.3em" fill="rgb(33, 33, 33)" stroke="none" stroke-width="1px">2.25</text><text style="text-anchor: end; visibility: inherit; font-family: Roboto, sans-serif; font-size: 12px; font-weight: 200;" x="0" y="128.65454517711296" dx="0em" dy="0.3em" fill="rgb(33, 33, 33)" stroke="none" stroke-width="1px">2.3</text><text style="text-anchor: end; visibility: hidden; font-family: Roboto, sans-serif; font-size: 12px; font-weight: 200;" x="0" y="112.57272702997379" dx="0em" dy="0.3em" fill="rgb(33, 33, 33)" stroke="none" stroke-width="1px">2.35</text><text style="text-anchor: end; visibility: inherit; font-family: Roboto, sans-serif; font-size: 12px; font-weight: 200;" x="0" y="96.49090888283473" dx="0em" dy="0.3em" fill="rgb(33, 33, 33)" stroke="none" stroke-width="1px">2.4</text><text style="text-anchor: end; visibility: hidden; font-family: Roboto, sans-serif; font-size: 12px; font-weight: 200;" x="0" y="80.40909073569554" dx="0em" dy="0.3em" fill="rgb(33, 33, 33)" stroke="none" stroke-width="1px">2.45</text><text style="text-anchor: end; visibility: inherit; font-family: Roboto, sans-serif; font-size: 12px; font-weight: 200;" x="0" y="64.32727258855648" dx="0em" dy="0.3em" fill="rgb(33, 33, 33)" stroke="none" stroke-width="1px">2.5</text><text style="text-anchor: end; visibility: hidden; font-family: Roboto, sans-serif; font-size: 12px; font-weight: 200;" x="0" y="48.24545444141744" dx="0em" dy="0.3em" fill="rgb(33, 33, 33)" stroke="none" stroke-width="1px">2.55</text><text style="text-anchor: end; visibility: inherit; font-family: Roboto, sans-serif; font-size: 12px; font-weight: 200;" x="0" y="32.16363629427824" dx="0em" dy="0.3em" fill="rgb(33, 33, 33)" stroke="none" stroke-width="1px">2.6</text><text style="text-anchor: end; visibility: hidden; font-family: Roboto, sans-serif; font-size: 12px; font-weight: 200;" x="0" y="16.0818181471392" dx="0em" dy="0.3em" fill="rgb(33, 33, 33)" stroke="none" stroke-width="1px">2.65</text><text style="text-anchor: end; visibility: hidden; font-family: Roboto, sans-serif; font-size: 12px; font-weight: 200;" x="0" y="0" dx="0em" dy="0.3em" fill="rgb(33, 33, 33)" stroke="none" stroke-width="1px">2.7</text></g><line x1="51.53200149536133" y1="0" x2="51.53200149536133" y2="176.89999961853027" fill="rgb(0, 0, 0)" stroke="rgb(204, 204, 204)" stroke-width="1px"></line></g></g><g transform="translate(51, 0)" clip-path="url(#clip_0)"><clipPath id="clip_0"><rect width="278" height="176"></rect></clipPath><g><g><g><line x1="0" y1="0" x2="0" y2="176.89999961853027" fill="rgb(0, 0, 0)" stroke="rgb(66, 66, 66)" stroke-width="1px" opacity="0.25"></line><line x1="23.205666542053223" y1="0" x2="23.205666542053223" y2="176.89999961853027" fill="rgb(0, 0, 0)" stroke="rgb(66, 66, 66)" stroke-width="1px" opacity="0.25"></line><line x1="46.411333084106445" y1="0" x2="46.411333084106445" y2="176.89999961853027" fill="rgb(0, 0, 0)" stroke="rgb(66, 66, 66)" stroke-width="1px" opacity="0.25"></line><line x1="69.61699962615967" y1="0" x2="69.61699962615967" y2="176.89999961853027" fill="rgb(0, 0, 0)" stroke="rgb(66, 66, 66)" stroke-width="1px" opacity="0.25"></line><line x1="92.82266616821289" y1="0" x2="92.82266616821289" y2="176.89999961853027" fill="rgb(0, 0, 0)" stroke="rgb(66, 66, 66)" stroke-width="1px" opacity="0.25"></line><line x1="116.02833271026611" y1="0" x2="116.02833271026611" y2="176.89999961853027" fill="rgb(0, 0, 0)" stroke="rgb(66, 66, 66)" stroke-width="1px" opacity="0.25"></line><line x1="139.23399925231934" y1="0" x2="139.23399925231934" y2="176.89999961853027" fill="rgb(0, 0, 0)" stroke="rgb(66, 66, 66)" stroke-width="1px" opacity="0.25"></line><line x1="162.43966579437256" y1="0" x2="162.43966579437256" y2="176.89999961853027" fill="rgb(0, 0, 0)" stroke="rgb(66, 66, 66)" stroke-width="1px" opacity="0.25"></line><line x1="185.64533233642578" y1="0" x2="185.64533233642578" y2="176.89999961853027" fill="rgb(0, 0, 0)" stroke="rgb(66, 66, 66)" stroke-width="1px" opacity="0.25"></line><line x1="208.850998878479" y1="0" x2="208.850998878479" y2="176.89999961853027" fill="rgb(0, 0, 0)" stroke="rgb(66, 66, 66)" stroke-width="1px" opacity="0.25"></line><line x1="232.05666542053223" y1="0" x2="232.05666542053223" y2="176.89999961853027" fill="rgb(0, 0, 0)" stroke="rgb(66, 66, 66)" stroke-width="1px" opacity="0.25"></line><line x1="255.26233196258545" y1="0" x2="255.26233196258545" y2="176.89999961853027" fill="rgb(0, 0, 0)" stroke="rgb(66, 66, 66)" stroke-width="1px" opacity="0.25"></line><line x1="278.4679985046387" y1="0" x2="278.4679985046387" y2="176.89999961853027" fill="rgb(0, 0, 0)" stroke="rgb(66, 66, 66)" stroke-width="1px" opacity="0.25"></line></g><g><line x1="0" y1="176.89999961853027" x2="278.4679985046387" y2="176.89999961853027" fill="rgb(0, 0, 0)" stroke="rgb(66, 66, 66)" stroke-width="1px" opacity="0.25"></line><line x1="0" y1="160.81818147139109" x2="278.4679985046387" y2="160.81818147139109" fill="rgb(0, 0, 0)" stroke="rgb(66, 66, 66)" stroke-width="1px" opacity="0.25"></line><line x1="0" y1="144.73636332425204" x2="278.4679985046387" y2="144.73636332425204" fill="rgb(0, 0, 0)" stroke="rgb(66, 66, 66)" stroke-width="1px" opacity="0.25"></line><line x1="0" y1="128.65454517711296" x2="278.4679985046387" y2="128.65454517711296" fill="rgb(0, 0, 0)" stroke="rgb(66, 66, 66)" stroke-width="1px" opacity="0.25"></line><line x1="0" y1="112.57272702997379" x2="278.4679985046387" y2="112.57272702997379" fill="rgb(0, 0, 0)" stroke="rgb(66, 66, 66)" stroke-width="1px" opacity="0.25"></line><line x1="0" y1="96.49090888283473" x2="278.4679985046387" y2="96.49090888283473" fill="rgb(0, 0, 0)" stroke="rgb(66, 66, 66)" stroke-width="1px" opacity="0.25"></line><line x1="0" y1="80.40909073569554" x2="278.4679985046387" y2="80.40909073569554" fill="rgb(0, 0, 0)" stroke="rgb(66, 66, 66)" stroke-width="1px" opacity="0.25"></line><line x1="0" y1="64.32727258855648" x2="278.4679985046387" y2="64.32727258855648" fill="rgb(0, 0, 0)" stroke="rgb(66, 66, 66)" stroke-width="1px" opacity="0.25"></line><line x1="0" y1="48.24545444141744" x2="278.4679985046387" y2="48.24545444141744" fill="rgb(0, 0, 0)" stroke="rgb(66, 66, 66)" stroke-width="1px" opacity="0.25"></line><line x1="0" y1="32.16363629427824" x2="278.4679985046387" y2="32.16363629427824" fill="rgb(0, 0, 0)" stroke="rgb(66, 66, 66)" stroke-width="1px" opacity="0.25"></line><line x1="0" y1="16.0818181471392" x2="278.4679985046387" y2="16.0818181471392" fill="rgb(0, 0, 0)" stroke="rgb(66, 66, 66)" stroke-width="1px" opacity="0.25"></line><line x1="0" y1="0" x2="278.4679985046387" y2="0" fill="rgb(0, 0, 0)" stroke="rgb(66, 66, 66)" stroke-width="1px" opacity="0.25"></line></g></g></g><g><g><line x1="0" y1="868.4181799455118" x2="278.4679985046387" y2="868.4181799455118" fill="rgb(0, 0, 0)" stroke="rgb(153, 153, 153)" stroke-width="1.5px"></line></g></g><g><g><line x1="23.205666542053223" y1="0" x2="23.205666542053223" y2="176.89999961853027" fill="rgb(0, 0, 0)" stroke="rgb(153, 153, 153)" stroke-width="1.5px"></line></g></g><g><g><g><g><g><path style="fill: none;" stroke="rgb(255, 112, 67)" stroke-width="2px" d="M24.80964221343994,200.17597597899328L25.166081251525878,174.26761568050276L25.344300770568847,158.04245051581972L25.52252028961182,130.00087584638837L26.057178846740722,102.0081820169634L26.23539836578369,85.96753207151149L26.41361788482666,74.24019221532261L26.59183740386963,82.5432565796054L26.770056922912598,68.707717536431L26.948276441955567,34.595501937038186L27.126495960998536,37.32099431392107L27.48293499908447,35.279191971568295L27.66115451812744,41.65225433067756L28.017593556213377,36.95856999576L28.195813075256346,39.87783625385291L28.37403259429932,31.827948350571326L28.552252113342288,27.735934354241646L28.730471632385257,42.492634258106854L28.908691151428222,28.598130891559386L29.08691067047119,26.425930595817423L29.26513018951416,31.996792983292664L29.44334970855713,35.4573626749859L29.621569227600098,39.21507283809306L29.978008265686036,35.88438847706698L30.156227784729005,27.222793004236184L30.33444730377197,30.518396216128913L30.51266682281494,20.72187299622763L30.690886341857908,27.343560216069907L31.047325379943846,15.744843888312726L31.22554489898682,9.27844768970482L31.93842297515869,14.554714596218263L32.116642494201656,2.919929159374739L32.294862013244625,4.417959553820029L32.473081532287594,4.385995992749044L32.65130105133057,3.193234736503372L32.82952057037354,1.616560774933555L33.00774008941651,1.8400024063475198L33.18595960845948,1.411474003500496L33.36417912750244,-10.2275969509755L36.57213047027588,-3.807048377934161L36.92856950836182,3.1277662661711325L37.285008546447756,7.712436123555599L37.463228065490725,4.770385351257631L37.641447584533694,9.155129515134737L37.81966710357666,7.826130612463315L37.99788662261963,6.469604878724795L38.1761061416626,7.787394378695238L38.35432566070557,4.709901051832461L38.7107646987915,6.219657447591052L38.88898421783447,6.55114570467842L39.06720373687744,6.3775699347520325L39.423642774963376,3.703986995698344L39.601862294006345,-1.0067225153310995L39.95830133209228,2.3631196176098257L40.31474037017822,-0.46664848095600225L41.20583796539307,-1.042218473568056L41.384057484436035,1.2260305618587612L41.562277003479004,-0.5835152702500819L41.91871604156494,0.23280643152775013L42.09693556060791,0.21152351062112473L42.45337459869385,2.6604556679789084L42.63159411773682,1.9845072714608165L42.809813636779786,2.3303066119197537L42.988033155822755,1.3880050175802674L43.166252674865724,2.7350216418780606L43.34447219390869,5.685388127906911L43.52269171295166,4.278460970890921L43.8791307510376,4.142196267182847L44.05735027008057,5.509588105420458L44.23556978912354,8.661185367798527L44.4137893081665,8.884999031963195L44.77022834625244,11.128962813093652L44.94844786529541,9.460351055154373L45.126667384338376,11.103368257333974L45.483106422424314,11.524993933847059L45.83954546051025,11.635110082800274L46.01776497955322,9.588210880633014L46.19598449859619,9.571604006398756L46.37420401763916,11.853653037009503L46.552423536682134,11.599236877367845L46.90886257476807,14.022112945102455L47.08708209381104,17.0895480711043L47.26530161285401,16.975863355609487L47.62174065093994,18.98957982433605L47.97817968902588,16.622474489393007L48.15639920806885,16.782608551323847L48.33461872711182,21.12133587557202L48.512838246154786,22.36638889709486L48.691057765197755,25.443647899437455L48.869277284240724,24.428530428558503L49.22571632232666,24.111123777313914L49.40393584136963,22.11970064857417L49.5821553604126,25.133982300393864L49.76037487945557,24.50696571062584L49.93859439849854,25.117307401562268L50.116813917541506,25.789825739489935L50.47325295562744,26.18726353279971L51.007911512756344,26.738529434607376L51.18613103179931,26.014629015792945L51.54257006988525,28.217510415561108L51.72078958892822,27.313882092473058L51.89900910797119,28.530969742195754L52.07722862701416,27.1869289560586L52.255448146057134,29.873410265254854L52.4336676651001,30.919121321968007L52.61188718414307,30.072311823952862L52.79010670318604,32.8757034256763L52.96832622222901,34.46627297948327L53.32476526031494,34.21433423231092L53.68120429840088,34.08731834491396L53.85942381744385,32.22279190812773L54.037643336486816,31.72820838631246L54.215862855529785,33.02140391676085L54.394082374572754,33.2956351378514L54.75052141265869,33.79817834436701L54.92874093170166,35.11962082915831L55.10696045074463,35.66483845354426L55.2851799697876,38.04737426509083L55.46339948883057,36.23985953965178L55.819838526916506,33.926827313423956L55.998058045959475,35.9378643647508L56.17627756500244,35.69788499248602L56.354497084045406,35.577254383455355L56.532716603088375,33.68154179039765L56.71093612213134,33.031120178367914L56.88915564117431,32.19320231416552L57.42381419830322,33.152787122959175L57.60203371734619,35.19195932839595L57.78025323638916,36.286026280336685L57.95847275543213,37.746169250120865L58.1366922744751,38.82890442396199L58.49313131256104,38.675076528687974L58.84957035064698,37.01356472931479L59.02778986968995,37.01132520985185L59.20600938873291,38.459321705860546L59.38422890777588,37.33835225656224L59.740667945861816,35.78840650511449L59.918887464904785,34.85939159261494L60.097106983947754,36.19764778528712L60.27532650299072,35.6950751026434L60.45354602203369,36.38368018288232L60.63176554107666,37.06050136464922L60.80998506011963,37.5055360437929L60.9882045791626,37.108612036966264L61.16642409820557,37.35795622405013L61.344643617248536,38.559005397552276L61.701082655334474,39.359066439295674L61.87930217437744,40.14335775053261L62.057521693420405,41.42155835925373L62.235741212463374,41.509847809241414L62.59218025054931,42.003958701794886L62.77039976959228,42.01869151636605L62.94861928863525,40.66508200954634L63.12683880767822,40.00220882996523L63.30505832672119,41.86625381272882L63.48327784576416,40.88962809527596L63.66149736480713,39.88749395575601L63.8397168838501,38.00744785108024L64.01793640289307,39.077858401650076L64.55259496002198,38.99824543982091L64.90903399810792,39.49087339439104L65.08725351715087,39.85620679727906L65.26547303619384,39.892088139956144L65.44369255523681,40.07213733273611L65.62191207427978,41.38681288539726L65.80013159332275,39.87999186948211L65.97835111236571,40.43580495970185L66.15657063140868,42.12598765363547L66.33479015045165,43.72553389528583L66.6912291885376,43.224971325753216L66.86944870758057,45.09064750549109L67.22588774566651,44.54260536109386L67.40410726470948,46.55180828600635L67.58232678375245,45.7208426095737L67.76054630279542,46.463363224659794L67.93876582183837,46.54717811920619L68.11698534088134,45.3484901441747L68.65164389801025,46.63889051470944L68.82986341705322,48.673377661433896L69.00808293609619,47.206850045256495L69.18630245513916,47.9934457140395L69.5427414932251,46.93594538615673L69.72096101226806,46.85744402702566L69.89918053131103,48.39104596447443L70.25561956939697,47.630139024645835L70.61205860748291,47.0225824070212L70.79027812652588,45.92141812628406L71.14671716461181,47.442897665662166L71.68137572174072,48.26969318605017L72.03781475982666,47.97964317624721L72.21603427886964,49.09107507125298L72.57247331695557,48.53021233951718L72.75069283599854,49.305743392729156L72.9289123550415,49.61515887934489L73.10713187408447,51.18443949577219L73.46357091217041,51.83017010677689L73.64179043121338,52.64366449806251L73.82000995025635,52.96827723366708L73.99822946929932,52.733523630033595L74.17644898834229,51.69449552398806L74.35466850738526,52.95068484077159L74.53288802642822,53.12074832049724L74.7111075454712,52.12363019862135L74.88932706451416,52.36853289630107L75.06754658355713,51.89618364804889L75.2457661026001,52.869283738448026L75.60220514068602,52.75729782159213L75.78042465972901,52.447288083028674L76.49330273590088,52.0906761091404L76.67152225494384,51.96421208191119L76.84974177398682,52.97955938377272L77.02796129302978,52.96691511452678L77.20618081207276,52.64259590558254L77.38440033111571,52.497603789022946L77.5626198501587,52.98440048359053L77.91905888824463,54.06316309416219L78.0972784072876,54.822741269407935L78.27549792633056,54.742546047802406L78.45371744537354,54.75271978873847L78.6319369644165,54.69174048243066L78.81015648345948,53.84232802714249L78.98837600250243,54.33924011997546L79.34481504058837,55.506177524957614L79.52303455963136,56.30977089798578L79.70125407867431,54.60174823886426L79.8794735977173,53.9442111794383L80.05769311676025,55.13788560130094L80.23591263580323,55.459534574646376L80.59235167388917,55.539342739328966L80.77057119293212,55.58549710512405L80.94879071197511,54.8572249973526L81.12701023101806,55.49797816557501L81.30522975006103,54.55614603291395L81.66166878814697,55.79037765395264L82.19632734527588,56.13973984117106L82.55276638336181,55.35335197224548L82.73098590240478,55.169632841642915L82.90920542144775,54.14268698537213L83.08742494049072,54.009414783916036L83.2656444595337,54.338028355366745L83.44386397857666,54.62146373291765L83.8003030166626,55.8581833529277L83.97852253570558,56.05064304076689L84.15674205474853,55.22310206648523L84.51318109283447,54.331113037740764L84.69140061187744,52.98935952155104L84.86962013092041,52.68381832958409L85.04783964996338,51.04707867216534L85.22605916900635,52.47012514545961L85.40427868804932,51.81127825738957L85.58249820709229,51.34012604631894L85.76071772613525,51.303602739795856L85.93893724517822,50.64887558909859L86.11715676422119,49.6688751322765L86.29537628326416,48.9678705127021L86.6518153213501,49.168257634339035L86.83003484039307,49.02552201593376L87.00825435943604,47.70936595634616L87.186473878479,48.3908611686736L87.54291291656494,48.6826357812384L87.7211324356079,50.647447003994934L88.07757147369384,50.06613526270886L88.25579099273682,51.43179946464183L88.43401051177977,51.58853706798678L88.61223003082276,51.866699810299664L88.79044954986571,52.729668804925616L88.9686690689087,52.24573303840794L89.14688858795166,51.879988845877804L89.32510810699463,53.08335247311488L89.5033276260376,52.27523852505675L89.68154714508057,52.940820200327266L90.39442522125243,52.78827430041697L90.57264474029542,51.179517082364406L90.75086425933837,51.4524614251109L91.10730329742431,52.94433859998024L91.28552281646729,52.46851855201437L91.82018137359618,52.492858809277L91.99840089263917,52.30222185131435L92.3548399307251,51.552348499149666L92.53305944976806,51.6257270986503L92.71127896881104,53.31858133420927L93.24593752593994,52.557141520932085L93.60237656402587,52.67543090776334L93.78059608306884,54.00982521317057L93.95881560211181,54.16594584404512L94.13703512115478,55.02429920570236L94.31525464019776,54.80697952717599L94.49347415924072,54.71189558010682L94.6716936782837,55.95415883363096L94.84991319732666,56.40304224285931L95.02813271636964,55.81196669755949L95.2063522354126,56.847138533494366L95.38457175445558,56.682543497442595L95.56279127349853,57.19202737537003L95.74101079254152,57.81739649370412L95.91923031158447,57.67471126280906L96.09744983062744,57.907247004452884L96.27566934967041,58.14647878040858L96.45388886871338,57.3196933686028L96.63210838775635,58.05526128041508L96.81032790679932,58.25223511951004L96.98854742584228,58.493400802811415L97.52320598297119,58.48539732120788L97.70142550201416,58.30645725159414L97.87964502105713,57.67724500796556L98.0578645401001,57.986938950492096L98.592523097229,57.7078041568927L98.77074261627197,57.95733826833789L99.1271816543579,58.95978987388067L99.30540117340088,59.05042356637743L99.48362069244384,59.280504442866224L99.66184021148682,58.897151553703424L99.84005973052977,59.013816408940926L100.01827924957276,59.0428352535863L100.19649876861571,60.134815085373816L100.55293780670166,61.202991478210166L100.73115732574463,61.28527912362558L100.9093768447876,59.81078745497194L101.44403540191651,59.522753953160695L101.62225492095948,60.55341257214466L101.80047444000243,60.50339666937232L101.97869395904542,61.162254702691726L102.15691347808837,60.601325552660406L102.33513299713135,61.210006397356565L102.51335251617431,60.8701850597719L102.69157203521729,60.804959139831915L103.04801107330323,61.311530594698795L103.22623059234618,61.4238717010704L103.40445011138917,61.78507683161911L103.58266963043212,63.036261989886775L104.295547706604,63.239727341265194L104.47376722564698,63.26268548795118L104.65198674468994,63.4077811879291L104.8302062637329,64.11485751276484L105.00842578277587,64.20723446542098L105.18664530181884,64.59850742416299L105.36486482086181,65.13731822184648L105.72130385894776,65.49152799960534L106.0777428970337,66.14428515678078L106.25596241607666,66.70642913103863L106.43418193511964,66.6675562283352L106.6124014541626,67.08754485150097L106.79062097320558,67.63562795504447L106.96884049224853,68.11490399749604L107.14706001129152,68.71900407231291L107.50349904937745,69.19891460816426L107.68171856842041,69.71597611170378L107.85993808746338,69.8013819122596L108.03815760650635,70.07814195190575L108.39459664459228,70.84899828526831L108.57281616363525,70.6008914146545L108.75103568267822,70.9887430001683L109.28569423980713,70.49421568990167L109.4639137588501,69.52694004253921L109.64213327789307,70.29494422978169L109.82035279693604,70.30785937046939L109.998572315979,71.0218508980766L110.17679183502197,71.01603741836834L110.35501135406494,71.60905406356525L110.71145039215088,71.42179016571305L110.88966991119383,71.97140264828633L111.06788943023682,72.5790465700821L111.24610894927977,72.40908436669831L111.42432846832276,71.73328518031914L111.60254798736571,71.66488616542266L112.13720654449463,72.33456373850272L112.3154260635376,72.30555517015057L112.67186510162354,72.85007173217149L112.85008462066651,73.05889644616154L113.02830413970948,73.27091716333541L113.38474317779541,73.29498282641889L113.56296269683838,73.63384687766903L113.74118221588135,73.38847892646167L114.27584077301024,73.23210549947795L114.45406029205323,73.31789376665309L114.63227981109618,74.06583608968083L114.81049933013917,74.09982589527894L114.98871884918212,75.12755684153812L115.1669383682251,74.1129076734176L115.34515788726806,73.79949159150229L115.52337740631104,74.32808866547217L115.701596925354,74.47552081965398L116.05803596343993,74.70321647443693L116.23625548248292,74.43130128048145L116.41447500152587,75.56864800986426L116.59269452056884,74.3504372465263L116.94913355865478,73.85453003237618L117.12735307769776,73.2344131572905L117.4837921157837,73.13551806083159L118.01845067291259,73.89838690798234L118.19667019195558,73.92364260882658L118.73132874908447,74.23444864291513L118.90954826812745,74.24722620840734L119.0877677871704,74.7955810840712L119.26598730621339,74.62808467840306L119.44420682525634,74.82585701929487L119.62242634429931,75.53054445974118L119.80064586334228,75.2893280866575L119.97886538238525,75.801533943818L120.15708490142822,75.9663017864005L120.33530442047119,75.82082294438653L120.51352393951416,75.56522903421806L120.69174345855713,75.66286356128617L120.8699629776001,75.27896244987332L121.04818249664307,75.78512704023115L121.22640201568603,75.64064498796793L121.58284105377197,75.78550556120584L121.76106057281494,76.51298071045603L121.93928009185791,77.31945906544857L122.29571912994386,76.84347039370354L122.65215816802977,76.88620162173858L122.83037768707275,76.41839093806955L123.00859720611572,76.65603920538354L123.18681672515869,75.97157813709262L123.36503624420166,75.61570457552843L123.7214752822876,76.18954505100756L123.89969480133057,75.1125313586057L124.2561338394165,75.67105317366624L124.43435335845948,74.82787017152505L124.61257287750244,75.0495327089467L124.79079239654541,75.4003090438547L125.14723143463135,76.38588990512571L125.32545095367432,75.76944986132307L125.50367047271729,76.19182532511627L125.68188999176024,76.56469460853005L126.03832902984618,77.03567730326768L126.21654854888916,77.05658074742415L126.39476806793212,76.81647226032086L126.75120710601806,76.62567308935675L126.92942662506104,76.47360518999497L127.107646144104,77.0976320907503L127.64230470123292,77.2010089617863L128.35518277740476,76.37521352636311L128.53340229644775,76.5883373172802L128.71162181549073,77.05255861131383L129.06806085357667,77.26804564672652L129.24628037261962,77.52661356831223L129.4244998916626,77.99791206199346L129.60271941070556,78.04943903600004L129.78093892974854,78.17286830014537L129.9591584487915,78.66960527620402L130.13737796783448,78.95141568934271L130.31559748687744,79.38621489721743L130.49381700592042,79.5016815583444L130.67203652496337,79.44964641855329L130.85025604400636,79.53628541703661L131.0284755630493,79.21849909421293L131.38491460113525,79.60541979375857L131.56313412017823,79.39399712920542L131.7413536392212,78.6013848343055L131.91957315826417,77.80778994881805L132.09779267730713,78.52411930882506L132.45423171539306,79.11551206622107L132.63245123443605,78.32652590400937L132.810670753479,78.81536881179335L132.98889027252199,78.93245964728254L133.34532931060792,79.3982790789153L133.52354882965088,78.92422206245789L133.70176834869386,79.36080443504068L133.87998786773682,78.77140981825998L134.0582073867798,79.12950006889672L134.23642690582275,78.59386803934842L134.4146464248657,79.80873874814135L134.5928659439087,79.85137766021555L134.77108546295165,79.58825839849548L134.94930498199463,79.96121396626151L135.12752450103758,80.60488976583798L135.30574402008057,81.61136140151062L135.6621830581665,81.26660679550083L135.84040257720946,81.50145722638433L136.01862209625244,81.75765377156252L136.1968416152954,81.79744493343149L136.37506113433838,81.81220956523161L136.90971969146727,82.11434002912512L137.08793921051026,81.72266236367668L137.2661587295532,81.65950787887974L137.4443782485962,81.73062658229328L137.62259776763915,82.0165383823166L137.80081728668213,82.36791099087743L138.33547584381103,83.19629223787358L138.513695362854,83.05851710004414L138.69191488189696,83.87508097777177L138.87013440093995,84.13671068232718L139.0483539199829,84.65263312452522L139.22657343902588,85.5859662050414L139.76123199615478,85.3415746691613L139.93945151519776,85.61163831427311L140.47411007232665,85.26575529620503L140.6523295913696,85.17014081840927L140.83054911041262,85.98042065654265L141.00876862945557,86.0902123221249L141.18698814849853,86.10776492507524L141.72164670562745,86.98543007654547L141.8998662246704,87.24326183302162L142.07808574371336,87.52993127860664L142.25630526275637,87.90432264149636L142.61274430084228,88.76821669560458L142.96918333892825,88.97142643813375L143.32562237701416,89.83146539597672L143.6820614151001,90.26580347082621L143.86028093414308,90.3491340988163L144.03850045318603,90.34234996035383L144.216719972229,89.9140239640585L144.39493949127197,90.66276442180455L144.7513785293579,90.47082540929318L144.92959804840086,90.47020938278985L145.10781756744385,90.72988372047777L145.28603708648683,90.12152934323387L145.46425660552978,90.63516720299167L145.64247612457277,90.10926052384691L145.99891516265868,90.4904397979335L146.17713468170166,90.67854297576446L146.35535420074464,90.3043797461721L146.5335737197876,90.84543588886528L146.89001275787354,91.12600746541574L147.06823227691652,91.45383207327555L147.24645179595947,91.84202349864188L147.42467131500243,92.4080029923456L147.7811103530884,92.79762238506947L147.95932987213135,93.04037675698434L148.1375493911743,93.06311551671838L148.3157689102173,93.28515146579527L148.49398842926027,93.73382330077729L148.67220794830322,93.02234092670258L148.85042746734618,92.90300876156647L149.02864698638913,93.47043550124212L149.20686650543215,93.31699611517547L149.56330554351806,92.81302510581523L149.741525062561,92.85330985987494L150.09796410064698,92.67343483887178L150.6326226577759,92.90539774464249L150.81084217681885,92.86822253697663L150.9890616958618,93.33900336221336L151.34550073394777,94.3175990376105L151.52372025299073,94.6900629692264L151.88015929107667,94.48547523359686L152.05837881011962,94.5841891695269L152.2365983291626,94.95914896193362L152.41481784820556,94.85063195695822L152.59303736724854,94.74581881401538L152.7712568862915,95.00096529033763L152.94947640533448,95.48183658470587L153.12769592437743,95.57033638253344L153.30591544342042,96.04140284283442L153.48413496246337,96.40483116451652L153.66235448150636,96.9794951515126L153.8405740005493,97.44800935719663L154.0187935195923,97.56053128689223L154.19701303863525,97.9496693974987L154.37523255767823,97.70804877087325L154.5534520767212,97.47494068573948L154.73167159576417,97.95721906390074L154.90989111480712,98.30274560711423L155.08811063385008,98.553306342051L155.26633015289306,98.56657097408056L155.44454967193604,98.8838955636606L155.622769190979,99.12929151530837L155.97920822906497,99.04471896122699L156.15742774810792,99.53259851717088L156.33564726715088,100.46482572602591L156.69208630523684,100.05499897421232L156.8703058242798,99.99118136817901L157.04852534332275,100.08647730336006L157.2267448623657,99.56944733711711L157.40496438140872,99.80631570079767L158.29606197662355,99.77988525744583L158.4742814956665,100.1284330877897L158.65250101470946,100.3701397647127L159.00894005279542,99.76259282943907L159.18715957183838,100.08548734610395L159.36537909088133,100.86725872880037L159.54359860992432,101.64250740444821L159.7218181289673,101.48510866495317L160.2564766860962,100.99645823436303L160.43469620513918,100.62401597623126L160.61291572418213,101.12453924461819L160.79113524322509,101.13114509013802L160.96935476226807,101.04360500274895L161.14757428131102,101.44069385994516L161.325793800354,101.64675807706664L161.50401331939696,101.53770001686448L161.68223283843994,101.88240923533469L161.8604523574829,102.37262251189955L162.03867187652588,102.21621181165105L162.21689139556887,102.59079612489273L162.57333043365477,102.15554124044326L162.75154995269776,102.50005018345625L162.92976947174074,102.8405958660106L163.1079889907837,103.14949648999851L163.28620850982665,102.85340080632243L163.64264754791262,102.44384202326893L163.82086706695557,102.63319700548499L163.99908658599853,102.5526168870494L164.17730610504148,103.09353133848029L164.7119646621704,103.40675844711686L164.89018418121336,102.96207050510024L165.06840370025637,103.75462070807816L165.24662321929932,104.37769172449896L165.42484273834228,104.05834538328092L165.60306225738523,103.57239077061325L165.9595012954712,103.85785374621042L166.13772081451415,103.81597394597478L166.3159403335571,104.7667164626814L166.49415985260012,105.14612526252166L166.67237937164307,105.33495177242177L166.85059889068603,105.00648032141481L167.02881840972898,105.29806136786165L167.20703792877197,105.80487367287253L167.5634769668579,105.56325616961497L167.91991600494384,105.31340906374449L168.09813552398683,106.02122714217003L168.27635504302978,106.02820956548783L168.45457456207276,106.46080109144576L168.63279408111572,106.49031399548134L168.98923311920166,106.59823033187321L169.16745263824464,106.48265711390304L169.52389167633058,106.64073026344028L169.70211119537353,106.98555300076532L169.88033071441652,107.25402499429602L170.23676975250243,108.01418375971316L170.4149892715454,108.06332032010957L170.5932087905884,107.79525205091163L170.77142830963135,107.95364116439387L170.9496478286743,108.10783447746019L171.12786734771728,107.60288601925717L171.30608686676027,108.06258827701431L171.48430638580322,108.43516654526205L171.66252590484618,108.35937593687684L171.84074542388916,108.71181449134335L172.01896494293214,108.52503520238082L172.1971844619751,109.29582668517615L172.37540398101805,109.85407706196226L172.553623500061,110.35331637882446L172.91006253814697,110.21272628878133L173.08828205718993,110.70266312314199L173.26650157623288,110.94414474863302L173.4447210952759,111.2754823189919L173.62294061431885,111.28213417388805L173.8011601333618,112.04193464511462L174.15759917144777,112.45866812723197L174.33581869049073,112.62093817489236L174.69225772857666,112.47993739581138L174.87047724761965,113.04541242546634L175.22691628570556,113.04707832167874L175.5833553237915,112.77137238066527L176.11801388092042,112.78132320665415L176.29623339996337,112.95510548373338L176.8308919570923,112.94425419911398L177.18733099517823,113.47466560608437L177.36555051422118,113.6383747369315L177.54377003326417,113.48420476408853L177.9002090713501,113.67515140261723L178.07842859039306,113.61663888441674L178.25664810943604,113.75432412863317L178.79130666656496,114.4201493774446L178.96952618560792,114.76447925881497L179.32596522369383,114.96171771905752L179.50418474273684,114.83095575955L179.6824042617798,115.01688993677256L179.86062378082275,114.86511860555541L180.0388432998657,114.78191093249994L180.21706281890872,115.18220922241149L180.39528233795167,115.06104455651028L180.75172137603758,115.49412734145629L180.9299408950806,115.48754327196315L181.10816041412355,115.77663981979082L181.46459945220946,115.88328792569115L181.64281897125244,116.02081656675624L181.82103849029542,115.88265475730276L181.99925800933838,116.09676296633756L182.17747752838133,115.80934331731886L182.35569704742431,115.8506056975916L182.5339165664673,115.45169310426022L182.71213608551025,115.2011301855713L182.8903556045532,115.04198589004972L183.0685751235962,115.64680782787572L183.24679464263917,115.69595766402563L183.60323368072508,115.74107496876266L183.78145319976807,116.00201774143603L184.137892237854,115.99892116539722L184.49433127593994,116.3698334135861L184.6725507949829,116.74280460586331L185.20720935211182,117.18784298741564L185.38542887115477,117.336618890886L185.74186790924074,117.64023017094026L185.9200874282837,118.1881679935788L186.09830694732665,118.27525710871525L186.27652646636963,118.5857890984249L186.45474598541261,118.25268504148126L186.9894045425415,119.06041959434633L187.1676240615845,118.95549422706942L187.5240630996704,118.82117868842745L187.70228261871335,119.39821190571028L188.05872165679932,118.92809337892943L188.23694117584228,118.83212123074397L188.41516069488523,118.66868915962421L188.59338021392824,118.77246858298813L188.7715997329712,119.08482972280994L188.94981925201415,119.15220451220641L189.1280387710571,119.13245456914997L189.30625829010012,119.21553121299722L189.48447780914307,119.56766501535802L189.84091684722898,119.76280688070506L190.019136366272,119.62356623932602L190.19735588531495,119.83842589765561L190.3755754043579,119.77206534436841L190.5537949234009,119.90713824117229L190.73201444244384,119.9641211122257L190.91023396148682,119.90354742318205L191.08845348052978,119.73093084589185L191.26667299957276,119.67115661573148L191.44489251861572,119.85083673251658L191.80133155670165,119.77231571420467L192.1577705947876,119.99672350659647L192.33599011383058,119.73674577751987L192.51420963287353,119.15377534811584L192.6924291519165,119.53027541115594L192.87064867095947,119.55605155864183L193.04886819000245,119.66431283163072L193.2270877090454,118.97884602911459L193.4053072280884,119.45578494132026L193.58352674713134,119.46452403520443L193.93996578521728,119.61409537821429L194.11818530426027,119.90382674508493L194.47462434234617,120.24890591763833L194.83106338043214,120.3215754981281L195.0092828994751,120.23019820828912L195.18750241851805,120.59755436153911L195.36572193756106,120.53241417511327L195.72216097564697,120.55570159352474L195.90038049468993,121.09835282704832L196.07860001373294,121.07771652460345L196.2568195327759,121.32293262208799L196.43503905181885,121.51915456392672L196.6132585708618,121.28119413652463L196.79147808990479,122.15396796176654L197.14791712799072,122.14470755849592L197.32613664703368,122.58413413426688L197.8607952041626,123.47264288236792L198.03901472320555,123.87073036223893L198.75189279937743,124.61498371364999L198.9301123184204,124.40634842497653L199.10833183746337,124.34224637119355L199.28655135650635,125.18652412392619L199.4647708755493,125.12696758199027L199.6429903945923,125.48184581629931L199.82120991363524,125.33213163603774L199.99942943267823,125.54824808000397L200.53408798980712,125.67372629375262L200.7123075088501,125.93754166417243L200.89052702789306,125.68671758023324L201.06874654693604,125.71870230039494L201.246966065979,125.9421619943232L201.60340510406496,126.08177810638131L201.78162462310792,126.21920219001214L201.95984414215087,126.70313721087862L202.13806366119383,126.73409069355375L202.31628318023684,126.76122436338558L202.67272221832275,127.18615766067776L202.8509417373657,127.2305200390694L203.0291612564087,127.19923966224371L203.20738077545167,127.31012880772589L203.38560029449462,127.62680633119828L203.56381981353758,127.31587751552526L203.7420393325806,127.32432176276838L203.92025885162354,127.75016202965388L204.0984783706665,127.80088037202134L204.27669788970945,127.72751206850435L204.98957596588133,127.94029970656494L205.3460150039673,127.51065499473981L205.52423452301025,127.80471096113031L205.7024540420532,127.91633659765047L205.8806735610962,128.03444704506524L206.05889308013917,127.98532399045924L206.59355163726806,128.27663677486598L206.949990675354,128.88316103661097L207.12821019439698,128.61242621220197L207.48464923248292,128.89928236823147L207.66286875152588,128.81572481454486L208.01930778961182,129.1313257551368L208.19752730865477,129.41782180455778L208.55396634674074,129.97705501702873L209.2668444229126,130.23104157163627L209.44506394195557,130.5155981545681L209.62328346099852,131.09591723507867L209.8015029800415,131.91621276673683L209.9797224990845,132.24717753163424L210.87082009429932,132.67058954928595L211.04903961334227,132.76723905153182L211.22725913238523,132.521247172423L211.40547865142824,132.17072396191097L211.76191768951415,131.70645091815047L211.9401372085571,132.05761328411228L212.11835672760012,132.07866150474166L212.47479576568603,132.28972778271478L212.65301528472898,132.69405127971288L212.831234803772,132.9812645673841L213.1876738418579,133.02684852153658L213.54411287994387,133.51247404487907L213.72233239898682,133.18617382913524L213.90055191802978,133.63447991177355L214.25699095611571,133.4605625320815L214.4352104751587,133.75885885895627L214.61342999420165,134.42508905515717L214.79164951324464,134.555832997655L214.9698690322876,134.4762610051534L215.14808855133057,134.50055463214417L215.32630807037353,134.850871300857L215.5045275894165,135.11668729853687L215.68274710845947,135.23184488676887L215.86096662750245,135.10006998140938L216.0391861465454,135.15242694849175L216.2174056655884,135.0158202804244L216.39562518463134,134.91878304729522L216.75206422271728,135.5934714453741L216.93028374176026,135.58373310561998L217.10850326080322,135.7928136444603L217.46494229888916,135.5248951899337L217.64316181793214,135.57295908878658L217.8213813369751,135.32405170822742L217.99960085601805,135.61667426680785L218.35603989410401,135.5757521038293L218.53425941314697,135.5195334504766L218.71247893218992,135.4513538378194L218.89069845123294,135.77058779867488L219.4253570083618,136.03221958633767L219.6035765274048,136.09655223733057L219.78179604644777,136.07994819535367L220.6728936416626,136.12306571617813L221.02933267974853,136.29497589013565L221.20755219879152,136.13013398263197L221.38577171783447,136.3647178371593L221.56399123687743,136.35748265362955L221.7422107559204,136.75937972561695L222.09864979400635,136.772014432855L222.2768693130493,136.80984731862108L222.4550888320923,137.21332498523353L222.63330835113524,137.48274359813047L222.81152787017822,138.0575515475225L222.98974738922118,138.358640669898L223.16796690826416,138.26728288903803L223.34618642730712,138.45845364219636L223.5244059463501,138.2397439413668L223.88084498443604,138.04000942254703L224.059064503479,137.86142848383415L224.23728402252198,137.9074666504316L224.41550354156496,137.72227990707404L224.5937230606079,137.6284210908555L224.77194257965087,138.16645018450583L224.95016209869385,138.50535077530398L225.48482065582274,138.76094515404048L225.6630401748657,138.60019039265507L226.01947921295167,139.1851199175369L226.19769873199462,139.411442218311L226.37591825103758,139.49832834217744L226.5541377700806,139.47969681028343L226.73235728912354,140.14734638821696L226.9105768081665,140.60296623314798L227.08879632720945,140.95523666400763L227.26701584625246,141.17916757999308L227.44523536529542,140.93758817036107L227.62345488433837,141.28885771084708L227.97989392242434,141.53693807367773L228.1581134414673,141.21170372856517L228.5145524795532,141.73677360102874L228.69277199859619,142.28332880450478L229.04921103668212,141.5298911465441L229.22743055572508,141.31038116730338L229.40565007476806,141.35460572075723L229.58386959381104,141.3226195165397L229.762089112854,140.91770659552853L229.94030863189698,141.2549403789783L230.11852815093994,141.5895586270047L230.29674766998292,141.8723052364772L230.47496718902588,142.01436332715255L230.8314062271118,141.6680712867699L231.0096257461548,142.0632533006657L231.18784526519775,142.18717214382892L231.5442843032837,142.22617703273136L231.72250382232664,142.3116474413396L232.0789428604126,142.6246887638798L232.25716237945556,142.66273511019583L232.43538189849852,143.30386997624916L232.6136014175415,143.0775877052925L232.7918209365845,143.248215990986L232.97004045562744,143.02195711696015L233.1482599746704,143.5603385159666L234.03935756988525,143.41467798642532L234.21757708892824,143.91285186400356L234.3957966079712,143.14859797911603L234.7522356460571,142.97342335939675L234.9304551651001,143.7315621520377L235.10867468414307,143.650213622028L235.46511372222898,143.68143415648953L235.643333241272,143.92761375418397L235.82155276031494,144.11665052404308L236.17799179840088,144.32548107755017L236.53443083648682,144.7118307682166L236.89086987457276,145.1948719721156L237.06908939361574,144.5350753782731L237.2473089126587,145.06021727825157L237.42552843170165,145.70053330637026L237.7819674697876,145.66632306145158L237.96018698883057,146.1236246122362L238.13840650787353,146.24959532458172L238.3166260269165,146.2864783412417L238.49484554595946,146.3138624837626L238.67306506500245,146.933583903095L239.20772362213134,147.49300893832216L239.38594314117432,147.07441461598575L239.92060169830322,147.5541719451966L240.0988212173462,147.96408816525147L240.27704073638918,147.97368095087668L240.6334797744751,148.42170619570547L240.81169929351805,149.02440506232026L241.34635785064697,149.00946028406904L241.52457736968992,149.45744002338847L241.70279688873293,150.01069677982937L242.05923592681884,150.06968875090067L242.2374554458618,150.02153785652305L242.4156749649048,150.56639687953097L242.59389448394776,150.83691832383727L242.77211400299072,151.15785630111964L242.95033352203367,150.78933664547878L243.12855304107669,150.92342749470555L243.4849920791626,151.5627710263917L244.01965063629152,151.62445603897226L244.19787015533447,151.85751086812397L244.7325287124634,152.00845775100586L244.91074823150635,152.11462566111717L245.0889677505493,152.61126090192894L245.26718726959228,152.76156555793258L245.44540678863527,152.91371997867697L245.80184582672118,152.97443441525945L245.98006534576416,153.11629591544963L246.15828486480714,153.55786290207254L246.3365043838501,153.70083034734031L246.51472390289308,153.90447837405875L246.69294342193604,154.3795254960534L246.871162940979,154.642350923596L247.04938246002197,155.04585222541L247.22760197906496,154.50449302956667L247.4058214981079,154.79578897380924L247.58404101715087,155.05780180018348L247.76226053619385,155.04267329582694L247.94048005523683,155.11893045437438L248.1186995742798,155.3799823909527L248.29691909332274,155.99178026572523L248.47513861236573,156.40284882326614L248.6533581314087,156.91328841143596L249.00979716949462,156.5545789815501L249.18801668853757,156.45400325454324L249.7226752456665,156.96721786193456L249.90089476470945,157.26209758178445L250.25733380279542,157.40066308359133L250.43555332183837,157.17832572405655L250.61377284088132,157.47948717126187L250.79199235992434,157.83005291542742L250.9702118789673,158.2549627833322L251.14843139801025,158.41202276172274L251.68308995513917,159.0285433371391L251.86130947418212,158.96412465025588L252.39596803131104,159.10241158915278L252.574187550354,159.46393274281314L252.75240706939698,159.8749630589676L252.93062658843994,160.07889436632635L253.10884610748292,160.39174598240777L253.28706562652587,160.57748158898454L253.6435046646118,160.8733328904553L253.8217241836548,161.05752797642072L254.17816322174073,160.72495489956208L254.3563827407837,160.8273674036648L254.71282177886962,161.19860358241456L255.06926081695556,161.41885683071442L255.24748033599852,161.43504539414795L255.4256998550415,161.53094536558083L255.60391937408448,161.22147384407737L255.9603584121704,161.50616446028087L256.1385779312134,161.59629128716662L256.4950169692993,161.37451208497615L256.6732364883423,161.54007931606296" fill="none"></path></g></g></g></g><g opacity="0.2"><g><g><g><path style="fill: none;" stroke="rgb(255, 112, 67)" stroke-width="2px" d="M23.9185446182251,250.63693084421632L24.096764137268067,83.08734373902273L24.274983656311036,144.623407667577L24.80964221343994,217.17644398413665L25.166081251525878,45.11392181378196L25.344300770568847,61.031620682974065L25.52252028961182,-65.50655111578742L26.41361788482666,-42.39013380099533L26.59183740386963,173.33078490940233L26.770056922912598,-96.24352602578526L26.948276441955567,-405.7714720038778L27.126495960998536,75.19294727756677L27.48293499908447,4.896033415206782L27.66115451812744,142.75883414955024L28.017593556213377,-42.119745718553936L28.195813075256346,91.92825185719285L28.37403259429932,-119.59958110507803L29.08691067047119,-22.93952246834398L29.26513018951416,164.03897437354777L29.44334970855713,120.85586579010487L29.621569227600098,135.60750646825792L29.978008265686036,-52.795934034418266L30.156227784729005,-211.81671724592738L30.33444730377197,124.67059226461687L30.51266682281494,-268.6621690852091L32.116642494201656,-397.0500376895772L32.294862013244625,57.36090691941638L32.473081532287594,3.2255473154043814L32.65130105133057,-41.258660132129L32.82952057037354,-58.65935251417821L33.00774008941651,10.59680495144483L33.18595960845948,-15.794099461568978L34.255276722717284,-367.17000742543377L34.43349624176025,86.2917415838833L34.61171576080322,-267.5739452400799L34.78993527984619,147.1338912305283L35.14637431793213,-83.50568609436884L35.324593836975104,345.1689294480998L35.50281335601806,21.32184102922495L35.681032875061035,203.1225517921249L36.03747191314697,214.79517310380413L36.21569143218994,78.37610363098199L36.39391095123291,82.80951730037124L36.57213047027588,201.81938245774913L37.99788662261963,-75.03876625698905L38.1761061416626,88.20554628424908L38.35432566070557,-185.9808522375395L38.7107646987915,101.18340740058939L38.88898421783447,27.712079170463156L39.06720373687744,-4.865160402730534L40.49295988922119,-191.96420462567664L40.67117940826416,78.48008724975412L41.20583796539307,70.17159673124101L41.384057484436035,165.03678768288623L41.562277003479004,-132.94422219825245L41.91871604156494,60.69911849197411L42.09693556060791,-1.3846231690805497L42.63159411773682,-49.957856061883994L42.809813636779786,29.221682060690373L42.988033155822755,-72.7589484206355L43.166252674865724,109.96749261204108L43.34447219390869,243.2688939397308L43.8791307510376,-7.080947028409463L44.05735027008057,119.38521841487488L44.23556978912354,274.0104315527647L44.4137893081665,27.933772859157997L44.77022834625244,204.16338487294655L44.94844786529541,-135.60347288540572L45.126667384338376,155.44061801509466L45.483106422424314,48.94850946621578L45.83954546051025,21.50925693208564L46.01776497955322,-175.81913744552634L46.19598449859619,8.052273654913291L46.37420401763916,222.7048296981035L47.08708209381104,308.84141637353423L47.26530161285401,6.060251188214484L47.62174065093994,214.15800504452864L47.97817968902588,-214.93154807992815L48.15639920806885,32.591487476119866L48.33461872711182,453.35859357865905L48.512838246154786,147.52214275106166L48.691057765197755,337.5420454159112L49.76037487945557,-41.893987773373176L49.93859439849854,90.29748811323407L50.116813917541506,98.21005870274978L50.47325295562744,69.33965109697934L51.007911512756344,87.0838881782167L51.18613103179931,-53.872425214597584L51.72078958892822,-74.01250315224907L51.89900910797119,166.08582596076434L52.07722862701416,-125.90692375082014L52.255448146057134,338.25662605863107L52.4336676651001,151.8817096469424L52.61188718414307,-68.63035398769111L52.96832622222901,222.6661042353602L53.32476526031494,4.182488007629611L53.68120429840088,18.834899480258212L53.85942381744385,-193.31346109492125L54.215862855529785,191.71832477668642L54.394082374572754,67.18873920690602L54.75052141265869,96.34901265261645L54.92874093170166,200.7533203130809L55.10696045074463,104.4804396196953L55.2851799697876,340.8427584710799L55.998058045959475,296.7747155508889L56.17627756500244,4.363309079211222L56.354497084045406,19.721520866868357L56.532716603088375,-217.13629219741898L56.88915564117431,-80.12169412328089L57.42381419830322,162.60597888387613L57.60203371734619,312.0493800283305L58.1366922744751,188.63248052667964L58.49313131256104,17.25957832949434L58.84957035064698,-195.72609576587163L59.02778986968995,36.695696370148696L59.20600938873291,243.77658092209128L60.27532650299072,-37.71646889442832L60.45354602203369,137.55658584755818L60.63176554107666,137.07876731616503L60.80998506011963,103.65002766712644L60.9882045791626,-22.222833013296544L61.16642409820557,74.84127406540676L61.344643617248536,220.1291646632081L61.701082655334474,160.98763796162908L61.87930217437744,160.03882578237574L62.057521693420405,237.90300180111655L62.235741212463374,55.15608611784098L62.59218025054931,118.79222038835212L62.77039976959228,44.320701642263586L62.94861928863525,-171.97787827772882L64.01793640289307,212.62578034933253L64.55259496002198,26.02380236302422L64.90903399810792,120.18580025851871L65.08725351715087,100.0047730196693L65.26547303619384,45.82953769164441L65.44369255523681,70.01577467125209L65.62191207427978,261.12271257791895L65.80013159332275,-213.22471372400634L65.97835111236571,134.25909352394444L66.15657063140868,328.83821009903545L67.58232678375245,-99.36380142979552L67.76054630279542,176.7178442438759L67.93876582183837,61.31918600037488L68.11698534088134,-166.90123850637747L69.5427414932251,-144.6511979798505L69.72096101226806,32.571166193690225L69.89918053131103,328.7406296013308L72.75069283599854,196.75056446303108L72.9289123550415,108.69185286405116L73.10713187408447,352.07525147896666L73.46357091217041,176.16257478699612L73.64179043121338,209.93424566254572L73.82000995025635,115.99424819208468L73.99822946929932,6.965430123307561L74.17644898834229,-151.71219180943663L74.35466850738526,299.87923237550564L74.53288802642822,86.68651125161111L74.7111075454712,-145.4788493053723L74.88932706451416,101.09790464621554L75.06754658355713,-42.46712462197412L75.2457661026001,248.04753935817024L75.60220514068602,30.20645907563998L75.78042465972901,-10.227295021197387L76.49330273590088,-20.289627239516797L76.67152225494384,26.195574712618306L76.84974177398682,260.67679462573614L77.02796129302978,50.37038576361459L77.20618081207276,-14.214484002065227L77.38440033111571,22.49311373801956L77.5626198501587,154.10708178320138L77.91905888824463,279.00900692595235L78.0972784072876,213.812006454632L78.27549792633056,37.89334840405954L78.45371744537354,56.89827183678198L78.6319369644165,41.783685386026804L78.81015648345948,-126.62944119630023L78.98837600250243,160.3072967627011L79.34481504058837,305.27614322635685L80.05769311676025,314.3729461349713L80.23591263580323,125.5648053756064L80.59235167388917,72.99633167304788L80.77057119293212,65.71717162266033L80.94879071197511,-105.57866306946153L81.66166878814697,330.56785797013777L82.19632734527588,134.18961774326038L82.55276638336181,-120.9409391136046L82.73098590240478,13.840695099895095L82.90920542144775,-177.67105808958746L83.08742494049072,23.82266239751156L83.2656444595337,129.02433117006495L83.44386397857666,119.25853630704923L83.8003030166626,338.8439494628904L83.97852253570558,100.23743253246771L84.15674205474853,-135.40861862633494L85.58249820709229,-59.72158045461442L85.76071772613525,42.66631920023564L85.93893724517822,-104.68475669481059L86.29537628326416,-118.41251147484752L86.6518153213501,97.16746188798145L86.83003484039307,14.72731648650524L87.00825435943604,-269.5507842580199L87.186473878479,213.18220006748194L87.54291291656494,119.45714808626738L87.7211324356079,528.7295016114504L88.25579099273682,385.7910963408982L88.43401051177977,90.08123899454868L88.61223003082276,120.38939650323846L88.79044954986571,265.96324205266313L89.68154714508057,219.89865230477957L90.39442522125243,14.408770798909785L90.57264474029542,-354.775175404613L90.75086425933837,120.53118537573822L91.10730329742431,431.63219032409785L91.28552281646729,-68.66493850986384L91.82018137359618,58.7074794456985L91.99840089263917,3.486503255435034L92.3548399307251,-141.0221236742524L92.53305944976806,70.52449688875527L92.71127896881104,490.57092596384575L93.24593752593994,-144.68141150919874L93.60237656402587,83.40389564041753L93.78059608306884,401.6367121705285L93.95881560211181,94.95267215540284L94.13703512115478,279.90352677328036L94.31525464019776,-2.288575158819387L94.49347415924072,29.660851813424863L94.6716936782837,384.15753362785L94.84991319732666,175.3269483166717L95.02813271636964,-101.2171790714648L95.2063522354126,332.61704842193586L95.38457175445558,12.713822476107177L95.56279127349853,193.6647202130243L95.74101079254152,225.78887187212126L95.91923031158447,19.245849489845124L96.09744983062744,120.7048748274483L96.27566934967041,122.92679617989846L96.45388886871338,-167.16326802359305L96.63210838775635,258.3066045956341L96.81032790679932,112.01963540109783L96.98854742584228,124.4988199150228L97.52320598297119,56.28909346840014L97.70142550201416,9.072325348797401L97.87964502105713,-115.90164449147302L98.0578645401001,143.64522548390644L98.592523097229,-19.699773260464262L98.77074261627197,127.33636109896459L99.1271816543579,338.39837658908846L99.30540117340088,84.38031409014135L99.48362069244384,123.74800604231051L99.66184021148682,-48.79195123901419L99.84005973052977,91.87035537328948L100.01827924957276,67.23628333938296L100.19649876861571,369.23703459531924L100.55293780670166,364.33201380539265L100.73115732574463,84.69586909843584L100.9093768447876,-360.7312282586183L101.62225492095948,355.97973667455L101.80047444000243,46.13128956470364L101.97869395904542,250.95447963871143L102.51335251617431,-37.74361506039093L102.69157203521729,41.8306160458266L103.04801107330323,209.03282424760002L103.22623059234618,94.26312886631804L103.40445011138917,167.62686932569403L103.58266963043212,430.5469188162272L104.295547706604,123.14710955506979L104.47376722564698,70.03854984439023L104.65198674468994,106.33343384094142L104.8302062637329,273.79613787823763L105.00842578277587,91.66622233997724L105.18664530181884,181.17871081556635L105.36486482086181,226.05431383110337L105.72130385894776,171.52510476837926L106.0777428970337,262.00546141825475L106.25596241607666,235.77183606283808L106.43418193511964,54.94934582565098L106.6124014541626,193.98579647541288L107.68171856842041,227.74247561241532L107.85993808746338,95.96267823419906L108.03815760650635,155.0463084518747L108.39459664459228,308.04321173651425L109.64213327789307,309.26083997447387L109.82035279693604,74.33531247495064L109.998572315979,294.1633540745935L110.17679183502197,69.19517828151717L110.35501135406494,257.75643463038296L110.71145039215088,12.511529860826291L110.88966991119383,245.24695990302507L111.06788943023682,264.56555958396825L111.24610894927977,18.593037877302983L111.42432846832276,-142.70978700901424L111.60254798736571,49.91403877592069L112.13720654449463,285.74769754779567L112.3154260635376,63.04135717322476L112.67186510162354,247.11736141148447L112.85008462066651,140.03302167692922L113.02830413970948,141.41387198904553L113.38474317779541,81.04593672181564L113.56296269683838,183.00294850507234L113.74118221588135,-5.970484798734548L114.27584077301024,22.550856853753636L114.45406029205323,101.18010998494985L114.63227981109618,317.48597489298305L114.81049933013917,85.18480682210182L114.98871884918212,410.98952489571434L115.52337740631104,248.13825663029965L115.701596925354,123.05209797420058L116.05803596343993,149.87780114712436L116.23625548248292,-15.524401535889332L117.12735307769776,-133.56919748807016L117.4837921157837,40.089043799562745L118.01845067291259,329.32342864459645L118.19667019195558,82.3965735045837L118.73132874908447,178.71170712860606L118.90954826812745,78.55086665987704L119.0877677871704,259.85132879662655L119.26598730621339,17.991527917385167L119.44420682525634,141.83049662089581L119.62242634429931,314.74164321392146L119.97886538238525,250.3487137120961L120.15708490142822,132.22359118125462L120.33530442047119,26.053785840118547L120.51352393951416,-12.039109888991684L120.69174345855713,109.1909895709743L120.8699629776001,-56.806051556593545L121.04818249664307,250.26762029258907L121.22640201568603,25.740991458871132L121.58284105377197,125.91057391324911L121.76106057281494,328.7110295446597L122.29571912994386,-88.7909832600262L122.65215816802977,91.78362567356142L122.83037768707275,-86.97909170814725L123.00859720611572,159.81651862100375L123.18681672515869,-163.98678318554155L124.43435335845948,-223.5034484291804L124.61257287750244,153.62021452982066L124.79079239654541,199.9628607686096L126.03832902984618,245.7974366046148L126.21654854888916,84.56006158453802L126.39476806793212,-9.526325803501203L126.75120710601806,7.892464022523091L126.92942662506104,21.595756579559787L127.107646144104,302.6929631511666L127.64230470123292,114.63924041649213L128.35518277740476,-223.21488621867937L128.53340229644775,154.0430505725268L128.71162181549073,246.05766404584136L129.06806085357667,155.85540222891356L129.24628037261962,171.98942690087574L129.4244998916626,250.47639271302205L129.60271941070556,96.9390966839229L129.78093892974854,123.4997796603301L129.9591584487915,261.40007891206267L130.31559748687744,239.88072268602994L130.49381700592042,122.19584348510796L130.67203652496337,60.17674650740498L130.85025604400636,111.68030832656486L131.0284755630493,-38.883293926313776L131.38491460113525,223.64298278959188L131.56313412017823,0.5559442768246741L131.7413536392212,-217.45453114867578L132.810670753479,262.9333388424013L132.98889027252199,123.10646699021048L133.34532931060792,255.42420322217785L134.4146464248657,543.405646808275L134.5928659439087,96.14879050762087L134.77108546295165,-21.143274469731644L135.6621830581665,-51.56630473721244L135.84040257720946,172.13274945506828L136.01862209625244,180.78371109558458L136.1968416152954,97.20204641015418L136.37506113433838,87.53716780252499L136.90971969146727,199.449537506028L137.08793921051026,-70.62820444482256L137.2661587295532,57.05578094663297L137.4443782485962,109.48039530640646L137.62259776763915,193.7503763355674L138.33547584381103,407.9333957285056L138.513695362854,28.965097113484227L138.69191488189696,404.97039938209247L140.47411007232665,-51.99895634275255L140.6523295913696,47.16767496861613L140.83054911041262,408.5177284534641L141.00876862945557,129.8594975358815L141.18698814849853,93.11578159193117L141.72164670562745,437.92661170157805L142.61274430084228,436.2701971313071L142.96918333892825,170.833951113517L143.32562237701416,436.8086727736507L143.6820614151001,265.7553898412458L143.86028093414308,124.06754862300625L144.03850045318603,87.59322386839698L144.216719972229,-83.91019464084597L144.39493949127197,394.96243617978297L144.7513785293579,12.350109862658654L144.92959804840086,90.21911697873178L145.10781756744385,196.726715712708L145.99891516265868,246.98400778829514L146.17713468170166,168.0151975303121L146.35535420074464,-63.748875211749095L147.95932987213135,193.9839560573815L148.1375493911743,102.53174366081825L148.3157689102173,185.87231358413982L148.67220794830322,-204.48771254052375L148.85042746734618,42.93433007605318L149.02864698638913,331.4017207065155L149.20686650543215,28.888413028844003L149.56330554351806,-119.09423298729902L149.741525062561,109.81535138811489L150.09796410064698,16.832447978048346L150.6326226577759,190.84220910967198L150.81084217681885,77.15107537885459L150.9890616958618,292.6496869278803L151.52372025299073,252.8057101260108L151.88015929107667,7.517862269055645L152.05837881011962,136.60286588688788L152.2365983291626,254.77990354303077L152.41481784820556,48.53479882958184L152.59303736724854,49.950847136548006L152.7712568862915,204.1911445115863L152.94947640533448,301.54576924494904L153.12769592437743,133.5449346436901L153.30591544342042,298.4409456839938L153.8405740005493,299.55037267852606L154.0187935195923,146.16284066672927L154.19701303863525,266.2532229187301L155.08811063385008,207.62996560319198L155.26633015289306,104.34854299411415L155.44454967193604,237.38243189253646L155.622769190979,206.37211656283858L155.97920822906497,62.03733245303046L156.15742774810792,313.29357930161797L156.69208630523684,-79.96717569273088L156.8703058242798,71.92267780400027L157.04852534332275,142.053187202691L157.2267448623657,-128.41058243023846L157.40496438140872,204.3836215640332L158.29606197662355,88.0961180954675L158.4742814956665,254.40062406040025L159.54359860992432,446.9308952620741L159.7218181289673,31.294069448092124L160.2564766860962,-117.18456922750381L160.61291572418213,325.15955953271754L160.79113524322509,104.09157462648479L160.96935476226807,61.76403037537274L161.14757428131102,279.8345110971042L161.325793800354,194.3352458491183L161.50401331939696,52.4230653412638L161.68223283843994,257.31239543827377L161.8604523574829,323.67932664690755L162.03867187652588,31.51898386834186L162.21689139556887,272.106825835656L163.82086706695557,189.04688132007533L163.99908658599853,65.73549911888935L164.17730610504148,350.530987382482L165.9595012954712,235.51977547662568L166.13772081451415,84.47754950946515L166.3159403335571,544.2925365891815L168.09813552398683,436.27219091750777L168.27635504302978,109.2897586719909L168.45457456207276,308.7580607735303L168.63279408111572,120.30742121675806L168.98923311920166,157.178892845719L169.16745263824464,52.25190646434685L169.52389167633058,180.8975869612753L170.23676975250243,466.31406294228447L170.4149892715454,131.2497033063239L170.5932087905884,-18.841141564747808L171.48430638580322,285.4214834517362L171.66252590484618,72.31675731496632L171.84074542388916,276.5002870969478L172.01896494293214,19.505731852690793L172.1971844619751,477.05892185594405L172.553623500061,349.07318459142925L172.91006253814697,42.91393210953889L173.08828205718993,345.4844844563943L173.4447210952759,270.39949303318406L173.62294061431885,114.48012094086369L173.8011601333618,477.7220474778703L174.33581869049073,190.88691593101723L174.69225772857666,44.399686249443L174.87047724761965,386.3689876027468L175.22691628570556,113.8531518648453L175.5833553237915,-20.775881020220382L176.11801388092042,117.60645438756049L176.29623339996337,197.31104843766641L176.8308919570923,107.67134106565922L177.18733099517823,371.48709900683235L177.36555051422118,193.35668024502456L177.54377003326417,38.33205805228618L177.9002090713501,206.85223561677094L178.07842859039306,85.03412259578381L178.25664810943604,181.08185881666574L179.32596522369383,211.71201279675978L179.50418474273684,50.62252303391163L179.6824042617798,206.41114876192043L179.86062378082275,40.18627921888654L180.0388432998657,73.79752698936882L180.21706281890872,312.5539996473055L180.39528233795167,55.258075950412476L180.75172137603758,329.4687066429473L180.9299408950806,112.23120679062015L181.10816041412355,258.9032834582196L181.46459945220946,168.7366413986072L181.64281897125244,184.24737783061371L181.82103849029542,47.27250211231928L181.99925800933838,222.52891640793888L182.17747752838133,-27.209829089703497L182.35569704742431,136.40333389865404L182.5339165664673,-83.44587250834948L182.71213608551025,-9.854763738015222L182.8903556045532,35.53354906742627L183.0685751235962,418.1176939834453L183.24679464263917,140.30026571190038L183.60323368072508,138.34919254639945L183.78145319976807,246.88941796989147L184.137892237854,114.44415610516741L184.49433127593994,302.78609597196214L185.9200874282837,394.9327594390272L186.09830694732665,162.30399695856298L186.27652646636963,275.73145246434495L186.9894045425415,528.6129034607549L187.1676240615845,65.70267833066335L187.5240630996704,50.58594472553823L187.70228261871335,412.82702893186314L188.05872165679932,-120.36381469260239L188.23694117584228,69.9349496460413L188.41516069488523,35.321134152972874L188.59338021392824,171.74894561144401L188.7715997329712,278.6890042407487L188.94981925201415,153.6109357555792L189.1280387710571,109.02174779617336L189.30625829010012,161.7859192827337L189.48447780914307,300.1804858020147L189.84091684722898,219.94780680303398L190.019136366272,48.07040001300071L190.19735588531495,230.35502569202274L190.3755754043579,85.60626255128444L190.5537949234009,189.5149609727192L190.73201444244384,149.35696284424805L190.91023396148682,88.62922585188626L191.08845348052978,30.525311499573984L191.26667299957276,88.7519203873106L191.44489251861572,212.87998808991483L191.80133155670165,79.08037026431771L192.1577705947876,236.39945695357588L192.6924291519165,315.3668485559931L192.87064867095947,132.9758620515751L193.04886819000245,176.08006271192323L193.2270877090454,-238.55055288545222L193.4053072280884,368.4478019962022L193.58352674713134,124.03104699871751L193.93996578521728,197.8423157760538L194.47462434234617,301.0592087279069L194.83106338043214,158.43260094550183L195.0092828994751,72.26468882149561L195.18750241851805,313.6032679774375L195.36572193756106,86.27747834414022L195.72216097564697,132.81275500354536L195.90038049468993,406.97281254226004L196.07860001373294,110.19654797286138L196.2568195327759,250.7368502065025L196.79147808990479,583.9969866990481L197.14791712799072,117.24005783114956L197.32613664703368,355.526840470665L198.75189279937743,520.1941028864868L198.9301123184204,13.416785480003995L199.10833183746337,90.21137188618312L199.28655135650635,575.1126370469293L199.4647708755493,93.36078724235665L199.6429903945923,314.9315130074906L199.82120991363524,45.3384528136085L199.99942943267823,241.12170122776251L200.89052702789306,-8.796446685895638L201.06874654693604,142.8826022621595L201.246966065979,245.96023691630597L201.95984414215087,387.2899634592757L202.13806366119383,143.41601675491685L202.31628318023684,141.39700149042469L202.67272221832275,356.5885316225087L202.8509417373657,151.2001415026602L203.0291612564087,110.2836610930127L203.20738077545167,187.3267806175107L203.56381981353758,-41.25298550986561L203.7420393325806,131.90619575492877L203.92025885162354,359.00672588959543L204.0984783706665,155.3670779779247L204.27669788970945,87.8172947637157L204.98957596588133,243.78739337802554L205.8806735610962,192.55126730404842L206.05889308013917,101.13003527767978L206.59355163726806,287.6674069226787L207.48464923248292,286.2400860552704L207.66286875152588,82.94670512779258L208.01930778961182,302.52287785143466L211.9401372085571,327.0268553357491L212.11835672760012,143.77420811427126L212.47479576568603,249.66331136358184L212.831234803772,292.9543527961559L213.1876738418579,158.43651183381849L213.54411287994387,404.4270159583319L213.90055191802978,384.12505791800487L214.25699095611571,36.20783222366765L214.4352104751587,300.69415414297714L214.79164951324464,207.83877636566726L214.9698690322876,89.84068102103234L215.14808855133057,148.13860610748432L215.32630807037353,331.66631914056654L215.68274710845947,200.03049613126228L215.86096662750245,60.893435962452415L216.0391861465454,164.6591185660332L216.2174056655884,57.96924176286718L216.39562518463134,80.14727593391697L216.75206422271728,516.7064723750076L216.93028374176026,130.0785839656986L217.10850326080322,254.07812914244585L217.46494229888916,-16.163486697280874L217.64316181793214,162.80627771295636L217.8213813369751,-5.8161197363538L217.99960085601805,301.67145445967435L218.35603989410401,112.3359572502387L218.53425941314697,103.56858916923854L218.71247893218992,96.67323296247525L218.89069845123294,317.47677280282625L219.4253570083618,285.06402059118585L219.6035765274048,172.76961077800524L219.78179604644777,126.60763224262865L220.6728936416626,160.73933489556407L221.02933267974853,234.51398702248466L221.20755219879152,41.87900370323459L221.38577171783447,270.5922001378849L221.56399123687743,132.21446577518245L221.7422107559204,367.06537966035074L222.09864979400635,144.01768008300397L222.2768693130493,158.52209127227698L222.4550888320923,368.94015216163467L222.98974738922118,311.66450260752134L223.16796690826416,85.64337764825031L223.34618642730712,248.65748456739848L223.5244059463501,12.07366373753067L223.88084498443604,22.7357421818212L224.059064503479,34.693551604277374L224.23728402252198,164.52354110438927L224.41550354156496,30.58221109037702L224.5937230606079,83.28679904317194L224.77194257965087,449.89619213102645L225.48482065582274,287.0646700174067L225.6630401748657,45.2580112088209L226.01947921295167,479.0688883984486L226.37591825103758,190.057654239718L226.5541377700806,128.63017497501426L226.73235728912354,529.2115377674986L229.04921103668212,-300.6484044180807L229.22743055572508,12.393666422734286L229.40565007476806,167.34559210323374L229.58386959381104,122.51101507297922L229.762089112854,-97.384508521147L231.18784526519775,215.47175678258475L231.5442843032837,165.3092462356129L231.72250382232664,192.92778615963184L232.0789428604126,328.13716419725466L232.25716237945556,165.2249704265933L232.43538189849852,523.7698050691753L232.6136014175415,8.704088374355097L232.7918209365845,244.6417691070445L232.97004045562744,8.479097270020715L233.1482599746704,463.9218262378484L234.03935756988525,56.681179193165526L234.21757708892824,440.7513083013426L234.3957966079712,-312.54256605028553L234.7522356460571,38.453909062779495L234.9304551651001,596.386930109473L235.10867468414307,95.04745368401812L235.46511372222898,162.34709341413077L235.643333241272,291.2084862411522L237.42552843170165,530.5706097995771L237.7819674697876,125.09020757576812L237.96018698883057,421.35429914385475L238.13840650787353,222.1161259803206L238.3166260269165,168.5141041849813L238.49484554595946,162.82782594074027L238.67306506500245,520.9009767787003L240.0988212173462,395.9733241255525L240.27704073638918,153.78132779164974L240.6334797744751,419.8406703391839L240.81169929351805,514.3834430569594L241.34635785064697,139.94399145466195L241.52457736968992,421.376729238612L242.05923592681884,185.92346186859484L242.2374554458618,120.73784898384359L242.4156749649048,482.14353677209795L247.58404101715087,316.83446690987984L247.76226053619385,145.69598795943963L247.94048005523683,202.26115946936142L249.00979716949462,-65.88145960559342L249.18801668853757,94.04879684974864L249.7226752456665,475.6007739865104L250.25733380279542,243.53494937138998L250.43555332183837,18.886354501051795L250.61377284088132,344.91291963152844L251.68308995513917,543.6590110239264L251.86130947418212,118.75088766673105L252.39596803131104,245.47958107378113L255.06926081695556,299.89656297863434L255.24748033599852,171.61911945614816L255.4256998550415,221.8961960255725L256.1385779312134,218.42739145687244L256.4950169692993,21.44591587817282L256.6732364883423,266.0634298092456" fill="none"></path></g></g></g></g></g></g><g transform="translate(51, 176)" clip-path="url(#clip_1)"><clipPath id="clip_1"><rect width="278" height="23"></rect></clipPath><g><g><line x1="0" y1="0" x2="0" y2="5" style="visibility: inherit;" fill="rgb(0, 0, 0)" stroke="rgb(204, 204, 204)" stroke-width="1px"></line><line x1="23.205666542053223" y1="0" x2="23.205666542053223" y2="5" style="visibility: inherit;" fill="rgb(0, 0, 0)" stroke="rgb(204, 204, 204)" stroke-width="1px"></line><line x1="46.411333084106445" y1="0" x2="46.411333084106445" y2="5" style="visibility: inherit;" fill="rgb(0, 0, 0)" stroke="rgb(204, 204, 204)" stroke-width="1px"></line><line x1="69.61699962615967" y1="0" x2="69.61699962615967" y2="5" style="visibility: inherit;" fill="rgb(0, 0, 0)" stroke="rgb(204, 204, 204)" stroke-width="1px"></line><line x1="92.82266616821289" y1="0" x2="92.82266616821289" y2="5" style="visibility: inherit;" fill="rgb(0, 0, 0)" stroke="rgb(204, 204, 204)" stroke-width="1px"></line><line x1="116.02833271026611" y1="0" x2="116.02833271026611" y2="5" style="visibility: inherit;" fill="rgb(0, 0, 0)" stroke="rgb(204, 204, 204)" stroke-width="1px"></line><line x1="139.23399925231934" y1="0" x2="139.23399925231934" y2="5" style="visibility: inherit;" fill="rgb(0, 0, 0)" stroke="rgb(204, 204, 204)" stroke-width="1px"></line><line x1="162.43966579437256" y1="0" x2="162.43966579437256" y2="5" style="visibility: inherit;" fill="rgb(0, 0, 0)" stroke="rgb(204, 204, 204)" stroke-width="1px"></line><line x1="185.64533233642578" y1="0" x2="185.64533233642578" y2="5" style="visibility: inherit;" fill="rgb(0, 0, 0)" stroke="rgb(204, 204, 204)" stroke-width="1px"></line><line x1="208.850998878479" y1="0" x2="208.850998878479" y2="5" style="visibility: inherit;" fill="rgb(0, 0, 0)" stroke="rgb(204, 204, 204)" stroke-width="1px"></line><line x1="232.05666542053223" y1="0" x2="232.05666542053223" y2="5" style="visibility: inherit;" fill="rgb(0, 0, 0)" stroke="rgb(204, 204, 204)" stroke-width="1px"></line><line x1="255.26233196258545" y1="0" x2="255.26233196258545" y2="5" style="visibility: inherit;" fill="rgb(0, 0, 0)" stroke="rgb(204, 204, 204)" stroke-width="1px"></line><line x1="278.4679985046387" y1="0" x2="278.4679985046387" y2="5" style="visibility: inherit;" fill="rgb(0, 0, 0)" stroke="rgb(204, 204, 204)" stroke-width="1px"></line></g><g transform="translate(0, 8)"><text style="text-anchor: middle; visibility: hidden; font-family: Roboto, sans-serif; font-size: 12px; font-weight: 200;" x="0" y="0" dx="0em" dy="0.95em" fill="rgb(33, 33, 33)" stroke="none" stroke-width="1px">-100k</text><text style="text-anchor: middle; visibility: inherit; font-family: Roboto, sans-serif; font-size: 12px; font-weight: 200;" x="23.205666542053223" y="0" dx="0em" dy="0.95em" fill="rgb(33, 33, 33)" stroke="none" stroke-width="1px">0</text><text style="text-anchor: middle; visibility: hidden; font-family: Roboto, sans-serif; font-size: 12px; font-weight: 200;" x="46.411333084106445" y="0" dx="0em" dy="0.95em" fill="rgb(33, 33, 33)" stroke="none" stroke-width="1px">100k</text><text style="text-anchor: middle; visibility: inherit; font-family: Roboto, sans-serif; font-size: 12px; font-weight: 200;" x="69.61699962615967" y="0" dx="0em" dy="0.95em" fill="rgb(33, 33, 33)" stroke="none" stroke-width="1px">200k</text><text style="text-anchor: middle; visibility: hidden; font-family: Roboto, sans-serif; font-size: 12px; font-weight: 200;" x="92.82266616821289" y="0" dx="0em" dy="0.95em" fill="rgb(33, 33, 33)" stroke="none" stroke-width="1px">300k</text><text style="text-anchor: middle; visibility: inherit; font-family: Roboto, sans-serif; font-size: 12px; font-weight: 200;" x="116.02833271026611" y="0" dx="0em" dy="0.95em" fill="rgb(33, 33, 33)" stroke="none" stroke-width="1px">400k</text><text style="text-anchor: middle; visibility: hidden; font-family: Roboto, sans-serif; font-size: 12px; font-weight: 200;" x="139.23399925231934" y="0" dx="0em" dy="0.95em" fill="rgb(33, 33, 33)" stroke="none" stroke-width="1px">500k</text><text style="text-anchor: middle; visibility: inherit; font-family: Roboto, sans-serif; font-size: 12px; font-weight: 200;" x="162.43966579437256" y="0" dx="0em" dy="0.95em" fill="rgb(33, 33, 33)" stroke="none" stroke-width="1px">600k</text><text style="text-anchor: middle; visibility: hidden; font-family: Roboto, sans-serif; font-size: 12px; font-weight: 200;" x="185.64533233642578" y="0" dx="0em" dy="0.95em" fill="rgb(33, 33, 33)" stroke="none" stroke-width="1px">700k</text><text style="text-anchor: middle; visibility: inherit; font-family: Roboto, sans-serif; font-size: 12px; font-weight: 200;" x="208.850998878479" y="0" dx="0em" dy="0.95em" fill="rgb(33, 33, 33)" stroke="none" stroke-width="1px">800k</text><text style="text-anchor: middle; visibility: hidden; font-family: Roboto, sans-serif; font-size: 12px; font-weight: 200;" x="232.05666542053223" y="0" dx="0em" dy="0.95em" fill="rgb(33, 33, 33)" stroke="none" stroke-width="1px">900k</text><text style="text-anchor: middle; visibility: inherit; font-family: Roboto, sans-serif; font-size: 12px; font-weight: 200;" x="255.26233196258545" y="0" dx="0em" dy="0.95em" fill="rgb(33, 33, 33)" stroke="none" stroke-width="1px">1M</text><text style="text-anchor: middle; visibility: hidden; font-family: Roboto, sans-serif; font-size: 12px; font-weight: 200;" x="278.4679985046387" y="0" dx="0em" dy="0.95em" fill="rgb(33, 33, 33)" stroke="none" stroke-width="1px">1.1M</text></g><line x1="0" y1="0" x2="278.4679985046387" y2="0" fill="rgb(0, 0, 0)" stroke="rgb(204, 204, 204)" stroke-width="1px"></line></g></g></g></g></svg>