<svg viewBox="0 0 330 200" xmlns="http://www.w3.org/2000/svg"><g><g><g><g><g><line x1="41.149001121520996" y1="176.89999961853027" x2="36.149001121520996" y2="176.89999961853027" style="visibility: inherit;" fill="rgb(0, 0, 0)" stroke="rgb(204, 204, 204)" stroke-width="1px"></line><line x1="41.149001121520996" y1="160.8181814713912" x2="36.149001121520996" y2="160.8181814713912" style="visibility: inherit;" fill="rgb(0, 0, 0)" stroke="rgb(204, 204, 204)" stroke-width="1px"></line><line x1="41.149001121520996" y1="144.73636332425215" x2="36.149001121520996" y2="144.73636332425215" style="visibility: inherit;" fill="rgb(0, 0, 0)" stroke="rgb(204, 204, 204)" stroke-width="1px"></line><line x1="41.149001121520996" y1="128.65454517711294" x2="36.149001121520996" y2="128.65454517711294" style="visibility: inherit;" fill="rgb(0, 0, 0)" stroke="rgb(204, 204, 204)" stroke-width="1px"></line><line x1="41.149001121520996" y1="112.57272702997386" x2="36.149001121520996" y2="112.57272702997386" style="visibility: inherit;" fill="rgb(0, 0, 0)" stroke="rgb(204, 204, 204)" stroke-width="1px"></line><line x1="41.149001121520996" y1="96.49090888283467" x2="36.149001121520996" y2="96.49090888283467" style="visibility: inherit;" fill="rgb(0, 0, 0)" stroke="rgb(204, 204, 204)" stroke-width="1px"></line><line x1="41.149001121520996" y1="80.4090907356956" x2="36.149001121520996" y2="80.4090907356956" style="visibility: inherit;" fill="rgb(0, 0, 0)" stroke="rgb(204, 204, 204)" stroke-width="1px"></line><line x1="41.149001121520996" y1="64.32727258855654" x2="36.149001121520996" y2="64.32727258855654" style="visibility: inherit;" fill="rgb(0, 0, 0)" stroke="rgb(204, 204, 204)" stroke-width="1px"></line><line x1="41.149001121520996" y1="48.245454441417344" x2="36.149001121520996" y2="48.245454441417344" style="visibility: inherit;" fill="rgb(0, 0, 0)" stroke="rgb(204, 204, 204)" stroke-width="1px"></line><line x1="41.149001121520996" y1="32.16363629427826" x2="36.149001121520996" y2="32.16363629427826" style="visibility: inherit;" fill="rgb(0, 0, 0)" stroke="rgb(204, 204, 204)" stroke-width="1px"></line><line x1="41.149001121520996" y1="16.081818147139064" x2="36.149001121520996" y2="16.081818147139064" style="visibility: inherit;" fill="rgb(0, 0, 0)" stroke="rgb(204, 204, 204)" stroke-width="1px"></line><line x1="41.149001121520996" y1="0" x2="36.149001121520996" y2="0" style="visibility: inherit;" fill="rgb(0, 0, 0)" stroke="rgb(204, 204, 204)" stroke-width="1px"></line></g><g transform="translate(31.149001121520996, 0)"><text style="text-anchor: end; visibility: hidden; font-family: Roboto, sans-serif; font-size: 12px; font-weight: 200;" x="0" y="176.89999961853027" dx="0em" dy="0.3em" fill="rgb(33, 33, 33)" stroke="none" stroke-width="1px">5.4</text><text style="text-anchor: end; visibility: inherit; font-family: Roboto, sans-serif; font-size: 12px; font-weight: 200;" x="0" y="160.8181814713912" dx="0em" dy="0.3em" fill="rgb(33, 33, 33)" stroke="none" stroke-width="1px">5.5</text><text style="text-anchor: end; visibility: hidden; font-family: Roboto, sans-serif; font-size: 12px; font-weight: 200;" x="0" y="144.73636332425215" dx="0em" dy="0.3em" fill="rgb(33, 33, 33)" stroke="none" stroke-width="1px">5.6</text><text style="text-anchor: end; visibility: inherit; font-family: Roboto, sans-serif; font-size: 12px; font-weight: 200;" x="0" y="128.65454517711294" dx="0em" dy="0.3em" fill="rgb(33, 33, 33)" stroke="none" stroke-width="1px">5.7</text><text style="text-anchor: end; visibility: hidden; font-family: Roboto, sans-serif; font-size: 12px; font-weight: 200;" x="0" y="112.57272702997386" dx="0em" dy="0.3em" fill="rgb(33, 33, 33)" stroke="none" stroke-width="1px">5.8</text><text style="text-anchor: end; visibility: inherit; font-family: Roboto, sans-serif; font-size: 12px; font-weight: 200;" x="0" y="96.49090888283467" dx="0em" dy="0.3em" fill="rgb(33, 33, 33)" stroke="none" stroke-width="1px">5.9</text><text style="text-anchor: end; visibility: hidden; font-family: Roboto, sans-serif; font-size: 12px; font-weight: 200;" x="0" y="80.4090907356956" dx="0em" dy="0.3em" fill="rgb(33, 33, 33)" stroke="none" stroke-width="1px">6</text><text style="text-anchor: end; visibility: inherit; font-family: Roboto, sans-serif; font-size: 12px; font-weight: 200;" x="0" y="64.32727258855654" dx="0em" dy="0.3em" fill="rgb(33, 33, 33)" stroke="none" stroke-width="1px">6.1</text><text style="text-anchor: end; visibility: hidden; font-family: Roboto, sans-serif; font-size: 12px; font-weight: 200;" x="0" y="48.245454441417344" dx="0em" dy="0.3em" fill="rgb(33, 33, 33)" stroke="none" stroke-width="1px">6.2</text><text style="text-anchor: end; visibility: inherit; font-family: Roboto, sans-serif; font-size: 12px; font-weight: 200;" x="0" y="32.16363629427826" dx="0em" dy="0.3em" fill="rgb(33, 33, 33)" stroke="none" stroke-width="1px">6.3</text><text style="text-anchor: end; visibility: hidden; font-family: Roboto, sans-serif; font-size: 12px; font-weight: 200;" x="0" y="16.081818147139064" dx="0em" dy="0.3em" fill="rgb(33, 33, 33)" stroke="none" stroke-width="1px">6.4</text><text style="text-anchor: end; visibility: hidden; font-family: Roboto, sans-serif; font-size: 12px; font-weight: 200;" x="0" y="0" dx="0em" dy="0.3em" fill="rgb(33, 33, 33)" stroke="none" stroke-width="1px">6.5</text></g><line x1="41.149001121520996" y1="0" x2="41.149001121520996" y2="176.89999961853027" fill="rgb(0, 0, 0)" stroke="rgb(204, 204, 204)" stroke-width="1px"></line></g></g><g transform="translate(41, 0)" clip-path="url(#clip_0)"><clipPath id="clip_0"><rect width="288" height="176"></rect></clipPath><g><g><g><line x1="0" y1="0" x2="0" y2="176.89999961853027" fill="rgb(0, 0, 0)" stroke="rgb(66, 66, 66)" stroke-width="1px" opacity="0.25"></line><line x1="24.07091657320658" y1="0" x2="24.07091657320658" y2="176.89999961853027" fill="rgb(0, 0, 0)" stroke="rgb(66, 66, 66)" stroke-width="1px" opacity="0.25"></line><line x1="48.14183314641316" y1="0" x2="48.14183314641316" y2="176.89999961853027" fill="rgb(0, 0, 0)" stroke="rgb(66, 66, 66)" stroke-width="1px" opacity="0.25"></line><line x1="72.21274971961975" y1="0" x2="72.21274971961975" y2="176.89999961853027" fill="rgb(0, 0, 0)" stroke="rgb(66, 66, 66)" stroke-width="1px" opacity="0.25"></line><line x1="96.28366629282633" y1="0" x2="96.28366629282633" y2="176.89999961853027" fill="rgb(0, 0, 0)" stroke="rgb(66, 66, 66)" stroke-width="1px" opacity="0.25"></line><line x1="120.35458286603293" y1="0" x2="120.35458286603293" y2="176.89999961853027" fill="rgb(0, 0, 0)" stroke="rgb(66, 66, 66)" stroke-width="1px" opacity="0.25"></line><line x1="144.4254994392395" y1="0" x2="144.4254994392395" y2="176.89999961853027" fill="rgb(0, 0, 0)" stroke="rgb(66, 66, 66)" stroke-width="1px" opacity="0.25"></line><line x1="168.4964160124461" y1="0" x2="168.4964160124461" y2="176.89999961853027" fill="rgb(0, 0, 0)" stroke="rgb(66, 66, 66)" stroke-width="1px" opacity="0.25"></line><line x1="192.56733258565265" y1="0" x2="192.56733258565265" y2="176.89999961853027" fill="rgb(0, 0, 0)" stroke="rgb(66, 66, 66)" stroke-width="1px" opacity="0.25"></line><line x1="216.63824915885925" y1="0" x2="216.63824915885925" y2="176.89999961853027" fill="rgb(0, 0, 0)" stroke="rgb(66, 66, 66)" stroke-width="1px" opacity="0.25"></line><line x1="240.70916573206586" y1="0" x2="240.70916573206586" y2="176.89999961853027" fill="rgb(0, 0, 0)" stroke="rgb(66, 66, 66)" stroke-width="1px" opacity="0.25"></line><line x1="264.7800823052724" y1="0" x2="264.7800823052724" y2="176.89999961853027" fill="rgb(0, 0, 0)" stroke="rgb(66, 66, 66)" stroke-width="1px" opacity="0.25"></line><line x1="288.850998878479" y1="0" x2="288.850998878479" y2="176.89999961853027" fill="rgb(0, 0, 0)" stroke="rgb(66, 66, 66)" stroke-width="1px" opacity="0.25"></line></g><g><line x1="0" y1="176.89999961853027" x2="288.850998878479" y2="176.89999961853027" fill="rgb(0, 0, 0)" stroke="rgb(66, 66, 66)" stroke-width="1px" opacity="0.25"></line><line x1="0" y1="160.8181814713912" x2="288.850998878479" y2="160.8181814713912" fill="rgb(0, 0, 0)" stroke="rgb(66, 66, 66)" stroke-width="1px" opacity="0.25"></line><line x1="0" y1="144.73636332425215" x2="288.850998878479" y2="144.73636332425215" fill="rgb(0, 0, 0)" stroke="rgb(66, 66, 66)" stroke-width="1px" opacity="0.25"></line><line x1="0" y1="128.65454517711294" x2="288.850998878479" y2="128.65454517711294" fill="rgb(0, 0, 0)" stroke="rgb(66, 66, 66)" stroke-width="1px" opacity="0.25"></line><line x1="0" y1="112.57272702997386" x2="288.850998878479" y2="112.57272702997386" fill="rgb(0, 0, 0)" stroke="rgb(66, 66, 66)" stroke-width="1px" opacity="0.25"></line><line x1="0" y1="96.49090888283467" x2="288.850998878479" y2="96.49090888283467" fill="rgb(0, 0, 0)" stroke="rgb(66, 66, 66)" stroke-width="1px" opacity="0.25"></line><line x1="0" y1="80.4090907356956" x2="288.850998878479" y2="80.4090907356956" fill="rgb(0, 0, 0)" stroke="rgb(66, 66, 66)" stroke-width="1px" opacity="0.25"></line><line x1="0" y1="64.32727258855654" x2="288.850998878479" y2="64.32727258855654" fill="rgb(0, 0, 0)" stroke="rgb(66, 66, 66)" stroke-width="1px" opacity="0.25"></line><line x1="0" y1="48.245454441417344" x2="288.850998878479" y2="48.245454441417344" fill="rgb(0, 0, 0)" stroke="rgb(66, 66, 66)" stroke-width="1px" opacity="0.25"></line><line x1="0" y1="32.16363629427826" x2="288.850998878479" y2="32.16363629427826" fill="rgb(0, 0, 0)" stroke="rgb(66, 66, 66)" stroke-width="1px" opacity="0.25"></line><line x1="0" y1="16.081818147139064" x2="288.850998878479" y2="16.081818147139064" fill="rgb(0, 0, 0)" stroke="rgb(66, 66, 66)" stroke-width="1px" opacity="0.25"></line><line x1="0" y1="0" x2="288.850998878479" y2="0" fill="rgb(0, 0, 0)" stroke="rgb(66, 66, 66)" stroke-width="1px" opacity="0.25"></line></g></g></g><g><g><line x1="0" y1="1045.3181795640428" x2="288.850998878479" y2="1045.3181795640428" fill="rgb(0, 0, 0)" stroke="rgb(153, 153, 153)" stroke-width="1.5px"></line></g></g><g><g><line x1="24.07091657320658" y1="0" x2="24.07091657320658" y2="176.89999961853027" fill="rgb(0, 0, 0)" stroke="rgb(153, 153, 153)" stroke-width="1.5px"></line></g></g><g><g><g><g><g><path style="fill: none;" stroke="rgb(255, 112, 67)" stroke-width="2px" d="M27.213615441004436,177.97265325606108L27.39848008028666,165.81143810155538L27.58334471956889,158.03101404933463L27.768209358851117,164.9956817765159L27.95307399813334,166.27302747305856L28.322803276697798,166.69021670374002L28.50766791598002,165.97529563247667L28.877397194544475,160.22225151590905L29.0622618338267,156.54222815275114L29.247126473108928,150.51094522401226L29.431991112391156,152.07531406629448L29.61685575167338,145.8615208424048L29.80172039095561,147.07253651524078L29.986585030237833,145.9506608760553L30.171449669520058,139.66086072917463L30.356314308802286,139.3380983916485L30.541178948084514,134.8196699970417L30.910908226648967,134.6254785274673L31.095772865931195,134.87368029652976L31.28063750521342,132.41630593474372L31.465502144495645,135.29135198147836L31.650366783777873,134.16177222514426L32.020096062342326,135.14654771106177L32.20496070162455,136.52550950486545L32.94441925875346,136.68755073620756L33.12928389803568,137.15687495112215L33.31414853731791,138.32463530390453L33.49901317660014,138.9491598737565L33.68387781588236,138.31114138350162L33.86874245516459,137.48217162866342L34.05360709444682,137.17929679743136L34.23847173372904,137.80312740272967L34.423336373011274,138.9704902012658L34.79306565157572,137.8847351310543L34.97793029085795,140.4533550647567L35.347659569422405,140.77149984103525L35.53252420870463,138.7330087945515L35.71738884798686,139.8604745381301L35.902253487269085,140.28887943352606L36.27198276583354,137.1851742152926L36.45684740511577,136.98784597928838L36.64171204439799,137.33391153000892L36.826576683680216,137.15252951852756L37.196305962244665,134.8673894788654L37.3811706015269,135.85392172324765L37.56603524080912,136.18361147485484L37.750899880091346,136.2285010820366L38.1206291586558,134.70625565189766L38.49035843722026,133.95327114912783L38.67522307650248,133.92524927263443L38.86008771578471,132.1726187298737L39.04495235506694,131.5132067660312L39.229816994349164,132.32598661242298L39.41468163363139,131.7634538976261L39.59954627291362,130.54184768004578L39.96927555147806,130.97374436288732L40.154140190760295,130.53748469443707L40.33900483004252,130.76213752889575L40.708734108606976,130.91315964504747L40.8935987478892,131.3497051497043L41.26332802645366,131.79349452465414L41.633057305018106,132.50867611691072L41.81792194430034,133.64887592811414L42.00278658358256,131.9215210681821L42.55738050142924,132.26041771598824L42.74224514071147,130.3387805229399L43.29683905855814,128.93941724137667L43.48170369784037,127.96071895520545L43.85143297640482,127.49249449482767L44.036297615687054,126.82899806381278L44.22116225496928,126.65267091300282L44.406026894251504,126.21834937127718L44.590891533533735,126.92953368450361L44.77575617281596,127.53464928469856L44.960620812098185,127.92763610991706L45.33035009066264,129.30650250838184L45.515214729944866,129.51592556451536L45.7000793692271,129.29158633441443L45.88494400850932,129.2225775906601L46.25467328707377,128.9079375939961L46.439537926355996,127.51341715343092L46.62440256563822,126.55973617815313L46.99413184420268,126.48292840219625L47.36386112276713,126.51868387711585L47.54872576204936,127.96304489019708L47.73359040133158,128.01615032250086L47.918455040613814,127.31612759930265L48.10331967989604,126.57435359429914L48.288184319178264,125.21110206165976L48.473048958460495,124.71053778561499L48.65791359774272,125.45718396174037L49.027642876307176,126.36730658900929L49.39737215487162,126.13294766135861L49.58223679415385,127.09563889265337L49.767101433436075,127.66200134092647L49.9519660727183,127.17171948609816L50.13683071200053,126.28215795960912L50.321695351282756,125.26147992848405L50.69142462984721,124.06086931511967L50.87628926912944,124.13797659789539L51.06115390841166,124.80237078684168L51.24601854769389,124.74961340885967L51.43088318697612,123.86066467991988L51.61574782625834,122.95083309302214L51.9854771048228,123.31691365372934L52.54007102266947,124.01952498530564L52.7249356619517,125.23153527116736L53.094664940516154,126.01504117120315L53.27952957979838,124.72783676558127L53.46439421908061,125.37399829878952L53.649258858362835,125.2319490213109L53.83412349764506,125.33673464243276L54.01898813692729,124.51638211252917L54.203852776209516,123.49932715833519L54.38871741549174,122.80829219430936L54.57358205477397,122.13261954850763L54.94331133333842,122.88215396551104L55.31304061190287,122.8878045610599L55.497905251185095,122.89986719049783L55.68276989046732,123.41137264023811L55.86763452974955,124.37950272296975L56.052499169031776,124.46363987885013L56.42222844759623,123.49794222661863L56.60709308687846,123.5901091254268L56.79195772616069,123.46230480195648L56.976822365442914,123.5411999744405L57.16168700472514,124.04416774506299L57.531416283289595,124.43252824114666L57.71628092257182,124.69621512409059L57.90114556185405,124.63162348223409L58.086010201136276,124.56349145384773L58.27087484041849,124.9357450831945L58.45573947970072,124.66057001197436L58.64060411898295,124.65012019910904L59.19519803682963,124.44312791787152L59.380062676111855,124.81548988295113L59.56492731539408,125.10933033238005L59.74979195467631,125.3488491426559L59.934656593958536,125.39334817882799L60.30438587252299,126.26800107759908L60.67411515108745,126.115044548835L60.85897979036967,125.76697141066946L61.0438444296519,126.58635168736821L61.22870906893413,126.24218616790388L61.59843834749857,126.02831698022281L61.7833029867808,126.75138540897154L61.96816762606303,127.33286571806711L62.15303226534525,127.10127835560932L62.33789690462748,127.53085179170411L62.52276154390971,127.84875926536479L62.707626183191934,128.26688150103976L62.89249082247416,127.63160123037319L63.07735546175639,127.82739431718751L63.262220101038615,128.2401595612731L63.63194937960307,127.66450655896676L64.00167865816752,127.5812046928169L64.18654329744975,127.32163701758654L64.5562725760142,127.6168444322986L64.74113721529642,127.43925706064294L64.92600185457866,128.10338746058875L65.11086649386088,128.29525637911684L65.29573113314311,128.2082852250304L65.66546041170756,128.12001955775094L65.85032505098978,128.0635988913329L66.03518969027202,128.8505282713817L66.5897836081187,128.9292232244082L66.95951288668314,128.54262263258855L67.14437752596538,128.12480997711216L67.3292421652476,127.70858702193927L67.51410680452982,127.62696803452714L67.69897144381206,127.9553738117421L67.88383608309428,127.5143558909179L68.0687007223765,127.50519918882041L68.25356536165873,127.67877078888256L68.43843000094095,127.37318787728998L68.80815927950542,127.65693226167069L68.99302391878764,127.70787067251943L69.36275319735209,127.28596522347887L69.54761783663432,127.87861259124367L69.73248247591654,127.96412852148063L69.91734711519878,128.79641703438753L70.102211754481,129.05267502850472L70.28707639376323,128.8494178007034L70.8416703116099,129.19401543619807L71.02653495089213,128.93483215047547L71.21139959017435,128.33375482667262L71.39626422945658,127.97532439259277L71.76599350802104,127.32730770734612L71.95085814730326,126.97849983009176L72.13572278658549,126.94826864962072L72.32058742586771,126.43593751867192L72.69031670443218,126.29277173941064L72.87518134371439,125.79269786137746L73.24491062227885,126.24769104323103L73.79950454012554,126.17853295918201L74.16923381868999,126.03055858160934L74.35409845797221,125.04073178895267L74.72382773653666,124.93755275941517L74.9086923758189,125.2178897344318L75.09355701510111,125.13665847818537L75.27842165438334,125.0306826181878L75.64815093294779,124.31835427910926L75.83301557223002,123.59018726078119L76.01788021151225,123.45745419635873L76.20274485079447,123.0350583477638L76.3876094900767,122.98949472735974L76.57247412935894,122.83656130744221L76.75733876864115,123.66212032690395L76.94220340792339,123.28325991625174L77.12706804720561,123.44312459504768L77.31193268648784,122.8383951855321L77.49679732577006,122.88183254398623L77.86652660433451,122.82723552139657L78.05139124361675,122.02952271272495L78.79084980074563,121.90090377834332L78.97571444002787,121.51118667952153L79.1605790793101,121.41558205402328L79.34544371859234,121.54783311553656L79.53030835787455,121.27758003058115L79.71517299715678,120.89716192465589L79.90003763643901,120.8521801245326L80.26976691500346,121.23660032602865L80.4546315542857,121.40513417322538L80.63949619356791,121.42709243454935L80.82436083285015,121.44682071463936L81.00922547213237,121.42787794071546L81.19409011141458,121.40676256938734L81.37895475069682,121.30127728320483L81.74868402926127,121.10187266975281L81.9335486685435,121.0795726607156L82.11841330782573,120.55441225604721L82.30327794710794,120.33680979316425L82.48814258639018,120.09477562639636L82.6730072256724,120.05238612142061L83.04273650423686,120.217252838576L83.2276011435191,119.8711133658841L83.4124657828013,119.35675456961366L83.59733042208354,119.44440906030319L83.78219506136577,119.42454032359112L84.15192433993022,119.29884249265514L84.70651825777689,118.75885563260678L85.07624753634134,118.32666730857648L85.26111217562358,118.48320305015463L85.44597681490579,118.12053584326132L85.63084145418803,118.04022521509762L85.81570609347025,117.98499970163378L86.0005707327525,117.44717188751686L86.37030001131694,117.00981674971435L86.55516465059917,117.234639884162L86.74002928988139,116.90393857062344L87.10975856844586,116.4967867144493L87.29462320772807,115.93276666967303L87.47948784701029,116.2925738092114L87.66435248629253,115.84620511797407L87.84921712557474,115.48056413164511L88.03408176485698,115.13355433736088L88.21894640413919,115.48160538030099L88.40381104342143,115.46689987852281L88.58867568270365,116.03334917433621L88.77354032198589,116.102523594282L88.9584049612681,116.05458168709534L89.32813423983255,116.41045253406197L89.51299887911479,116.17714895368192L89.69786351839701,115.7779213447612L89.88272815767925,115.73720270398897L90.2524574362437,115.23489868948423L90.43732207552593,115.25962525307963L90.80705135409038,115.02300031020359L90.99191599337259,115.08983655631579L91.17678063265483,115.06493584992172L91.36164527193705,115.15888937193444L91.54650991121929,114.81711096270205L91.7313745505015,114.70492037716065L91.91623918978374,114.56573825678724L92.10110382906595,114.90980167574682L92.28596846834819,114.98389630976827L92.47083310763041,115.06294752339724L93.21029166475932,115.51192317429636L93.39515630404154,115.66455282691217L93.58002094332377,115.48628675358891L93.94975022188822,115.3661303053302L94.13461486117045,115.30672227036047L94.68920877901714,115.2774978240614L94.87407341829935,115.27624299087618L95.24380269686381,115.4605690675022L95.42866733614605,115.61497512216356L95.61353197542826,115.58967833135067L96.16812589327495,115.83423073348486L96.35299053255717,115.849342914164L96.53785517183938,115.87206628143113L96.72271981112162,115.90933036703262L96.90758445040385,116.20866071128277L97.09244908968608,115.72989234922017L97.2773137289683,115.76615621508289L97.46217836825053,115.7871660863152L97.64704300753274,115.43089508111333L97.83190764681498,115.34488320473763L98.01677228609721,115.27999421347232L98.20163692537945,115.28490970720885L98.38650156466166,115.35130572901592L98.5713662039439,114.69939769008117L98.7562308432261,114.31187823178723L98.94109548250835,113.77753031676815L99.12596012179057,113.47643281301757L99.31082476107281,113.34401473020151L99.49568940035502,113.15157663182289L99.68055403963724,113.01160060487803L99.86541867891948,113.35039093806654L100.42001259676614,113.40266155131161L100.60487723604838,113.54670628204339L100.7897418753306,113.30736074710325L100.97460651461284,113.22085768250757L101.5292004324595,113.49518404661625L101.71406507174174,113.1794647836403L102.0837943503062,113.41527657335848L102.26865898958842,113.33305865873533L102.45352362887066,113.32673189388336L102.63838826815287,113.36479033873442L102.82325290743509,113.1312291696199L103.00811754671733,113.04225670436638L103.19298218599954,113.03610315216045L103.562711464564,112.82790434517038L103.74757610384624,112.62143399667313L103.93244074312845,112.52734242417465L104.48703466097514,112.63587711257121L104.67189930025737,112.2331955399439L104.8567639395396,112.27427111881582L105.04162857882181,112.22211066227831L105.22649321810405,112.01333379679743L105.41135785738626,112.14671253121767L105.59622249666849,111.77219165332536L105.78108713595073,112.18091891368422L106.15081641451518,112.04697023436479L106.3356810537974,112.56675735831396L106.52054569307963,112.7402310443505L106.70541033236185,112.40595966308584L107.44486888949076,111.99003636888769L107.629733528773,111.92536259649509L107.81459816805521,111.85877355255504L107.99946280733745,111.74584803673845L108.18432744661966,111.85145572771707L108.3691920859019,111.67675010098009L108.55405672518413,111.56803451171227L108.92378600374857,111.51128155715473L109.29351528231302,111.36367039870579L109.47837992159525,111.56680060529281L109.66324456087749,111.68022966209244L109.8481092001597,111.34007599655357L110.03297383944194,111.35821352965662L110.21783847872416,111.19498787474234L110.4027031180064,111.15460608011205L110.77243239657085,111.49199869076521L110.95729703585306,111.33331108834217L111.1421616751353,111.10096140910379L111.32702631441752,111.312352324479L111.69675559298197,111.48769757207471L111.8816202322642,111.51107575974434L112.06648487154642,111.68105932328386L112.6210787893931,111.44132986596466L112.80594342867533,111.1704057233698L112.99080806795756,110.7007421464474L113.17567270723978,110.66924309504826L113.36053734652201,110.46119422029336L113.54540198580425,110.37067290649772L113.73026662508646,110.49649914404338L114.09999590365092,110.56626093830093L114.28486054293316,110.57522565388189L114.46972518221537,110.90514717756768L114.65458982149761,111.18744858672525L114.83945446077982,110.95943986262651L115.02431910006204,110.78948181587215L115.57891301790873,110.6631062366875L115.76377765719096,110.6023771854744L116.1335069357554,110.37173219184669L116.31837157503765,110.57207550295163L116.50323621431986,110.44094859090633L116.87296549288432,110.00764368505307L117.05783013216656,109.96398181799769L117.24269477144877,109.99177928579529L117.79728868929546,109.95323480253433L117.98215332857768,109.86270368484199L118.16701796785989,109.9597253083623L118.35188260714213,109.92752935198368L118.53674724642435,109.97793000925493L118.72161188570658,109.62626641705964L118.9064765249888,109.51761290039622L119.09134116427104,109.27929016635244L119.27620580355325,109.07390356218454L119.64593508211772,108.92615524994007L119.83079972139994,108.87945105233044L120.01566436068217,108.81168736424962L120.2005289999644,108.76365551815927L120.38539363924662,108.6254082290203L120.57025827852885,108.10302036119695L120.93998755709329,108.01940143910696L121.49458147493998,108.3994013077968L121.6794461142222,108.3553754617532L122.23404003206889,107.69436805955232L122.41890467135111,107.42048927697881L122.60376931063334,107.57726443337764L122.78863394991556,107.74043317841651L122.9734985891978,107.6610676186267L123.15836322848001,107.7092227838868L123.34322786776225,107.66601182506271L123.52809250704448,107.6008186158228L123.7129571463267,107.41114735466014L123.89782178560893,107.05083244320996L124.08268642489115,106.9314988925115L124.26755106417338,107.02970558424867L124.4524157034556,106.90766714644582L124.63728034273784,106.88703470016543L124.82214498202005,106.685824813322L125.19187426058451,106.85626274824871L125.37673889986674,106.29104321857025L125.56160353914896,106.01211748660923L125.93133281771341,106.1237456619916L126.30106209627787,105.53704860962625L126.4859267355601,105.69760446060538L126.67079137484232,105.64243855141663L126.85565601412456,105.39299076587672L127.04052065340677,105.50021743043074L127.41024993197124,105.34224963408857L127.59511457125345,105.41451884447062L127.96484384981791,105.29869762635037L128.14970848910014,105.41396549209786L128.33457312838237,105.36751286916686L128.51943776766458,105.21251559606027L128.88916704622906,105.52058716073036L129.07403168551127,105.53814428136718L129.2588963247935,105.6059319484374L129.44376096407572,105.71906162375528L129.81349024264017,105.6397309646434L129.9983548819224,105.65650823514575L130.18321952120462,105.68266494390872L130.5529487997691,105.98416492501184L130.7378134390513,105.92621580923317L130.92267807833355,106.02722119050902L131.4772719961802,105.80888024796603L132.21673055330913,105.74798761819301L132.40159519259134,105.52826007361674L132.58645983187358,105.24147930258125L132.95618911043803,105.13807846529232L133.14105374972024,104.96086145922735L133.32591838900248,104.91436664786376L133.5107830282847,104.81949775653943L133.69564766756693,104.92346969612463L133.88051230684917,104.73869869064565L134.06537694613138,104.58151282973861L134.25024158541362,104.52041630427715L134.43510622469586,104.88907558124389L134.61997086397807,104.8368642940294L134.8048355032603,104.94324278308412L134.98970014254252,104.72999107083433L135.35942942110697,104.82770326691818L135.5442940603892,104.79672066093954L135.72915869967142,104.853216208423L135.91402333895365,104.88975197911921L136.0988879782359,104.77179814502878L136.46861725680034,104.45260206256644L136.65348189608255,104.5982141937822L136.8383465353648,104.60842113780608L137.023211174647,104.64686715930299L137.5778050924937,104.35441342104887L137.76266973177593,104.25105096190661L137.94753437105814,104.4150053555163L138.13239901034038,104.34211878769791L138.31726364962262,104.14647802640606L138.50212828890483,103.97297795761217L138.68699292818707,104.12361968407036L138.87185756746928,104.33834934994987L139.05672220675152,104.2308610412656L139.24158684603373,103.90416112731903L139.42645148531597,103.54611849987543L139.79618076388041,103.37758502560222L139.98104540316265,103.12378279513798L140.16591004244486,102.59170175291102L140.3507746817271,102.3893686172313L140.5356393210093,102.56561571343994L141.090233238856,102.68647641903044L141.2750978781382,102.81950898811048L141.45996251742045,102.9199556743579L141.6448271567027,102.92972211095135L141.8296917959849,102.78085346705838L142.01455643526714,102.81737061679648L142.5691503531138,102.71818893456353L142.75401499239604,102.44688401068845L142.93887963167825,102.45430326058016L143.1237442709605,102.46404789256034L143.30860891024273,102.15801812757833L143.49347354952494,101.98541662446286L144.04806746737162,102.05500163267082L144.23293210665386,101.86895643360893L144.6026613852183,101.78977786822665L144.78752602450052,101.65615210037281L144.97239066378273,101.6715248743182L145.157255303065,101.4848760040675L145.3421199423472,101.0053304613663L145.89671386019387,100.86150811997773L146.08157849947614,100.81809167213068L146.26644313875835,101.06756760889273L146.45130777804056,100.98753588914771L146.82103705660504,100.6606867121173L147.19076633516949,100.93068166186706L147.56049561373393,101.05601156031953L147.93022489229838,101.39828664969414L148.1150895315806,101.32002186870709L148.29995417086286,101.44823647264403L148.48481881014507,101.43465963708748L148.66968344942728,101.41099413772653L149.03941272799173,101.58279294344156L149.22427736727397,101.49435286928063L149.4091420065562,101.41718898087514L149.59400664583842,101.06894848615595L149.77887128512063,101.02735773530736L149.9637359244029,101.06109050621289L150.33346520296732,100.94687872034841L150.51832984224953,100.96365744288265L150.7031944815318,100.80267822371407L150.888059120814,100.72664408472151L151.25778839937846,100.53457395249767L151.44265303866067,100.49074882535886L151.62751767794293,100.55202993068227L151.81238231722514,100.78342130868604L152.18211159578956,100.62692852750924L152.36697623507183,100.73004463262212L152.55184087435404,100.74329964679522L152.73670551363625,100.33694157620776L152.9215701529185,100.44265807041752L153.10643479220073,100.49873403236879L153.47616407076518,100.44471807829855L153.6610287100474,100.51068366780565L154.03075798861187,100.30522300554199L154.21562262789408,100.20119266643411L154.58535190645853,100.53667450124752L155.13994582430522,100.40517505191976L155.32481046358743,100.3359742942467L155.5096751028697,100.1497867368844L155.8794043814341,100.15952894726477L156.06426902071632,100.00510916964492L156.4339982992808,99.85864218419884L156.61886293856304,100.17596933839373L156.80372757784525,99.92227670364494L157.17345685640973,99.6313432716964L157.35832149569194,99.88859116435788L157.54318613497415,99.84760313259497L157.72805077425636,99.666638547988L157.91291541353863,99.72621320325318L158.09778005282084,99.79775671115601L158.28264469210305,99.92304059742685L158.4675093313853,99.85335808602257L158.65237397066753,99.92700258729323L158.83723860994976,99.98533260676005L159.02210324923198,99.85479405611811L159.20696788851419,99.58420433479802L159.39183252779645,99.47067306299091L159.57669716707866,99.38215845583461L159.76156180636087,99.28386075820555L159.94642644564308,99.02367082460826L160.13129108492535,98.7828009569782L160.31615572420756,98.80408077379326L160.685885002772,99.05310458541649L160.87074964205422,98.9305668477102L161.0556142813365,98.71429551730111L161.4253435599009,98.72899254490311L161.61020819918312,98.91180346952999L161.7950728384654,99.14771505004501L161.9799374777476,99.20893581065201L162.1648021170298,99.15753129708128L163.08912531344095,99.17309255042719L163.2739899527232,99.27116034255913L163.45885459200542,99.32127382991918L163.82858387056984,99.1946826032097L164.01344850985208,99.31137080312031L164.19831314913432,99.19517804379227L164.38317778841656,98.877150425707L164.56804242769877,98.7614968366739L165.12263634554546,98.14007835356807L165.30750098482767,97.84808771692289L165.49236562410988,97.75418733503213L165.67723026339215,97.79949003831126L165.86209490267436,97.6431736962017L166.04695954195657,97.60633167970086L166.2318241812388,97.59915179518354L166.41668882052105,97.56703597648982L166.60155345980328,97.40529647980875L166.7864180990855,97.38231355463225L166.9712827383677,97.34654235119213L167.15614737764992,97.22532537192434L167.5258766562144,97.05952122404003L167.7107412954966,97.13073266791143L167.89560593477884,97.20181071251994L168.08047057406108,96.99743577833769L168.26533521334332,96.90147219066772L168.45019985262553,96.85102979591143L168.63506449190774,96.99775428853567L168.81992913119,96.9983586834269L169.00479377047222,96.94665628179398L169.5593876883189,96.90120679834625L169.74425232760112,96.6412288780997L169.92911696688336,96.66903812846607L170.11398160616557,96.56301223894481L170.29884624544778,96.63957537259152L170.48371088473004,96.2332971386304L170.85344016329447,95.90960500191672L171.03830480257668,95.7408179564158L171.22316944185894,95.51285072862608L171.40803408114115,95.44467987254545L171.59289872042336,95.55596318320177L171.7777633597056,95.5402700550086L171.96262799898784,95.16004536708817L172.14749263827008,94.91284401463999L172.88695119539898,94.8173334122132L173.0718158346812,94.77172529432308L173.2566804739634,94.6276452504695L173.44154511324564,94.38142645189905L173.62640975252788,94.21770397332972L173.99613903109233,94.29453155768145L174.18100367037454,94.3585027988104L174.55073294893901,94.41695735650534L174.73559758822122,94.3588681875083L174.92046222750344,94.32833856507055L175.2901915060679,94.39870787892545L175.47505614535012,94.33055956527937L175.65992078463236,94.51349360021588L175.8447854239146,94.5604261858785L176.02965006319684,94.5832184289123L176.21451470247905,94.43220448048515L176.39937934176126,94.26662663319209L176.58424398104347,94.2812299431948L176.76910862032574,94.2996368507712L176.95397325960795,94.17612619588803L177.13883789889016,94.22287377847918L177.3237025381724,94.27153204407531L177.50856717745464,94.06696503971637L177.69343181673688,93.83275392562324L178.0631610953013,93.86355546770332L178.24802573458356,93.62749945232476L178.43289037386577,93.47352184042018L178.61775501314798,93.09242633084781L178.8026196524302,93.0570114418386L178.98748429171243,93.19972687837603L179.35721357027688,93.06679819566942L179.54207820955912,93.18499693818663L179.9118074881236,93.0489404020272L180.0966721274058,92.88952514043119L180.46640140597023,92.85859028781016L180.8361306845347,92.87102265806413L181.3907246023814,93.04916270035865L181.57558924166364,93.28135148965912L182.13018315951027,93.21955402563194L182.49991243807474,93.16304880397091L182.68477707735696,93.24425533028322L182.8696417166392,93.21393089519985L183.23937099520364,93.30968940970064L183.42423563448588,93.47320385996312L183.6091002737681,93.31151613069196L184.16369419161478,93.34166952770168L184.348558830897,93.39795388044048L184.71828810946147,93.21320372201963L184.90315274874368,93.31779945210849L185.08801738802592,93.01238228229978L185.27288202730813,92.68374537778705L185.4577466665904,92.50610511913162L185.6426113058726,92.23683138761689L185.82747594515482,92.10966650993441L186.1972052237193,91.85307866124064L186.3820698630015,91.54791149162831L186.56693450228371,91.39752914452812L186.9366637808482,91.32817186885099L187.12152842013043,91.31275140355673L187.30639305941264,91.26948815270293L187.49125769869485,91.37812242079552L187.67612233797712,91.3762304116481L187.86098697725933,91.37927684239455L188.04585161654154,91.4235888706448L188.23071625582375,91.63336746520922L188.415580895106,91.62915841552413L188.60044553438823,91.8193820287414L188.78531017367044,91.86491534707314L189.1550394522349,91.74602142358124L189.33990409151716,91.70006085474385L189.70963337008158,91.81322312035411L190.07936264864605,91.85859789103206L190.26422728792826,91.81900453953544L190.81882120577495,91.59133055857455L191.0036858450572,91.75918909648802L191.3734151236216,91.65469010406258L191.55827976290382,91.73754656708367L191.7431444021861,91.65514297962261L191.9280090414683,91.64391080300626L192.1128736807505,91.64254230717101L192.482602959315,91.42666403593438L192.6674675985972,91.22700523896064L193.03719687716165,90.93726015968018L193.22206151644392,90.80495761881896L193.59179079500834,90.6308936586567L193.77665543429055,90.26958145649559L193.9615200735728,90.30279770633149L194.14638471285502,90.38908189646808L194.33124935213723,90.36931755171537L194.51611399141947,90.4880432886445L194.70097863070168,90.31826483888064L194.88584326998395,90.30259812198659L195.07070790926616,90.25891189388297L195.44043718783058,90.11283900781011L195.62530182711285,89.97743837123225L195.81016646639506,89.67868759527721L195.99503110567727,89.72224953668531L196.1798957449595,89.64706069479945L196.36476038424175,89.69827842015202L196.54962502352396,89.88845947182546L196.7344896628062,89.96858086516296L196.9193543020884,89.96091326888367L197.10421894137068,89.80365205173682L197.4739482199351,89.74079696328593L197.84367749849955,89.42774745436904L198.02854213778178,89.08042280844388L198.213406777064,88.87307159031792L198.39827141634623,88.99712267763503L198.58313605562844,89.13375135283935L198.7680006949107,89.22571807021731L198.95286533419292,89.27534608886886L199.13772997347513,89.29852959112988L199.32259461275734,89.16445560051292L199.69232389132182,89.20922640382874L199.87718853060403,89.3386493038115L200.2469178091685,89.47505131445105L200.61664708773296,89.40115968861147L200.80151172701517,89.67646767383795L200.98637636629738,89.3328450580576L201.17124100557965,89.23730694649177L201.54097028414407,89.06781830339918L201.7258349234263,89.08321993531577L201.91069956270854,89.13630333426221L202.09556420199075,88.99084286457203L202.280428841273,88.68149860161763L202.4652934805552,88.66651575362833L202.65015811983747,88.61749811462496L203.0198873984019,88.38417253970132L203.2047520376841,88.31652407682422L203.7593459555308,88.19787036590638L203.94421059481303,87.90023228535959L204.68366915194193,87.71291571915894L204.86853379122414,87.80388478710674L205.0533984305064,87.73274494809202L205.23826306978862,87.80186781186013L205.42312770907083,87.6356010346993L205.60799234835306,87.5183894042861L205.7928569876353,87.5840566241764L205.9777216269175,87.46243534624406L206.53231554476417,87.17102984162192L206.71718018404644,87.28584249733724L206.90204482332865,87.11679854754688L207.08690946261086,87.17374494394915L207.2717741018931,87.10009980541535L207.64150338045755,86.92639034943718L207.8263680197398,86.941556022136L208.011232659022,86.8177045048837L208.19609729830427,87.06067733469524L208.38096193758648,86.97379871216486L208.7506912161509,86.98391857411244L208.93555585543317,86.923861069939L209.12042049471538,86.92408533817277L209.3052851339976,87.00630465822084L209.49014977327982,86.85905182636766L209.67501441256204,86.77196835258066L209.85987905184427,86.77151919847108L210.0447436911265,86.70739265211576L210.22960833040872,86.65030918392733L210.41447296969093,86.56431641138367L211.15393152681986,86.40563947340945L211.5236608053843,86.41083520779438L211.70852544466655,86.71045392016984L211.89339008394876,86.68126320105381L212.07825472323103,86.78114284796543L212.26311936251324,86.69648039374889L212.8177132803599,86.88941397339455L213.18744255892435,86.74000045294986L213.37230719820658,86.75463650838743L213.74203647677103,86.70878474222086L213.92690111605327,86.69960962515842L214.2966303946177,86.64003996204553L214.48149503389996,86.47812774772497L214.85122431246438,86.45328673406253L215.5906828695933,86.48715064046357L215.77554750887552,86.52204571564499L215.96041214815773,86.50791868542127L216.14527678744,86.33626093094455L216.3301414267222,86.2712120549422L217.0695999838511,86.17000981103975L217.25446462313334,85.99626668830155L217.43932926241555,85.71014693663763L217.6241939016978,85.46107788984017L217.99392318026224,85.48175253749444L218.17878781954445,85.42908847810996L218.36365245882672,85.52312752090687L218.73338173739114,85.530036789047L218.91824637667338,85.59350381812624L219.1031110159556,85.46256866845354L219.47284029452007,85.36198811351008L219.8425695730845,85.31620612569644L220.02743421236676,85.52381327690794L220.21229885164897,85.4512570322685L220.58202813021342,85.25931531228221L220.76689276949566,85.16750511188145L220.95175740877787,85.05625464773023L221.1366220480601,84.94863484159012L221.32148668734231,84.80344121296866L221.50635132662458,84.75716442059793L221.6912159659068,84.48284806097485L221.876080605189,84.38707436003382L222.0609452444712,84.30741226812418L222.24580988375345,84.22544313723867L222.4306745230357,84.28796351278336L222.6155391623179,84.19316282296668L222.80040380160014,84.06238759593909L223.1701330801646,84.14729972507702L223.35499771944683,84.20767436341846L223.53986235872904,84.22364408700874L223.90959163729352,84.29877615742782L224.09445627657573,84.18799369545958L224.27932091585794,84.09201928608276L224.46418555514018,84.00071545297234L224.83391483370463,84.02986011665337L225.01877947298686,84.01415615339297L225.20364411226907,83.86391763559152L225.38850875155129,83.67432113634786L225.94310266939797,83.60981682422516L226.1279673086802,83.52503850576647L226.31283194796245,83.60803266583906L227.2371551443736,83.64845024389577L227.606884422938,83.563962647244L227.79174906222028,83.62277499623164L227.9766137015025,83.69546984117825L228.1614783407847,83.49948083025056L228.34634298006694,83.52435821297058L228.71607225863139,83.50369880949624L228.90093689791362,83.30061081779677L229.08580153719583,83.36290063023858L229.27066617647804,83.31154713608392L229.4555308157603,83.40573408188965L229.64039545504252,83.37872253646049L229.82526009432473,83.29946810193803L230.01012473360697,83.31825224025643L230.1949893728892,83.16960589967559L230.56471865145366,83.11933204611542L230.74958329073587,83.14864509693578L230.93444793001808,83.13593756187288L231.11931256930035,83.35357064944536L231.30417720858256,83.21883412561255L231.48904184786477,83.23142702902544L231.673906487147,83.40817804631753L232.2285004049937,83.33476493821772L232.4133650442759,83.38265066607238L232.78309432284038,83.54207272781628L232.9679589621226,83.31784421645686L233.1528236014048,83.18566491868435L233.33768824068707,83.15769122991894L233.52255287996928,83.05120029044582L233.7074175192515,83.28900751758687L233.89228215853373,83.34300881784789L234.07714679781594,83.48689474954008L234.26201143709818,83.43317520114485L234.44687607638042,83.21698433589867L234.81660535494484,83.31798432187692L235.0014699942271,83.09346354396394L235.37119927279153,83.15528808273807L235.55606391207377,83.07612434541227L235.92579319063822,82.86724446493174L236.11065782992046,83.01941757998124L236.4803871084849,83.18262568803428L236.66525174776714,83.10896396792006L236.85011638704935,82.96574776407095L237.03498102633156,82.69847010681968L237.2198456656138,82.6423531878697L237.40471030489604,82.6520772237964L237.7744395834605,82.727887586633L237.9593042227427,82.95193334210846L238.14416886202494,83.00822059797203L238.5138981405894,82.95121526638822L238.6987627798716,82.98122159594928L239.06849205843608,82.73980299663656L239.2533566977183,83.00957608463389L239.43822133700053,82.98077853238054L239.62308597628277,82.87636675831598L239.80795061556498,82.92213927377867L239.99281525484722,82.78290259589396L240.17767989412943,82.74349540447368L240.91713845125832,82.70641109278002L241.10200309054056,82.74540938794922L241.2868677298228,82.94352880605041L241.65659700838725,82.89804044850796L241.84146164766946,82.9097707440557L242.0263262869517,83.0087523170271L242.39605556551615,83.08936404165814L242.58092020479836,83.11526286254124L242.76578484408063,82.95531772137491L243.13551412264505,82.92901219024239L243.5052434012095,82.69301975328116L243.87497267977398,82.64045186840191L244.0598373190562,82.4812626652743L244.2447019583384,82.69894668400607L244.42956659762066,82.63936303038885L244.79929587618508,82.59227598206253L244.98416051546732,82.34861819163952L245.16902515474956,82.33191871869207L245.35388979403177,82.11927084064452L245.538754433314,81.853219449047L245.72361907259622,82.12989912706506L246.2782129904429,81.94096684415241L246.46307762972512,82.05092693608769L247.0176715475718,81.8658459954714L247.20253618685405,81.72688669577963L247.38740082613626,81.7581804243523L247.75713010470074,81.62207336108848L247.94199474398295,81.68974812761707L248.49658866182963,81.59682771247492L248.68145330111184,81.54225556233276L248.86631794039408,81.56949912752899L249.23604721895853,81.44631311073906L249.42091185824077,81.33524762129404L249.60577649752298,81.16046871927111L249.7906411368052,81.11289715617781L249.97550577608746,81.33479309659195L250.16037041536967,81.41833833921426L250.34523505465188,81.50336810070318L250.71496433321636,81.43322229724428L251.26955825106302,81.3460604045194L251.45442289034526,81.22820842735611L252.00901680819192,81.25577396034761L252.19388144747418,81.16554540589209L252.3787460867564,81.2289199594217L252.5636107260386,81.20798786653351L252.74847536532084,81.31143638622378L253.1182046438853,81.35020778976394L253.30306928316753,81.23334622695508L253.48793392244974,81.10376750418148L253.67279856173195,81.2642787989874L253.85766320101422,81.27891998623684L254.04252784029643,81.1711029751512L254.22739247957864,81.00204075408897L254.41225711886088,80.99794079667711L254.59712175814312,81.00796598999192L254.78198639742533,81.0123045775158L254.96685103670757,81.02353877461914L255.15171567598978,81.0949530971047L255.33658031527202,81.09565952513191L255.52144495455425,81.01502126096085L255.70630959383647,81.02898498863206L255.89117423311868,80.9555758008179L256.0760388724009,80.98650581363141L256.44576815096536,80.90398002641966L256.6306327902476,80.73903757493113L257.18522670809426,80.83277252439332L257.3700913473765,80.97587040850698L257.739820625941,80.70419616804053L257.9246852652232,80.4680501773539L258.1095499045054,80.53811898319466L258.29441454378764,80.58891358271453L258.4792791830698,80.59788379489754L258.6641438223521,80.58380135568856L259.2187377401988,80.61364068841921L259.403602379481,80.58656665064848L259.9581962973277,80.70881826997405L260.1430609366099,80.56882526655876L260.32792557589215,80.70867435625372L260.51279021517433,80.7496966002954L260.6976548544566,80.7476606071L260.8825194937388,80.78033367454968L261.2522487723033,80.71001562468732L261.43711341158547,80.79986080994206L261.80684269014995,80.66555898342813L261.9917073294322,80.68978704143429L262.3614366079966,80.53810159929428L262.7311658865611,80.57274873448598L262.9160305258433,80.5439160313232L263.1008951651255,80.70818535203152L263.28575980440775,80.78858444518636L263.6554890829722,80.90772724158393L263.8403537222544,81.10624418213197L264.2100830008189,81.03191464300625L264.3949476401011,81.10929853185274L264.57981227938336,81.2258896306042L264.76467691866554,81.14004119123808L264.9495415579478,81.20732136537575L265.31927083651226,81.12215767180733L265.50413547579444,81.22146795606604L265.68900011507674,81.22513943250325L265.8738647543589,81.17971900020423L266.2435940329234,81.24447887902606" fill="none"></path></g></g></g></g><g opacity="0.2"><g><g><g><path style="fill: none;" stroke="rgb(255, 112, 67)" stroke-width="2px" d="M24.99523976961772,204.22474747747572L25.549833687464396,136.09024811788504L25.91956296602885,214.90208605460964L26.104427605311077,104.74861920049909L26.2892922445933,154.24121758405408L26.843886162439983,14.738374331510311L27.028750801722207,132.84896522831255L27.213615441004436,62.863542117761035L27.39848008028666,32.83804214505505L27.58334471956889,65.27057885053267L27.768209358851117,254.90510564802295L27.95307399813334,184.0223253790117L28.322803276697798,172.8982253247639L28.50766791598002,154.63330330881948L28.877397194544475,63.29604035513184L29.0622618338267,90.927539889455L29.247126473108928,37.05566680026674L29.431991112391156,183.0362447346232L29.61685575167338,16.79772542452321L29.80172039095561,173.41062837832982L29.986585030237833,120.45490004833816L30.171449669520058,-9.421790059319726L30.356314308802286,131.373103335327L30.541178948084514,18.913362635662043L30.910908226648967,129.455081010306L31.095772865931195,141.72346097555507L31.28063750521342,62.21149734606531L31.465502144495645,220.21867032680026L31.650366783777873,99.69950901553358L32.020096062342326,166.144734674585L32.20496070162455,181.26583927253463L32.94441925875346,142.10159019691596L33.12928389803568,153.29087172310793L33.31414853731791,179.5952764886476L33.49901317660014,161.62275088743633L33.68387781588236,114.53343171650559L33.86874245516459,105.79083259484422L34.05360709444682,125.30946271057147L34.23847173372904,162.85015634618756L34.423336373011274,186.95986260932432L34.79306565157572,92.2101578891472L34.97793029085795,250.96576753597063L35.347659569422405,154.76351288453859L35.53252420870463,47.13333583551421L35.71738884798686,191.598866309634L35.902253487269085,160.35631322960322L36.27198276583354,-11.154466951765338L36.45684740511577,127.36896717175367L36.64171204439799,154.53192694892513L36.826576683680216,127.96641287518554L37.196305962244665,16.969037669609452L37.3811706015269,187.68721115213677L37.56603524080912,153.8178447527555L37.750899880091346,138.67197119546708L38.1206291586558,50.40820635415914L38.49035843722026,91.5443866663009L38.67522307650248,132.32061188514146L38.86008771578471,30.15992717308027L39.04495235506694,92.5114496576986L39.229816994349164,181.16277586277818L39.41468163363139,97.43487462793881L39.59954627291362,54.847448013981044L39.96927555147806,158.14006649941643L40.154140190760295,102.6883478984705L40.33900483004252,145.31319634573268L40.708734108606976,140.83614943218316L40.8935987478892,160.4405890386228L41.26332802645366,161.78087346996443L41.633057305018106,181.50049257153367L41.81792194430034,212.8165090046498L42.00278658358256,10.380187749153098L42.55738050142924,156.42080932178285L42.74224514071147,-8.440003723671092L43.29683905855814,26.581847783767945L43.48170369784037,55.46690204970469L43.85143297640482,92.37725250957823L44.036297615687054,76.45594948840801L44.22116225496928,113.1030434857117L44.406026894251504,92.44297077011488L44.590891533533735,182.89054497380684L44.77575617281596,175.70631982020387L44.960620812098185,159.57359877768056L45.33035009066264,241.60862216000257L45.515214729944866,146.764596015718L45.7000793692271,110.6087402646195L45.88494400850932,123.41237514065725L46.25467328707377,102.12893750102016L46.439537926355996,7.551388550860291L46.62440256563822,43.64973123847863L46.99413184420268,119.73544996624369L47.36386112276713,129.69234156818283L47.54872576204936,257.4793136853103L47.73359040133158,132.8264201074283L47.918455040613814,63.27242165706265L48.10331967989604,58.037735987267816L48.288184319178264,-1.9832037969651857L48.473048958460495,77.55345210777872L48.65791359774272,196.472676677112L49.027642876307176,213.75412530754568L49.39737215487162,103.41899385692244L49.58223679415385,221.26763192059371L49.767101433436075,183.57487374513607L49.9519660727183,78.32834478306808L50.13683071200053,36.86127264570381L50.321695351282756,21.74338877930909L50.69142462984721,1.2162095823937773L50.87628926912944,132.09661767390742L51.06115390841166,193.97308225417962L51.24601854769389,119.20978056603502L51.43088318697612,29.721140840768978L51.61574782625834,25.78724729872606L51.9854771048228,162.73835095078212L52.54007102266947,200.30657417278405L53.46439421908061,197.82990829115911L53.649258858362835,109.17758519297921L53.83412349764506,137.27240996669858L54.01898813692729,30.34749644411022L54.203852776209516,5.851532446640704L54.38871741549174,42.26243946325255L54.57358205477397,42.78113061175894L54.94331133333842,211.5687822634689L55.31304061190287,123.5613723171132L55.497905251185095,124.3483810777757L55.68276989046732,185.28393193951248L55.86763452974955,242.33620075506892L56.052499169031776,134.7886891492867L56.42222844759623,4.144314670295658L56.60709308687846,135.06199122694443L56.79195772616069,107.44291451433297L56.976822365442914,133.49909289789227L57.16168700472514,187.9661111679732L57.531416283289595,174.12770125380044L57.71628092257182,158.6676530017411L57.90114556185405,116.25391583949339L58.086010201136276,115.6673592760804L58.27087484041849,173.86490489573842L58.45573947970072,88.25272233311976L58.64060411898295,123.25847018278435L59.19519803682963,96.69778720637709L59.380062676111855,175.04913721483723L59.56492731539408,165.00390554739258L59.74979195467631,158.07496171155688L59.934656593958536,131.5117481603565L60.30438587252299,247.2820174780241L60.67411515108745,104.82085560823016L60.85897979036967,77.0099153158489L61.0438444296519,242.06650282938932L61.22870906893413,77.44157002828865L61.59843834749857,95.51961292996486L61.7833029867808,230.51718952581152L61.96816762606303,211.27715268958215L62.15303226534525,93.47069087246302L62.33789690462748,190.27928658114521L62.52276154390971,174.55713212778562L62.707626183191934,190.05552242216507L62.89249082247416,33.21134026908361L63.07735546175639,157.09417226900857L63.262220101038615,190.29017572116413L63.63194937960307,40.63942081184244L64.00167865816752,114.9173122442145L64.18654329744975,87.6412434421987L64.5562725760142,172.9953073759184L64.74113721529642,99.99090853716638L64.92600185457866,231.31386048113868L65.11086649386088,158.27487712021392L65.29573113314311,114.54570117004803L65.66546041170756,114.17976471814494L65.85032505098978,119.10533684275507L66.03518969027202,254.45742396189343L66.5897836081187,141.5562896710394L66.95951288668314,66.18611013705217L67.14437752596538,60.38396224091976L67.3292421652476,59.87715712553259L67.51410680452982,114.25736901180083L67.69897144381206,182.0241681855417L67.88383608309428,54.53710752344211L68.0687007223765,125.98236555328934L68.25356536165873,156.68966372253144L68.43843000094095,76.04361916529759L68.80815927950542,175.5540252281084L68.99302391878764,136.3487501672072L69.36275319735209,55.36659926699528L69.54761783663432,229.39422779034027L69.73248247591654,142.68308561074267L69.91734711519878,272.7376827947659L70.102211754481,173.5832442528549L70.28707639376323,93.3611859995968L70.8416703116099,189.6440356239857L71.02653495089213,83.25491380077854L71.21139959017435,21.90197146634505L71.39626422945658,64.21402553235983L71.76599350802104,11.519329826483453L71.95085814730326,64.3564278775367L72.13572278658549,121.49603986549833L72.32058742586771,33.616999076830346L72.69031670443218,100.23836807830034L72.87518134371439,34.3768616715302L73.24491062227885,209.7939291244712L73.79950454012554,113.42327622316922L74.16923381868999,98.61818673802195L74.35409845797221,-59.13094429789869L74.72382773653666,105.65571523770818L74.9086923758189,177.8342264848851L75.09355701510111,109.82449213100406L75.27842165438334,104.96824241890867L75.64815093294779,-11.110296919012585L75.83301557223002,-15.438730076529376L76.01788021151225,98.0074746879473L76.20274485079447,41.70471611566429L76.3876094900767,114.17968803406028L76.57247412935894,93.1434031992186L76.75733876864115,284.61497392834985L76.94220340792339,49.11515931895586L77.12706804720561,154.86764987147998L77.31193268648784,3.481764179004224L77.49679732577006,131.48996988031868L77.86652660433451,111.96382472429671L78.05139124361675,-37.333109818495025L78.79084980074563,96.10333218224616L78.97571444002787,43.03303782980205L79.1605790793101,102.08722135897588L79.34544371859234,148.39037529417513L79.53030835787455,66.21011225554454L79.71517299715678,43.0796617532633L79.90003763643901,111.61506550735301L80.26976691500346,200.4832543037951L80.4546315542857,156.2813209718223L80.63949619356791,125.98850028006055L80.82436083285015,125.56060308776817L81.00922547213237,117.46291711793099L81.19409011141458,116.9703752422869L81.37895475069682,99.05536270455578L81.74868402926127,78.89204948925828L81.9335486685435,116.34156574823717L82.11841330782573,8.562314838672231L82.30327794710794,73.76142412232021L82.48814258639018,68.10006820558723L82.6730072256724,110.91286934430258L83.04273650423686,155.89299276720428L83.2276011435191,44.69861614818747L83.4124657828013,7.249253257377859L83.59733042208354,138.6176788635418L83.78219506136577,115.06301200503088L84.15192433993022,91.60803445655226L84.70651825777689,-0.6189172471311738L85.07624753634134,22.444281312920626L85.26111217562358,153.33281791740615L85.44597681490579,37.09822646724208L85.63084145418803,100.03599877893483L85.81570609347025,105.56162386585463L86.0005707327525,-3.9573588719428083L86.37030001131694,17.946913116941445L86.55516465059917,168.3317647685239L86.74002928988139,41.48793020838641L87.10975856844586,23.33243638122358L87.29462320772807,-13.560506791436637L87.47948784701029,199.17747771054155L87.66435248629253,12.677949661312429L87.84921712557474,30.68996756611343L88.03408176485698,34.39725963804451L88.21894640413919,196.72688441769432L88.40381104342143,112.0229481535543L88.58867568270365,249.1260396613673L88.77354032198589,132.4085685302238L88.9584049612681,104.7169486735427L89.32813423983255,200.84060213821851L89.51299887911479,60.64829228067456L89.69786351839701,20.453485791576078L89.88272815767925,105.983769751799L90.2524574362437,-5.4646612396308205L90.43732207552593,121.21997716079356L90.80705135409038,57.80507647446941L90.99191599337259,131.30201718886553L91.17678063265483,109.00604289563906L91.36164527193705,138.09085920206357L91.54650991121929,31.13856946125866L91.7313745505015,87.15238240261733L91.91623918978374,80.27957131673828L92.10110382906595,199.9254542721222L92.28596846834819,133.34787188298176L92.47083310763041,134.71476569169354L93.21029166475932,227.46240233008402L93.39515630404154,153.83663235349232L93.58002094332377,70.76913445557449L93.94975022188822,85.13559097657975L94.13461486117045,100.31566563561768L94.68920877901714,107.88116405805177L94.87407341829935,114.95772475681989L95.24380269686381,162.38598758186035L95.42866733614605,155.0383486438891L95.61353197542826,109.11202030061183L96.16812589327495,178.63756895557597L96.35299053255717,119.74150800893027L96.53785517183938,121.74135225226237L96.72271981112162,125.56198340129168L96.90758445040385,193.96679415923913L97.09244908968608,-8.995426548720147L97.2773137289683,125.2401402980567L97.46217836825053,121.2915234117629L97.64704300753274,21.829198270021486L97.83190764681498,92.6839888481391L98.01677228609721,98.13645731831213L98.20163692537945,116.58718487133977L98.38650156466166,132.99052404855837L98.5713662039439,-58.96898751113856L98.7562308432261,10.792748124517448L98.94109548250835,-29.355357757035176L99.12596012179057,32.60292874154816L99.31082476107281,77.68036426785828L99.49568940035502,61.18255029836293L99.68055403963724,75.10822670085628L99.86541867891948,205.33635996842028L100.42001259676614,127.63283710700063L100.60487723604838,152.86619526237044L100.7897418753306,47.800103951460855L100.97460651461284,89.48281173483342L101.5292004324595,188.97420014465342L101.71406507174174,26.082941129098725L102.0837943503062,178.63848916459165L102.26865898958842,90.53300027398113L102.45352362887066,111.56767474304537L102.63838826815287,123.97377932430825L102.82325290743509,47.85662012184069L103.00811754671733,88.11262051048209L103.19298218599954,111.30748564386111L103.562711464564,54.19248924706899L103.74757610384624,54.32469260898872L103.93244074312845,85.89322973282505L104.48703466097514,143.43604663782494L104.67189930025737,-2.3285122301000523L104.8567639395396,123.98949956165949L105.04162857882181,97.30811583602855L105.22649321810405,52.16986983059874L105.41135785738626,150.47319171708796L105.59622249666849,3.8868095140738217L105.78108713595073,230.21045318725066L106.15081641451518,73.27102940104606L106.3356810537974,263.4053830622213L106.52054569307963,163.20405339680215L106.70541033236185,14.929087650010509L107.44486888949076,-9.591568622713138L107.629733528773,92.97439147667156L107.81459816805521,92.29957153183769L107.99946280733745,78.4965896647687L108.18432744661966,143.0204955831596L108.3691920859019,59.99118635939258L108.55405672518413,79.32876535128429L108.92378600374857,94.64150347674979L109.29351528231302,67.38276527786269L109.47837992159525,172.23207068149438L109.66324456087749,145.6354995534755L109.8481092001597,9.276243666672599L110.03297383944194,116.81309618468984L110.21783847872416,61.99072386638614L110.4027031180064,98.9533728719843L110.77243239657085,213.66923602584893L110.95729703585306,63.165293990820274L111.1421616751353,40.41197581679958L111.32702631441752,175.7718080284866L111.69675559298197,165.07744558456253L111.8816202322642,118.67222513270715L112.06648487154642,163.86775414936318L112.6210787893931,37.67604104500608L112.80594342867533,27.6191533966961L112.99080806795756,-34.46481831661252L113.17567270723978,100.91165434144142L113.36053734652201,45.86965880472816L113.54540198580425,82.20480194571547L113.73026662508646,149.73411050932557L114.09999590365092,132.36869280621087L114.28486054293316,113.38309376281775L114.46972518221537,214.46721061061498L114.65458982149761,199.99500673689087L114.83945446077982,39.07544890560532L115.02431910006204,57.09084091013047L115.57891301790873,70.64812697001221L115.76377765719096,91.33197175184749L116.1335069357554,37.0267569003574L116.31837157503765,174.41756709374044L116.50323621431986,68.56416028582979L116.87296549288432,-28.667424833727825L117.05783013216656,95.96077646890001L117.24269477144877,118.92581940061233L117.79728868929546,97.53901161488022L117.98215332857768,80.64359066652537L118.16701796785989,141.33927371150762L118.35188260714213,99.49269203925891L118.53674724642435,126.34699837575354L118.72161188570658,-4.823735660207937L118.9064765249888,74.08280712104734L119.09134116427104,31.39553782888802L119.27620580355325,41.815601302054034L119.64593508211772,60.4435457746852L119.83079972139994,93.52245262959518L120.01566436068217,86.48461739357037L120.2005289999644,92.90575922091858L120.38539363924662,62.890074811046546L120.57025827852885,-65.063761874258L120.93998755709329,80.24468005822699L121.49458147493998,234.87292221746026L121.6794461142222,93.67313685591319L122.23404003206889,-113.18578561303849L122.41890467135111,15.719930614905024L122.60376931063334,160.17311495139774L122.78863394991556,162.58950714249548L122.9734985891978,80.92977567040265L123.15836322848001,123.96035960949622L123.34322786776225,93.05483308145915L123.52809250704448,85.51356682977136L123.7129571463267,43.02590620993051L123.89782178560893,-15.498236926210184L124.08268642489115,66.26555484873941L124.26755106417338,140.56077688424014L124.4524157034556,65.15938692780436L124.63728034273784,99.81530198334029L124.82214498202005,37.58946471344727L125.19187426058451,165.49713757979842L125.37673889986674,-88.5485695316617L125.56160353914896,9.679755320049406L125.93133281771341,144.7496450077118L126.30106209627787,-97.85663709345997L126.4859267355601,161.46317130730003L126.67079137484232,86.44581524674243L126.85565601412456,18.427799011720225L127.04052065340677,142.95247680008376L127.41024993197124,50.064431602717065L127.59511457125345,130.7506586203024L127.96484384981791,64.61899418334477L128.14970848910014,145.97398310307742L128.33457312838237,88.99188022496678L128.51943776766458,50.47216088074908L128.88916704622906,214.5211195221171L129.07403168551127,111.76145542493117L129.2588963247935,129.67769490801655L129.44376096407572,145.96485769700521L129.81349024264017,77.36687972984909L129.9983548819224,111.64658266614013L130.18321952120462,115.03831972977676L130.5529487997691,214.0171517178616L130.7378134390513,85.12485520473012L130.92267807833355,142.3486663176267L131.4772719961802,27.15406442335322L132.21673055330913,83.77322152886173L132.40159519259134,26.0933701646098L132.58645983187358,1.3829974664862381L132.95618911043803,67.62531703757966L133.14105374972024,40.5556051073307L133.32591838900248,87.98739540026462L133.5107830282847,70.22114998673551L133.69564766756693,142.90761661056922L133.88051230684917,37.11908453826421L134.06537694613138,46.95757591351885L134.25024158541362,82.0839478283225L134.43510622469586,240.5046780775221L134.61997086397807,85.59738253428311L134.8048355032603,144.2100191040986L134.98970014254252,25.879498252548245L135.35942942110697,141.01858086954223L135.5442940603892,93.30183251808528L135.72915869967142,125.84916529826927L135.91402333895365,118.4907905884484L136.0988879782359,60.78762726246584L136.46861725680034,-14.773265590021618L136.65348189608255,159.07821959090478L136.8383465353648,108.4336728878845L137.023211174647,119.0792642539774L137.5778050924937,-5.613274995663566L137.76266973177593,65.3205768737181L137.94753437105814,166.26888620761753L138.13239901034038,76.79941750351152L138.31726364962262,30.095359173813208L138.50212828890483,38.19457882534319L138.68699292818707,161.3292042114336L138.87185756746928,186.01404110937196L139.05672220675152,63.27955327693419L139.24158684603373,-20.7651299115539L139.42645148531597,-33.304664800090755L139.79618076388041,38.85689926438071L139.98104540316265,5.802761368809523L140.16591004244486,-101.76346115362489L140.3507746817271,24.55531747898105L140.5356393210093,170.47309114801718L141.090233238856,149.3279149129864L141.2750978781382,154.23976058644593L141.45996251742045,141.8065098392204L141.6448271567027,106.71663954870552L141.8296917959849,44.96632028766644L142.01455643526714,117.0214468426573L142.5691503531138,64.0789848593084L142.75401499239604,-3.4134386595897945L142.93887963167825,105.35373331239502L143.1237442709605,106.27815995273278L143.30860891024273,-17.809955341774035L143.49347354952494,34.218432352663534L144.04806746737162,129.41773586108621L144.23293210665386,28.598179105297703L144.6026613852183,70.55871332732173L144.78752602450052,48.86823656641438L144.97239066378273,107.75371510937974L145.157255303065,27.525215393011848L145.3421199423472,-89.3037543971985L145.89671386019387,43.69857900039445L146.08157849947614,83.53588428690028L146.26644313875835,200.52305334372338L146.45130777804056,69.0342337246743L146.82103705660504,-30.03247822440823L147.19076633516949,209.05201060557712L147.56049561373393,151.32024411602376L147.93022489229838,238.87422106990186L148.1150895315806,69.83795961578836L148.29995417086286,153.09916151150742L148.48481881014507,95.95717231692191L148.66968344942728,91.84920590274572L149.03941272799173,171.0984498582581L149.22427736727397,65.65591637584973L149.4091420065562,70.10236633962782L149.59400664583842,-40.46136036730786L149.77887128512063,84.09958899309048L149.9637359244029,114.81056799839533L150.33346520296732,54.32660971110472L150.51832984224953,107.82250073330202L150.7031944815318,34.9022243354003L150.888059120814,69.55553213205846L151.25778839937846,21.67997104131164L151.44265303866067,82.47250608519444L151.62751767794293,125.78314030139407L151.81238231722514,196.1894823525357L152.18211159578956,36.01084614704386L152.36697623507183,143.36726101390266L152.55184087435404,106.2318427656101L152.73670551363625,-68.16264241865366L152.9215701529185,144.34061210024086L153.10643479220073,123.8165769507958L153.47616407076518,77.95197929565391L153.6610287100474,128.0177912118945L154.03075798861187,14.510239179705684L154.21562262789408,56.7003655511425L154.58535190645853,241.01501066080272L155.13994582430522,45.26531153367863L155.32481046358743,71.27885356617796L155.5096751028697,21.86255584683998L155.8794043814341,104.26152189486446L156.06426902071632,34.89685644947548L156.4339982992808,38.01897227151709L156.61886293856304,234.337360570333L157.35832149569194,209.0935733794521L157.54318613497415,82.42411842778648L157.72805077425636,22.637065101706124L157.91291541353863,125.11897944432518L158.09778005282084,130.33303709535178L158.28264469210305,153.46678501327258L158.4675093313853,70.03266050668988L158.65237397066753,131.48529215115562L158.83723860994976,125.0143056687913L159.02210324923198,43.76728794023208L159.20696788851419,-16.832079894442025L159.39183252779645,50.56134447118565L159.57669716707866,61.199727533322346L159.76156180636087,56.82551397727533L159.94642644564308,-13.509358506981604L160.13129108492535,-5.530686236506065L160.31615572420756,108.03177160028515L160.685885002772,207.1795386268324L160.87074964205422,45.65532678815876L161.0556142813365,4.564850190462587L161.4253435599009,105.1353370393397L161.61020819918312,178.70091000948878L161.7950728384654,202.24568462108115L161.9799374777476,125.99800910655594L162.1648021170298,76.63500682604291L163.08912531344095,105.99987340957345L163.2739899527232,142.348819685796L163.45885459200542,121.36237950597045L163.82858387056984,43.44605830967423L164.01344850985208,150.76405445012827L164.19831314913432,47.89611242543041L164.38317778841656,-41.70924047665807L164.56804242769877,47.57158537923303L165.12263634554546,-177.25426475275123L165.30750098482767,-31.715847250430187L165.49236562410988,56.0359746418197L165.67723026339215,117.95177815751235L165.86209490267436,28.02136142063402L166.04695954195657,81.1768517911134L166.2318241812388,94.39335377885406L166.41668882052105,83.20967019084081L166.60155345980328,25.010437521320714L166.7864180990855,87.08244651742547L166.9712827383677,81.29586549047502L167.15614737764992,42.76809431737011L167.5258766562144,22.48016946453225L167.7107412954966,129.20102663789297L167.89560593477884,129.2510246610784L168.08047057406108,4.7324049154014425L168.26533521334332,53.526181235630176L168.45019985262553,74.0236070077051L168.63506449190774,163.4772787903752L168.81992913119,97.27253442075548L169.00479377047222,73.46434997842402L169.5593876883189,76.23410243154387L169.74425232760112,-21.71923329264743L169.92911696688336,109.34490986566416L170.11398160616557,48.17723627972143L170.29884624544778,131.62132971730736L170.48371088473004,-89.61578193759952L170.85344016329447,-52.33635097835265L171.03830480257668,18.347664143271203L171.22316944185894,-9.139132523335896L171.40803408114115,64.11295590880401L171.59289872042336,146.76244886134808L171.7777633597056,88.31069550110776L171.96262799898784,-80.20810174985361L172.14749263827008,-19.23489900255845L172.88695119539898,50.66302756741855L173.0718158346812,73.66273170538825L173.2566804739634,27.86523262430654L173.44154511324564,-19.840933323470047L173.62640975252788,18.17826900030097L173.99613903109233,130.01748208705732L174.18100367037454,124.13772989726901L174.55073294893901,121.65930028169736L174.73559758822122,67.25585311778312L174.92046222750344,80.06769319087738L175.2901915060679,127.30623959051796L175.47505614535012,62.425445942211496L175.65992078463236,180.25514303697662L175.8447854239146,116.58273719443063L176.02965006319684,105.29016220622827L176.21451470247905,23.411574356572284L176.39937934176126,16.30917112128042L176.58424398104347,101.1644817685002L176.76910862032574,102.98542204236668L176.95397325960795,35.82925823461583L177.13883789889016,116.33121339681072L177.3237025381724,117.30908884414274L177.50856717745464,-2.8940573543216166L177.69343181673688,-17.301999965117254L178.0631610953013,108.49525020785059L178.24802573458356,-18.63016831108574L178.43289037386577,20.1680676285452L178.61775501314798,-88.5382938643199L178.8026196524302,76.15971886944286L178.98748429171243,161.3671628333305L179.35721357027688,29.504661669829648L179.54207820955912,149.76532093177414L179.9118074881236,27.849512386955304L180.0966721274058,16.41353816047575L180.46640140597023,78.00220737109325L180.8361306845347,98.8480856237733L181.3907246023814,178.78518581850838L181.57558924166364,205.15040106316775L182.13018315951027,63.413443688715994L182.49991243807474,65.88029400750699L182.68477707735696,132.49560496629044L182.8696417166392,78.54091306569075L183.23937099520364,139.69347988695935L183.42423563448588,172.76096081325792L183.6091002737681,14.826407660677265L184.16369419161478,107.99396634655754L184.348558830897,120.77681983565779L184.71828810946147,3.2489512980365385L184.90315274874368,144.30434052820604L185.08801738802592,-56.02339845193871L185.27288202730813,-67.85061487825264L185.4577466665904,5.640727897964767L185.6426113058726,-39.57427887618991L185.82747594515482,29.796904716393495L186.1972052237193,-34.0095449061036L186.3820698630015,-58.29922871589094L186.56693450228371,17.47845004387438L186.9366637808482,57.20103593975845L187.12152842013043,83.717318831159L187.30639305941264,69.93803234624386L187.49125769869485,144.9964910761686L187.67612233797712,90.4414394769207L187.86098697725933,92.8859747270814L188.04585161654154,113.36169890320313L188.23071625582375,195.59679106235149L188.415580895106,89.54109163915996L188.60044553438823,186.28304887828983L188.78531017367044,114.4993072988407L189.1550394522349,32.58475461348843L189.33990409151716,68.80717215005463L189.70963337008158,148.23585686362512L190.07936264864605,114.50513528927335L190.26422728792826,72.03817937228536L190.81882120577495,-22.2682146545867L191.0036858450572,175.78883189527673L191.3734151236216,39.29062444710574L191.55827976290382,133.29787385979634L191.7431444021861,50.28098745774102L191.9280090414683,85.99874703328999L192.1128736807505,90.95407258274052L192.482602959315,-17.285512886919605L193.03719687716165,-55.259778337091454L193.22206151644392,23.98348425981899L193.59179079500834,2.6311843121749767L193.77665543429055,-92.5735637662572L193.9615200735728,107.12835639913881L194.14638471285502,134.13848479562236L194.33124935213723,80.33831132557269L194.51611399141947,150.80331670146407L194.70097863070168,3.9837381970590435L194.88584326998395,82.32818663790157L195.07070790926616,68.00106905231672L195.44043718783058,15.61817083458747L195.62530182711285,20.859221283407443L195.81016646639506,-62.97112988851126L195.99503110567727,112.00193671436288L196.1798957449595,51.155186022639455L196.36476038424175,115.94342198078519L196.54962502352396,187.43415367282407L196.7344896628062,131.10256188471632L196.9193543020884,86.02067868149709L197.10421894137068,8.913757998578316L197.4739482199351,57.37978654105479L197.84367749849955,-71.89769412922449L198.213406777064,-18.18279336129475L198.39827141634623,153.10483613377076L198.58313605562844,159.8072551835793L198.7680006949107,136.84136872693594L198.95286533419292,114.99407301293935L199.13772997347513,101.32406134863648L199.32259461275734,19.55444158325422L199.69232389132182,112.47530756884693L199.87718853060403,156.65799319557505L200.2469178091685,160.48989690504646L200.61664708773296,50.895687080216966L200.80151172701517,233.2730621596115L200.98637636629738,-90.05970610358173L201.17124100557965,39.31485661785205L201.54097028414407,0.42252930636756436L201.7258349234263,97.14585231292986L201.91069956270854,116.95028401211117L202.09556420199075,12.705172511359706L202.280428841273,-73.69861985699988L202.4652934805552,80.7946583132666L202.65015811983747,62.840843628707525L203.0198873984019,-34.42394569949929L203.2047520376841,52.67859204810192L203.7593459555308,25.633802445361002L203.94421059481303,-69.17962674915213L204.68366915194193,-11.232531349929078L204.86853379122414,135.89892132670772L205.0533984305064,50.08789693261697L205.23826306978862,124.41187549985777L205.42312770907083,-0.5034310156629815L205.60799234835306,25.328829840746874L205.7928569876353,122.45620128927844L205.9777216269175,22.819343170895916L206.53231554476417,-67.850538194168L206.71718018404644,148.41736809196848L206.90204482332865,-2.968824336845835L207.08690946261086,117.54772971554307L207.2717741018931,47.785073870871386L207.64150338045755,-5.888187439098722L207.8263680197398,95.05176332957494L208.011232659022,20.527639301423157L208.19609729830427,217.22170293089144L208.38096193758648,40.39249805930096L208.7506912161509,92.41452097471338L208.93555585543317,54.66754715141511L209.12042049471538,87.04464126369784L209.3052851339976,131.24143676199975L209.49014977327982,7.567108788211546L209.67501441256204,39.83960580904503L209.85987905184427,86.52924753083097L210.0447436911265,52.0883546486262L210.22960833040872,55.80730270142258L210.41447296969093,40.06175960224773L211.15393152681986,0.524749191192982L211.5236608053843,89.22530657861157L211.70852544466655,249.14758788915117L211.89339008394876,70.84229107232125L212.07825472323103,141.02172491701248L212.26311936251324,40.681136953886714L212.8177132803599,191.83965433540425L213.18744255892435,5.395415511200721L213.37230719820658,94.72953680591677L213.74203647677103,61.7042321261703L213.92690111605327,81.69193878764173L214.2966303946177,54.10062171367001L214.48149503389996,-2.0383396538214877L214.85122431246438,72.86161307315196L215.5906828695933,105.03097000014435L215.77554750887552,105.64628309529742L215.96041214815773,78.75923265466143L216.14527678744,-7.895470038640938L216.3301414267222,50.533278096207326L217.0695999838511,30.523869838782716L217.25446462313334,-9.614573848105223L217.6241939016978,-51.8250215019717L217.99392318026224,96.88681347501522L218.17878781954445,56.353676804484095L218.36365245882672,137.4833678835438L218.73338173739114,89.35076174108296L218.91824637667338,120.71815651090802L219.1031110159556,12.940592651205165L219.47284029452007,29.60795513184001L219.8425695730845,59.91787637447654L220.02743421236676,200.78960722193276L220.21229885164897,45.13502527387491L220.58202813021342,-21.479135423638915L220.76689276949566,34.071352278323594L220.95175740877787,23.09157167136867L221.1366220480601,24.958599080103934L221.32148668734231,3.804680859424145L221.50635132662458,58.9204464855613L221.6912159659068,-68.79114517636485L221.876080605189,30.831449702274618L222.0609452444712,39.72619004786216L222.24580988375345,38.31711999259826L222.4306745230357,119.33109478793584L222.6155391623179,31.015108084987926L222.80040380160014,10.647278415954968L223.1701330801646,131.85276228475155L223.35499771944683,118.1538407205393L223.53986235872904,93.20973493243237L223.90959163729352,126.60803099986883L224.09445627657573,21.754584655666562L224.27932091585794,29.962158918793165L224.46418555514018,32.46535749370363L224.83391483370463,100.49288255522121L225.01877947298686,75.13659981217315L225.20364411226907,-1.132087141543466L225.38850875155129,-23.670229774063714L225.94310266939797,47.06125279595241L226.1279673086802,35.45243264269383L226.31283194796245,130.70480153768756L227.2371551443736,106.60169010582983L227.606884422938,35.546830750885924L227.79174906222028,117.07313191570478L227.9766137015025,125.07296899354107L228.1614783407847,-28.140605172249558L228.34634298006694,97.70579949897268L228.71607225863139,71.7178699507432L228.90093689791362,-32.6445681995078L229.08580153719583,118.95150856896679L229.27066617647804,53.94932401467488L229.4555308157603,137.29894265998408L229.64039545504252,67.91134867328766L229.82526009432473,37.88293470536537L230.01012473360697,94.09045164452522L230.1949893728892,-2.1383357001923287L230.56471865145366,54.245861369978584L230.74958329073587,99.99627642309119L230.93444793001808,75.82690994210435L231.11931256930035,208.62242636342262L231.30417720858256,5.6079071097387425L231.48904184786477,90.49051729109044L231.673906487147,185.36974143022488L232.2285004049937,40.95428566337516L232.4133650442759,111.04668307199977L232.78309432284038,175.708850394997L232.9679589621226,-46.409898181018434L233.1528236014048,6.657558860293982L233.33768824068707,66.94996030415332L233.52255287996928,21.306519549113805L233.7074175192515,221.27207959750282L233.89228215853373,114.69883928707453L234.07714679781594,167.09439037876942L234.26201143709818,52.196019103461055L234.44687607638042,-42.58520277550321L234.81660535494484,142.13234051485668L235.0014699942271,-47.743127676573174L235.37119927279153,119.20847693659614L235.55606391207377,36.8786032488325L235.92579319063822,-39.115401313702876L236.11065782992046,171.9493364614259L236.4803871084849,178.6290570221809L236.66525174776714,40.00002891411235L236.85011638704935,-0.9077095098862038L237.03498102633156,-73.94109493263223L237.2198456656138,49.731545991293906L237.40471030489604,88.35892979034645L237.7744395834605,127.25079699732309L237.9593042227427,214.624719720466L238.14416886202494,116.1116668624858L238.5138981405894,49.4020344795949L238.6987627798716,100.65307560803461L239.06849205843608,-59.53967046903102L239.2533566977183,242.11021275763423L239.43822133700053,65.98542788754874L239.62308597628277,21.21334838627595L239.80795061556498,109.97295251886752L239.99281525484722,0.4394764890730585L240.17767989412943,59.42234381953149L240.91713845125832,60.744837543236606L241.10200309054056,105.85632080312696L241.2868677298228,200.43225938750936L241.65659700838725,55.90407801623853L241.84146164766946,89.87558761636058L242.0263262869517,141.82721454207328L242.39605556551615,131.02442080246797L242.58092020479836,98.52624252053833L242.76578484408063,-12.28394683443103L243.13551412264505,67.25477954059818L243.5052434012095,-58.018948386530944L243.87497267977398,51.275349983270665L244.0598373190562,-12.56445721604493L244.2447019583384,212.75715552313827L244.42956659762066,47.0163926064379L244.79929587618508,54.42169797605859L244.98416051546732,-63.52118482763551L245.16902515474956,72.32781515997144L245.35388979403177,-45.35610548989265L246.2782129904429,-31.543921532666847L246.46307762972512,148.14383596205687L247.0176715475718,-29.45305328086679L247.20253618685405,-1.9069031327481778L247.38740082613626,100.6049946869652L247.75713010470074,-0.40312823295359057L247.94199474398295,122.50090811062368L248.49658866182963,25.524527624748696L248.68145330111184,48.58941323466258L248.86631794039408,98.03101670193183L249.23604721895853,6.964371882939471L249.42091185824077,14.137937948777441L249.60577649752298,-24.653856527743727L249.7906411368052,52.29348457503877L249.97550577608746,215.84921118400095L250.16037041536967,132.09669435799205L250.34523505465188,133.11559579060656L250.71496433321636,38.827912680386696L251.26955825106302,28.371347582931943L251.45442289034526,9.554760262085846L252.00901680819192,98.03094001784719L252.19388144747418,26.22120253370502L252.3787460867564,119.84533825953311L252.5636107260386,68.4451465864682L252.74847536532084,144.42695837954577L253.1182046438853,105.02031091237937L253.30306928316753,9.843475840756248L253.48793392244974,1.8947870473750152L253.67279856173195,179.44397878965245L253.85766320101422,90.24014375474015L254.04252784029643,15.139355410093973L254.22739247957864,-22.604244313480102L254.41225711886088,78.48378342263379L254.59712175814312,87.15943733840425L254.78198639742533,83.67613947770722L254.96685103670757,87.92551134395997L255.15171567598978,124.9973584860858L255.33658031527202,81.53021205313551L255.52144495455425,31.380201011959965L255.70630959383647,89.62935502058085L255.89117423311868,35.71415542357087L256.0760388724009,100.06023094968114L256.44576815096536,29.98094651953002L256.6306327902476,-21.10269325214013L257.18522670809426,138.74405423502887L257.3700913473765,169.43908295072856L257.739820625941,-87.34846360704236L257.9246852652232,-65.69732578155545L258.1095499045054,123.93467044114173L258.29441454378764,112.06742492264564L258.4792791830698,86.16032039962691L258.6641438223521,71.84593237209234L259.2187377401988,99.13963851357538L259.403602379481,63.767187371161306L259.9581962973277,156.7021632283278L260.1430609366099,-6.505647688621714L260.32792557589215,167.7463584663805L260.51279021517433,106.29610402853858L260.6976548544566,79.47898947309446L260.8825194937388,101.1519055786192L261.2522487723033,36.84049125876632L261.43711341158547,136.88553875968867L261.80684269014995,-3.2224186047510286L261.9917073294322,95.832253943043L262.3614366079966,-14.321596331490769L262.7311658865611,102.25301234996803L262.9160305258433,62.4912408868328L263.1008951651255,183.6214209845127L263.28575980440775,131.18783458683623L263.6554890829722,155.63832492211412L263.8403537222544,205.69692853439855L264.2100830008189,34.3545466028999L264.3949476401011,129.73344423754997L264.57981227938336,154.52908963779345L264.76467691866554,27.13358977275428L264.9495415579478,123.55753811288118L265.31927083651226,27.483499250967576L265.50413547579444,143.80673750297572L265.68900011507674,83.54025527972476L265.8738647543589,52.52230988360516L266.2435940329234,122.12768667067976" fill="none"></path></g></g></g></g></g></g><g transform="translate(41, 176)" clip-path="url(#clip_1)"><clipPath id="clip_1"><rect width="288" height="23"></rect></clipPath><g><g><line x1="0" y1="0" x2="0" y2="5" style="visibility: inherit;" fill="rgb(0, 0, 0)" stroke="rgb(204, 204, 204)" stroke-width="1px"></line><line x1="24.07091657320658" y1="0" x2="24.07091657320658" y2="5" style="visibility: inherit;" fill="rgb(0, 0, 0)" stroke="rgb(204, 204, 204)" stroke-width="1px"></line><line x1="48.14183314641316" y1="0" x2="48.14183314641316" y2="5" style="visibility: inherit;" fill="rgb(0, 0, 0)" stroke="rgb(204, 204, 204)" stroke-width="1px"></line><line x1="72.21274971961975" y1="0" x2="72.21274971961975" y2="5" style="visibility: inherit;" fill="rgb(0, 0, 0)" stroke="rgb(204, 204, 204)" stroke-width="1px"></line><line x1="96.28366629282633" y1="0" x2="96.28366629282633" y2="5" style="visibility: inherit;" fill="rgb(0, 0, 0)" stroke="rgb(204, 204, 204)" stroke-width="1px"></line><line x1="120.35458286603293" y1="0" x2="120.35458286603293" y2="5" style="visibility: inherit;" fill="rgb(0, 0, 0)" stroke="rgb(204, 204, 204)" stroke-width="1px"></line><line x1="144.4254994392395" y1="0" x2="144.4254994392395" y2="5" style="visibility: inherit;" fill="rgb(0, 0, 0)" stroke="rgb(204, 204, 204)" stroke-width="1px"></line><line x1="168.4964160124461" y1="0" x2="168.4964160124461" y2="5" style="visibility: inherit;" fill="rgb(0, 0, 0)" stroke="rgb(204, 204, 204)" stroke-width="1px"></line><line x1="192.56733258565265" y1="0" x2="192.56733258565265" y2="5" style="visibility: inherit;" fill="rgb(0, 0, 0)" stroke="rgb(204, 204, 204)" stroke-width="1px"></line><line x1="216.63824915885925" y1="0" x2="216.63824915885925" y2="5" style="visibility: inherit;" fill="rgb(0, 0, 0)" stroke="rgb(204, 204, 204)" stroke-width="1px"></line><line x1="240.70916573206586" y1="0" x2="240.70916573206586" y2="5" style="visibility: inherit;" fill="rgb(0, 0, 0)" stroke="rgb(204, 204, 204)" stroke-width="1px"></line><line x1="264.7800823052724" y1="0" x2="264.7800823052724" y2="5" style="visibility: inherit;" fill="rgb(0, 0, 0)" stroke="rgb(204, 204, 204)" stroke-width="1px"></line><line x1="288.850998878479" y1="0" x2="288.850998878479" y2="5" style="visibility: inherit;" fill="rgb(0, 0, 0)" stroke="rgb(204, 204, 204)" stroke-width="1px"></line></g><g transform="translate(0, 8)"><text style="text-anchor: middle; visibility: hidden; font-family: Roboto, sans-serif; font-size: 12px; font-weight: 200;" x="0" y="0" dx="0em" dy="0.95em" fill="rgb(33, 33, 33)" stroke="none" stroke-width="1px">-100k</text><text style="text-anchor: middle; visibility: inherit; font-family: Roboto, sans-serif; font-size: 12px; font-weight: 200;" x="24.07091657320658" y="0" dx="0em" dy="0.95em" fill="rgb(33, 33, 33)" stroke="none" stroke-width="1px">0</text><text style="text-anchor: middle; visibility: hidden; font-family: Roboto, sans-serif; font-size: 12px; font-weight: 200;" x="48.14183314641316" y="0" dx="0em" dy="0.95em" fill="rgb(33, 33, 33)" stroke="none" stroke-width="1px">100k</text><text style="text-anchor: middle; visibility: inherit; font-family: Roboto, sans-serif; font-size: 12px; font-weight: 200;" x="72.21274971961975" y="0" dx="0em" dy="0.95em" fill="rgb(33, 33, 33)" stroke="none" stroke-width="1px">200k</text><text style="text-anchor: middle; visibility: hidden; font-family: Roboto, sans-serif; font-size: 12px; font-weight: 200;" x="96.28366629282633" y="0" dx="0em" dy="0.95em" fill="rgb(33, 33, 33)" stroke="none" stroke-width="1px">300k</text><text style="text-anchor: middle; visibility: inherit; font-family: Roboto, sans-serif; font-size: 12px; font-weight: 200;" x="120.35458286603293" y="0" dx="0em" dy="0.95em" fill="rgb(33, 33, 33)" stroke="none" stroke-width="1px">400k</text><text style="text-anchor: middle; visibility: hidden; font-family: Roboto, sans-serif; font-size: 12px; font-weight: 200;" x="144.4254994392395" y="0" dx="0em" dy="0.95em" fill="rgb(33, 33, 33)" stroke="none" stroke-width="1px">500k</text><text style="text-anchor: middle; visibility: inherit; font-family: Roboto, sans-serif; font-size: 12px; font-weight: 200;" x="168.4964160124461" y="0" dx="0em" dy="0.95em" fill="rgb(33, 33, 33)" stroke="none" stroke-width="1px">600k</text><text style="text-anchor: middle; visibility: hidden; font-family: Roboto, sans-serif; font-size: 12px; font-weight: 200;" x="192.56733258565265" y="0" dx="0em" dy="0.95em" fill="rgb(33, 33, 33)" stroke="none" stroke-width="1px">700k</text><text style="text-anchor: middle; visibility: inherit; font-family: Roboto, sans-serif; font-size: 12px; font-weight: 200;" x="216.63824915885925" y="0" dx="0em" dy="0.95em" fill="rgb(33, 33, 33)" stroke="none" stroke-width="1px">800k</text><text style="text-anchor: middle; visibility: hidden; font-family: Roboto, sans-serif; font-size: 12px; font-weight: 200;" x="240.70916573206586" y="0" dx="0em" dy="0.95em" fill="rgb(33, 33, 33)" stroke="none" stroke-width="1px">900k</text><text style="text-anchor: middle; visibility: inherit; font-family: Roboto, sans-serif; font-size: 12px; font-weight: 200;" x="264.7800823052724" y="0" dx="0em" dy="0.95em" fill="rgb(33, 33, 33)" stroke="none" stroke-width="1px">1M</text><text style="text-anchor: middle; visibility: hidden; font-family: Roboto, sans-serif; font-size: 12px; font-weight: 200;" x="288.850998878479" y="0" dx="0em" dy="0.95em" fill="rgb(33, 33, 33)" stroke="none" stroke-width="1px">1.1M</text></g><line x1="0" y1="0" x2="288.850998878479" y2="0" fill="rgb(0, 0, 0)" stroke="rgb(204, 204, 204)" stroke-width="1px"></line></g></g></g></g></svg>