<svg viewBox="0 0 330 200" xmlns="http://www.w3.org/2000/svg"><g><g><g><g><g><line x1="41.149001121520996" y1="176.89999961853027" x2="36.149001121520996" y2="176.89999961853027" style="visibility: inherit;" fill="rgb(0, 0, 0)" stroke="rgb(204, 204, 204)" stroke-width="1px"></line><line x1="41.149001121520996" y1="160.81818147139114" x2="36.149001121520996" y2="160.81818147139114" style="visibility: inherit;" fill="rgb(0, 0, 0)" stroke="rgb(204, 204, 204)" stroke-width="1px"></line><line x1="41.149001121520996" y1="144.7363633242521" x2="36.149001121520996" y2="144.7363633242521" style="visibility: inherit;" fill="rgb(0, 0, 0)" stroke="rgb(204, 204, 204)" stroke-width="1px"></line><line x1="41.149001121520996" y1="128.65454517711296" x2="36.149001121520996" y2="128.65454517711296" style="visibility: inherit;" fill="rgb(0, 0, 0)" stroke="rgb(204, 204, 204)" stroke-width="1px"></line><line x1="41.149001121520996" y1="112.57272702997383" x2="36.149001121520996" y2="112.57272702997383" style="visibility: inherit;" fill="rgb(0, 0, 0)" stroke="rgb(204, 204, 204)" stroke-width="1px"></line><line x1="41.149001121520996" y1="96.49090888283469" x2="36.149001121520996" y2="96.49090888283469" style="visibility: inherit;" fill="rgb(0, 0, 0)" stroke="rgb(204, 204, 204)" stroke-width="1px"></line><line x1="41.149001121520996" y1="80.40909073569557" x2="36.149001121520996" y2="80.40909073569557" style="visibility: inherit;" fill="rgb(0, 0, 0)" stroke="rgb(204, 204, 204)" stroke-width="1px"></line><line x1="41.149001121520996" y1="64.32727258855653" x2="36.149001121520996" y2="64.32727258855653" style="visibility: inherit;" fill="rgb(0, 0, 0)" stroke="rgb(204, 204, 204)" stroke-width="1px"></line><line x1="41.149001121520996" y1="48.24545444141738" x2="36.149001121520996" y2="48.24545444141738" style="visibility: inherit;" fill="rgb(0, 0, 0)" stroke="rgb(204, 204, 204)" stroke-width="1px"></line><line x1="41.149001121520996" y1="32.16363629427826" x2="36.149001121520996" y2="32.16363629427826" style="visibility: inherit;" fill="rgb(0, 0, 0)" stroke="rgb(204, 204, 204)" stroke-width="1px"></line><line x1="41.149001121520996" y1="16.08181814713912" x2="36.149001121520996" y2="16.08181814713912" style="visibility: inherit;" fill="rgb(0, 0, 0)" stroke="rgb(204, 204, 204)" stroke-width="1px"></line><line x1="41.149001121520996" y1="0" x2="36.149001121520996" y2="0" style="visibility: inherit;" fill="rgb(0, 0, 0)" stroke="rgb(204, 204, 204)" stroke-width="1px"></line></g><g transform="translate(31.149001121520996, 0)"><text style="text-anchor: end; visibility: hidden; font-family: Roboto, sans-serif; font-size: 12px; font-weight: 200;" x="0" y="176.89999961853027" dx="0em" dy="0.3em" fill="rgb(33, 33, 33)" stroke="none" stroke-width="1px">4.2</text><text style="text-anchor: end; visibility: inherit; font-family: Roboto, sans-serif; font-size: 12px; font-weight: 200;" x="0" y="160.81818147139114" dx="0em" dy="0.3em" fill="rgb(33, 33, 33)" stroke="none" stroke-width="1px">4.4</text><text style="text-anchor: end; visibility: hidden; font-family: Roboto, sans-serif; font-size: 12px; font-weight: 200;" x="0" y="144.7363633242521" dx="0em" dy="0.3em" fill="rgb(33, 33, 33)" stroke="none" stroke-width="1px">4.6</text><text style="text-anchor: end; visibility: inherit; font-family: Roboto, sans-serif; font-size: 12px; font-weight: 200;" x="0" y="128.65454517711296" dx="0em" dy="0.3em" fill="rgb(33, 33, 33)" stroke="none" stroke-width="1px">4.8</text><text style="text-anchor: end; visibility: hidden; font-family: Roboto, sans-serif; font-size: 12px; font-weight: 200;" x="0" y="112.57272702997383" dx="0em" dy="0.3em" fill="rgb(33, 33, 33)" stroke="none" stroke-width="1px">5</text><text style="text-anchor: end; visibility: inherit; font-family: Roboto, sans-serif; font-size: 12px; font-weight: 200;" x="0" y="96.49090888283469" dx="0em" dy="0.3em" fill="rgb(33, 33, 33)" stroke="none" stroke-width="1px">5.2</text><text style="text-anchor: end; visibility: hidden; font-family: Roboto, sans-serif; font-size: 12px; font-weight: 200;" x="0" y="80.40909073569557" dx="0em" dy="0.3em" fill="rgb(33, 33, 33)" stroke="none" stroke-width="1px">5.4</text><text style="text-anchor: end; visibility: inherit; font-family: Roboto, sans-serif; font-size: 12px; font-weight: 200;" x="0" y="64.32727258855653" dx="0em" dy="0.3em" fill="rgb(33, 33, 33)" stroke="none" stroke-width="1px">5.6</text><text style="text-anchor: end; visibility: hidden; font-family: Roboto, sans-serif; font-size: 12px; font-weight: 200;" x="0" y="48.24545444141738" dx="0em" dy="0.3em" fill="rgb(33, 33, 33)" stroke="none" stroke-width="1px">5.8</text><text style="text-anchor: end; visibility: inherit; font-family: Roboto, sans-serif; font-size: 12px; font-weight: 200;" x="0" y="32.16363629427826" dx="0em" dy="0.3em" fill="rgb(33, 33, 33)" stroke="none" stroke-width="1px">6</text><text style="text-anchor: end; visibility: hidden; font-family: Roboto, sans-serif; font-size: 12px; font-weight: 200;" x="0" y="16.08181814713912" dx="0em" dy="0.3em" fill="rgb(33, 33, 33)" stroke="none" stroke-width="1px">6.2</text><text style="text-anchor: end; visibility: hidden; font-family: Roboto, sans-serif; font-size: 12px; font-weight: 200;" x="0" y="0" dx="0em" dy="0.3em" fill="rgb(33, 33, 33)" stroke="none" stroke-width="1px">6.4</text></g><line x1="41.149001121520996" y1="0" x2="41.149001121520996" y2="176.89999961853027" fill="rgb(0, 0, 0)" stroke="rgb(204, 204, 204)" stroke-width="1px"></line></g></g><g transform="translate(41, 0)" clip-path="url(#clip_0)"><clipPath id="clip_0"><rect width="288" height="176"></rect></clipPath><g><g><g><line x1="0" y1="0" x2="0" y2="176.89999961853027" fill="rgb(0, 0, 0)" stroke="rgb(66, 66, 66)" stroke-width="1px" opacity="0.25"></line><line x1="24.07091657320658" y1="0" x2="24.07091657320658" y2="176.89999961853027" fill="rgb(0, 0, 0)" stroke="rgb(66, 66, 66)" stroke-width="1px" opacity="0.25"></line><line x1="48.14183314641316" y1="0" x2="48.14183314641316" y2="176.89999961853027" fill="rgb(0, 0, 0)" stroke="rgb(66, 66, 66)" stroke-width="1px" opacity="0.25"></line><line x1="72.21274971961975" y1="0" x2="72.21274971961975" y2="176.89999961853027" fill="rgb(0, 0, 0)" stroke="rgb(66, 66, 66)" stroke-width="1px" opacity="0.25"></line><line x1="96.28366629282633" y1="0" x2="96.28366629282633" y2="176.89999961853027" fill="rgb(0, 0, 0)" stroke="rgb(66, 66, 66)" stroke-width="1px" opacity="0.25"></line><line x1="120.35458286603293" y1="0" x2="120.35458286603293" y2="176.89999961853027" fill="rgb(0, 0, 0)" stroke="rgb(66, 66, 66)" stroke-width="1px" opacity="0.25"></line><line x1="144.4254994392395" y1="0" x2="144.4254994392395" y2="176.89999961853027" fill="rgb(0, 0, 0)" stroke="rgb(66, 66, 66)" stroke-width="1px" opacity="0.25"></line><line x1="168.4964160124461" y1="0" x2="168.4964160124461" y2="176.89999961853027" fill="rgb(0, 0, 0)" stroke="rgb(66, 66, 66)" stroke-width="1px" opacity="0.25"></line><line x1="192.56733258565265" y1="0" x2="192.56733258565265" y2="176.89999961853027" fill="rgb(0, 0, 0)" stroke="rgb(66, 66, 66)" stroke-width="1px" opacity="0.25"></line><line x1="216.63824915885925" y1="0" x2="216.63824915885925" y2="176.89999961853027" fill="rgb(0, 0, 0)" stroke="rgb(66, 66, 66)" stroke-width="1px" opacity="0.25"></line><line x1="240.70916573206586" y1="0" x2="240.70916573206586" y2="176.89999961853027" fill="rgb(0, 0, 0)" stroke="rgb(66, 66, 66)" stroke-width="1px" opacity="0.25"></line><line x1="264.7800823052724" y1="0" x2="264.7800823052724" y2="176.89999961853027" fill="rgb(0, 0, 0)" stroke="rgb(66, 66, 66)" stroke-width="1px" opacity="0.25"></line><line x1="288.850998878479" y1="0" x2="288.850998878479" y2="176.89999961853027" fill="rgb(0, 0, 0)" stroke="rgb(66, 66, 66)" stroke-width="1px" opacity="0.25"></line></g><g><line x1="0" y1="176.89999961853027" x2="288.850998878479" y2="176.89999961853027" fill="rgb(0, 0, 0)" stroke="rgb(66, 66, 66)" stroke-width="1px" opacity="0.25"></line><line x1="0" y1="160.81818147139114" x2="288.850998878479" y2="160.81818147139114" fill="rgb(0, 0, 0)" stroke="rgb(66, 66, 66)" stroke-width="1px" opacity="0.25"></line><line x1="0" y1="144.7363633242521" x2="288.850998878479" y2="144.7363633242521" fill="rgb(0, 0, 0)" stroke="rgb(66, 66, 66)" stroke-width="1px" opacity="0.25"></line><line x1="0" y1="128.65454517711296" x2="288.850998878479" y2="128.65454517711296" fill="rgb(0, 0, 0)" stroke="rgb(66, 66, 66)" stroke-width="1px" opacity="0.25"></line><line x1="0" y1="112.57272702997383" x2="288.850998878479" y2="112.57272702997383" fill="rgb(0, 0, 0)" stroke="rgb(66, 66, 66)" stroke-width="1px" opacity="0.25"></line><line x1="0" y1="96.49090888283469" x2="288.850998878479" y2="96.49090888283469" fill="rgb(0, 0, 0)" stroke="rgb(66, 66, 66)" stroke-width="1px" opacity="0.25"></line><line x1="0" y1="80.40909073569557" x2="288.850998878479" y2="80.40909073569557" fill="rgb(0, 0, 0)" stroke="rgb(66, 66, 66)" stroke-width="1px" opacity="0.25"></line><line x1="0" y1="64.32727258855653" x2="288.850998878479" y2="64.32727258855653" fill="rgb(0, 0, 0)" stroke="rgb(66, 66, 66)" stroke-width="1px" opacity="0.25"></line><line x1="0" y1="48.24545444141738" x2="288.850998878479" y2="48.24545444141738" fill="rgb(0, 0, 0)" stroke="rgb(66, 66, 66)" stroke-width="1px" opacity="0.25"></line><line x1="0" y1="32.16363629427826" x2="288.850998878479" y2="32.16363629427826" fill="rgb(0, 0, 0)" stroke="rgb(66, 66, 66)" stroke-width="1px" opacity="0.25"></line><line x1="0" y1="16.08181814713912" x2="288.850998878479" y2="16.08181814713912" fill="rgb(0, 0, 0)" stroke="rgb(66, 66, 66)" stroke-width="1px" opacity="0.25"></line><line x1="0" y1="0" x2="288.850998878479" y2="0" fill="rgb(0, 0, 0)" stroke="rgb(66, 66, 66)" stroke-width="1px" opacity="0.25"></line></g></g></g><g><g><line x1="0" y1="514.6181807084517" x2="288.850998878479" y2="514.6181807084517" fill="rgb(0, 0, 0)" stroke="rgb(153, 153, 153)" stroke-width="1.5px"></line></g></g><g><g><line x1="24.07091657320658" y1="0" x2="24.07091657320658" y2="176.89999961853027" fill="rgb(0, 0, 0)" stroke="rgb(153, 153, 153)" stroke-width="1.5px"></line></g></g><g><g><g><g><g><path style="fill: none;" stroke="rgb(255, 112, 67)" stroke-width="2px" d="M24.411760751883186,171.9481785317478L24.417537771860758,168.32985208177962L24.504193071524302,147.9562215215544L24.53307817141215,141.7152585796468L24.53885519138972,138.33210436192778L24.57929433123271,137.59618226333765L24.613956451098126,134.04796231141242L24.741050890604654,128.69808119632822L24.83926023022334,130.95457796701146L24.891253410021466,136.62808192802046L25.047232949415843,136.7594501916732L25.156996328989663,134.80067603220564L25.445847327868144,132.25901308697541L25.463178387800852,131.59372023629268L25.51517156759898,132.80271492411936L25.78091448656718,129.30666179410804L25.856015746275585,131.68713025563815L25.91378594605128,133.54105801042147L26.000441245714825,132.5131275499383L26.017772305647533,130.96064791373777L26.248853104750314,129.68228882648964L26.306623304526013,128.95683530886774L26.416386684099834,132.7266784470537L26.43949476401011,135.84632148653412L26.497264963785806,137.71012578488438L26.566589203516642,136.89617029513312L26.57236622349421,135.59001373490656L26.739899802843727,134.81687102928421L26.820778082529703,134.56134678315055L26.999865701834363,136.26149415893983L27.04030484167735,136.33576845193937L27.092298021475475,136.1090758616481L27.26560862080256,136.24845549961688L27.30027074066798,136.33267469236262L27.4100341202418,135.9514570800169L27.462027300039924,136.36633596036475L27.479358359972636,136.91970378906205L27.485135379950208,137.04422016297647L27.508243459860484,137.67120021222584L27.53135153977076,137.98286017738016L27.635337899367013,138.9767996550719L27.762432338873545,139.01609412804558L27.77398637882868,138.75422224191072L27.8086484986941,137.91468224245045L27.87797273842494,137.4012523374606L27.924188898245493,136.242359426395L27.94729697815577,135.58058690989603L28.039729297796885,135.14453190623863L28.057060357729593,134.59108409083177L28.340134336630502,135.4341079750348L28.374796456495922,136.42088219123053L28.461451756159466,137.8781618385074L28.478782816092174,139.4133225864081L28.50766791598002,140.7244831602649L28.55388407580058,140.8573769805396L28.582769175688426,141.12602507426627L28.848512094656623,142.3643204356671L28.860066134611767,143.31067099995587L28.92361335436503,143.27740108051285L28.969829514185587,143.6791772941702L29.010268654028575,143.8199648705412L29.027599713961283,144.13447825332267L29.08536991373698,144.23069406806587L29.148917133490244,143.58687673708846L29.17780223337809,142.87320870463836L29.183579253355663,142.24225168758448L29.21246435324351,141.52126327076536L29.21824137322108,140.75611974920045L29.316450712839764,141.37745413771486L29.651517871538797,141.77723407494298L30.379422388712563,142.33756517359245L30.437192588488262,142.0505404956054L30.46030066839854,141.88042174941586L30.477631728331247,141.89278095122205L30.500739808241526,141.86897249170678L30.512293848196663,141.94188549570777L30.650942327658335,142.695115177244L30.801144847075143,143.26986224694429L31.020671606222788,144.0084972658221L31.153543065706888,144.46030509887825L31.205536245505012,144.95530586671381L31.251752405325572,145.37010668894015L31.465502144495645,144.78138267770166L31.557934464136757,145.88572594742664L31.592596584002177,146.67914466218244L31.754353143374125,146.09021299040626L31.962325862566633,146.2133649043751L31.991210962454478,146.27955607942127L32.060535202185314,146.57921756537777L32.09519732205073,146.99481841279504L32.158744541804,147.10775383584323L32.2338458015124,146.90865837836046L32.26850792137782,146.54962288174582L32.280061961332954,146.4031340277856L32.31472408119838,146.47620149896977L32.39560236088435,146.53147590998026L32.40137938086192,146.58868997247973L32.724892499605815,146.41583080723794L32.834655879179635,146.2061054240192L32.851986939112344,145.86420066734607L32.90975713888804,145.63078142343474L32.92708819882075,145.44207462726294L32.990635418574016,145.6148126162919L32.99641243855159,145.70770242926613L33.32570257727305,146.57053938906157L33.539452316443125,146.7862256961862L33.562560396353405,146.63379731927972L33.626107616106665,147.04870537001813L33.68387781588236,147.2660940331311L33.71853993574778,147.49429797363405L33.89762755505244,147.02980076589105L34.10560027424494,147.19768697264652L34.19225557390849,147.72907454727917L34.221140673796334,148.05857599954405L34.23269471375148,148.37902398933687L34.45222147289912,148.63164451201686L34.45799849287669,148.87176794171708L34.55620783249537,148.7937931496279L34.60242399231593,148.79284155775503L34.67174823204677,148.82070182223453L34.71796439186732,149.20477786338236L34.76418055168788,149.5746490104079L34.83928181139628,149.713105538099L34.85661287132899,149.86429223666016L34.954822210947675,150.1297999138428L35.0068153907458,150.5940406522016L35.07613963047663,150.5875336630532L35.75782798782985,150.74523953568908L35.856037327448526,150.6888707726254L35.96580070702235,150.71354303614507L35.983131766955054,150.83949156060302L36.08134110657374,151.02522219722474L36.31242190567653,150.50594960495755L36.404854225317635,150.1853165244799L36.47417846504847,150.22028051379297L36.55505674473444,150.12351396438714L36.56661078468959,150.03119781285176L36.57816482464472,149.9388786880582L36.63015800444285,149.518401638768L36.88434688345591,149.76564343969622L36.907454963366185,149.96323837265177L37.06921152273814,149.4484475450845L37.15586682240168,148.50420781935546L37.219414042154945,148.07477918707863L37.577589280764265,147.6080030045541L37.5891433207194,147.1745791258811L37.59492034069697,146.7448930248754L37.73356882015864,146.33650497959428L38.062858958880106,145.96463823258395L38.080190018812814,145.56341861860125L38.09174405876796,145.12430252968517L38.166845318476355,144.96538473605946L38.21306147829692,144.75625557982752L38.282385718027754,144.49210905126634L38.35748697773616,144.02764227351616L38.70410817639033,143.5821352073823L38.721439236323036,143.1337721977065L38.88897281567255,142.70768596831644L38.98718215529124,142.85578824399073L39.206708914438885,142.19665209501855L39.39735057369868,141.5116930734846L39.54755309311549,140.90413271877512L39.62265435282389,140.23908650700162L39.66309349266688,139.66584325741982L39.70930965248744,139.1210571798272L40.02704575125376,138.8070009432329L40.27545761028925,138.16874591510816L40.3043427101771,137.23177030608653L40.36788992993037,136.3332008738519L40.78383536831538,136.16046816036234L40.841605568091076,135.9749268034848L40.864713648001356,135.76265917198754L40.87049066797892,135.53787465541262L40.974477027575176,135.31529848122827L40.991808087507884,134.9379037919624L41.165118686834965,134.4536722123019L41.22866590658823,134.1505737986947L41.47130074564616,134.03681025126548L41.494408825556434,133.87965426857744L41.50596286551158,133.62859326732672L41.748597704569505,133.94819761353082L41.75437472454707,134.3486141121659L42.02589466349284,134.43611531626587L42.07788784329096,134.52386064911917L42.10677294317881,134.5659958006958L42.337853742281595,133.98239936666297L42.736468120733896,133.6236824779844L42.88089362017313,133.04760769724385L43.418156478087106,132.8988957761907L43.487480717817945,132.65958962615596L43.55102793757121,132.37662778313836L43.614575157324474,132.28738857333644L43.747446616808574,131.8642555823179L43.76477767674128,131.47740250645066L43.89764913622538,131.3767906233375L43.903426156202954,131.28980582943285L44.036297615687054,130.91915863314466L44.08251377550761,130.56571271698306L44.24427033487956,129.9891737455468L44.26737841478983,129.51541210751338L44.57933749357859,129.12626920644072L44.68332385317484,128.74523475086605L44.79308723274867,128.2580593752515L44.804641272703805,127.75986235299779L44.88551955238978,127.2712888978506L44.93751273218791,126.89365678093013L44.97217485205332,126.4944987686164L45.08193823162715,126.13669399814977L45.31301903072993,125.83292554453823L45.359235190550486,125.52579014535031L45.37078923050563,125.2490400165548L45.42278241030375,124.83160742530703L45.486329630057014,124.36323570872814L45.52099174992244,123.87272204314748L45.5267687699,123.34387481467203L45.7000793692271,122.73429148522423L45.798288708845774,122.0942565584563L46.133355867544815,121.81285584372792L46.2488962670962,121.5461521616461L46.5146391860644,121.1080028705484L46.68217276541392,120.88150355271262L46.71105786530176,120.66496810065289L46.728388925234476,120.37923541146543L46.75149700514475,120.23281819224204L46.768828065077464,120.13865010878665L46.80349018494288,120.08719646666128L47.08078714386622,119.50938427064274L47.10967224375407,119.0474020990376L47.22521264330546,118.53801847358129L47.25409774319331,118.00765714530013L47.28875986305872,117.47118761469152L47.300313903013866,116.98594438546039L47.34075304285685,116.58601348423524L47.410077282587686,116.097007223943L47.54294874207179,115.89704119127637L48.057103520075486,115.70733335068147L48.12642775980632,115.30613917086683L48.17264391962687,114.96036037179896L48.270853259245555,114.70348025782049L48.32284643904368,114.43332768131624L48.42683279863993,114.30687140642438L48.57125829807917,114.2542365365563L48.72723783747355,114.0167047674226L48.90632545677821,113.66309898805792L48.92943353668849,113.15425455892525L49.36271003500621,113.51740243083167L49.60534487406412,113.347406084858L49.657338053862254,113.25947246800173L49.72666229359309,113.03860469342385L49.75554739348094,112.69348699326122L49.82487163321177,112.36118882857781L49.88841885296504,112.15627139207753L50.00395925251643,111.8687728722343L50.125276672045395,111.45959187661086L50.142607731978096,111.09946476545666L50.2177089916865,110.92969902992286L50.3505804511706,111.07757321627223L50.52966807047526,110.95177927752162L50.610546350161236,111.08522404130984L50.65676250998179,111.11495399908904L50.83585012928645,111.2831359078867L50.84740416924159,111.44103739942736L50.89939734903972,111.51560320640665L51.17091728798548,111.44949332745485L51.19402536789576,111.30334115911924L51.205579407850905,111.17087795348955L51.25757258764902,110.96734594657799L51.575308686415354,110.9431936721458L51.7197341858546,110.87158884085432L51.82372054545085,110.69063674350313L51.87571372524897,110.4187800353771L51.973923064867655,110.10906008537125L52.22811194388071,109.87755378251774L52.34365234343211,109.65423740120899L52.4591927429835,109.53474177741182L52.6498344022433,109.26983266085016L52.667165462176,109.07967698492413L52.68449652210871,108.94699279692205L52.7249356619517,108.74408553724795L52.852030101458226,108.56249629600242L53.077333880583446,108.43763525350481L53.1062189804713,108.37216369680802L53.13510408035914,108.22102660845546L53.28530659977595,107.99222390382293L53.319968719641366,107.6901069798997L53.37773891941706,107.54216231899036L53.475948259035746,107.43449448115024L53.50483335892359,107.30670291683371L53.87456263748805,107.14938499821362L54.088312376658116,106.75427147424271L54.34827827564875,106.42767361980489L54.3771633755366,106.09018634462241L54.40027145544688,105.73125830440736L54.683345434347785,105.55518311327198L54.80466285387675,105.28411767607321L54.816216893831886,105.10852106892256L54.83932497374217,104.97305621147096L55.13973001257578,104.76245257801055L55.284155512015026,104.8252650919057L56.06405320898692,104.69633057004943L56.22580976835887,104.45039712164451L56.237363808314,104.21504489528701L56.31246506802241,103.83890772988431L56.43955950752894,103.4932021664096L56.70530242649714,103.25996476549656L56.73996454636256,103.03081246854084L56.826619846026105,103.15184194395935L57.0923627649943,103.03685039660989L57.202126144568126,103.1389207447018L57.265673364321394,103.16977553879734L57.508308203379315,102.76607498868954L57.727834962526956,102.70613408620058L57.97624682156245,102.63746654138313L58.010908941427864,102.47559710721279L58.4037462999026,102.19416061501168L58.58283391920726,102.18646234208589L58.588610939184825,102.24401947219891L58.64638113896052,102.36258407600262L58.675266238848366,102.3091097654013L58.83124577824275,101.90673013423107L59.7324608947436,101.84398920212675L59.778677054564156,101.83519640011231L59.78445407454173,101.84975339096837L59.89999447409312,101.68271050373427L60.00398083368937,101.37620108560648L60.136852293173476,101.12112294597385L60.22350759283702,100.89200823675736L60.31016289250056,100.78083580864218L60.38526415220897,100.55538709228351L60.529689651648205,100.23195616062328L60.54124369160334,99.9450968864622L60.656784091154734,99.74163735200764L60.67989217106501,99.49814719423715L60.88208787027995,99.4205575916068L60.93985807005565,99.30790545036206L60.98029720989863,99.15712150908782L61.02651336971919,98.9691228298462L61.1189456893603,98.67683992863121L61.15938482920328,98.44073992960867L61.24026310888926,98.2059033149428L61.36735754839579,97.96578267279662L61.407796688238776,97.83624413371389L61.44823582808176,97.68773372309008L61.49445198790232,97.69925122139638L61.56377622763316,97.65096073401392L61.56955324761073,97.59951680524281L61.760194906870524,97.34408252523588L61.7833029867808,97.12956758072606L61.8410731865565,96.99433524249801L61.92195146624247,96.70896145316662L62.03749186579387,96.45485181168254L62.12414716545741,96.2554826447413L62.15303226534525,96.03629743691066L62.17036332527796,95.78485794466151L62.205025445143384,95.54411375181093L62.470768364111585,95.43292541024122L62.92137592236201,95.41508737414561L62.979146122137706,95.35400722451867L63.16401076141993,95.28194743743026L63.18134182135264,95.26501089901029L63.192895861307775,95.2483856086127L63.59151023976008,94.89926236805704L63.60884129969279,94.59056930393622L63.68971957937877,94.40628178435871L63.80525997893015,94.39378952775493L63.82259103886287,94.3895516576137L64.43495515648524,94.16056779365486L64.51005641619365,94.07149523202375L64.70069807545343,94.07845751069415L64.84512357489268,94.06368270404735L65.03576523415248,93.79191038974692L65.39394047276178,93.8034095292218L65.61924425188701,93.63155773329768L65.8676561109225,93.31921632009288L65.90231823078791,93.11590564531387L66.16806114975611,93.07446406837256L66.41069598881404,92.93085696305522L66.48579724852245,92.64237909756162L66.82664142719905,92.50584105597608L67.09816136614481,92.3639187496705L67.23103282562892,92.28710307501697L67.2714719654719,92.27914460627653L67.3870123650233,92.42705865427452L67.50255276457469,92.34493691949494L67.860728003184,92.30054781564274L68.0109305226008,92.33567461932687L68.03981562248866,92.26528822462465L68.43843000094095,92.23916273222483L69.32809107748668,91.89340193686859L69.35119915739695,91.52091397429753L69.38586127726236,91.13317209205863L69.44940849701564,90.79507613783811L69.81336075560252,90.65446441133903L69.90579307524364,90.57330357629218L69.92890115515391,90.44514413655327L70.08488069454829,90.28827186718188L70.11376579443613,90.12946873484452L70.32751553360622,89.905550168676L70.41417083326975,89.67806988040533L70.71457587210337,89.55180326639434L70.85900137154262,89.31975354754358L70.93987965122858,89.13600348847478L71.14207535044352,88.92006041692268L71.44248038927714,88.77664164365892L71.54068972889583,88.79520262324199L72.56322226492564,88.80671991503739L72.93295154349009,88.58509614109057L72.97339068333308,88.42928902190192L73.12937022272745,88.3793231102308L73.18136340252558,88.32184112432508L73.20447148243586,88.33421364680275L73.38933612171809,88.16115740248472L73.39511314169566,88.00439263256641L73.56842374102274,87.96481989116084L73.63774798075359,87.82054183426067L73.66663308064143,87.73290648284767L73.90926791969936,87.48846924414958L73.9959232193629,87.34766523279048L74.30788229815165,87.01592895843964L74.34832143799463,86.84524737793876L74.35987547794979,86.7686435460857L74.79892899624507,86.56681224401808L74.80470601622264,86.38900755585342L74.81626005617777,86.21065837235336L75.04734085528057,86.0130265371654L75.64237391297023,86.10687928726414L76.08720445124308,85.98284784214427L76.17963677088419,85.81595537892203L76.22007591072719,85.62353951307315L76.50314988962809,85.60945538512428L76.60135922924678,85.53306261404386L77.1097369872729,85.31869795484624L77.19061526695887,85.01730703454669L77.3581488463084,84.74815670416498L77.42747308603921,84.68969657209807L77.44480414597193,84.5957761718965L77.47368924585979,84.60226052737441L77.54301348559062,84.7221468173729L77.86652660433451,84.62890096939586L77.89541170422235,84.58464427871384L77.93007382408777,84.58150039199667L77.97628998390833,84.5673368244058L78.28247204271952,84.5685739787826L78.46155966202419,84.42516142160704L78.80240384070079,84.35598713842549L78.92949828020733,84.22552774310512L79.00459953991572,84.01736930053417L79.71517299715678,83.7487918848046L79.79027425686519,83.52488063178829L79.8827065765063,83.26415489924476L80.25821287504832,83.34036851759708L80.26976691500346,83.4039167198247L80.46618559424083,83.10692840848105L80.61061109368006,82.89734456928402L81.03811057202022,82.53593062267984L81.31540753094356,82.42173081404736L81.85844740883509,82.40058172449476L81.9913188683192,82.37769708918661L82.02020396820704,82.36847299555549L82.3321630469958,82.19837088556501L82.5228047062556,81.89401581340542L82.57479788605372,81.64616469657341L82.74233146540324,81.44887209618406L83.00807438437144,81.39996976151477L83.06006756416956,81.3568707329822L83.15249988381068,81.17384839086452L83.2276011435191,81.08183338664475L83.30847942320506,80.87773069156395L83.37202664295833,80.72101797928924L83.55689128224054,80.5879273976381L83.95550566069285,80.37979267384208L84.04793798033396,80.24106490980066L84.09415414015453,80.17699486168124L84.26746473948161,80.23273546085795L84.4176672588984,80.20553165298116L84.49276851860682,80.06021206742162L84.57942381827036,79.96481906514927L84.63141699806849,79.82245959689548L84.70074123779933,79.59636186757893L84.9318220369021,79.4958679567203L85.03580839649837,79.43958172391298L85.24955813566845,79.07302511161257L85.37665257517497,79.01258207470701L85.43442277495066,78.98150268144325L85.46908489481608,78.92794468060201L85.50374701468151,78.89065913473227L85.76371291367212,78.65961921720634L85.81570609347025,78.52235371718426L85.8272601334254,78.35639997549507L85.97168563286465,78.19653703470055L86.19121239201228,77.99471892085867L86.24898259178796,77.84799962331354L86.5320565706889,77.67695004714228L86.79202246967951,77.49040283257014L86.80357650963467,77.35660702444068L86.99999518887202,77.05577558119828L87.14442068831126,76.75988035202481L87.28306916777294,76.55325132091536L88.76198628203073,76.39143604305119L88.77354032198589,76.22721711050451L89.16060066048306,76.1668757184637L89.41478953949611,76.12554021356546L89.57076907889048,75.80691397294363L89.73252563826243,75.58479291035137L90.10803193680447,75.54221405645939L90.22357233635584,75.43485813793285L90.24090339628854,75.32749476250358L90.37377485577265,75.28576950368254L90.51820035521189,75.23482509698131L91.02080109326046,75.26898047286144L91.18833467260997,75.31473866234597L91.19411169258754,75.3804527747644L91.24610487238567,75.40937111686739L91.9220162097613,75.34106232123514L91.95667832962671,75.26554585669967L92.00289448944727,75.11806885194116L92.08377276913325,74.99007750011202L92.11843488899866,74.90193654634533L92.12421190897624,74.79230538141427L92.34373866812388,74.76967029386905L92.7019139067332,74.59129174633073L93.24495378462474,74.58620388067872L93.47025756374995,74.550637354461L93.52225074354808,74.5715916496784L93.5915749832789,74.53429409465686L93.9150881020228,74.61497585690766L93.94975022188822,74.62530548035299L94.38880374018352,74.43710813901103L94.89718149820963,74.37641317106365L95.1109312373797,74.3986055897147L95.45177541605631,74.47726793433118L95.59042389551799,74.59704981666337L95.72329535500208,74.52395166384156L95.77528853480021,74.34164157669967L96.11613271347682,74.16376539178188L96.1565718533198,73.97401011310257L96.22011907307306,73.77329851002239L96.3645445725123,73.75196364238694L96.75738193098704,73.58792499422756L96.95957763020198,73.60876113395997L96.9942397500674,73.5916209317691L97.06356398979823,73.52849168963292L97.28309074894587,73.51805443349103L97.30042180887858,73.54824979648312L97.39863114849727,73.5903396256401L97.51417154804867,73.56018721285722L97.62971194760004,73.40726577036962L98.11498162571588,73.40937209949395L98.21896798531215,73.36580103650334L98.56558918396632,73.6935318345902L98.66957554356257,73.86907160662255L98.79089296309154,73.75905144997547L98.84288614288967,73.58621096264612L98.96420356241862,73.4356288481667L99.22994648138683,73.34834464872844L99.26460860125223,73.25390042355143L99.70366211954753,73.12504532004228L99.77298635927836,73.05260348175133L99.83653357903162,72.95510568559256L99.85386463896434,72.88448081304367L99.8596416589419,72.81551833987977L99.90585781876246,72.75187772829587L99.96940503851572,72.73352222622572L100.21203987757364,72.63637227095703L100.22359391752879,72.53886366079999L100.60487723604838,72.4308636217642L101.00926863447826,72.3043742995844L101.01504565445582,72.2421495138395L101.28078857342403,72.21758885762291L101.29234261337916,72.22456727660817L101.32700473324458,72.15662677320044L101.48298427263896,71.97716466693558L102.13001051012675,71.89766901801939L102.18200368992487,71.9225003754231L102.37842236916224,71.89198559597801L102.82325290743509,71.9218560134633L102.85213800732295,71.97525018105073L102.88680012718835,71.98049574828187L102.92146224705378,71.9961711382534L102.96190138689677,71.9556949435408L103.33740768543879,72.02231473642675L103.34896172539393,72.07122596607786L103.47605616490047,72.07903523398238L103.48183318487803,72.06773686450036L103.86311650339763,71.95094216340696L103.92088670317332,71.89921420924614L103.94977180306117,71.84110231694471L104.30794704167049,71.82826455193137L104.41771042124431,71.82501146552643L104.49858870093028,71.74176384859071L104.63723718039195,71.5591206473319L105.03007453886669,71.43680239693279L105.40558083740869,71.46213121096353L105.44024295727411,71.46394786867032L105.49223613707224,71.50493262555622L105.51534421698253,71.53093584485103L105.85041137568156,71.46162569307515L106.58986993281047,71.57511401922363L106.89605199162165,71.60219876557903L107.05203153101604,71.76974479253586L107.38132166973749,71.72728929786635L107.46219994942346,71.61992163723343L107.57196332899728,71.57208406827806L107.75682796827952,71.44834134589102L107.82037518803278,71.44033515192942L107.92436154762903,71.39674684353764L108.20165850655238,71.32016040848424L108.32875294605891,71.130582244882L108.35763804594676,70.89420278717044L108.47895546547572,70.83605109912519L108.60027288500467,70.76054310055092L108.90645494381587,70.66131348067339L109.17797488276163,70.57812662920902L109.81922410027185,70.44067380176975L110.0214197994868,70.28804315578397L110.05608191935221,70.16782016722522L110.0965210591952,70.0683537722681L110.13696019903819,69.9998021559662L110.63378391710917,69.84045976002001L110.78398643652598,69.6696404396269L110.88797279612223,69.48751413381778L111.22303995482127,69.48517650421893L112.8521595884959,69.4182856196007L113.95557040421168,69.56033160617909L113.96134742418926,69.71723248656575L114.0075635840098,69.90635771232931L114.0653337837855,69.96599973781443L114.07688782374065,70.04195785975364L114.18665120331447,69.91182887391822L114.22131332317988,69.8362626626397L114.26752948300044,69.72594942395331L114.59104260174432,69.7063638702409L114.74702214113871,69.65915037959678L114.8047923409144,69.58443640056205L114.81634638086955,69.49219043591975L115.34205519882839,69.4697232787613L115.73489255730311,69.50004182145271L115.83887891689938,69.53362873784923L116.1566150156657,69.49677507100245L116.22016223541895,69.48487184247267L116.47435111443201,69.34488447414942L116.6476617137591,69.26663775636221L116.67654681364695,69.18761445646159L116.79208721319834,69.1959440788273L116.95962079254787,69.14004525676359L117.10982331196466,68.99648379760286L117.43333643070856,68.89015221878299L117.49688365046183,68.80069148144057L117.54887683025996,68.72697905367923L117.5604308702151,68.67678247184553L117.58353895012537,68.62569355024654L117.60087001005809,68.55648414356406L117.79728868929546,68.64542934944694L117.8088427292506,68.710607310331L119.13755732409159,68.52589094241816L119.24732070366541,68.45368728222886L119.51306362263361,68.54399112712758L119.70948230187098,68.4514511156308L120.0098873407046,68.34694317133128L120.03877244059245,68.23363526585256L120.22363707987468,68.12428847507485L120.30451535956065,68.04006484543218L120.36228555933636,68.02058349736828L120.49515701882044,68.02756808028425L120.51248807875315,67.98564655331997L120.57603529850641,67.9937484043553L120.59336635843913,67.97990745807196L120.91110245720544,67.90065946902006L120.93421053711573,67.77523494149717L120.997757756869,67.72588712997305L121.10174411646524,67.69962003464225L121.17106835619609,67.61599422000333L121.6794461142222,67.50761970679739L121.74877035395305,67.28813812165014L121.85853373352687,67.18890992356948L121.88741883341471,67.08372088510832L121.93363499323527,66.9533946651482L122.23981705204645,66.86773781639818L122.37846553150813,66.69532592837567L122.65576249043146,66.75530083526586L122.67309355036417,66.84683976074955L122.75974885002772,66.91880472496543L122.88106626955667,66.86990620205665L123.18724832836786,66.69352397846178L124.43508464352288,66.6592097648555L124.94346240154903,66.6423499137086L125.46917121950786,66.58042849375673L125.65981287876765,66.56946190654799L128.69274836699168,66.4768813768771L128.71585644690194,66.34667370849088L128.8602819463412,66.12102146258223L129.1086938053767,66.29263788249078L129.13180188528696,66.46657225336943L129.17224102512995,66.66306991798511L129.55352434364954,66.70665736432909L130.21210462109246,66.60137014734659L130.53561773983637,66.60324445301123L130.67426621929803,66.65358429150693L130.68004323927562,66.70297520658212L131.88744041458767,66.63793253530616L131.94521061436336,66.60894770565406L132.11852121369043,66.43219474839253L132.37848711268106,66.20555484958017L132.5055815521876,66.0645582801632L132.55757473198574,66.02106593962297L133.18726990954082,66.04093562827335L133.21615500942866,66.02891102996121L133.2450401093165,66.00266333017385L133.3952426287333,66.05993055461573L133.53389110819498,66.00793346327032L133.56277620808282,65.89261360709736L133.64943150774639,65.79561117875033L133.74764084736506,65.75786529653105L133.75341786734262,65.72703457839086L134.43510622469586,65.66971797784088L134.45821430460612,65.61970512431269L134.49287642447155,65.56654577954146L134.63730192391077,65.42653398888297L134.6950721236865,65.38584033118474L136.3184147373835,65.26683744840356L136.4570632168452,65.11158518456394L136.46861725680034,64.98898455562623L137.5546970125834,65.03206406626263L137.58935913244883,65.06684038353339L137.6702374121348,65.07416608855603L137.73378463188808,65.08885369374387L137.8608790713946,65.07309540712899L137.86665609137216,65.03484360133454L137.94753437105814,64.96373057424827L138.36347980944316,64.86390875627248L138.45591212908428,64.75698701873836L138.46168914906184,64.65484274438809L138.5830065685908,64.6285806360745L139.21270174614588,64.35473160928177L139.4726676451365,64.2804305588847L139.60553910462062,64.26570445973833L139.63442420450846,64.28316153764905L139.721079504172,64.2640166864449L139.87128202358883,64.31408197260161L140.01570752302806,64.3760105255828L140.18901812235515,64.38274569542745L140.24678832213084,64.4179928327988L140.28145044199624,64.45838410649594L140.5991865407626,64.44291602116272L140.8244903198878,64.34970718163035L141.21155065838497,64.23803298495038L141.3386450978915,64.2892873757024L141.4484084774653,64.34861983069632L141.50617867724102,64.3961191246432L141.54084079710643,64.4351023147268L141.61016503683726,64.43277412965053L141.61594205681484,64.44730863717345L141.6448271567027,64.43428678304663L141.65060417668025,64.42725221152976L141.6968203365008,64.43258670427167L142.64425161282222,64.31972355870454L144.660431584994,64.29277045090966L144.70664774481457,64.21912358191152L145.96026107994714,64.11384260727034L146.45130777804056,64.04221858606167L146.4628618179957,63.95111915048548L146.50907797781625,63.906299452408284L147.13877315537135,63.84976048434003L147.38140799442925,63.807011995879265L147.39296203438442,63.70800271394233L147.42762415424983,63.629187971624965L147.8493466126124,63.57934318452059L147.94755595223108,63.426343452720296L147.97644105211896,63.30038101080731L148.2075218512217,63.223898437888295L148.31728523079553,63.14352794420715L148.33461629072823,63.02378069109087L148.52525794998803,62.965864609107705L148.53681198994317,62.93292516782587L149.81931042496362,62.80068132414589L150.0330601641337,62.68562937203535L150.10238440386453,62.53807596128749L150.32768818298976,62.54381117808399L150.40856646267574,62.51423642582009L150.59343110195795,62.447504698509846L150.72630256144205,62.442963066353705L153.42417089096705,62.40506371400433L155.24970920387904,62.40396694591204L155.28437132374447,62.39881978761849L156.4339982992808,62.32117430066396L156.5726467787425,62.31716242863707L156.64774803845089,62.36466217417756L156.71129525820413,62.333438940479894L157.1387947365443,62.19085168326281L157.156125796477,62.107023528938576L157.1792338763873,62.05981486019328L158.15555025259653,62.071162729425446L158.35774595181147,61.98772900574408L160.19483830467863,61.85489100347206L161.28669508043927,61.68009762462377L161.9279442979495,61.662161687048496L161.9452753578822,61.694353124937955L161.96260641781487,61.73571422614736L162.34966675631205,61.76388544223042L162.45943013588587,61.827492413718524L162.84649047438305,61.868007290746476L162.89848365418115,61.92042189810989L163.78814473072686,61.85825914375757L163.82858387056984,61.80808915572513L163.85169195048016,61.816421310356986L164.36006970850627,61.75526862911282L164.48138712803524,61.72603535796067L165.50391966406505,61.706457072282625L165.57324390379588,61.678967598599776L165.61946006361643,61.62560708944766L165.7581085430781,61.537450761704704L166.26070928112665,61.611302020027246L168.7448278714816,61.622330883635115L170.60502830425898,61.57333074508632L170.6396904241244,61.594765071156544L170.6801295639674,61.61488683927632L170.68590658394496,61.6398523801206L170.70901466385524,61.70324106812417L170.76100784365335,61.7165795986797L170.76678486363093,61.747481234381794L171.061412882487,61.76917664971939L171.09607500235242,61.8073104351177L171.10185202232995,61.86599615411154L171.11918308226268,61.92186751497872L171.25783156172437,61.940077075706576L171.32137878147762,61.99433587062672L171.74310123984017,62.01250892153843L171.88174971930187,62.01282474911322L171.9510739590327,62.03092669136013L171.99729011885324,62.07221477495291L172.1417156182925,62.02763646620054L174.52762486902873,62.12691298266671L174.77025970808666,62.05190175419541L176.89620305983226,62.048652125300386L176.90198007980985,62.047381563233074L176.99441239945094,61.98329383738448L177.00596643940608,61.8592108536402L177.05218259922663,61.72112433145057L177.9880598355929,61.635330995237496L180.93434002415339,61.583091135059696L181.4658258620898,61.52213019316924L181.51781904188792,61.44755861627478L181.85866322056452,61.42515255576908L183.8748431927363,61.37444302516444L183.92105935255688,61.35934976493925L183.932613392512,61.3239888069677L184.02504571215312,61.25693319700058L191.2405436641375,61.10917999537897L191.4138542634646,61.076791349825335L191.45429340330762,61.09809652261651L191.47740148321788,61.0821677829199L191.54094870297115,61.01821188222112L192.15908984057108,60.990112143097804L192.18797494045893,60.981162164279446L192.51148805920283,60.98822389276707L192.54615017906826,60.96971511142514L192.6501365386645,60.98025237568959L192.8985483977,60.95037184622289L192.97364965740837,60.90937961281433L193.5629056951205,60.89838781281626L194.42368167177835,60.785563557898186L194.75297181049984,60.68548960458759L194.80496499029795,60.614355648807006L194.88584326998395,60.57585600355518L195.39422102801007,60.574831860595495L195.95459196583428,60.456072909103675L195.96036898581187,60.36424860359861L196.07590938536327,60.3275404101616L196.3936454841296,60.3416159326961L196.46296972386043,60.33727571636728L196.67094244305292,60.358753040352454L196.9597934419314,60.30615694320742L197.06955682150524,60.1410854023064L197.35263080040613,60.087497642408515L197.82056941858926,60.02087736879686L198.669791355292,60.065106534465116L200.1718165494601,60.04673284308882L200.50110668818158,60.01296062562806L200.5877619878451,60.05777551487184L201.26367332522074,60.00061964679715L201.28100438515344,59.943848480626755L201.5178622042338,59.76495389129222L201.54674730412165,59.646511533770386L201.5756324040095,59.58177253917561L201.64495664374033,59.59257628907294L201.68539578358335,59.63802216839131L205.22670902983347,59.68069336627795L205.3769115492503,59.66138838831171L205.38268856922784,59.65076266072097L205.41735068909327,59.59023460115909L205.69464764801663,59.610187964923625L205.87951228729884,59.68973350175543L205.89106632725395,59.73755684793146L206.10481606642406,59.62252061744972L207.34109834162393,59.56385426229261L207.35265238157908,59.4250452053784L209.54214295307796,59.55473024875395L209.5768050729434,59.679288786216134L209.66346037260692,59.643361968065314L209.70967653242747,59.54389428245554L209.73856163231534,59.40013503833747L209.79633183209103,59.22793067329766L210.1429530307452,59.264596981784585L210.49535124937694,59.3326447819141L210.51268230930964,59.38836268967967L210.53001336924237,59.442430035355684L212.37288274208703,59.41575688383922L212.37865976206461,59.38197100410623L212.5924095012347,59.31570026421376L212.89859156004587,59.23390929945697L212.96213877979915,59.14145793380664L213.1758885189692,59.16732528621431L213.74203647677103,59.220392531647775L214.7934541126887,59.18511097966144L217.99392318026224,59.149204164242526L218.1499027196566,59.15202541211431L218.49074689833324,59.16294752408521L218.57162517801922,59.17992681242205L218.59473325792948,59.19933489276676L219.00490167633694,59.110919361105395L219.0280097562472,58.99949319938165L219.25331353537243,58.84352350069081L219.85990063301722,58.82238227259696L220.05054229227702,58.72212870403224L223.79982825771967,58.73605432453287L224.62016509453454,58.67974141962672L224.64905019442241,58.62027366257791L225.52715723101298,58.49425822899821L225.5618193508784,58.37542842978394L225.56759637085597,58.26616611073145L225.58492743078867,58.178158068967655L225.6022584907214,58.103488323581175L225.60803551069895,58.0210394237366L226.51502764717736,57.90032916832994L226.99452030531563,57.90999930650735L227.4797899834315,57.8074508631803L227.5953303829829,57.84517702711693L227.71664780251186,57.82682665580257L227.7455329023997,57.763340213471324L227.8784043618838,57.72195745482799L227.9535056215922,57.77046891264462L228.13259324089685,57.733533859580085L228.23080258051556,57.68772223058769L228.27124172035855,57.62525415335682L228.3521200000445,57.560820256636305L228.38100509993234,57.48146476445231L228.4849914595286,57.37731703651431L229.21289597670236,57.36582110455947L231.61613628737132,57.42860814635883L231.62191330734888,57.48869248187233L231.65079840723672,57.55735190605225L231.6623524471919,57.587598327432545L231.73167668692273,57.6379466311167L231.8298860265414,57.64429544527058L232.05518980566663,57.69024696078462L233.39545844046276,57.65609818306375L233.43012056032816,57.68663098339823L233.4821137401263,57.76220721370221L233.64387029949825,57.77491840307206L235.53873285214107,57.81980243827851L235.61383411184948,57.9245343505556L235.77559067122144,57.94055486007507L236.45727902857462,57.89245506590445L236.6883598276774,57.80797839420127L236.73457598749798,57.73367158288424L238.80852615944545,57.71533802645445L242.5982512647311,57.666111134818L242.6098053046862,57.61407691626855L242.7080146443049,57.62700899927571L242.72534570423764,57.64628759133246L243.45902724138895,57.62959423607197L243.51102042118708,57.65672109538075L243.54568254105249,57.66102874960893L255.85651211325327,57.59238049270173L255.90272827307385,57.54064149479998L257.040801208655,57.620299747412766L257.1447875682513,57.78391163530563L257.323875187556,57.82947306781721L257.4163075071971,57.8161701045034L261.0153909532229,57.865477476459674L261.02694499317806,57.90713705708516L261.08471519295375,57.944688335471255L261.11360029284157,57.96821940638256L261.12515433279674,57.98270324544593L261.2349177123706,57.91107390763664L262.09569368902845,57.90388617525157L262.20545706860224,57.83329416751987L262.45386892763776,57.832783390092295L262.4654229675929,57.870505514326425L262.47697700754804,57.89981221416267L262.7831590663592,57.856964110264265L262.83515224615735,57.82794766858381L263.02001688543953,57.86186264310599L263.21643556467694,57.82647235616619L264.7935620185534,57.717657145650975" fill="none"></path></g></g></g></g><g opacity="0.2"><g><g><g><path style="fill: none;" stroke="rgb(255, 112, 67)" stroke-width="2px" d="M24.411760751883186,171.9481785317478L24.417537771860758,164.71514395827134L24.504193071524302,107.27006091914546L24.53307817141215,123.02979057397873L24.53885519138972,124.83328521858958L24.57929433123271,133.92759589445328L24.613956451098126,112.83303115528504L24.741050890604654,91.39841084277977L24.83926023022334,148.9255075104284L24.891253410021466,187.43498952934658L25.047232949415843,138.065929206147L25.156996328989663,113.38300941032465L25.445847327868144,101.9565823523828L25.463178387800852,123.00521332485155L25.51517156759898,149.60224455737827L25.78091448656718,77.28343977735207L25.856015746275585,169.4524949971321L25.91378594605128,164.7756860430948L26.000441245714825,114.18516327770358L26.017772305647533,101.75674362781041L26.248853104750314,104.3818698972988L26.306623304526013,113.88877929056918L26.416386684099834,214.71610030992747L26.497264963785806,181.88655092724633L26.566589203516642,116.80971441655717L26.57236622349421,102.08460643168964L26.739899802843727,114.2317488591225L26.820778082529703,127.50948308844836L26.999865701834363,184.83306019546183L27.04030484167735,138.52979123413564L27.092298021475475,129.19292879855496L27.26560862080256,140.6357662506098L27.30027074066798,139.06516117105127L27.4100341202418,123.21440750775005L27.462027300039924,150.6286610302875L27.479358359972636,156.47666600903474L27.485135379950208,141.56483227806828L27.508243459860484,161.03752862709604L27.53135153977076,149.89755496732772L27.635337899367013,177.92984387002295L27.762432338873545,140.59378171426928L27.77398637882868,127.98887364357664L27.8086484986941,102.59766129997497L27.87797273842494,115.31142242881438L27.924188898245493,85.2742281332008L27.94729697815577,105.84381362892212L28.039729297796885,115.13435887738014L28.057060357729593,108.66636307431676L28.340134336630502,175.7259049354209L28.374796456495922,184.52176115386493L28.50766791598002,208.37183427743105L28.55388407580058,147.8397375560076L28.582769175688426,155.49530143585164L28.848512094656623,209.76828980077164L28.860066134611767,195.71713906478578L28.92361335436503,141.40360399011226L28.969829514185587,166.68638503803265L29.010268654028575,152.01457249199007L29.027599713961283,162.73677125863853L29.08536991373698,150.0119292795686L29.148917133490244,104.29790082461778L29.17780223337809,98.65218846115141L29.183579253355663,102.55502494891502L29.21246435324351,95.4961399316565L29.21824137322108,91.19677004221832L29.316450712839764,182.20256604004862L29.651517871538797,168.41810337942027L30.379422388712563,180.1998078015002L30.437192588488262,122.3885966002596L30.46030066839854,130.0685460190192L30.477631728331247,142.76240762789448L30.500739808241526,140.17163582832492L30.512293848196663,147.207592304276L30.650942327658335,197.79071505549948L31.251752405325572,177.62744018224427L31.465502144495645,98.45641399306494L31.557934464136757,233.79960575838498L31.592596584002177,210.5705970363199L31.754353143374125,98.1245252747421L31.962325862566633,156.35650204840354L31.991210962454478,151.7919202522372L32.060535202185314,171.80926531242207L32.09519732205073,182.36659329709403L32.158744541804,156.8228946511853L32.2338458015124,129.5999295777829L32.26850792137782,115.00875034673946L32.280061961332954,133.400776232975L32.31472408119838,153.0281827227644L32.39560236088435,151.53821095820507L32.40137938086192,151.82309233264345L32.724892499605815,130.4444130598832L32.834655879179635,126.6382752028509L32.851986939112344,113.65408764952778L32.90975713888804,123.42965973333513L32.92708819882075,127.32310242073034L32.990635418574016,162.3564948829077L32.99641243855159,154.79433221815546L33.32570257727305,231.75219821155474L33.539452316443125,168.27355387987345L33.562560396353405,131.31132663674083L33.626107616106665,189.12905598517585L33.68387781588236,169.5089728254696L33.71853993574778,171.04840582462188L33.89762755505244,98.67055429942272L34.10560027424494,164.82671930142286L34.19225557390849,204.0029310942454L34.23269471375148,182.8865113909547L34.45222147289912,176.06028588649457L34.45799849287669,175.15733078985605L34.55620783249537,140.188774721242L34.60242399231593,148.686981665155L34.67174823204677,151.94475163292515L34.71796439186732,192.61292897650765L34.76418055168788,191.7050660984522L34.83928181139628,165.60663478425616L34.85661287132899,167.35280807559843L34.954822210947675,181.07692036161495L35.0068153907458,205.11481197948615L35.07613963047663,149.8176118090903L35.75782798782985,169.5442475044041L35.856037327448526,143.9199538855385L35.96580070702235,153.69794151801202L35.983131766955054,166.18502449265495L36.08134110657374,173.81750646302228L36.31242190567653,86.32740735164947L36.404854225317635,110.27657548359194L36.47417846504847,154.6027753747242L36.55505674473444,137.9099537779888L36.56661078468959,138.298780429157L36.57816482464472,138.12558942399707L36.63015800444285,95.34729612336983L36.88434688345591,181.83356222475993L36.907454963366185,175.7635951630216L37.06921152273814,81.78414373101312L37.15586682240168,23.573791869220205L37.219414042154945,90.88577773695995L37.577589280764265,85.04110851589454L37.5891433207194,88.7033486880995L37.59492034069697,88.40661962258419L37.73356882015864,90.53732525635482L38.062858958880106,94.83477804367698L38.080190018812814,90.05203002670925L38.09174405876796,83.99176350167787L38.166845318476355,122.70465005510424L38.21306147829692,115.28243584482037L38.282385718027754,107.0377081426856L38.35748697773616,77.77088216136758L38.70410817639033,79.64849197378318L38.721439236323036,78.40670824916191L38.88897281567255,80.83241755654343L38.98718215529124,164.48930932900592L39.206708914438885,45.353452220564115L39.39735057369868,40.2908456367019L39.54755309311549,50.60381978566786L39.62265435282389,40.829244594960834L39.66309349266688,53.49155070300667L39.70930965248744,56.76231862312334L40.02704575125376,91.06287963043651L40.27545761028925,40.598003737728284L40.3043427101771,-6.79751498317082L40.36788992993037,-2.551938979107758L40.78383536831538,109.31660577002343L40.841605568091076,106.98399094139513L40.864713648001356,102.41684022839337L40.87049066797892,100.03648955707651L40.974477027575176,99.97548736774522L40.991808087507884,74.69949286131546L41.165118686834965,56.755877160013554L41.22866590658823,85.26249546825082L41.47130074564616,115.59208617859755L41.494408825556434,108.2681042807378L41.50596286551158,92.50354352857218L41.748597704569505,186.5679225843197L41.75437472454707,200.60735982637675L42.02589466349284,148.98827343370638L42.07788784329096,149.1896841820139L42.10677294317881,141.64354849095147L42.337853742281595,35.46918044677926L42.736468120733896,72.773150313111L42.88089362017313,34.848039361193536L43.418156478087106,107.4257679530074L43.487480717817945,91.47034051417229L43.55102793757121,83.43940804001443L43.614575157324474,116.78007601784374L43.747446616808574,57.98623495602345L43.76477767674128,63.61484676861506L43.89764913622538,113.6443871128208L43.903426156202954,115.8875499567163L44.036297615687054,64.98461623050085L44.08251377550761,67.40089339547163L44.24427033487956,26.482150805327215L44.26737841478983,44.071946140099186L44.57933749357859,58.62532011741498L44.68332385317484,59.401669790312496L44.79308723274867,39.20012955882185L44.804641272703805,36.28049806227272L44.88551955238978,37.160639643730754L44.93751273218791,56.93700496793374L44.97217485205332,52.225343097427476L45.08193823162715,59.27103845212789L45.31301903072993,68.81874377842685L45.359235190550486,67.63048554488444L45.37078923050563,72.85708104374972L45.42278241030375,45.46886176794762L45.486329630057014,34.9370312414185L45.52099174992244,29.822586216339527L45.5267687699,21.51681798283114L45.7000793692271,4.870275231176104L45.798288708845774,-2.1732729691543953L46.133355867544815,66.95033605616807L46.2488962670962,69.33455927375924L46.5146391860644,34.98120127417127L46.68217276541392,76.17688843599382L46.71105786530176,77.7533598480273L46.728388925234476,63.52573986226312L46.75149700514475,90.98239968360662L46.768828065077464,101.25101208960821L46.80349018494288,109.72586872974826L47.08078714386622,2.693252410282799L47.10967224375407,25.28047285697278L47.22521264330546,14.744693100084692L47.25409774319331,9.51809760121939L47.28875986305872,7.3059534695608574L47.300313903013866,16.95503515575417L47.34075304285685,33.824805277796855L47.410077282587686,14.515331002925803L47.54294874207179,74.19970433967288L48.057103520075486,75.99909638575548L48.12642775980632,31.014333575733076L48.17264391962687,42.03866763586395L48.270853259245555,60.32728503396217L48.32284643904368,57.034930544019296L48.42683279863993,87.33967561094258L48.57125829807917,102.98832836917455L48.72723783747355,62.989219664077886L48.90632545677821,37.42286087115795L48.92943353668849,3.0446955701888845L49.36271003500621,192.38368190547575L49.60534487406412,76.29571042514381L49.657338053862254,94.02514747804561L49.72666229359309,64.55434183158462L49.75554739348094,36.66522211491265L49.82487163321177,38.89826265963565L49.88841885296504,66.6946713179776L50.00395925251643,47.862862206330426L50.125276672045395,20.045787187177947L50.142607731978096,30.36531782538062L50.2177089916865,72.73967771016555L50.3505804511706,144.45739429273942L50.52966807047526,82.45888699176234L50.610546350161236,141.4141480517503L50.65676250998179,117.89483255625849L50.83585012928645,149.76646352463527L50.84740416924159,147.69361603272569L50.89939734903972,128.69252680423526L51.17091728798548,96.16965624705148L51.19402536789576,77.4112721464473L51.205579407850905,80.3516083458493L51.25757258764902,63.457030922425496L51.575308686415354,105.28685712218028L51.7197341858546,94.04734752054895L51.82372054545085,68.03595264241956L51.87571372524897,46.1282298697265L51.973923064867655,36.628183702031436L52.22811194388071,54.77646922523808L52.34365234343211,56.33250432871495L52.4591927429835,80.91167055801908L52.6498344022433,45.6143314765101L52.667165462176,63.242545537686816L52.68449652210871,76.8628275731005L52.7249356619517,59.52574463926035L52.852030101458226,64.37781506874285L53.077333880583446,77.96182553212171L53.1062189804713,92.34258363491239L53.13510408035914,71.10373779049357L53.28530659977595,51.628894287095896L53.319968719641366,33.03913848861556L53.37773891941706,70.87483579784255L53.475948259035746,80.66869703583657L53.50483335892359,75.4423315892252L53.87456263748805,67.80478846927163L54.088312376658116,7.642021470496601L54.34827827564875,24.257890588295542L54.3771633755366,20.928459343429108L54.40027145544688,14.891159701747489L54.683345434347785,60.861466367565896L54.80466285387675,36.27674054212533L54.816216893831886,60.27471809394132L54.83932497374217,70.28505850287468L55.13973001257578,50.677474848964785L55.284155512015026,121.00272348059936L56.06405320898692,71.39345026226431L56.22580976835887,40.745352206364444L56.237363808314,43.07674008963852L56.31246506802241,5.850336174920351L56.43955950752894,13.177155383911781L56.70530242649714,42.1543072355014L56.73996454636256,42.826519921457496L56.826619846026105,135.03855657067837L57.0923627649943,72.65632211016164L57.202126144568126,130.18069649280554L57.265673364321394,111.36686979900648L57.508308203379315,-4.779803348117546L57.727834962526956,86.69395727622967L57.97624682156245,84.24386242993258L58.010908941427864,58.99815813693569L58.4037462999026,26.395957894191625L58.58283391920726,100.10749901945334L58.588610939184825,117.829612742272L58.64638113896052,134.55441160230237L58.675266238848366,87.75123909320662L58.83124577824275,-7.929717150841218L59.7324608947436,84.6722197267328L59.778677054564156,99.42228838115074L59.78445407454173,105.85500950527961L59.89999447409312,55.60109152941659L60.00398083368937,16.59872255647343L60.136852293173476,30.384757240836922L60.22350759283702,37.190278042444184L60.31016289250056,69.79094460349546L60.38526415220897,37.54800929729078L60.529689651648205,9.60823974271397L60.54124369160334,19.362378624864355L60.656784091154734,42.440952343886515L60.67989217106501,30.748891616750985L60.88208787027995,77.45758933356998L60.93985807005565,67.33927773346323L60.98029720989863,56.259539422179785L61.02651336971919,45.34973304245905L61.1189456893603,15.105760112613117L61.15938482920328,30.76541703699094L61.24026310888926,30.725426286851075L61.36735754839579,28.796054717303324L61.407796688238776,60.428968130195095L61.44823582808176,54.696411040873684L61.49445198790232,101.04154951241345L61.56377622763316,83.60316690276359L61.56955324761073,82.59795357925736L61.760194906870524,22.67620465850651L61.7833029867808,34.27152841286842L61.8410731865565,57.27253618027699L61.92195146624247,12.684843560521605L62.03749186579387,21.456966054769456L62.12414716545741,37.273365248151855L62.15303226534525,31.037607195421366L62.17036332527796,21.044635731659028L62.205025445143384,23.814119790482625L62.470768364111585,62.2262897059924L62.92137592236201,90.07522696231291L62.979146122137706,77.02677814606128L63.16401076141993,73.60988870266269L63.18134182135264,90.1595027713325L63.192895861307775,90.22510600574218L63.59151023976008,-10.830522704611173L63.60884129969279,0.8899111338412301L63.68971957937877,38.339504076904745L63.80525997893015,90.58452431045086L63.82259103886287,93.09435605868269L64.43495515648524,24.018789612387362L64.51005641619365,66.72530660979136L64.70069807545343,96.22076618946417L64.84512357489268,89.50722794738284L65.03576523415248,9.791399678877108L65.39394047276178,97.36554454701557L65.61924425188701,40.27788602639772L65.8676561109225,-3.8663808739256247L65.90231823078791,29.71557357622412L66.16806114975611,80.12285972136755L66.41069598881404,47.951202271835946L66.48579724852245,2.0894419278257597L66.82664142719905,49.553132799969994L67.09816136614481,47.62027210457111L67.23103282562892,68.01701167351342L67.2714719654719,89.75921184951058L67.3870123650233,139.36281044558226L67.50255276457469,66.23027250139646L67.860728003184,78.1546093209072L68.0109305226008,103.55379680931146L68.03981562248866,69.73879942594012L68.43843000094095,83.86021195447758L69.32809107748668,-19.23329630518943L69.44940849701564,-18.554757182250516L69.81336075560252,45.081645482556866L69.90579307524364,64.21397952190904L69.92890115515391,48.7352586952398L70.08488069454829,39.12804651926004L70.11376579443613,38.23268314700092L70.32751553360622,16.578554642213042L70.41417083326975,15.031951681146912L70.71457587210337,48.03356097873953L70.85900137154262,12.863019031183137L70.93987965122858,28.47022404166706L71.14207535044352,17.48120300251299L71.44248038927714,41.234635008411324L71.54068972889583,94.96038657431764L72.56322226492564,92.63996451514714L72.93295154349009,14.675485713696897L72.97339068333308,36.365272317842475L73.12937022272745,71.64965178904725L73.18136340252558,69.03744678782073L73.20447148243586,92.49322951918809L73.38933612171809,29.873696158752235L73.39511314169566,35.10029165761752L73.56842374102274,74.58385326167803L73.63774798075359,38.93959538125672L73.66663308064143,57.98447122207672L73.90926791969936,4.351315688373467L73.9959232193629,39.36511536692526L74.30788229815165,-26.25000507589587L74.34832143799463,28.456574274601106L74.35987547794979,60.51282217674918L74.79892899624507,17.25705542310965L74.80470601622264,25.213527651081865L74.81626005617777,24.731031390525647L75.04734085528057,17.75707399700616L75.64237391297023,118.5820753228041L76.08720445124308,42.98414405743546L76.17963677088419,27.849504718546847L76.22007591072719,18.666700609008352L76.50314988962809,80.69929398560802L76.60135922924678,58.85050293196096L77.1097369872729,10.305873202728307L77.19061526695887,-20.644321804611685L77.3581488463084,-9.785088578711164L77.42747308603921,64.11896794103981L77.44480414597193,51.48664531008831L77.47368924585979,86.89233900319391L77.54301348559062,127.13978911639789L77.86652660433451,51.576902477709844L77.89541170422235,68.86885682773922L77.93007382408777,83.46306508012592L77.97628998390833,79.51954768546068L78.28247204271952,85.01028151386916L78.46155966202419,33.12977907666029L78.80240384070079,59.569569593632245L78.92949828020733,37.39594475744924L79.00459953991572,9.163778788139284L79.71517299715678,-13.003136190637687L79.79027425686519,2.720398576245429L79.8827065765063,-10.992211097075076L80.25821287504832,110.94134981333795L80.26976691500346,106.4585515934404L80.46618559424083,-24.82632670250798L80.61061109368006,6.5959355298771305L81.03811057202022,-49.27045225876072L81.31540753094356,40.7010288054424L81.85844740883509,74.66076739857216L81.9913188683192,73.98824797627749L82.02020396820704,78.98111038515943L82.3321630469958,19.62433145799533L82.5228047062556,-30.258627258420642L82.57479788605372,-9.841451380921708L82.74233146540324,8.499311194731844L83.00807438437144,63.28740572720135L83.06006756416956,65.3666563401784L83.15249988381068,13.155607156127877L83.2276011435191,46.82774208981451L83.30847942320506,4.769243949662622L83.37202664295833,22.18580993723236L83.55689128224054,30.792793255207492L83.95550566069285,2.377237297480472L84.04793798033396,28.163526045148522L84.09415414015453,56.085543234131144L84.26746473948161,101.22689494498886L84.4176672588984,69.94254903882916L84.49276851860682,25.14619902476777L84.57942381827036,43.85803588599532L84.63141699806849,25.85027394789188L84.70074123779933,-6.263333649567078L84.9318220369021,41.271481711080945L85.03580839649837,57.99543704618027L85.24955813566845,-60.8056556907647L85.37665257517497,55.91009004847434L85.43442277495066,67.08319123280724L85.46908489481608,58.391011896796805L85.50374701468151,64.57048383140138L85.76371291367212,-10.217433447912688L85.81570609347025,25.634369907587363L85.8272601334254,14.313076729687241L85.97168563286465,16.40570871543401L86.19121239201228,-0.13639031294105L86.24898259178796,20.957867689888637L86.5320565706889,11.248243918871875L86.79202246967951,4.929130266137469L86.80357650963467,25.23243027794569L86.99999518887202,-40.325483837733856L87.28306916777294,-4.322689519577206L88.76198628203073,12.957570507544526L88.77354032198589,11.75140654023863L89.16060066048306,52.438984957235114L89.41478953949611,59.84624577101413L89.57076907889048,-49.87150211417071L89.73252563826243,-12.162563596853996L90.10803193680447,58.69602284345326L90.22357233635584,32.895049093576596L90.24090339628854,32.72001767038531L90.37377485577265,58.701850833885906L90.51820035521189,54.95606335146545L91.02080109326046,88.8852816789084L91.18833467260997,93.5840606231951L91.19411169258754,101.65674758143957L91.24610487238567,86.98991950089858L91.9220162097613,47.94545096548793L91.95667832962671,44.9341053037091L92.00289448944727,15.795341743740229L92.08377276913325,23.42908900150412L92.11843488899866,39.342033457448565L92.12421190897624,30.4970227407502L92.34373866812388,65.61074178158819L92.7019139067332,2.3072247282039577L93.24495378462474,72.52143480527951L93.47025756374995,60.09585246651802L93.52225074354808,83.10015764956611L93.5915749832789,59.33181058920526L93.9150881020228,107.54857751455869L93.94975022188822,78.84787178809705L94.38880374018352,-2.6056945224405257L94.89718149820963,49.493779318458465L95.1109312373797,83.50972734562949L95.45177541605631,106.81846834469924L95.59042389551799,123.9145332005152L95.72329535500208,44.384510469092696L95.77528853480021,-0.9344415817917497L96.11613271347682,0.6141935075173564L96.1565718533198,-4.5985221720280505L96.22011907307306,-9.453353228557623L96.3645445725123,64.89282538118653L96.75738193098704,5.376390189801508L96.95957763020198,82.28512085596762L96.9942397500674,66.44429778162731L97.06356398979823,47.16737590068602L97.28309074894587,69.15366151809297L97.30042180887858,86.19213662634412L97.39863114849727,91.23929136715134L97.51417154804867,60.899309963335845L97.62971194760004,9.107607696140342L98.11498162571588,74.29624960223492L98.21896798531215,54.9948654982934L98.56558918396632,212.06440300511122L98.66957554356257,148.0847815484754L98.79089296309154,27.180704474357245L98.84288614288967,0.3126333446697203L98.96420356241862,9.511617796067299L99.22994648138683,36.24495498904197L99.26460860125223,33.052673229554564L99.70366211954753,18.202570186723467L99.77298635927836,42.133909268987104L99.83653357903162,31.28656207620583L99.85386463896434,42.66049887821145L99.8596416589419,43.2635808618644L99.90585781876246,45.44416949269347L99.96940503851572,64.84685327244472L100.21203987757364,30.839378836626416L100.22359391752879,30.532105709473104L100.60487723604838,25.843027301893372L101.00926863447826,17.669040667839187L101.01504565445582,45.32971849636796L101.28078857342403,61.58110815987198L101.29234261337916,75.250659719667L101.32700473324458,42.656779700106384L101.48298427263896,-6.046854478627746L102.13001051012675,37.290810877407516L102.18200368992487,82.74633728303617L102.37842236916224,58.57359670232515L102.82325290743509,84.9758120178234L102.85213800732295,95.33955103082117L102.88680012718835,74.27880397297926L102.92146224705378,78.87302416785903L102.96190138689677,54.17595615842056L103.33740768543879,101.3232868393816L103.34896172539393,93.61090005281919L103.47605616490047,75.52246645767423L103.48183318487803,67.0795103967445L103.86311650339763,20.32100636695167L103.92088670317332,49.003691333522866L103.94977180306117,46.0876256469095L104.30794704167049,66.13181013671843L104.41771042124431,70.37972500536301L104.49858870093028,34.71019971905276L104.63723718039195,-9.78842433639301L105.03007453886669,16.889700315640713L105.40558083740869,82.7713746366712L105.44024295727411,72.27608407647314L105.49223613707224,89.84977575347067L105.51534421698253,83.18435677450107L105.85041137568156,40.361893441121076L106.58986993281047,122.56021558168442L106.89605199162165,83.78502320948786L107.05203153101604,147.22461617106615L107.38132166973749,52.58403290333207L107.46219994942346,23.148808672144142L107.57196332899728,49.9496278596022L107.75682796827952,15.449266469758948L107.82037518803278,67.81280195611653L107.92436154762903,51.62348805912877L108.20165850655238,36.53597109025158L108.32875294605891,-15.075715288251038L108.35763804594676,-36.72255880499809L108.47895546547572,44.32964300653262L108.60027288500467,36.301854579845006L108.90645494381587,25.323224234159692L109.17797488276163,32.5248950170183L109.81922410027185,7.489420142062566L110.0214197994868,0.3030094920473611L110.05608191935221,14.977544323094682L110.0965210591952,24.353017195291727L110.13696019903819,38.456102227600184L110.63378391710917,-3.5660476564322283L110.88797279612223,-14.611163103500612L111.22303995482127,68.40449635320041L112.8521595884959,38.45890119668956L113.95557040421168,135.38022250979282L113.96134742418926,142.50448070920714L114.0075635840098,157.74387050771426L114.0653337837855,97.69808508005788L114.07688782374065,105.40119309237883L114.18665120331447,9.266113699091653L114.22131332317988,34.5788782241064L114.26752948300044,18.19770074734881L114.59104260174432,60.547368356879595L114.74702214113871,47.555128974669245L114.8047923409144,34.56580358767524L114.81634638086955,26.207353388019033L115.34205519882839,58.915492693693544L115.73489255730311,83.7586055423293L115.83887891689938,85.34703967156668L116.1566150156657,52.125845497606804L116.22016223541895,63.86801927405471L116.47435111443201,3.2143591074553655L116.6476617137591,32.26140850219453L116.67654681364695,31.773544355713504L116.79208721319834,73.14403288847339L116.95962079254787,42.615677030739235L117.10982331196466,0.8003057809391435L117.43333643070856,18.323616014328042L117.49688365046183,26.210344067319987L117.54887683025996,33.59551986472263L117.5604308702151,44.72678988088428L117.58353895012537,44.22328218113665L117.60087001005809,35.46281566775412L117.79728868929546,111.22243532558664L117.8088427292506,99.94443031346594L119.13755732409159,-20.087748718292996L119.24732070366541,33.77806632820865L119.51306362263361,111.9590243005982L119.70948230187098,23.913387338049393L120.0098873407046,17.994794659390823L120.03877244059245,13.58304424391242L120.22363707987468,15.327722195604224L120.30451535956065,27.330391807574937L120.36228555933636,58.59418637905106L120.49515701882044,71.41078086539298L120.51248807875315,47.65800067421409L120.57603529850641,71.92648133459842L120.59336635843913,61.254242249093075L120.91110245720544,29.35140085826773L120.93421053711573,6.699650754353014L120.997757756869,43.67065832517695L121.10174411646524,54.881948183660676L121.17106835619609,26.765996944622962L121.6794461142222,14.512915454259648L121.74877035395305,-40.14941717939991L121.85853373352687,18.565554301367918L121.88741883341471,15.485921462216986L121.93363499323527,2.958924421518812L122.23981705204645,24.76389052079397L122.37846553150813,-18.139666232093038L122.65576249043146,96.29626167079246L122.67309355036417,111.98118600105923L122.75974885002772,102.43838845617725L122.88106626955667,42.71045855935454L123.18724832836786,-20.541258394855223L124.43508464352288,49.67084286989271L124.94346240154903,58.286836567813076L125.46917121950786,35.86184130217947L125.65981287876765,61.123534226823836L128.69274836699168,20.455548593452924L128.71585644690194,1.5557206987298815L128.8602819463412,-46.276015437645064L129.1086938053767,151.86047582390555L129.13180188528696,153.27717594559115L129.17224102512995,164.83323744861727L129.55352434364954,88.50469856683902L130.21210462109246,13.894803390017213L130.53561773983637,67.54245221571746L130.67426621929803,91.90375896055876L130.68004323927562,91.50174264683245L131.88744041458767,33.94822831202528L131.94521061436336,52.02711473863253L132.11852121369043,-22.577220842052878L132.5055815521876,-5.0782578055372385L132.55757473198574,44.054577194928186L133.18726990954082,76.08624784794907L133.21615500942866,59.9438262687188L133.2450401093165,52.70699583305265L133.3952426287333,95.09661585068098L133.53389110819498,39.61782776785709L133.56277620808282,7.307602177380618L133.64943150774639,16.46862800688131L133.74764084736506,46.54508455383069L133.75341786734262,50.01898861415929L134.43510622469586,36.43923411747795L134.45821430460612,40.08954991452135L134.49287642447155,38.40422544434108L134.63730192391077,-6.182278572102366L134.6950721236865,44.55329213938581L136.3184147373835,4.2870160834026505L136.4570632168452,-14.518797123551476L136.46861725680034,2.046345472257953L137.5546970125834,87.16982036346452L137.58935913244883,82.95461125691898L137.6702374121348,68.84581326030485L137.73378463188808,72.65789413389678L137.8608790713946,56.944673376397766L137.86665609137216,45.28535675340359L137.94753437105814,28.21360075241859L138.36347980944316,13.229377245551758L138.45591212908428,9.398393745096026L138.46168914906184,11.720617880255585L138.5830065685908,51.00614283573273L139.21270174614588,-77.82522817215202L139.4726676451365,25.66834095708298L139.60553910462062,56.60592143249962L139.63442420450846,73.37182296189714L139.721079504172,54.28749315952975L139.87128202358883,90.42739862102309L140.01570752302806,96.70659820770226L140.18901812235515,67.90213891472237L140.24678832213084,82.85281313455911L140.28145044199624,85.60289611996873L140.5991865407626,56.338140608936L140.8244903198878,15.46701883535316L141.21155065838497,5.618328476841383L141.3386450978915,91.21789650753671L141.4484084774653,95.54947371252375L141.50617867724102,89.39680286550093L141.54084079710643,84.97186278746443L141.61016503683726,63.205162046424725L141.61594205681484,72.11796149394503L141.6448271567027,57.55580718893794L141.65060417668025,60.708098198285484L141.6968203365008,67.25542368690914L142.64425161282222,4.543255952227923L144.660431584994,50.00476371645852L144.70664774481457,25.143936844270872L145.96026107994714,8.205074361967363L146.45130777804056,25.97323687761246L146.4628618179957,15.488145300671542L146.50907797781625,40.04223583429833L147.13877315537135,33.71944134550121L147.38140799442925,41.00588638392958L147.39296203438442,10.852477358043743L147.42762415424983,21.517738191846828L147.8493466126124,36.92364748015018L147.94755595223108,-18.46496011913683L147.97644105211896,-4.177948309818837L148.2075218512217,22.216598597215405L148.31728523079553,20.01446173860241L148.33461629072823,-1.2913293117073064L148.52525794998803,31.832936179267342L148.53681198994317,45.21104987538723L149.81931042496362,-8.40929941618111L150.0330601641337,0.6800651362232866L150.10238440386453,-17.051557413090745L150.32768818298976,65.63999675987844L150.40856646267574,46.534578834234985L150.59343110195795,26.360798241384092L150.72630256144205,59.98489059604363L153.42417089096705,41.875407219664936L155.24970920387904,61.80935833780356L155.28437132374447,59.60595619179402L156.4339982992808,20.155062007790253L156.5726467787425,60.1366483995466L156.64774803845089,88.20313840399139L156.71129525820413,45.33470296186957L157.1387947365443,-15.502155482935263L157.156125796477,16.392634079002853L157.1792338763873,36.29387943504243L158.15555025259653,68.2698391005722L158.35774595181147,16.37499673953561L160.19483830467863,-10.826956894675424L161.28669508043927,-34.03646868822073L161.9279442979495,51.8323755056887L161.9452753578822,79.35137948784468L161.96260641781487,84.44094052745791L162.34966675631205,77.24118684671532L162.45943013588587,96.8018398408254L162.84649047438305,84.16334414106035L162.89848365418115,90.78769879270511L163.78814473072686,27.59433842690654L163.82858387056984,34.132078404950185L163.85169195048016,66.41653814298753L164.36006970850627,27.966026185157663L164.48138712803524,45.56046090705036L165.50391966406505,50.87121718880828L165.57324390379588,46.4531786783894L165.61946006361643,32.04669306520193L165.7581085430781,12.631241385358113L166.26070928112665,102.61434008838422L168.7448278714816,67.75057282143099L170.60502830425898,34.32444043127016L170.6396904241244,73.52384915969637L170.6801295639674,72.82238149545003L170.68590658394496,75.55628413900055L170.70901466385524,97.06570977607235L170.76100784365335,69.16359210705389L170.76678486363093,79.01373946317382L171.061412882487,73.90101982999926L171.09607500235242,83.14808520246625L171.10185202232995,94.73401515645975L171.11918308226268,93.23817705942541L171.25783156172437,72.15465482844537L171.32137878147762,92.4543506882755L171.74310123984017,72.22252024335195L171.88174971930187,62.19040155438079L171.9510739590327,72.21680727904626L171.99729011885324,85.32284584286268L172.1417156182925,36.90474485328635L174.52762486902873,118.11917184587345L174.77025970808666,19.712709865543175L176.89620305983226,60.213025747848256L176.90198007980985,61.32912425774424L176.99441239945094,25.726275783028655L177.00596643940608,-8.39331078453363L177.05218259922663,-16.51959991794158L177.9880598355929,12.987170564215656L180.93434002415339,31.938491821774583L181.4658258620898,26.902264563028627L181.51781904188792,19.06603297977227L181.85866322056452,48.681388125780046L183.8748431927363,32.510861829529134L183.92105935255688,52.76186329561273L183.932613392512,41.16634783103922L184.02504571215312,23.002878859073817L191.2405436641375,-23.24475579884592L191.4138542634646,42.57189041840968L191.45429340330762,73.27968703420193L191.47740148321788,51.967837941205644L191.54094870297115,24.395730230436317L192.15908984057108,44.88763474841713L192.18797494045893,55.84858941259287L192.51148805920283,65.04094069066909L192.54615017906826,50.33968145612465L192.6501365386645,67.03652896730365L192.8985483977,43.76390617209945L192.97364965740837,37.31439123343438L193.5629056951205,54.56689162191636L194.42368167177835,-4.251181610650225L194.75297181049984,2.956278820598714L194.80496499029795,19.549602817513453L194.88584326998395,38.33425121710689L195.39422102801007,59.9827434416737L195.95459196583428,-8.252097042668685L195.96036898581187,7.2005511952228884L196.07590938536327,39.059107527168486L196.3936454841296,68.50276700766685L196.46296972386043,57.81894862538083L196.67094244305292,72.82955145736389L196.9597934419314,29.74425342387956L197.06955682150524,-35.845676297137246L197.35263080040613,28.90460103911154L197.82056941858926,21.226530380425622L198.669791355292,85.83908310066059L200.1718165494601,49.332052583952255L200.50110668818158,40.3045337458102L200.5877619878451,86.22898332901374L201.26367332522074,26.59874895602268L201.28100438515344,26.743260113527146L201.5178622042338,-44.929251201151324L201.54674730412165,-9.71833508303185L201.5756324040095,21.64112288403293L201.64495664374033,65.92863565446419L201.68539578358335,86.30934824971669L205.22670902983347,84.74119706086665L205.3769115492503,48.315758410215516L205.38268856922784,53.401600271723694L205.41735068909327,23.96783303814393L205.69464764801663,71.36147299896933L205.87951228729884,106.56970517412638L205.89106632725395,87.94172235945291L206.10481606642406,-8.268008990231518L207.34109834162393,24.916951953735854L207.35265238157908,-22.608853026966965L209.54214295307796,136.2493982671473L209.5768050729434,133.3929544563417L209.66346037260692,38.367263715544496L209.70967653242747,0.5980131656582572L209.73856163231534,-25.851937992528494L209.79633183209103,-42.96257282442611L210.1429530307452,81.03819929767543L210.49535124937694,99.76913049597842L210.51268230930964,92.52052905332L210.53001336924237,91.61496669780372L212.37288274208703,43.5332404455017L212.37865976206461,39.250549344472795L212.5924095012347,19.801356667387267L212.89859156004587,10.432593652596257L212.96213877979915,3.9423211229449038L213.1758885189692,74.6221186199135L213.74203647677103,90.94743174101069L214.7934541126887,38.07735953356217L217.99392318026224,37.65298980916323L218.1499027196566,60.84214197823657L218.49074689833324,65.71039274957815L218.57162517801922,69.36523290761531L218.59473325792948,70.84933833969967L219.00490167633694,6.002860819269719L219.0280097562472,-7.974615682398079L219.25331353537243,-34.96610984631403L219.85990063301722,46.098361418759126L220.05054229227702,-1.6561155023407943L223.79982825771967,67.12835815866032L224.62016509453454,24.720333960718342L224.64905019442241,22.734791299171626L225.52715723101298,-17.598890067210252L225.56759637085597,-7.797092026455991L225.58492743078867,4.9311623943804275L225.6022584907214,12.8970667647634L225.60803551069895,8.072525921666744L226.51502764717736,-15.274825514019353L226.99452030531563,63.7758833463595L227.4797899834315,-4.438444145341625L227.5953303829829,80.75937596592362L227.71664780251186,46.67395215806857L227.7455329023997,19.15310775788123L227.8784043618838,32.538238047745686L227.9535056215922,87.31134084166804L228.13259324089685,35.22766392220491L228.23080258051556,29.755180905940787L228.27124172035855,19.51252606258989L228.3521200000445,18.223658309999525L228.38100509993234,9.003777445537485L228.4849914595286,-6.2861855067898675L229.21289597670236,50.33412185998823L231.61613628737132,95.85778207481972L231.62191330734888,94.28690860096498L231.65079840723672,99.63385977067307L231.6623524471919,76.13517229394952L231.73167668692273,88.53172970667468L231.8298860265414,61.54238269712866L232.05518980566663,85.92155683369114L233.39545844046276,36.66292159237345L233.43012056032816,76.46859469396517L233.4821137401263,104.28122203620852L233.64387029949825,65.60384021397057L235.53873285214107,85.48142852989864L235.61383411184948,122.50994916420275L235.77559067122144,67.82610664480161L236.45727902857462,28.193816258581418L236.6883598276774,5.616641426979299L236.73457598749798,11.797148596726515L238.80852615944545,46.374539149590866L242.5982512647311,27.19653973783545L242.6098053046862,25.387102076664988L242.7080146443049,65.64130038931731L242.72534570423764,69.60095978379934L243.45902724138895,47.27170459783902L243.51102042118708,74.49865724364275L243.54568254105249,60.33710059679613L255.85651211325327,14.919647839191331L255.90272827307385,25.359419122109863L257.040801208655,107.1970960126103L257.1447875682513,159.6724368943733L257.323875187556,86.21978123885692L257.4163075071971,49.52180735139446L261.0153909532229,88.62700968184016L261.02694499317806,83.9130472887947L261.08471519295375,81.4000714930926L261.11360029284157,72.67507136885617L261.12515433279674,67.04047819766262L261.2349177123706,13.089390449041053L262.09569368902845,53.403517373839705L262.20545706860224,13.608043255505141L262.45386892763776,57.51259570724318L262.4654229675929,81.53116293578503L262.47697700754804,76.29291145605444L262.7831590663592,30.949267129915846L262.83515224615735,39.595474357184465L263.02001688543953,79.18489834009077L263.21643556467694,35.56277337208264L264.7935620185534,-10.77722726578625" fill="none"></path></g></g></g></g></g></g><g transform="translate(41, 176)" clip-path="url(#clip_1)"><clipPath id="clip_1"><rect width="288" height="23"></rect></clipPath><g><g><line x1="0" y1="0" x2="0" y2="5" style="visibility: inherit;" fill="rgb(0, 0, 0)" stroke="rgb(204, 204, 204)" stroke-width="1px"></line><line x1="24.07091657320658" y1="0" x2="24.07091657320658" y2="5" style="visibility: inherit;" fill="rgb(0, 0, 0)" stroke="rgb(204, 204, 204)" stroke-width="1px"></line><line x1="48.14183314641316" y1="0" x2="48.14183314641316" y2="5" style="visibility: inherit;" fill="rgb(0, 0, 0)" stroke="rgb(204, 204, 204)" stroke-width="1px"></line><line x1="72.21274971961975" y1="0" x2="72.21274971961975" y2="5" style="visibility: inherit;" fill="rgb(0, 0, 0)" stroke="rgb(204, 204, 204)" stroke-width="1px"></line><line x1="96.28366629282633" y1="0" x2="96.28366629282633" y2="5" style="visibility: inherit;" fill="rgb(0, 0, 0)" stroke="rgb(204, 204, 204)" stroke-width="1px"></line><line x1="120.35458286603293" y1="0" x2="120.35458286603293" y2="5" style="visibility: inherit;" fill="rgb(0, 0, 0)" stroke="rgb(204, 204, 204)" stroke-width="1px"></line><line x1="144.4254994392395" y1="0" x2="144.4254994392395" y2="5" style="visibility: inherit;" fill="rgb(0, 0, 0)" stroke="rgb(204, 204, 204)" stroke-width="1px"></line><line x1="168.4964160124461" y1="0" x2="168.4964160124461" y2="5" style="visibility: inherit;" fill="rgb(0, 0, 0)" stroke="rgb(204, 204, 204)" stroke-width="1px"></line><line x1="192.56733258565265" y1="0" x2="192.56733258565265" y2="5" style="visibility: inherit;" fill="rgb(0, 0, 0)" stroke="rgb(204, 204, 204)" stroke-width="1px"></line><line x1="216.63824915885925" y1="0" x2="216.63824915885925" y2="5" style="visibility: inherit;" fill="rgb(0, 0, 0)" stroke="rgb(204, 204, 204)" stroke-width="1px"></line><line x1="240.70916573206586" y1="0" x2="240.70916573206586" y2="5" style="visibility: inherit;" fill="rgb(0, 0, 0)" stroke="rgb(204, 204, 204)" stroke-width="1px"></line><line x1="264.7800823052724" y1="0" x2="264.7800823052724" y2="5" style="visibility: inherit;" fill="rgb(0, 0, 0)" stroke="rgb(204, 204, 204)" stroke-width="1px"></line><line x1="288.850998878479" y1="0" x2="288.850998878479" y2="5" style="visibility: inherit;" fill="rgb(0, 0, 0)" stroke="rgb(204, 204, 204)" stroke-width="1px"></line></g><g transform="translate(0, 8)"><text style="text-anchor: middle; visibility: hidden; font-family: Roboto, sans-serif; font-size: 12px; font-weight: 200;" x="0" y="0" dx="0em" dy="0.95em" fill="rgb(33, 33, 33)" stroke="none" stroke-width="1px">-100k</text><text style="text-anchor: middle; visibility: inherit; font-family: Roboto, sans-serif; font-size: 12px; font-weight: 200;" x="24.07091657320658" y="0" dx="0em" dy="0.95em" fill="rgb(33, 33, 33)" stroke="none" stroke-width="1px">0</text><text style="text-anchor: middle; visibility: hidden; font-family: Roboto, sans-serif; font-size: 12px; font-weight: 200;" x="48.14183314641316" y="0" dx="0em" dy="0.95em" fill="rgb(33, 33, 33)" stroke="none" stroke-width="1px">100k</text><text style="text-anchor: middle; visibility: inherit; font-family: Roboto, sans-serif; font-size: 12px; font-weight: 200;" x="72.21274971961975" y="0" dx="0em" dy="0.95em" fill="rgb(33, 33, 33)" stroke="none" stroke-width="1px">200k</text><text style="text-anchor: middle; visibility: hidden; font-family: Roboto, sans-serif; font-size: 12px; font-weight: 200;" x="96.28366629282633" y="0" dx="0em" dy="0.95em" fill="rgb(33, 33, 33)" stroke="none" stroke-width="1px">300k</text><text style="text-anchor: middle; visibility: inherit; font-family: Roboto, sans-serif; font-size: 12px; font-weight: 200;" x="120.35458286603293" y="0" dx="0em" dy="0.95em" fill="rgb(33, 33, 33)" stroke="none" stroke-width="1px">400k</text><text style="text-anchor: middle; visibility: hidden; font-family: Roboto, sans-serif; font-size: 12px; font-weight: 200;" x="144.4254994392395" y="0" dx="0em" dy="0.95em" fill="rgb(33, 33, 33)" stroke="none" stroke-width="1px">500k</text><text style="text-anchor: middle; visibility: inherit; font-family: Roboto, sans-serif; font-size: 12px; font-weight: 200;" x="168.4964160124461" y="0" dx="0em" dy="0.95em" fill="rgb(33, 33, 33)" stroke="none" stroke-width="1px">600k</text><text style="text-anchor: middle; visibility: hidden; font-family: Roboto, sans-serif; font-size: 12px; font-weight: 200;" x="192.56733258565265" y="0" dx="0em" dy="0.95em" fill="rgb(33, 33, 33)" stroke="none" stroke-width="1px">700k</text><text style="text-anchor: middle; visibility: inherit; font-family: Roboto, sans-serif; font-size: 12px; font-weight: 200;" x="216.63824915885925" y="0" dx="0em" dy="0.95em" fill="rgb(33, 33, 33)" stroke="none" stroke-width="1px">800k</text><text style="text-anchor: middle; visibility: hidden; font-family: Roboto, sans-serif; font-size: 12px; font-weight: 200;" x="240.70916573206586" y="0" dx="0em" dy="0.95em" fill="rgb(33, 33, 33)" stroke="none" stroke-width="1px">900k</text><text style="text-anchor: middle; visibility: inherit; font-family: Roboto, sans-serif; font-size: 12px; font-weight: 200;" x="264.7800823052724" y="0" dx="0em" dy="0.95em" fill="rgb(33, 33, 33)" stroke="none" stroke-width="1px">1M</text><text style="text-anchor: middle; visibility: hidden; font-family: Roboto, sans-serif; font-size: 12px; font-weight: 200;" x="288.850998878479" y="0" dx="0em" dy="0.95em" fill="rgb(33, 33, 33)" stroke="none" stroke-width="1px">1.1M</text></g><line x1="0" y1="0" x2="288.850998878479" y2="0" fill="rgb(0, 0, 0)" stroke="rgb(204, 204, 204)" stroke-width="1px"></line></g></g></g></g></svg>