<svg viewBox="0 0 330 200" xmlns="http://www.w3.org/2000/svg"><g><g><g><g><g><line x1="41.149001121520996" y1="176.89999961853027" x2="36.149001121520996" y2="176.89999961853027" style="visibility: inherit;" fill="rgb(0, 0, 0)" stroke="rgb(204, 204, 204)" stroke-width="1px"></line><line x1="41.149001121520996" y1="160.8181814713912" x2="36.149001121520996" y2="160.8181814713912" style="visibility: inherit;" fill="rgb(0, 0, 0)" stroke="rgb(204, 204, 204)" stroke-width="1px"></line><line x1="41.149001121520996" y1="144.73636332425207" x2="36.149001121520996" y2="144.73636332425207" style="visibility: inherit;" fill="rgb(0, 0, 0)" stroke="rgb(204, 204, 204)" stroke-width="1px"></line><line x1="41.149001121520996" y1="128.65454517711294" x2="36.149001121520996" y2="128.65454517711294" style="visibility: inherit;" fill="rgb(0, 0, 0)" stroke="rgb(204, 204, 204)" stroke-width="1px"></line><line x1="41.149001121520996" y1="112.5727270299738" x2="36.149001121520996" y2="112.5727270299738" style="visibility: inherit;" fill="rgb(0, 0, 0)" stroke="rgb(204, 204, 204)" stroke-width="1px"></line><line x1="41.149001121520996" y1="96.49090888283467" x2="36.149001121520996" y2="96.49090888283467" style="visibility: inherit;" fill="rgb(0, 0, 0)" stroke="rgb(204, 204, 204)" stroke-width="1px"></line><line x1="41.149001121520996" y1="80.4090907356956" x2="36.149001121520996" y2="80.4090907356956" style="visibility: inherit;" fill="rgb(0, 0, 0)" stroke="rgb(204, 204, 204)" stroke-width="1px"></line><line x1="41.149001121520996" y1="64.32727258855647" x2="36.149001121520996" y2="64.32727258855647" style="visibility: inherit;" fill="rgb(0, 0, 0)" stroke="rgb(204, 204, 204)" stroke-width="1px"></line><line x1="41.149001121520996" y1="48.245454441417344" x2="36.149001121520996" y2="48.245454441417344" style="visibility: inherit;" fill="rgb(0, 0, 0)" stroke="rgb(204, 204, 204)" stroke-width="1px"></line><line x1="41.149001121520996" y1="32.163636294278206" x2="36.149001121520996" y2="32.163636294278206" style="visibility: inherit;" fill="rgb(0, 0, 0)" stroke="rgb(204, 204, 204)" stroke-width="1px"></line><line x1="41.149001121520996" y1="16.081818147139064" x2="36.149001121520996" y2="16.081818147139064" style="visibility: inherit;" fill="rgb(0, 0, 0)" stroke="rgb(204, 204, 204)" stroke-width="1px"></line><line x1="41.149001121520996" y1="0" x2="36.149001121520996" y2="0" style="visibility: inherit;" fill="rgb(0, 0, 0)" stroke="rgb(204, 204, 204)" stroke-width="1px"></line></g><g transform="translate(31.149001121520996, 0)"><text style="text-anchor: end; visibility: hidden; font-family: Roboto, sans-serif; font-size: 12px; font-weight: 200;" x="0" y="176.89999961853027" dx="0em" dy="0.3em" fill="rgb(33, 33, 33)" stroke="none" stroke-width="1px">4.4</text><text style="text-anchor: end; visibility: inherit; font-family: Roboto, sans-serif; font-size: 12px; font-weight: 200;" x="0" y="160.8181814713912" dx="0em" dy="0.3em" fill="rgb(33, 33, 33)" stroke="none" stroke-width="1px">4.6</text><text style="text-anchor: end; visibility: hidden; font-family: Roboto, sans-serif; font-size: 12px; font-weight: 200;" x="0" y="144.73636332425207" dx="0em" dy="0.3em" fill="rgb(33, 33, 33)" stroke="none" stroke-width="1px">4.8</text><text style="text-anchor: end; visibility: inherit; font-family: Roboto, sans-serif; font-size: 12px; font-weight: 200;" x="0" y="128.65454517711294" dx="0em" dy="0.3em" fill="rgb(33, 33, 33)" stroke="none" stroke-width="1px">5</text><text style="text-anchor: end; visibility: hidden; font-family: Roboto, sans-serif; font-size: 12px; font-weight: 200;" x="0" y="112.5727270299738" dx="0em" dy="0.3em" fill="rgb(33, 33, 33)" stroke="none" stroke-width="1px">5.2</text><text style="text-anchor: end; visibility: inherit; font-family: Roboto, sans-serif; font-size: 12px; font-weight: 200;" x="0" y="96.49090888283467" dx="0em" dy="0.3em" fill="rgb(33, 33, 33)" stroke="none" stroke-width="1px">5.4</text><text style="text-anchor: end; visibility: hidden; font-family: Roboto, sans-serif; font-size: 12px; font-weight: 200;" x="0" y="80.4090907356956" dx="0em" dy="0.3em" fill="rgb(33, 33, 33)" stroke="none" stroke-width="1px">5.6</text><text style="text-anchor: end; visibility: inherit; font-family: Roboto, sans-serif; font-size: 12px; font-weight: 200;" x="0" y="64.32727258855647" dx="0em" dy="0.3em" fill="rgb(33, 33, 33)" stroke="none" stroke-width="1px">5.8</text><text style="text-anchor: end; visibility: hidden; font-family: Roboto, sans-serif; font-size: 12px; font-weight: 200;" x="0" y="48.245454441417344" dx="0em" dy="0.3em" fill="rgb(33, 33, 33)" stroke="none" stroke-width="1px">6</text><text style="text-anchor: end; visibility: inherit; font-family: Roboto, sans-serif; font-size: 12px; font-weight: 200;" x="0" y="32.163636294278206" dx="0em" dy="0.3em" fill="rgb(33, 33, 33)" stroke="none" stroke-width="1px">6.2</text><text style="text-anchor: end; visibility: hidden; font-family: Roboto, sans-serif; font-size: 12px; font-weight: 200;" x="0" y="16.081818147139064" dx="0em" dy="0.3em" fill="rgb(33, 33, 33)" stroke="none" stroke-width="1px">6.4</text><text style="text-anchor: end; visibility: hidden; font-family: Roboto, sans-serif; font-size: 12px; font-weight: 200;" x="0" y="0" dx="0em" dy="0.3em" fill="rgb(33, 33, 33)" stroke="none" stroke-width="1px">6.6</text></g><line x1="41.149001121520996" y1="0" x2="41.149001121520996" y2="176.89999961853027" fill="rgb(0, 0, 0)" stroke="rgb(204, 204, 204)" stroke-width="1px"></line></g></g><g transform="translate(41, 0)" clip-path="url(#clip_0)"><clipPath id="clip_0"><rect width="288" height="176"></rect></clipPath><g><g><g><line x1="0" y1="0" x2="0" y2="176.89999961853027" fill="rgb(0, 0, 0)" stroke="rgb(66, 66, 66)" stroke-width="1px" opacity="0.25"></line><line x1="24.07091657320658" y1="0" x2="24.07091657320658" y2="176.89999961853027" fill="rgb(0, 0, 0)" stroke="rgb(66, 66, 66)" stroke-width="1px" opacity="0.25"></line><line x1="48.14183314641316" y1="0" x2="48.14183314641316" y2="176.89999961853027" fill="rgb(0, 0, 0)" stroke="rgb(66, 66, 66)" stroke-width="1px" opacity="0.25"></line><line x1="72.21274971961975" y1="0" x2="72.21274971961975" y2="176.89999961853027" fill="rgb(0, 0, 0)" stroke="rgb(66, 66, 66)" stroke-width="1px" opacity="0.25"></line><line x1="96.28366629282633" y1="0" x2="96.28366629282633" y2="176.89999961853027" fill="rgb(0, 0, 0)" stroke="rgb(66, 66, 66)" stroke-width="1px" opacity="0.25"></line><line x1="120.35458286603293" y1="0" x2="120.35458286603293" y2="176.89999961853027" fill="rgb(0, 0, 0)" stroke="rgb(66, 66, 66)" stroke-width="1px" opacity="0.25"></line><line x1="144.4254994392395" y1="0" x2="144.4254994392395" y2="176.89999961853027" fill="rgb(0, 0, 0)" stroke="rgb(66, 66, 66)" stroke-width="1px" opacity="0.25"></line><line x1="168.4964160124461" y1="0" x2="168.4964160124461" y2="176.89999961853027" fill="rgb(0, 0, 0)" stroke="rgb(66, 66, 66)" stroke-width="1px" opacity="0.25"></line><line x1="192.56733258565265" y1="0" x2="192.56733258565265" y2="176.89999961853027" fill="rgb(0, 0, 0)" stroke="rgb(66, 66, 66)" stroke-width="1px" opacity="0.25"></line><line x1="216.63824915885925" y1="0" x2="216.63824915885925" y2="176.89999961853027" fill="rgb(0, 0, 0)" stroke="rgb(66, 66, 66)" stroke-width="1px" opacity="0.25"></line><line x1="240.70916573206586" y1="0" x2="240.70916573206586" y2="176.89999961853027" fill="rgb(0, 0, 0)" stroke="rgb(66, 66, 66)" stroke-width="1px" opacity="0.25"></line><line x1="264.7800823052724" y1="0" x2="264.7800823052724" y2="176.89999961853027" fill="rgb(0, 0, 0)" stroke="rgb(66, 66, 66)" stroke-width="1px" opacity="0.25"></line><line x1="288.850998878479" y1="0" x2="288.850998878479" y2="176.89999961853027" fill="rgb(0, 0, 0)" stroke="rgb(66, 66, 66)" stroke-width="1px" opacity="0.25"></line></g><g><line x1="0" y1="176.89999961853027" x2="288.850998878479" y2="176.89999961853027" fill="rgb(0, 0, 0)" stroke="rgb(66, 66, 66)" stroke-width="1px" opacity="0.25"></line><line x1="0" y1="160.8181814713912" x2="288.850998878479" y2="160.8181814713912" fill="rgb(0, 0, 0)" stroke="rgb(66, 66, 66)" stroke-width="1px" opacity="0.25"></line><line x1="0" y1="144.73636332425207" x2="288.850998878479" y2="144.73636332425207" fill="rgb(0, 0, 0)" stroke="rgb(66, 66, 66)" stroke-width="1px" opacity="0.25"></line><line x1="0" y1="128.65454517711294" x2="288.850998878479" y2="128.65454517711294" fill="rgb(0, 0, 0)" stroke="rgb(66, 66, 66)" stroke-width="1px" opacity="0.25"></line><line x1="0" y1="112.5727270299738" x2="288.850998878479" y2="112.5727270299738" fill="rgb(0, 0, 0)" stroke="rgb(66, 66, 66)" stroke-width="1px" opacity="0.25"></line><line x1="0" y1="96.49090888283467" x2="288.850998878479" y2="96.49090888283467" fill="rgb(0, 0, 0)" stroke="rgb(66, 66, 66)" stroke-width="1px" opacity="0.25"></line><line x1="0" y1="80.4090907356956" x2="288.850998878479" y2="80.4090907356956" fill="rgb(0, 0, 0)" stroke="rgb(66, 66, 66)" stroke-width="1px" opacity="0.25"></line><line x1="0" y1="64.32727258855647" x2="288.850998878479" y2="64.32727258855647" fill="rgb(0, 0, 0)" stroke="rgb(66, 66, 66)" stroke-width="1px" opacity="0.25"></line><line x1="0" y1="48.245454441417344" x2="288.850998878479" y2="48.245454441417344" fill="rgb(0, 0, 0)" stroke="rgb(66, 66, 66)" stroke-width="1px" opacity="0.25"></line><line x1="0" y1="32.163636294278206" x2="288.850998878479" y2="32.163636294278206" fill="rgb(0, 0, 0)" stroke="rgb(66, 66, 66)" stroke-width="1px" opacity="0.25"></line><line x1="0" y1="16.081818147139064" x2="288.850998878479" y2="16.081818147139064" fill="rgb(0, 0, 0)" stroke="rgb(66, 66, 66)" stroke-width="1px" opacity="0.25"></line><line x1="0" y1="0" x2="288.850998878479" y2="0" fill="rgb(0, 0, 0)" stroke="rgb(66, 66, 66)" stroke-width="1px" opacity="0.25"></line></g></g></g><g><g><line x1="0" y1="530.6999988555909" x2="288.850998878479" y2="530.6999988555909" fill="rgb(0, 0, 0)" stroke="rgb(153, 153, 153)" stroke-width="1.5px"></line></g></g><g><g><line x1="24.07091657320658" y1="0" x2="24.07091657320658" y2="176.89999961853027" fill="rgb(0, 0, 0)" stroke="rgb(153, 153, 153)" stroke-width="1.5px"></line></g></g><g><g><g><g><g><path style="fill: none;" stroke="rgb(255, 112, 67)" stroke-width="2px" d="M24.180679952780405,181.20994424324036L24.26155823246638,156.58589442407023L24.307774392286934,156.96366781353157L24.342436512152357,165.79998188647016L24.38865267197291,172.23542883485317L24.440645851771038,169.87640886662376L24.44931138173739,169.0042830710929L24.472419461647668,163.4886238513294L24.541743701378504,158.42366909891092L24.582182841221492,156.46922117106337L24.741050890604654,156.37259006037291L24.801709600369136,155.66009726630725L24.80459811035792,155.00984682931815L24.845037250200907,155.26071769470292L24.873922350088755,156.00589900520524L24.94324658981959,154.32459070802125L24.99235125962893,153.61406087179785L25.03856741944949,156.12660397294607L25.1309997390906,155.3928104069531L25.17143887893359,157.99949114873712L25.27253672854106,158.7454398991857L25.28697927848498,157.99035691810894L25.483397957722346,158.57967630904653L25.518060077587762,158.08077225528237L25.598938357273738,160.31080382858332L25.726032796780267,159.9774985145998L25.73758683673541,159.3477184707574L25.7578064066569,159.0662181608414L25.76936044661204,159.30695401963737L25.79246852652232,159.52060225896713L25.806911076466243,158.7085746074862L25.838684686342873,158.86259285581656L25.844461706320445,158.9331121366483L25.882012336174647,160.81952606760655L25.90800892607371,161.74958402624543L25.97444465581576,162.20194284953118L25.98022167579333,162.5562084738483L26.014883795658747,163.88343166527L26.029326345602673,165.55465978972256L26.087096545378365,164.9301189669911L26.170863335053124,165.97364396954117L26.20841396490733,166.64570026439722L26.326842874447507,166.84015338796493L26.34128542439143,167.6569025752664L26.39616711417834,167.9712595565085L26.43949476401011,168.2319457418436L26.451048803965254,168.16101580465548L26.505930493752164,168.82756804790134L26.563700693527856,169.09864523413148L26.80055851260821,168.8692965730203L26.80633553258578,168.2301575359905L26.84677467242877,167.88109239544002L26.89587934223811,167.70029928439394L27.02297378174464,168.05637069270193L27.060524411598838,167.82099844127526L27.118294611374537,168.24480834805678L27.135625671307245,168.53169760950772L27.280051170746486,168.91504008194605L27.332044350544614,168.82181069228986L27.42158816019694,168.3993621236468L27.48224686996142,167.58998540878855L27.522686009804406,168.37967621477569L27.551571109692254,168.72372930579456L27.58334471956889,168.9523202936559L27.678665549198787,170.01933479932666L27.701773629109063,171.22944962579652L27.724881709019343,171.98542208652358L27.811537008682887,171.92768226186396L27.90974634830157,171.86656021559432L28.071502907673516,172.0680918699283L28.161046717325846,171.18609766050906L28.184154797236125,170.15457307710136L28.262144566933316,169.78202965281676L28.302583706776304,169.5060239858412L28.397904536406198,169.4985160573337L28.45278622619311,169.61685592793657L28.48167132608096,169.97925893524933L28.484559836069742,170.22686827227633L28.60298874560992,170.03293711971105L28.672312985340753,170.52055558844046L28.74163722507159,170.49677729684936L28.87450868455569,170.7616923328698L28.880285704533257,171.36620803506946L28.8918397444884,171.97168200642128L28.894728254477183,172.5680931236425L29.004491634051004,172.0718773060678L29.01893418399493,171.73489825192237L29.03337673393885,171.55580177460305L29.1200320336024,171.12669125462688L29.12869756356875,170.8186633620068L29.235572433153788,170.92288649422434L29.28467710296313,170.72064960702525L29.290454122940698,170.56424735568743L29.304896672884624,170.20338629040876L29.509980882088342,170.0156150687659L29.547531511942545,169.851621831001L29.619744261662166,169.02678810319898L29.631298301617303,168.26708779107938L29.648629361550014,167.81589197424825L29.746838701168695,167.8358397475459L29.81038592092196,168.04755389775497L29.81616294089953,168.1758524557176L30.260993479172388,167.1959831051464L30.298544109026594,166.5111846333122L30.373645368734994,166.70116001708251L30.474743218342464,166.3258153265991L30.480520238320032,165.95306437099038L30.49785129825274,165.7788350453224L30.535401928106946,165.46388507826404L30.60472616783778,165.2134830289551L30.607614677826565,164.85777423730437L30.905131206671395,164.31878299015838L30.939793326536815,163.74074223999753L30.965789916435877,162.77306218430033L31.017783096234,161.83963493115493L31.33551919500033,161.4100812247919L31.40195492474238,160.8800748479817L31.439505554596582,160.26099893552066L31.482833204428353,159.2497144132033L31.537714894215263,158.89219042934926L31.555045954147975,158.82901466940012L31.62437019387881,158.16020045969682L31.760130163351693,157.12841718788528L31.817900363127393,156.1350200115414L31.85545099298159,155.26663215056783L31.864116522947945,154.51804119313636L31.927663742701213,154.01036763937034L31.93921778265635,153.52430366147186L31.95077182261149,153.02806232684776L32.01720755235354,152.27641478314368L32.04898116223018,151.9293081028035L32.07208924214045,151.4885498139146L32.138524971882504,150.9044914131243L32.18185262171428,150.411603520114L32.50825425044695,149.8165812786865L32.5573589202563,149.80221553915433L32.57757849017779,149.80219696542207L32.63534868995349,149.9262406487472L32.64401421991984,150.05376107915734L32.733558029572166,149.92808926977318L32.7855512093703,149.94613544537341L32.84043289915721,149.886488141671L32.84620991913478,149.65754457492272L33.05995965830485,149.27952947868278L33.17261154786746,148.7381740391513L33.24482429758708,148.14078292827753L33.27082088748614,147.77163631749866L33.33147959725062,147.47587988448345L33.374807247082394,147.0225031980649L33.42680042688052,146.3758787043823L33.43257744685809,145.6690195144944L33.49034764663378,144.82076992311582L33.5827799662749,144.5768510344326L33.65499271599452,144.74120077088506L33.6781007959048,144.7350138983781L33.72142844573657,144.57179622455675L33.758979075590766,144.04962740645547L33.8109722553889,144.04489380801786L33.851411395231885,143.90597247321432L33.883185005108515,143.60525825031436L33.891850535074866,143.1067649242049L34.06804964439074,142.58511077757962L34.10271176425616,141.8385631921229L34.27024534360568,142.1355313830863L34.33956958333651,141.98198637516938L34.36845468322436,141.41616570325908L34.408893823067345,140.86374214179585L34.423336373011274,140.40628340801624L34.43489041296641,139.867354828662L34.49554912273089,139.6315149974047L34.52443422261874,139.32282110496766L34.54465379254023,138.96315731124008L34.59953548232715,138.1769003741416L34.83928181139628,138.04508713220707L34.949045190970104,137.30163719506047L34.9692647608916,136.50807880337214L35.064585590521496,136.53034553551882L35.1772374800841,136.07174510655597L35.22923065988223,135.60523732352166L35.24078469983737,135.24000017244518L35.28411234966914,134.83290224557925L35.315885959545774,134.19122949160158L35.376544669310256,134.41909775835472L35.5383012286822,134.34055725802648L35.56140930859248,134.02288192673376L35.76071649781863,133.3682391712099L35.87625689737002,132.80842971957316L36.01779388682048,133.27332535786346L36.029347926775614,133.72266125426302L36.05534451667467,134.07655178117986L36.22865511600176,133.92391694276347L36.3557495555083,133.85980264650624L36.44529336516062,133.40981462810822L36.49439803496997,133.43593952466642L36.62726949445406,133.38517563478135L36.65615459434191,133.3766678911956L36.66770863429705,133.26131085216835L36.75725244394938,132.9573905886993L36.835242213646566,132.7626130991117L36.85835029355685,132.61475465413452L36.93345155326525,132.50978605902841L36.94789410320917,132.40659674990033L37.031660892883934,132.11851297073926L37.12409321252505,132.20875075148004L37.311846361796064,132.2161932479572L37.37250507156054,132.00138744280034L37.41294421140353,131.8033615139647L37.42449825135867,131.57183427811313L37.450494841257736,131.32106556079574L37.54870418087641,131.84799545052445L37.612251400629674,132.0271845913783L37.61513991061846,132.1535788053972L37.67291011039416,132.28216331774735L37.72490329019228,132.48634162381214L37.75667690006892,132.33066793607938L37.80000454990069,132.29420454768345L37.823112629810964,132.25846792633104L37.846220709721244,132.2309148377001L37.875105809609096,132.20585000577094L37.95598408929507,131.97722231375033L37.99931173912684,131.68231683633144L38.11774064866702,131.59032408159055L38.35459846774737,131.21462501552259L38.43547674743335,130.8728917678588L38.45858482734362,130.4740904729485L38.49902396718661,129.98073377747443L38.579902246872585,129.5702436256995L38.60589883677165,129.20925719662984L38.6723345665137,128.8553877127474L38.83409112588564,128.90593513500548L38.868753245751066,128.99619253577646L38.96985109535853,128.56501948027608L39.137384674708045,127.95257777381363L39.30202974406878,127.78553182973106L39.33091484395663,127.65908465041198L39.57932670299212,127.51092980183708L39.65442796270053,127.28375130927041L39.67175902263324,126.85293321193994L39.78152240220706,126.77378891103795L39.79307644216219,126.91332891905928L39.888397271792094,126.4125078527279L39.90283982173602,125.99040005664666L40.16569423071543,125.62707944314076L40.19746784059207,125.16284571340715L40.25812655035654,124.80339074366225L40.50076138941447,124.63677860393683L40.50364989940326,124.45591466754894L40.58741668907801,124.02341479318217L40.7982779182593,123.88217189164503L40.87626768795649,123.66868773659107L40.90804129783312,123.39176740654827L41.00913914744059,123.13538232130723L41.014916167418164,122.93984159201472L41.03224722735087,122.7331586518288L41.069797857205074,122.54571316593656L41.21422335664431,122.54458960552387L41.2546624964873,122.40261505385811L41.289324616352715,122.29718507854025L41.30665567628543,122.1588644378789L41.37309140602747,121.77956267529146L41.549290515343344,121.25363204533984L41.58395263520877,120.86692112386658L41.66771942488353,120.94820586397495L41.72260111467044,121.17435283865804L41.85547257415453,121.10044768252074L42.05477976338069,121.03099368868234L42.069222313324616,120.94977250944771L42.181874202887215,121.10890927965035L42.19920526281992,121.26720859783522L42.33207672230403,120.79574869584471L42.35229629222552,120.3538062922908L42.39562394205729,119.94957634199305L42.40717798201243,119.46268636047968L42.43028606192271,119.1216144574764L42.55449199144046,119.28208015287282L42.704694510857266,119.20222360567439L42.776907260576884,118.8786943850392L42.78846130053203,118.50834411756279L42.92710977999369,118.26365412366698L43.019542099634805,118.30943491896413L43.15819057909648,118.20564266194211L43.17552163902919,118.22494762627831L43.50770028773943,118.00162067684943L43.76766618673007,117.70891740122813L43.799439796606705,117.57574005659907L43.84276744643847,117.42870368179202L43.96697337595622,116.86402756841294L44.07384824554125,116.55169956161981L44.29915202466646,116.30256535362362L44.33670265452067,116.25084624233085L44.52445580379168,116.3284327339812L44.5966685535113,116.22473898990825L44.63710769335429,115.93465366712331L44.75553660289446,115.98484059001362L45.067495681683226,115.78728878732245L45.194590121189755,115.62254978994632L45.23214075104396,115.64699165627434L45.40256284038226,115.6186062473573L45.437224960247676,115.57238841301773L45.451667510191605,115.44928658550613L45.610535559574764,115.88157911615355L46.15935245744387,115.57275408004467L46.21423414723078,115.30604919533334L46.222899677197134,115.17830536059243L46.28066987697283,115.02963722293072L46.32399752680461,114.74660874411941L46.41065282646815,114.43540763034738L46.50597365609805,113.99885415122478L46.543524285952245,113.8653979531943L46.55507832590739,113.62116729523076L46.907476544539136,113.28110437102681L46.91903058449428,112.88591711884791L46.97391227428118,112.46921687284349L47.138557343641914,112.14329568412649L47.323421982924145,111.90943288942441L47.33786453286807,111.66357121547034L47.43896238247554,111.28771829005328L47.464958972374596,110.98727389781408L47.551614272038144,110.9532576215159L47.6353810617129,110.83617161950482L47.85490782086055,110.89894922701635L48.293961339155835,110.47443622558096L48.3199579290549,110.05689370882331L48.32284643904368,109.61183603552954L48.38350514880816,109.65616666103246L48.81678164712588,109.60882667676553L48.97276118652026,109.51797542311641L49.325159405152,109.43292941276725L49.478250434557594,109.66206998351585L49.49269298450152,109.99486978861393L49.553351694266,110.09750741426308L49.616898914019266,110.06171016770081L49.767101433436075,109.93905999006365L49.8941958729426,109.78700940493596L49.91152693287531,109.55725437524538L50.04439839235942,109.89441821102054L50.10216859213511,110.09642299872957L50.36791151110331,109.9823481755944L50.40546214095752,109.95191552866297L50.549887640396754,109.49930466663547L50.604769330183665,109.35042128476185L50.61343486015002,109.19062392067411L50.63943145004908,109.18384645072913L50.77807992951075,108.96971394513447L50.87628926912944,108.84085198033925L50.97449860874812,108.50658754742513L51.07848496834438,108.3598579239198L51.12181261817614,108.15651963340834L51.185359837929404,107.8764624351244L51.24890705768267,107.45864197254608L51.309565767447154,107.03486394613296L51.36155894724528,106.87286330533058L51.40777510706584,106.85803400250107L51.43088318697612,106.71320752495646L51.51753848663966,106.42403669101455L51.543535076538724,106.23462113340592L51.54931209651629,106.01508915958048L51.92481839505831,105.65779573617237L52.32920979348819,105.21086672538485L52.41875360314051,104.95630508277489L52.441861683050796,104.71004855617073L52.50829741279284,104.40259609154744L52.531405492703115,104.13120950045383L52.802925431648895,104.06621066896409L52.94735093108813,103.7718071236396L53.022452190796535,103.70392886276593L53.04556027070681,103.62954490953678L53.06289133063952,103.58086543105127L53.08888792053858,103.47535644750411L53.3892929593722,103.27848567183138L53.501944848934805,103.08312943805613L53.51349888888995,102.98285155356308L53.72724862806002,102.8732472578305L53.837012007633845,102.65859237554099L53.87167412749926,102.51521404499427L53.88900518743197,102.39676716807992L53.90055922738711,102.32309986153086L54.01032260696093,102.14283989752711L54.03631919686,102.03633147152638L54.065204296747844,101.90362312633545L54.21829532615344,101.63027372975341L54.26162297598521,101.11425647871324L54.42049102536838,101.02276420641974L54.44937612525622,100.91342540624234L54.69489947430293,100.76388792309444L54.726673084179566,100.53247672602059L54.73533861414592,100.305556043437L54.738227124134696,100.04511813941883L54.93175729338328,99.89891119080558L55.105067892710366,99.71588867755467L55.12817597262065,99.59298533619203L55.1570610725085,99.46607441106265L55.18016915241877,99.32557611995112L55.365033791701,99.40643408800652L55.42569250146548,99.26251577139966L55.53834439102808,99.08790096880216L55.55278694097201,98.99539539745192L55.65677330056827,98.7496247579049L55.70298946038882,98.53153672324815L55.821418369929,98.7277226540623L55.9716208893458,98.58410838816215L55.988951949278515,98.35214255911305L56.18825913850466,98.21525831789158L56.26047188822428,97.99447505069193L56.36156973783176,97.81888637991669L56.36734675780932,97.67187466019341L56.459779077450435,97.92163086942647L56.468444607416785,98.18662520275701L56.523326297203695,98.25984312771148L56.82373133603732,98.5297345978254L56.843950905958806,98.84660228476895L57.01148448530833,98.7102864950354L57.086585745016734,98.69208382316017L57.14435594479243,98.62435119770052L57.202126144568126,98.55749915856046L57.49675416342417,98.46321628005346L57.79138218228022,98.31012981638322L57.86359493199984,98.24297578639808L57.883814501921336,98.13348946163839L57.88959152189891,98.0709130698558L58.60883050910632,97.95335452524625L58.86879640809695,97.92192176741112L59.12298528711001,97.85810231224245L59.458052445809045,97.69604014941162L59.521599665562306,97.53748423147282L59.668913674990335,97.44931914457592L59.70935281483332,97.48600671202733L59.71512983481089,97.5883311425242L59.7700115245978,97.6686654303668L60.12529825321833,97.46128943584071L60.139740803162255,97.30001219393552L60.2437271627585,97.12946507785428L60.246615672747296,96.95858731731428L60.25816971270244,96.74812110467334L60.3390479923884,96.59585244578122L60.821429160515464,96.44242028966669L60.850314260403316,96.29320088410046L60.922527010122934,96.18162756055146L60.94274658004443,95.92260688567356L60.95430061999957,95.70416191885555L61.07272952953974,95.55558384795107L61.162273339192076,95.42776634902044L61.26048267881076,95.18446031981287L61.436681788126634,95.20316577593856L61.43957029811541,95.2013425112397L61.47134390799204,95.21444750294263L61.48289794794719,95.21557450541381L61.56955324761073,95.13943925807463L61.7833029867808,94.88044072134286L61.81796510664622,94.69642582130669L61.898843386332196,94.60772751964802L62.118370145479844,94.4355553058797L62.25701862494151,94.46049495994666L62.33211988464991,94.39184854547263L62.49098793403308,94.29401703656521L62.58342025367419,94.43634942258429L62.65563300339381,94.29915976980408L62.69896065322558,94.0695267800548L62.75095383302371,93.87554489198864L62.82316658274333,93.61099180973586L62.849163172642385,93.37578923322185L62.87515976254145,93.3033959431202L63.24200053111712,93.26660489964758L63.27666265098254,93.19840362174358L63.3026592408816,93.12970276999418L63.33732136074702,92.9844544783369L63.340209870735805,92.83378818364059L63.464415800253555,92.78971291873965L63.46730431024233,92.73021473184252L63.496189410130185,92.69425350387485L64.20387435738246,92.5507711652942L64.46384025637309,92.52520510127106L64.46961727635066,92.48420190052576L64.7815763551394,92.51007238285507L65.89076419083277,92.3865235386089L66.25182793943087,92.32985993356792L66.25471644941966,92.243901494461L66.48002022854487,92.05289316133673L66.52334787837664,91.90308629325015L66.55223297826448,91.74943347152747L66.58111807815234,91.76290498307041L66.60422615806262,91.81909564776028L66.6648848678271,91.93275633496874L67.24258686558406,91.64003054355113L67.2916915353934,91.5307627494548L67.29458004538218,91.41151244543126L67.33501918522516,91.24927285730165L67.35523875514666,91.06129951190275L67.40145491496722,90.78305869365973L67.57765402428309,90.70657189571986L67.75674164358774,90.69942067857988L67.76251866356532,90.67161502175406L67.77984972349802,90.60214201491007L67.8029578034083,90.4559508446844L67.81451184336345,90.314479711951L67.87805906311671,90.10725209695393L67.89250161306063,89.92797575374118L67.92138671294849,89.79052813819293L68.06003519241015,89.75135545044401L68.38932533113162,89.65259902627156L68.5077542406718,89.53753343899318L68.52219679061572,89.52566773045723L68.53663934055965,89.49191764217305L69.08834474841754,89.5145401613163L69.09123325840632,89.50911594407808L69.09989878837268,89.43777741242778L69.1721115380923,89.25711732763715L69.2472127978007,89.02738516187614L69.49851316682498,89.17718797463726L69.64871568624179,89.06073910572705L69.65160419623056,88.96746335215974L70.22064066402118,88.94353755725786L70.28707639376323,88.8153378851568L70.73190693203608,88.71297250209423L70.74057246200243,88.57593599121523L70.75212650195758,88.41380913764314L70.76368054191272,88.26386491994276L70.78101160184542,88.1877341730724L70.81856223169963,88.08592744590754L70.95143369118372,87.89404245377457L70.99476134101549,87.82683814677577L71.00342687098185,87.77143812232802L71.07852813069026,87.65816808336442L71.1276328004996,87.47951795232434L71.17962598029773,87.26498279418576L71.52335866896311,87.23361863181515L71.54646674887339,87.2538137770822L71.82376370779673,87.15168467664743L72.39857719556491,86.96919015662337L72.81452263394992,86.94660060417547L73.02827237311999,86.8746562322865L73.11781618277232,86.81547987286889L73.18425191251437,86.84743501356448L73.20735999242466,86.89876385670655L73.2362450923125,86.90150780849197L73.25068764225642,86.91069407999854L73.26801870218912,86.9262162636292L73.69551818052928,86.79953159615305L73.70418371049564,86.725968303119L73.88038281981152,86.6732565498464L73.900602389733,86.57377068442212L73.93237599960962,86.54456533393817L74.1461257387797,86.4061699503898L74.94046598569552,86.45034996456828L74.98379363552729,86.43349917946404L75.04734085528057,86.38789316000855L75.18021231476466,86.3535507485755L75.21487443463008,86.24655775005635L75.25531357447306,86.06487404769169L75.68859007279079,86.0085590518411L75.70880964271228,85.94259777768045L75.94277895180385,85.98384832025391L75.94566746179262,86.02032785622131L75.9514444817702,86.05899038607345L75.95722150174777,86.11369194172218L75.9687755417029,86.2278233868715L76.58980518929164,86.03481273361923L76.60713624922435,85.97192983827611L76.63024432913463,85.88661643546745L76.66779495898884,85.77859112864603L76.80066641847293,85.76633525575465L77.29171311656634,85.74602999831367L77.30904417649906,85.7948526920764L77.54012497560183,85.81659614951938L77.77987130467096,85.69116008851132L77.90985425416628,85.66896863557973L78.04850273362796,85.49452788251938L78.75618768088023,85.43913700096145L78.76774172083537,85.40333866694876L78.78507278076808,85.40095312254641L79.04503867975872,85.26566998029028L79.17502162925402,85.18373554458927L79.1779101392428,85.11846724530761L79.25301139895122,85.03294976238304L79.33677818862597,84.944722946452L79.34833222858111,84.92216659679613L79.71806150714558,84.98225489698055L79.76138915697734,84.97928836024276L79.95491932622592,84.95293301004534L80.03002058593432,84.80975295668755L80.16289204541843,84.71566767827842L80.23799330512682,84.50130414662961L80.42285794440906,84.22410965591652L80.5095132440726,84.05058397950765L80.5470638739268,83.81810128884044L80.6019455637137,83.73054918258748L80.72326298324268,83.5037632255077L80.74059404317538,83.31362148939992L80.7550365931193,83.12768185873382L80.77814467302957,83.06054502419452L80.78681020299594,82.99571377199699L80.89368507258096,82.86673220163865L80.9254586824576,82.74366334911913L80.95434378234545,82.65079125611412L81.09588077179592,82.58598731212514L81.10454630176226,82.48729774073101L81.2114211713473,82.38396979949917L81.31829604093234,82.28634383939219L81.40206283060711,82.13923061579939L81.99998439828555,82.04832049091405L82.86653739492098,81.90212344849228L83.02251693431536,81.94562173505832L83.0369594842593,82.07362021977296L83.47601300255457,82.01860080548803L83.53667171231905,82.03575995563342L83.54244873229662,82.02980890075416L83.65221211187044,81.93115160725283L83.68687423173587,81.80274047233878L83.69265125171344,81.6355154579164L83.83707675115268,81.64743012473707L83.88040440098445,81.65044294437882L85.33332492534319,81.67085123093305L85.34776747528711,81.69775147854493L85.5586287044684,81.63144352390479L85.58462529436748,81.48510192527758L85.59617933432261,81.37883707106309L85.68572314397494,81.36409698342158L85.74638185373942,81.3655614751777L85.7492703637282,81.36048992441194L86.32697236148516,81.49118928078171L86.76313736979166,81.54407792530334L86.9277824391524,81.53371645956821L86.93644796911875,81.5130612085203L86.93933647910754,81.50882469600734L87.02599177877109,81.40690659552335L87.23685300795238,81.44970644352094L87.36683595744768,81.34039445303377L87.43038317720097,81.36471832794345L87.47659933702151,81.3337444651914L90.98902748338382,81.11041828645907L91.12767596284549,81.00729282569499L91.25477040235201,81.05858872361974L91.91623918978374,81.02165675554933L91.93357024971645,81.05098738877153L92.17909359876315,81.04012189516138L92.3032995282809,80.89592044404591L92.43039396778742,80.78458619546778L92.53438032738367,80.71644312493844L94.00463191167513,80.58750321657602L94.19527357093494,80.538052163376L94.221270160834,80.45533518790995L94.22993569080035,80.3733249260021L94.24726675073305,80.38112213135518L94.66610069910685,80.15169160934963L94.98961381785075,80.02451051592472L95.22358312694232,79.88726439202898L95.2264716369311,79.79506040899436L95.26113375679651,79.63507714662384L95.5673158156077,79.61698429597641L95.65685962526003,79.5706995799091L96.13057526342074,79.49674684418049L97.13866524950663,79.49697922225845L97.42173922840753,79.44049471861197L97.47662091819446,79.44580519739543L97.58638429776828,79.33061493598247L97.5979383377234,79.25991421680236L98.13808970562617,79.16825596697043L98.28829222504298,79.20439949559186L98.80822402302424,79.13542047730327L99.26749711124101,79.07495280681938L100.47778279654186,79.00331802666265L100.65109339586894,78.92766727785093L100.65687041584651,78.82608094608443L100.905282274882,78.74754206520974L101.65340636197725,78.81213560139393L103.14098900620144,78.8937844929336L103.1438775161902,78.98835260741451L103.21031324593226,79.04094743876115L103.21609026590983,79.11820922844093L103.25652940575281,79.1693010882717L103.27674897567431,79.18439665964523L105.1976081182162,79.29306432090615L105.20916215817134,79.40761150472899L105.24093576804798,79.45900342364581L105.30159447781246,79.44886937626282L105.51534421698253,79.40732550412115L105.60777653662365,79.34045860018549L105.6915433262984,79.36563272811298L106.0526070748965,79.25121766783032L106.06127260486284,79.10757618368089L106.40211678353946,79.14570902056631L106.72562990228334,79.19944010790806L106.77762308208148,79.3355576437845L106.80361967198054,79.40609782372941L107.08091663090389,79.38809098120245L108.31719890610377,79.47278936455463L108.65804308478039,79.3736698735L108.79669156424205,79.3349318291578L109.43216376177469,79.27432282194542L109.45816035167377,79.18998598948403L109.46682588164012,79.17525023982091L109.55348118130367,79.05627786492082L109.602585851113,78.90320786178138L109.643024990956,78.81566380453984L109.9260989698569,78.87238391994022L109.93765300981204,78.93601301862591L110.04741638938586,78.83622238475171L110.058970429341,78.73412094194934L110.07052446929613,78.63508374724077L110.74065878669421,78.68770628138704L110.76665537659328,78.68636854328669L110.77532090655961,78.6257785733802L110.8013174964587,78.53257486701429L111.77185685269038,78.43412157674813L111.9191708621184,78.40189415371998L112.8521595884959,78.37651357039957L113.11212548748652,78.27484209061271L113.14101058737437,78.22183036125382L113.71582407514254,78.23252231758902L113.73026662508646,78.26138625585143L113.75626321498554,78.31516747413554L113.78225980488459,78.31938046792469L113.9151312643687,78.26508405758695L113.96134742418926,78.27472084928259L113.98156699411074,78.30644749746463L113.99312103406588,78.3376430167442L114.01911762396495,78.31268675957692L114.3686273326079,78.20643955497341L117.63264361993473,78.21470023987818L117.65864020983378,78.22348320270774L117.96193375865619,78.08333011745833L118.03992352835337,78.03604546207829L119.79036058155695,77.9762397357726L120.18608645002048,78.03363337521553L122.7250867301623,77.96907316570464L122.84929265968005,77.93711609751271L122.88684328953426,78.03294943664545L122.92439391938846,78.09850268195476L122.96194454924265,78.06463063982045L123.02260325900714,77.98353454401644L123.76495032612482,77.89022417487756L123.82272052590052,77.80557459128731L123.89204476563135,77.78569133613844L124.09712897483509,77.77225658673126L124.37153742376962,77.83001076770279L124.42353060356776,77.75503734985708L124.48996633330981,77.66047512867398L124.54484802309672,77.44642138457846L124.5477365330855,77.23402519130963L124.60261822287242,77.09859308184768L125.28719509021441,77.06207242558209L125.4027354897658,76.98021145262581L126.45415312568348,76.92833888713118L126.52925438539188,76.81923668444959L126.57258203522365,76.73172740040239L126.6592373348872,76.6885880430361L126.72567306462925,76.61307028340295L126.73722710458438,76.61623262683621L127.35247973219555,76.50877335410475L128.9180521461169,76.49229441830934L129.9030340522925,76.44860341464853L137.08098137442272,76.38849694015809L137.22540687386194,76.35262804564186L137.25718048373858,76.25877962475015L137.26295750371614,76.1391216671347L137.27740005366007,76.02912146783497L137.3265047234694,75.91990322379398L137.3640553533236,75.80251521453788L138.89207713739077,75.77890986179212L138.90074266735712,75.76204340212752L138.90940819732347,75.73649363904075L139.4380055252711,75.66862517366405L139.62287016455332,75.63142007064826L139.74418758408228,75.68015400290898L139.74707609407108,75.74288314169854L139.79906927386918,75.71398111474495L139.87128202358883,75.60947769651403L140.15146749250093,75.56268858428406L140.73494651023546,75.64232188829362L141.00357793919244,75.55927419775007L141.02090899912517,75.48108137545255L141.03824005905787,75.47358696371724L141.15666896859807,75.4251396698964L141.25487830821672,75.31723297965756L141.52062122718493,75.30833835507639L141.52928675715128,75.3146945283634L141.5437293070952,75.35855320937833L141.56106036702792,75.35684560433442L141.9654517654578,75.29042210684683L142.8377817820708,75.38030008562751L142.8955519818465,75.32581000529814L142.94754516164463,75.2983044402715L142.95043367163342,75.24789107678404L143.08041662112873,75.15318024045189L143.2363961605231,75.10183427766673L143.26816977039974,75.05006643974683L143.28261232034365,74.96259294252167L143.41259526983896,74.80047470556725L143.46169993964833,74.7301314774724L148.56280857984225,74.75844126776396L148.56569708983102,74.79592113842126L148.5859166597525,74.82003271914456L148.63502132956188,74.82207183429362L148.73323066918056,74.8022905586172L148.76789278904596,74.75154725935639L148.80833192888898,74.72799611930981L148.84010553876558,74.76655469802499L151.3097815791766,74.67489251790587L151.40510240880647,74.56718805756995L151.43398750869432,74.51150089819451L153.814119739453,74.53112331806761L153.84589334932966,74.52610570372478L153.86900142923992,74.56893095429488L153.8747784492175,74.56254630635311L153.88633248917262,74.53867165692229L154.1751834880511,74.56327801709205L154.18096050802868,74.62306244276375L154.24161921779316,74.74397615268073L154.37737918726603,74.69651458005272L154.4611459769408,74.66937567645837L158.68125907055537,74.64501294627571L158.71014417044321,74.59377869341928L158.72169821039833,74.55026094574811L163.26532442275683,74.48691781320264L163.29420952264468,74.47458809926005L163.3866418422858,74.43423405329389L163.41263843218485,74.4221619188387L163.42419247214,74.39650763620888L163.5224018117587,74.26181400727567L163.8228068505923,74.21296691317515L163.85169195048016,74.24230991800997L171.23472348181406,74.2139802153919L171.2838281516234,74.22515299956069L173.04004222480455,74.1943877672421L173.0458192447821,74.18075251893819L173.95281138126055,74.21732997006696L173.9614769112269,74.21561961153553L174.01058158103623,74.12212020519013L174.1145679406325,74.04892704846263L174.14056453053158,73.94745065507709L174.9724554073016,73.91585865672417L175.60503909484544,73.93588866114922L175.73502204434078,73.86025298479684L175.7494645942847,73.82072391853853L176.91353411976496,73.83613655894861L178.08049215523403,73.85675553021454L181.72868027106924,73.80489340782803L181.7662309009234,73.74172153067089L181.87021726051967,73.67840736526907L181.89043683044113,73.61965459179075L182.1128520995776,73.6509277021872L182.26883163897196,73.58562144028839L182.33237885872524,73.51441215068539L186.85000848118463,73.46663754621186L186.87022805110612,73.41578734654694L190.012926918904,73.41095675383413L190.02159244887034,73.40037011864108L190.03603499881424,73.3849600437194L190.06203158871332,73.35421185360696L190.08225115863482,73.32051982439937L190.09380519858996,73.2979416275666L190.10535923854508,73.27078128150498L190.13135582844416,73.15524281154126L190.14868688837686,73.06372592940747L190.3364400376479,73.08723733682112L190.34510556761424,73.08043393428404L190.3508825875918,73.08275671409062L190.59351742664975,72.99771889936349L190.59640593663852,72.89582650238344L190.6021829566161,72.79483831078815L190.657064646403,72.72614427785126L190.66573017636935,72.68110022909221L190.67150719634694,72.62366962019898L190.72061186615628,72.56808568790466L190.77549355594317,72.52439996596685L190.78127057592073,72.51077748256787L190.9025879954497,72.48481439082884L190.9054765054385,72.44766381409836L190.97480074516932,72.36536179491198L190.98057776514688,72.27610252262185L190.98346627513567,72.18711621356366L190.9979088250796,72.11042722580615L195.20357936875027,72.16579960979958L195.22668744866053,72.25442281091189L195.24112999860446,72.26925456472081L195.31334274832406,72.14675657482478L198.2885080367724,72.14704986658714L198.46181863609948,72.0517996220031L199.0366321238677,71.93566488590302L199.06551722375553,71.86239125592395L199.08573679367703,71.79290332763226L199.09729083363214,71.65676319591803L199.21283123318355,71.6167433465574L199.21860825316114,71.55776310868474L199.30237504283585,71.51172382265044L199.4294694823424,71.3741737041723L199.49590521208447,71.25360468008955L199.51323627201714,71.14077220454779L200.42600542847316,71.26706170118439L200.4346709584395,71.35892064191388L201.44853796450298,71.38178642022464L201.62184856383007,71.34101811991142L201.8818144628207,71.31046304415028L201.9135880726973,71.3071531180808L202.93900911871594,71.21549698151388L202.9621171986262,71.15521779044549L202.98811378852528,71.05556364917746L202.9938908085028,70.94160926242381L203.01122186843554,70.843557550358L203.02566441837948,70.78391984789118L203.04299547831218,70.7093568409352L203.13542779795327,70.73985771514545L204.30816285339992,70.7648647678215L204.46991941277187,70.6809775963066L204.49302749268213,70.65215987087949L205.50111747876804,70.65692839511955L205.51556002871195,70.62760255468012L205.6368774482409,70.63274990752163L205.66576254812878,70.69397566524304L205.84485016743344,70.59785220005874L205.8621812273661,70.50607566535233L206.57853170458475,70.4070487865776L206.65074445430437,70.39309103870092L207.33532132164635,70.36365049593788L207.9216888493697,70.35565836329343L207.9736820291678,70.34460501738562L211.65075524489086,70.26692374719813L211.6796403447787,70.23386194952276L211.70274842468896,70.20931517704703L212.26023085252442,70.22787147106364L212.34977466217677,70.06486973132084L212.3613287021319,69.94068985657371L212.4364299618403,69.88114406875735L212.71083841077487,69.78459783885518L212.7830511604945,69.69018717298172L212.8148247703711,69.58403991163657L212.83215583030383,69.47774038407303L212.83504434029263,69.3867019247265L212.8379328502814,69.28791179198959L212.9303651699225,69.22262856523943L213.28276338855423,69.2220295212231L231.87321367637318,69.15652984027112L231.8992102662722,69.09542586506755L233.53988393990198,69.07611912746327L233.58321158973374,69.02582478208895L236.71724492756525,69.03262931293091L236.8385623470942,69.07961614388944L236.91077509681384,69.06239036411093L240.4463113230864,68.96277468713052L240.46075387303034,68.83706745468392L240.47519642297425,68.72711872318152L241.31286431972185,68.76833632530817L241.32152984968823,68.79140681026047L241.38507706944148,68.79793680169671L241.41396216932932,68.80141496668354L241.43418173925085,68.78319073907856L241.65659700838725,68.74684096893914L246.51507080952328,68.80596558103628L249.8484113365809,68.84495092644921L249.85996537653605,68.89045288878779L249.94950918618838,68.87603315611506L250.04771852580706,68.85143770153506L251.13090977160138,68.83524771770485L251.2724467610518,68.79947674453561L251.35910206071534,68.73188204046244L251.39954120055836,68.59867850175604L251.6161794497172,68.62403628363562L251.68839219943683,68.408317294285L251.75771643916767,68.25120361727082L251.80104408899945,68.19525021534382L251.9021419386069,68.14392020394156L251.91658448855082,68.08478522794792L251.9628006483714,68.03674931745816L251.98013170830407,67.98315558832141L252.03790190807976,67.90680729385399L252.40763118664424,67.90339592871382L255.40590455500285,67.88369974863231L255.64565088407198,67.84640048439067L255.67164747397103,67.74510856859641L255.69475555388132,67.59102964308819L255.74386022369066,67.50606507622122L256.05004228250186,67.40660075527362L256.06737334243456,67.3411843594464L256.0818158923785,67.27800941554233L256.2984541415373,67.3061331188421L256.3215622214476,67.33770008943246L256.35911285130186,67.30362004221782L256.42843709103266,67.24268006646267L257.91890824524563,67.17783451460105L258.42150898329413,67.04661927164385L258.531272362868,66.97792803361027L258.6612553123633,66.9601794745503L260.1199528566996,67.02168098415119L260.1372839166323,67.0563117761167L262.49719657746954,66.95556031039763L262.52897018734615,66.89233622493539L262.6127369770209,66.83282405814242L263.25109768454234,66.86321406414564L263.36374957410493,66.81704403441063L263.4244082838694,66.76140851169285L263.4532933837573,66.62234555758941L263.4879555036227,66.5394683907281L263.5023980535666,66.4616751210136L263.5168406035105,66.41295884014308L263.886569882075,66.31909729106836L264.65780204908054,66.23928143932957L264.67802161900204,66.1512360816344L264.79933903853095,66.10937926539636" fill="none"></path></g></g></g></g><g opacity="0.2"><g><g><g><path style="fill: none;" stroke="rgb(255, 112, 67)" stroke-width="2px" d="M24.180679952780405,181.20994424324036L24.26155823246638,131.98646865473017L24.307774392286934,157.71808165004978L24.342436512152357,192.2559415572821L24.38865267197291,197.9129264811906L24.440645851771038,158.1166471799673L24.44931138173739,163.78981244573484L24.472419461647668,125.0331392799789L24.541743701378504,118.08594463199881L24.582182841221492,138.96690585340178L24.741050890604654,155.41157775224144L24.801709600369136,147.86954465970726L24.80459811035792,147.25737561202445L24.845037250200907,158.49930076232192L24.873922350088755,166.360531357171L24.94324658981959,129.30578476591995L24.99235125962893,142.34173407637522L25.03856741944949,198.45746016622073L25.1309997390906,142.30929670857242L25.17143887893359,207.0341149287207L25.27253672854106,173.5087533330354L25.28697927848498,142.30688115990623L25.483397957722346,171.39664358979002L25.518060077587762,146.74267203591933L25.598938357273738,213.16765309662577L25.726032796780267,151.75232825933747L25.73758683673541,143.19265902158534L25.7578064066569,151.5712004514173L25.76936044661204,165.9506932668114L25.79246852652232,165.62432580258266L25.806911076466243,134.72171326976192L25.838684686342873,163.56152392576092L25.844461706320445,161.15287682721186L25.882012336174647,222.02410891295668L25.97444465581576,177.752718971321L25.98022167579333,175.07655944350455L26.014883795658747,212.06875099271036L26.029326345602673,227.83808532914483L26.087096545378365,141.05405492709676L26.170863335053124,206.8699726455483L26.20841396490733,193.62900843480742L26.326842874447507,174.83396934174522L26.34128542439143,202.01517993106108L26.43949476401011,179.69692891124663L26.451048803965254,164.9737763705374L26.505930493752164,199.4150526731654L26.563700693527856,181.79650080665334L26.80055851260821,157.90772139136502L26.80633553258578,137.07495611715845L26.84677467242877,150.53400986461608L26.89587934223811,158.54400758366717L27.02297378174464,186.42733765194882L27.060524411598838,155.45432912942837L27.118294611374537,190.9132799193166L27.280051170746486,190.14356341974047L27.332044350544614,163.57103275225631L27.42158816019694,144.20837806468725L27.48224686996142,120.47983004425467L27.522686009804406,215.08694070904332L27.724881709019343,220.24379203292835L27.811537008682887,168.18779806802033L27.90974634830157,167.85050312173036L28.071502907673516,185.49792654610945L28.161046717325846,111.5886938506452L28.184154797236125,99.49243131337111L28.262144566933316,143.9151764670654L28.302583706776304,150.0855229955978L28.397904536406198,168.96326587394447L28.45278622619311,178.16324721844236L28.484559836069742,188.5677054803841L28.60298874560992,155.48876028343182L28.672312985340753,207.5408433600232L28.74163722507159,168.66956582977247L28.87450868455569,191.36303207573147L28.894728254477183,220.5951585087498L29.004491634051004,131.65745558958133L29.01893418399493,143.9803579390096L29.03337673393885,156.64074694493942L29.1200320336024,134.99766094833973L29.12869756356875,144.60241923361102L29.235572433153788,179.88856243876253L29.28467710296313,153.13881485167482L29.290454122940698,156.82448201173736L29.304896672884624,138.17334060350254L29.509980882088342,153.17811544505295L29.547531511942545,154.99717695884576L29.619744261662166,93.56436815025948L29.631298301617303,98.07415916795037L29.648629361550014,125.71834991828152L29.746838701168695,169.71507663975711L29.81038592092196,188.18424671514074L29.81616294089953,180.49463510171645L30.260993479172388,72.22752004567047L30.298544109026594,99.52310494722721L30.373645368734994,185.45605703589587L30.474743218342464,128.93283172027228L30.480520238320032,128.4832329320267L30.49785129825274,148.10833889927687L30.535401928106946,133.23868141486253L30.60472616783778,139.368193668324L30.607614677826565,127.82459332905192L30.905131206671395,107.7215538042816L30.939793326536815,102.52632209603416L30.965789916435877,59.43166860422372L31.017783096234,61.32338828821312L31.33551919500033,114.77066160074853L31.40195492474238,102.86192999246207L31.439505554596582,91.94200131356882L31.482833204428353,46.74930960804446L31.537714894215263,118.80202061436914L31.555045954147975,151.68891052134L31.62437019387881,81.97847653830831L31.760130163351693,38.689237181723314L31.817900363127393,41.22383788929395L31.85545099298159,54.04882928290399L31.864116522947945,66.60297248956479L31.927663742701213,93.94127042626612L31.93921778265635,95.58403522947107L31.95077182261149,93.43803112081473L32.01720755235354,61.35586399805825L32.04898116223018,109.63792742148284L32.07208924214045,97.40006772192059L32.138524971882504,78.71886615250679L32.18185262171428,89.06255227737117L32.50825425044695,75.2346480827941L32.5573589202563,147.9890184635767L32.57757849017779,149.7998364382707L32.63534868995349,165.7990504894354L32.64401421991984,166.4825357358336L32.733558029572166,133.62812153870786L32.7855512093703,152.30245988254634L32.84043289915721,142.04642366642574L32.84620991913478,119.36649216140574L33.05995965830485,98.9375069348722L33.17261154786746,76.17464159231383L33.24482429758708,67.54948414627894L33.27082088748614,97.6527801228524L33.33147959725062,107.06586653856549L33.374807247082394,84.68542472610783L33.42680042688052,56.91110108414224L33.43257744685809,47.262019397948926L33.49034764663378,26.00047506447661L33.5827799662749,110.19990673576865L33.65499271599452,168.04501230242025L33.6781007959048,143.85244888582972L33.72142844573657,121.14882199865588L33.758979075590766,68.66772981054484L33.8109722553889,143.35749146151946L33.851411395231885,123.61352516307696L33.883185005108515,99.4229938747294L33.891850535074866,69.44116548822603L34.06804964439074,65.05284206060522L34.10271176425616,30.246051068539654L34.27024534360568,186.77805231305084L34.33956958333651,118.76962158860863L34.36845468322436,55.39777901580996L34.408893823067345,56.41414987363135L34.423336373011274,70.08699884906589L34.43489041296641,56.56920509277385L34.49554912273089,102.98036856118887L34.52443422261874,91.08923595032734L34.54465379254023,82.46239145443037L34.59953548232715,13.999262450114061L34.83928181139628,117.11627438172334L34.949045190970104,18.634777024572585L34.9692647608916,9.176983787514287L35.064585590521496,140.121844852168L35.1772374800841,61.71788956164468L35.22923065988223,59.57894038877524L35.24078469983737,75.41232510690547L35.28411234966914,67.80821624785501L35.315885959545774,28.010710001277456L35.376544669310256,172.31543394990672L35.5383012286822,121.21323662975367L35.56140930859248,80.66211754137441L35.76071649781863,22.86214055853359L35.87625689737002,37.84578893476562L36.01779388682048,212.52093786881252L36.05534451667467,194.9880037828013L36.22865511600176,107.5262777827453L36.3557495555083,122.71850686919872L36.44529336516062,54.842969663438026L36.49439803496997,138.0188221729525L36.62726949445406,124.43826249338245L36.65615459434191,131.87021558241563L36.66770863429705,112.74041211785656L36.75725244394938,78.6433706711785L36.835242213646566,97.79387883859042L36.85835029355685,105.94831103106134L36.93345155326525,113.49264464613474L36.94789410320917,113.62741692488991L37.031660892883934,79.45545512751835L37.12409321252505,148.7782894047361L37.311846361796064,133.58885928737206L37.37250507156054,92.20844016565125L37.41294421140353,94.95775631021445L37.42449825135867,88.30460678478728L37.450494841257736,84.25438348634519L37.54870418087641,231.17476322000977L37.612251400629674,165.94973471575338L37.61513991061846,156.1837864845684L37.67291011039416,156.83280223492085L37.72490329019228,171.63509275097874L37.75667690006892,102.35642850651378L37.80000454990069,125.24394382865485L37.823112629810964,125.31993775653329L37.846220709721244,126.85910236138932L37.875105809609096,127.2990006129279L37.95598408929507,87.03598363054193L37.99931173912684,73.4762436799517L38.11774064866702,113.35978946949557L38.35459846774737,56.46012198237316L38.43547674743335,62.60332234494291L38.45858482734362,50.485051475377055L38.49902396718661,30.63246217104169L38.579902246872585,46.58156317289401L38.60589883677165,55.94108575548587L38.6723345665137,56.750026164355475L38.83409112588564,139.24580586923824L38.868753245751066,147.5307543737668L38.96985109535853,39.68045565978271L39.137384674708045,1.2146452270670813L39.30202974406878,93.08493925308886L39.33091484395663,101.29205341170763L39.57932670299212,96.50025667275234L39.65442796270053,79.55303562522302L39.67175902263324,35.99720404838634L39.78152240220706,110.02058100383749L39.79307644216219,156.56091881282896L39.888397271792094,19.610850395915545L39.90283982173602,35.642923577348554L40.16569423071543,47.577152643777886L40.19746784059207,25.07033545983316L40.25812655035654,47.02042618928994L40.50076138941447,88.45295214652378L40.50364989940326,85.03556425657503L40.58741668907801,29.419741714499057L40.7982779182593,92.87693367350231L40.87626768795649,76.63884869868333L40.90804129783312,62.171514264333865L41.00913914744059,66.25551690206L41.014916167418164,79.40653068151789L41.03224722735087,76.55879051431896L41.069797857205074,80.52374111064115L41.21422335664431,122.29183662226058L41.2546624964873,90.35452573538946L41.289324616352715,98.41682200016518L41.30665567628543,90.72176581673145L41.37309140602747,35.28028454108498L41.549290515343344,0.9103627792147194L41.58395263520877,32.08202142299563L41.66771942488353,139.6728978786419L41.72260111467044,173.44322678271033L41.85547257415453,103.96215489683752L42.05477976338069,104.87162814067044L42.069222313324616,101.99037702848373L42.181874202887215,158.3779098563365L42.19920526281992,158.46115043021342L42.33207672230403,9.661512176313462L42.35229629222552,15.840217270071642L42.39562394205729,24.046257851505437L42.40717798201243,3.5774352430013194L42.43028606192271,37.68314199124373L42.55449199144046,157.71881014885386L42.704694510857266,100.01334630033206L42.776907260576884,40.891795802801816L42.78846130053203,28.95449937298688L42.92710977999369,58.91025517071258L43.019542099634805,129.44891560990092L43.15819057909648,92.87225594433924L43.17552163902919,122.95143477629335L43.50770028773943,63.15544775435243L43.76766618673007,45.604301198239135L43.799439796606705,84.66855422748698L43.84276744643847,80.98649121940252L43.96697337595622,-23.512214549254114L44.07384824554125,38.67382368071063L44.29915202466646,53.9950737395712L44.33670265452067,103.27736602100042L44.52445580379168,135.84866257763449L44.5966685535113,90.05860185276288L44.63710769335429,42.51776679147057L44.75553660289446,128.72394427371233L45.067495681683226,65.49488746651373L45.194590121189755,73.56094125143682L45.23214075104396,121.90573225609712L45.40256284038226,108.32896843871674L45.437224960247676,103.66891495717334L45.451667510191605,83.652950210512L45.610535559574764,227.859901951225L46.15935245744387,35.348149955991566L46.21423414723078,45.82599488693399L46.222899677197134,81.80505548089447L46.28066987697283,76.0802051420794L46.32399752680461,40.38763628833474L46.41065282646815,32.4456190103172L46.50597365609805,-1.337669504055437L46.543524285952245,78.50848336629637L46.55507832590739,48.737191134172704L46.907476544539136,22.68829773865422L46.91903058449428,7.318468312174092L46.97391227428118,0.8499740625605449L47.138557343641914,24.602255807189287L47.323421982924145,48.924070248440906L47.33786453286807,45.26719796216075L47.43896238247554,9.512476657815215L47.464958972374596,29.41272512075447L47.551614272038144,101.6926510698681L47.6353810617129,78.87553173742674L47.85490782086055,128.08075651379255L48.293961339155835,-6.019808001975233L48.32284643904368,-13.164885930369362L48.38350514880816,121.91757994717402L48.81678164712588,96.48085559933837L48.97276118652026,84.25821769057718L49.325159405152,85.72591272854855L49.478250434557594,173.70123038548235L49.49269298450152,203.24369730903962L49.553351694266,138.92982909847822L49.616898914019266,99.98006540759822L49.767101433436075,75.30887827672582L49.8941958729426,66.74667846418056L49.91152693287531,44.356957877481435L50.04439839235942,205.81652503280338L50.10216859213511,167.71051632521966L50.36791151110331,77.36546874269169L50.40546214095752,101.22875069983715L50.549887640396754,-20.55876537137866L50.604769330183665,66.46271729875784L50.61343486015002,63.04540609289373L50.63943145004908,107.22188030876599L50.77807992951075,46.82994292304365L50.87628926912944,71.35466345225325L50.97449860874812,11.031741742707114L51.07848496834438,65.46823974710125L51.12181261817614,48.57350895550817L51.185359837929404,25.61525256528651L51.24890705768267,-15.562452178687916L51.309565767447154,-18.038926350101253L51.36155894724528,58.94598995415493L51.40777510706584,102.46045046732822L51.43088318697612,63.66363318326313L51.51753848663966,20.265272374235103L51.543535076538724,49.66526026853087L51.54931209651629,40.29764751500946L51.92481839505831,-1.5488574731545717L52.32920979348819,-29.203515601039097L52.41875360314051,28.218868949033315L52.441861683050796,30.304407656950872L52.50829741279284,11.292544314568472L52.531405492703115,21.754553982032675L52.802925431648895,84.29126853105713L52.94735093108813,13.999300792156365L53.022452190796535,82.95869085022184L53.04556027070681,80.84443395260654L53.06289133063952,88.63576700430605L53.08888792053858,71.0100068338378L53.3892929593722,42.56481247739734L53.501944848934805,42.70161688439548L53.51349888888995,71.91936505154378L53.72724862806002,68.84513844035997L53.837012007633845,35.86833644414846L53.87167412749926,57.80416393386216L53.88900518743197,65.37894113053773L53.90055922738711,79.24952001821707L54.01032260696093,45.55940266668229L54.03631919686,68.53046529903885L54.065204296747844,60.06484909109795L54.21829532615344,15.264894925058444L54.26162297598521,-62.27506078382362L54.42049102536838,71.99064290821686L54.44937612525622,66.14374984869688L54.69489947430293,53.10921919380747L54.726673084179566,26.628824454018506L54.73533861414592,27.681773620213267L54.738227124134696,16.517644473783268L54.93175729338328,52.90834523409242L55.105067892710366,40.76887121512355L55.12817597262065,59.92566747747596L55.1570610725085,58.41947702901522L55.18016915241877,53.789522050693115L55.365033791701,125.6673933440381L55.42569250146548,52.42385518733557L55.53834439102808,42.141362962014085L55.55278694097201,68.76462015148775L55.65677330056827,18.266693418299557L55.70298946038882,26.96742302974738L55.821418369929,163.23642174892876L55.9716208893458,51.26546540476051L55.988951949278515,21.767743644590805L56.18825913850466,52.93085201293432L56.26047188822428,24.806848945009378L56.36156973783176,39.49564701579979L56.36734675780932,48.74267404622448L56.459779077450435,181.21316497479523L56.468444607416785,186.73629782896424L56.523326297203695,122.77479298732463L56.82373133603732,189.07451059577127L56.843950905958806,205.36148167454837L57.01148448530833,52.79746004770268L57.086585745016734,92.54914755370771L57.14435594479243,75.72151533617479L57.202126144568126,75.90824108227372L57.49675416342417,66.4582312798064L57.79138218228022,46.24288791308051L57.86359493199984,75.35853122153037L57.883814501921336,60.75117164862786L57.88959152189891,76.66407776252998L58.60883050910632,57.66038127516176L58.86879640809695,87.12777447985627L59.12298528711001,75.9003809635981L59.458052445809045,41.83079241922123L59.521599665562306,42.77715070776609L59.668913674990335,66.94218453797077L59.70935281483332,110.20469949105868L59.71512983481089,133.12848638523454L59.7700115245978,125.62337667945461L60.12529825321833,25.163621648797964L60.139740803162255,40.96890164990756L60.2437271627585,37.449753979641244L60.246615672747296,37.05226202690871L60.25816971270244,22.826405775091242L60.3390479923884,43.016136657547314L60.821429160515464,42.3540079287214L60.850314260403316,43.593414446718825L60.922527010122934,56.705242658925584L60.94274658004443,4.109929526742958L60.95430061999957,18.133186426940966L61.07272952953974,42.69904796756004L61.162273339192076,49.87456947755633L61.26048267881076,8.31566814883541L61.436681788126634,101.89367839775241L61.43957029811541,94.5480332459818L61.47134390799204,99.9186031137591L61.48289794794719,95.62084359009839L61.56955324761073,67.71259119430869L61.7833029867808,1.4137554528353968L61.81796510664622,28.17220668352976L61.898843386332196,62.48538222276626L62.118370145479844,31.97324504893349L62.25701862494151,103.52421208945725L62.33211988464991,69.40033121315511L62.49098793403308,58.615213155059365L62.58342025367419,146.43474709404657L62.65563300339381,44.09262783772662L62.69896065322558,9.886656648817139L62.75095383302371,22.639603344907687L62.82316658274333,-3.707936218242085L62.849163172642385,6.705340713433263L62.87515976254145,66.58134757769626L63.24200053111712,79.6630006025971L63.27666265098254,67.93785069293929L63.3026592408816,67.64092991721239L63.33732136074702,39.00452379572155L63.340209870735805,36.74579408264409L63.464415800253555,76.35435074466815L63.46730431024233,70.50649913409018L63.496189410130185,79.23955108721384L64.20387435738246,38.77796066765204L64.46384025637309,82.92786384819647L64.46961727635066,77.06628578646789L64.7815763551394,102.25394022739214L65.89076419083277,45.776150231917846L66.25182793943087,70.91756416980405L66.25471644941966,59.70815307139401L66.48002022854487,19.63665459039696L66.52334787837664,35.01453584576432L66.55223297826448,33.30524759913399L66.58111807815234,96.8953330768187L66.60422615806262,113.26155715707146L66.6648848678271,135.37605856399685L67.24258686558406,-20.425948536781814L67.2916915353934,49.63178766558543L67.29458004538218,45.611317791983716L67.33501918522516,28.83851469496856L67.35523875514666,18.63573557563058L67.40145491496722,-16.593047934210073L67.57765402428309,61.14260555867381L67.75674164358774,87.93092524033553L67.76251866356532,79.89002383517443L67.77984972349802,63.621648646922615L67.8029578034083,33.59196939160374L67.81451184336345,35.20014967263596L67.87805906311671,9.249220195245357L67.89250161306063,19.867090264740796L67.92138671294849,35.992641345350236L68.06003519241015,74.39511072415304L68.38932533113162,50.87874756591991L68.5077542406718,44.29058780222532L68.52219679061572,84.85255768858116L68.53663934055965,76.17958771577311L69.08834474841754,98.45140652233792L69.09123325840632,87.36304125153244L69.09989878837268,61.16986675076341L69.1721115380923,17.56162160207513L69.2472127978007,-2.2808454030877425L69.49851316682498,148.80719930464545L69.64871568624179,42.63750898963626L69.65160419623056,51.7263750954905L70.22064066402118,79.37662388850822L70.28707639376323,37.47690014560388L70.73190693203608,47.6587828518774L70.74057246200243,33.53476306446213L70.75212650195758,23.19817021742699L70.76368054191272,27.85922059207073L70.78101160184542,57.473272108639634L70.81856223169963,46.952023985790866L70.95143369118372,10.250829366773507L70.99476134101549,60.593739222861494L71.00342687098185,65.28887567312779L71.07852813069026,41.62347699639641L71.1276328004996,14.76748361003971L71.17962598029773,-0.17954811577662952L71.52335866896311,74.43103721780699L71.54646674887339,95.50922990490454L71.82376370779673,45.34284681165833L72.39857719556491,12.153361506697179L72.81452263394992,77.67243513350645L73.02827237311999,57.2954800584013L73.11781618277232,62.4509510687628L73.18425191251437,100.02300849499674L73.20735999242466,108.09251306372866L73.2362450923125,88.03609746241959L73.25068764225642,90.71448082869063L73.26801870218912,93.36261232357107L73.69551818052928,34.194706296875815L73.70418371049564,56.13643846110682L73.88038281981152,64.72359894320246L73.900602389733,45.08898414945689L73.93237599960962,74.34917695745355L74.1461257387797,28.535420850428114L74.94046598569552,104.95011430129968L74.98379363552729,79.36769019264763L75.04734085528057,67.23810842059737L75.18021231476466,71.91342203498415L75.21487443463008,41.196768407415945L75.25531357447306,9.461290031317878L75.68859007279079,62.231864638945716L75.70880964271228,58.05511260084725L75.94277895180385,103.44775805707097L75.94566746179262,101.48537398908559L75.9514444817702,102.47172302777034L75.95722150174777,109.36661913002578L75.9687755417029,134.80913312625177L76.58980518929164,3.7670366422742467L76.60713624922435,59.13306077863473L76.63024432913463,49.425430793818606L76.66779495898884,39.549057480751706L76.80066641847293,80.51442399435736L77.29171311656634,77.03319660394563L77.30904417649906,106.77212815235113L77.54012497560183,95.17132148593747L77.77987130467096,31.653242363729895L77.90985425416628,76.09627045781151L78.04850273362796,10.147229168424575L78.75618768088023,61.4823927377146L78.76774172083537,69.90015807684001L78.78507278076808,84.36649561808917L79.04503867975872,26.525569334050466L79.17502162925402,49.56143001792802L79.1779101392428,56.70520431688326L79.25301139895122,47.75640169162438L79.33677818862597,46.43751211989736L79.34833222858111,75.06460112510442L79.71806150714558,111.27578444327082L79.76138915697734,83.67952124583984L79.95491932622592,73.39074092557786L80.03002058593432,21.915897296115684L80.16289204541843,43.334720687185076L80.23799330512682,-9.900751183574062L80.42285794440906,-38.00247752491103L80.5095132440726,7.439054035270822L80.5470638739268,-18.952540534504752L80.6019455637137,44.978750777786594L80.72326298324268,-17.001083948580625L80.74059404317538,-1.0572741485685067L80.7550365931193,0.5181236862800319L80.77814467302957,53.195642157196986L80.78681020299594,54.12049056000026L80.89368507258096,25.348161898484637L80.9254586824576,27.7937707258303L80.95434378234545,41.132353776318176L81.09588077179592,53.579637711032845L81.10454630176226,38.25926951914565L81.2114211713473,36.020324299905354L81.31829604093234,38.42747605880395L81.40206283060711,15.967129430151191L81.99998439828555,41.10666460796371L82.86653739492098,15.981622722148185L83.02251693431536,101.58291614474795L83.0369594842593,139.92860095887468L83.47601300255457,57.11987350457522L83.53667171231905,89.81041381282483L83.54244873229662,79.33019167525856L83.65221211187044,37.12277304273537L83.68687423173587,23.41073850004966L83.69265125171344,5.502780898105458L83.83707675115268,87.07831324526335L83.88040440098445,83.0253676618165L85.33332492534319,90.99541297277004L85.34776747528711,94.00307779848615L85.5586287044684,51.26343327651754L85.58462529436748,14.383756450500073L85.59617933432261,32.596264894592906L85.68572314397494,74.58946653667365L85.74638185373942,82.03944038559729L85.7492703637282,79.02410715141716L86.32697236148516,141.7726614842602L86.76313736979166,105.9659483705286L86.9277824391524,76.74363750034419L86.93644796911875,71.95310604878547L86.93933647910754,79.54575063718221L87.02599177877109,34.126495803588334L87.23685300795238,101.32771151106533L87.36683595744768,30.51298836717225L87.43038317720097,92.68771569465257L87.47659933702151,66.89858963585283L90.98902748338382,-23.088228245278366L91.12767596284549,32.83651613177069L91.25477040235201,105.0466212218194L91.91623918978374,63.73115351978885L91.93357024971645,94.79833009824745L92.17909359876315,75.94167534317684L92.3032995282809,13.155469124775477L92.43039396778742,28.424995768546218L92.53438032738367,48.6332841994852L94.00463191167513,19.811839381757522L94.19527357093494,57.20326744662146L94.221270160834,41.379544923155905L94.22993569080035,41.58820231746191L94.24726675073305,84.07275723187485L94.66610069910685,-28.594183864487977L94.98961381785075,19.676223578071326L95.22358312694232,14.691067919695731L95.2264716369311,35.946975972946994L95.26113375679651,3.4704609449282176L95.5673158156077,70.99390317606338L95.65685962526003,57.48715192795951L96.13057526342074,44.17352954702205L97.13866524950663,79.6080947979947L97.42173922840753,52.40203856525542L97.47662091819446,81.99063096572378L97.58638429776828,24.07060504837869L97.5979383377234,45.306076793073345L98.13808970562617,35.10207072838112L98.28829222504298,96.59971593053069L98.80822402302424,45.901183631923715L99.26749711124101,49.910227576914025L100.47778279654186,44.41546783406191L100.65109339586894,42.36171467922774L100.65687041584651,29.671725616626794L100.905282274882,40.70464829423739L101.65340636197725,110.13338329234327L103.14098900620144,118.52710817093396L103.1438775161902,124.94138677270688L103.21031324593226,104.62508880855215L103.21609026590983,116.7409057874095L103.25652940575281,104.07468879104702L103.27674897567431,86.55065005885403L105.1976081182162,132.37564038427925L105.20916215817134,135.42072704329976L105.24093576804798,104.61565666614139L105.30159447781246,74.48302902719304L105.51534421698253,59.02903881782028L105.60777653662365,46.50660448015819L105.6915433262984,91.73974704033026L106.0526070748965,22.953471303340088L106.06127260486284,8.356195687567768L106.40211678353946,97.94755374420937L106.72562990228334,105.71937069636799L106.77762308208148,146.5875784747345L106.80361967198054,114.29372493632873L107.08091663090389,70.47321824135634L108.31719890610377,121.44815832304896L108.65804308478039,30.201497615363706L108.79669156424205,60.09789993157787L109.43216376177469,49.14587896326272L109.45816035167377,37.224226086714374L109.46682588164012,71.83539597886273L109.55348118130367,19.736727320852452L109.602585851113,2.5060052124082546L109.643024990956,35.07868208256586L109.9260989698569,107.23806065062507L109.93765300981204,110.78861045355154L110.04741638938586,28.831498101223975L110.058970429341,27.520622016341857L110.07052446929613,28.909332447133792L110.74065878669421,105.13519133957884L110.76665537659328,78.01337257381682L110.77532090655961,48.113826210132416L110.8013174964587,31.550792426650553L111.77185685269038,28.757421275461546L111.9191708621184,62.124928682914934L112.8521595884959,65.54511554195307L113.11212548748652,26.823678713089286L113.14101058737437,51.36895057698248L113.71582407514254,83.65375539340073L113.73026662508646,92.91071301278632L113.75626321498554,105.63720369967598L113.78225980488459,80.46174202820954L113.9151312643687,50.62802895118873L113.96134742418926,83.18460216357188L113.98156699411074,94.48649426805804L113.99312103406588,94.26207829435845L114.01911762396495,65.56102748951591L114.3686273326079,23.866472015066446L117.63264361993473,82.44364219573583L117.65864020983378,82.7240758932651L117.96193375865619,6.197462020861147L118.03992352835337,53.760305414445185L119.79036058155695,47.24319345516975L120.18608645002048,107.55499597244307L122.7250867301623,44.730179317425346L122.84929265968005,61.46851291839472L122.88684328953426,127.46559678680876L122.92439391938846,111.94377950457171L122.96194454924265,60.56007490970445L123.02260325900714,36.03520101232555L123.76495032612482,29.57889953216981L123.82272052590052,33.9376229031195L123.89204476563135,67.47203322079233L124.09712897483509,70.79705513079195L124.37153742376962,107.843174762521L124.42353060356776,38.75760104318007L124.48996633330981,28.428638262566633L124.54484802309672,-34.09856745996244L124.5477365330855,-33.548704231049804L124.60261822287242,6.394540118386485L125.28719509021441,57.97858188437632L125.4027354897658,34.165604686754854L126.45415312568348,49.77346151195822L126.52925438539188,19.65321835267926L126.57258203522365,30.83812888604675L126.6592373348872,54.04399818557165L126.72567306462925,36.93669911135591L126.73722710458438,78.27919795322214L127.35247973219555,19.9488738410096L128.9180521461169,67.81101521694438L129.9030340522925,53.411086092993656L137.08098137442272,44.66702997372413L137.22540687386194,57.40575177211392L137.25718048373858,26.64143898594184L137.26295750371614,12.820091280601499L137.27740005366007,17.768975366942275L137.3265047234694,18.022646318932097L137.3640553533236,13.519373448435598L138.89207713739077,63.243442741477075L138.90074266735712,66.79732830208542L138.90940819732347,62.144559808582834L139.4380055252711,39.53234035030013L139.62287016455332,55.80435803257237L139.74418758408228,101.6737867850466L139.74707609407108,109.23046653774709L139.79906927386918,60.27135933103404L139.87128202358883,19.723767710548245L140.15146749250093,50.51936760325356L140.73494651023546,118.30204038251496L141.00357793919244,31.031986252017212L141.02090899912517,33.52061485084603L141.03824005905787,71.44840974572591L141.15666896859807,49.38218097008152L141.25487830821672,17.26194019930118L141.52062122718493,70.51880692967495L141.52928675715128,78.74026101212141L141.5437293070952,99.01572470120524L141.56106036702792,74.43498644816596L141.9654517654578,39.40086548718448L142.8377817820708,123.98387094984687L142.8955519818465,45.834085057863525L142.94754516164463,60.39884662174839L142.95043367163342,47.91647971831083L143.08041662112873,23.762795132632885L143.2363961605231,47.217926049280806L143.26816977039974,46.913451891216845L143.28261232034365,27.379561642646188L143.41259526983896,-13.460886497080576L143.46169993964833,36.40148254260954L148.56280857984225,90.19674823124222L148.56569708983102,95.25199314297896L148.5859166597525,87.99077716839723L148.63502132956188,75.93684424584451L148.73323066918056,63.97903482338832L148.76789278904596,46.964600175671855L148.80833192888898,61.82079960323185L148.84010553876558,95.91596228983623L151.3097815791766,24.35682839429829L151.40510240880647,15.394222633804167L151.43398750869432,43.89186890413854L153.814119739453,85.32934098483167L153.84589334932966,71.7626611245815L153.86900142923992,98.17407853023657L153.8747784492175,71.04048875748231L153.88633248917262,61.3576660740473L154.1751834880511,88.15925210235177L154.18096050802868,107.6829817097076L154.24161921779316,141.66143121948957L154.37737918726603,48.40863817353171L154.4611459769408,59.625679338363454L158.68125907055537,61.12937755407338L158.71014417044321,46.14795301629592L158.72169821039833,50.36941187573963L163.26532442275683,39.261913925816415L163.29420952264468,67.61259514793784L163.3866418422858,51.95769263680771L163.41263843218485,67.69284504251381L163.42419247214,60.084825295146715L163.5224018117587,-0.9387588957570581L163.8228068505923,46.919701644115015L163.85169195048016,90.65060298618532L171.23472348181406,58.359855153207455L171.2838281516234,80.48267678331632L173.04004222480455,56.95024830935106L173.0458192447821,66.53211639535724L173.95281138126055,94.751322754363L173.9614769112269,73.25470335942612L174.01058158103623,21.55126447365147L174.1145679406325,32.863470587521725L174.14056453053158,16.802870926602548L174.9724554073016,56.111631159725704L175.60503909484544,85.2328724063543L175.73502204434078,31.168598948803748L175.7494645942847,51.49183682261841L176.91353411976496,82.54900612803148L178.08049215523403,85.52174135319399L181.72868027106924,44.44192384326279L181.7662309009234,37.94812384571797L181.87021726051967,37.77681160063175L181.89043683044113,40.279166650611174L182.1128520995776,91.41100236947767L182.26883163897196,36.4698847461086L182.33237885872524,33.01311957869709L186.85000848118463,46.27359988897891L186.87022805110612,44.45028240848857L190.012926918904,70.65726004449284L190.02159244887034,67.36087964010633L190.03603499881424,64.58717795662753L190.06203158871332,55.78656732493585L190.08225115863482,54.05653603341032L190.09380519858996,60.37883207565729L190.10535923854508,57.718201074980485L190.13135582844416,6.946243765330498L190.14868688837686,20.581249144995105L190.3364400376479,86.58040348369444L190.34510556761424,69.17307792832385L190.3508825875918,74.41777087116424L190.59351742664975,24.08628694368762L190.59640593663852,14.246913701459615L190.6021829566161,14.623624267254668L190.657064646403,33.12795399544582L190.66573017636935,46.69674266802359L190.67150719634694,39.46968945314908L190.72061186615628,40.456728648595586L190.77549355594317,47.26834583493174L190.78127057592073,64.62946922930661L190.9025879954497,57.45291248416767L190.9054765054385,50.922917598672676L190.97480074516932,24.645697341137968L190.98057776514688,20.485125644898606L190.98346627513567,20.51725627636284L190.9979088250796,27.5489184435741L195.20357936875027,104.36405618443688L195.22668744866053,123.82455976400682L195.24112999860446,80.90608795665726L195.31334274832406,0.7626308901553588L198.2885080367724,72.31808394963056L198.46181863609948,16.466687899539853L199.0366321238677,4.11476062407529L199.06551722375553,29.041305756799595L199.08573679367703,31.155370944203316L199.09729083363214,-8.016316487625478L199.21283123318355,48.179429444542116L199.21860825316114,36.99206502046613L199.30237504283585,44.51113122965059L199.4294694823424,-9.351386401211558L199.49590521208447,0.44423857072918L199.51323627201714,4.828574425948706L200.42600542847316,145.53995885242225L200.4346709584395,125.42039390741198L201.44853796450298,84.84830172188363L201.62184856383007,47.31431794367355L201.8818144628207,53.29038534376997L201.9135880726973,69.35374563173617L202.93900911871594,17.08564348871333L202.9621171986262,35.531194866027754L202.98811378852528,12.120924138894372L202.9938908085028,3.5034734433658397L203.01122186843554,12.776688088695144L203.02566441837948,35.44181956537959L203.04299547831218,26.49202004702037L203.13542779795327,88.83986169557599L204.30816285339992,85.61483583194719L204.46991941277187,20.832159469937878L204.49302749268213,53.51595157873915L205.50111747876804,73.49441780801142L205.51556002871195,53.1655436539757L205.6368774482409,73.69981612872023L205.66576254812878,107.20021705485512L205.84485016743344,13.244921109508288L205.8621812273661,15.709854326183278L206.57853170458475,11.24212452891753L206.65074445430437,62.04824459827473L207.33532132164635,52.75037601973358L207.9216888493697,65.57103476256145L207.9736820291678,63.72290998069002L211.65075524489086,23.699569104847036L211.6796403447787,50.40119742882299L211.70274842468896,55.474731494746415L212.26023085252442,81.3739758990895L212.34977466217677,-27.909394988650895L212.3613287021319,-4.748615930894428L212.4364299618403,34.043025177457466L212.71083841077487,11.639118035099902L212.7830511604945,12.793405219146715L212.8148247703711,5.5721033106202045L212.83215583030383,5.331890415484737L212.83504434029263,14.41404666393297L212.8379328502814,9.595448837395914L212.9303651699225,29.750441829509978L213.28276338855423,68.85959339031464L231.87321367637318,29.50183202710641L231.8992102662722,32.07791882446739L233.53988393990198,57.37227916916848L233.58321158973374,38.5173881480446L236.71724492756525,73.16291251011178L236.8385623470942,97.61857902110286L236.91077509681384,58.59301311255604L240.4463113230864,8.380006095848552L240.46075387303034,-7.66280285743409L240.47519642297425,1.7742473347290257L241.31286431972185,93.88371902074365L241.32152984968823,82.85808133117388L241.38507706944148,72.78198431966155L241.41396216932932,70.92484915784486L241.43418173925085,57.6501439498623L241.65659700838725,46.52692576258785L246.51507080952328,104.97062729394096L249.8484113365809,92.70615821700855L249.85996537653605,96.75780017101648L249.94950918618838,60.0391982647858L250.04771852580706,53.769124084178806L251.13090977160138,58.90105308055576L251.2724467610518,46.83657609636502L251.35910206071534,27.203610010439235L251.39954120055836,-13.289037463401842L251.6161794497172,84.22263627530413L251.68839219943683,-64.37198707831023L251.75771643916767,-28.516349518578142L251.80104408899945,33.71167324772712L251.9021419386069,36.49005266036899L251.91658448855082,31.59519251165725L251.9628006483714,38.37755471970317L251.98013170830407,34.87190344833353L252.03790190807976,20.708237989159304L252.40763118664424,65.79318855576415L255.40590455500285,55.69251429512463L255.64565088407198,44.74540110822643L255.67164747397103,4.972318742606778L255.69475555388132,-27.953449995276674L255.74386022369066,14.787268103876881L256.05004228250186,5.6533500982965155L256.06737334243456,26.702134438934564L256.0818158923785,28.00756595380721L256.2984541415373,84.7988404872907L256.3215622214476,86.98399182115588L256.35911285130186,46.08043267977021L256.42843709103266,29.269670960858146L257.91890824524563,26.746802918237485L258.42150898329413,-14.815012405699756L258.531272362868,24.097559504129745L258.6612553123633,55.874025523468006L260.1199528566996,105.45994843803014L260.1372839166323,88.71340964000427L262.49719657746954,3.9108576430169655L262.52897018734615,27.306596736111025L262.6127369770209,29.548992739160134L263.25109768454234,85.91359702570547L263.36374957410493,37.85755994175789L263.4244082838694,31.844147392441688L263.4532933837573,-20.706228866141775L263.4879555036227,14.463622924652869L263.5023980535666,17.5514609608603L263.5168406035105,35.76600153319609L263.886569882075,7.236953130201535L264.65780204908054,15.968854822055599L264.67802161900204,10.665115134042248L264.79933903853095,39.71580702280184" fill="none"></path></g></g></g></g></g></g><g transform="translate(41, 176)" clip-path="url(#clip_1)"><clipPath id="clip_1"><rect width="288" height="23"></rect></clipPath><g><g><line x1="0" y1="0" x2="0" y2="5" style="visibility: inherit;" fill="rgb(0, 0, 0)" stroke="rgb(204, 204, 204)" stroke-width="1px"></line><line x1="24.07091657320658" y1="0" x2="24.07091657320658" y2="5" style="visibility: inherit;" fill="rgb(0, 0, 0)" stroke="rgb(204, 204, 204)" stroke-width="1px"></line><line x1="48.14183314641316" y1="0" x2="48.14183314641316" y2="5" style="visibility: inherit;" fill="rgb(0, 0, 0)" stroke="rgb(204, 204, 204)" stroke-width="1px"></line><line x1="72.21274971961975" y1="0" x2="72.21274971961975" y2="5" style="visibility: inherit;" fill="rgb(0, 0, 0)" stroke="rgb(204, 204, 204)" stroke-width="1px"></line><line x1="96.28366629282633" y1="0" x2="96.28366629282633" y2="5" style="visibility: inherit;" fill="rgb(0, 0, 0)" stroke="rgb(204, 204, 204)" stroke-width="1px"></line><line x1="120.35458286603293" y1="0" x2="120.35458286603293" y2="5" style="visibility: inherit;" fill="rgb(0, 0, 0)" stroke="rgb(204, 204, 204)" stroke-width="1px"></line><line x1="144.4254994392395" y1="0" x2="144.4254994392395" y2="5" style="visibility: inherit;" fill="rgb(0, 0, 0)" stroke="rgb(204, 204, 204)" stroke-width="1px"></line><line x1="168.4964160124461" y1="0" x2="168.4964160124461" y2="5" style="visibility: inherit;" fill="rgb(0, 0, 0)" stroke="rgb(204, 204, 204)" stroke-width="1px"></line><line x1="192.56733258565265" y1="0" x2="192.56733258565265" y2="5" style="visibility: inherit;" fill="rgb(0, 0, 0)" stroke="rgb(204, 204, 204)" stroke-width="1px"></line><line x1="216.63824915885925" y1="0" x2="216.63824915885925" y2="5" style="visibility: inherit;" fill="rgb(0, 0, 0)" stroke="rgb(204, 204, 204)" stroke-width="1px"></line><line x1="240.70916573206586" y1="0" x2="240.70916573206586" y2="5" style="visibility: inherit;" fill="rgb(0, 0, 0)" stroke="rgb(204, 204, 204)" stroke-width="1px"></line><line x1="264.7800823052724" y1="0" x2="264.7800823052724" y2="5" style="visibility: inherit;" fill="rgb(0, 0, 0)" stroke="rgb(204, 204, 204)" stroke-width="1px"></line><line x1="288.850998878479" y1="0" x2="288.850998878479" y2="5" style="visibility: inherit;" fill="rgb(0, 0, 0)" stroke="rgb(204, 204, 204)" stroke-width="1px"></line></g><g transform="translate(0, 8)"><text style="text-anchor: middle; visibility: hidden; font-family: Roboto, sans-serif; font-size: 12px; font-weight: 200;" x="0" y="0" dx="0em" dy="0.95em" fill="rgb(33, 33, 33)" stroke="none" stroke-width="1px">-200k</text><text style="text-anchor: middle; visibility: inherit; font-family: Roboto, sans-serif; font-size: 12px; font-weight: 200;" x="24.07091657320658" y="0" dx="0em" dy="0.95em" fill="rgb(33, 33, 33)" stroke="none" stroke-width="1px">0</text><text style="text-anchor: middle; visibility: hidden; font-family: Roboto, sans-serif; font-size: 12px; font-weight: 200;" x="48.14183314641316" y="0" dx="0em" dy="0.95em" fill="rgb(33, 33, 33)" stroke="none" stroke-width="1px">200k</text><text style="text-anchor: middle; visibility: inherit; font-family: Roboto, sans-serif; font-size: 12px; font-weight: 200;" x="72.21274971961975" y="0" dx="0em" dy="0.95em" fill="rgb(33, 33, 33)" stroke="none" stroke-width="1px">400k</text><text style="text-anchor: middle; visibility: hidden; font-family: Roboto, sans-serif; font-size: 12px; font-weight: 200;" x="96.28366629282633" y="0" dx="0em" dy="0.95em" fill="rgb(33, 33, 33)" stroke="none" stroke-width="1px">600k</text><text style="text-anchor: middle; visibility: inherit; font-family: Roboto, sans-serif; font-size: 12px; font-weight: 200;" x="120.35458286603293" y="0" dx="0em" dy="0.95em" fill="rgb(33, 33, 33)" stroke="none" stroke-width="1px">800k</text><text style="text-anchor: middle; visibility: hidden; font-family: Roboto, sans-serif; font-size: 12px; font-weight: 200;" x="144.4254994392395" y="0" dx="0em" dy="0.95em" fill="rgb(33, 33, 33)" stroke="none" stroke-width="1px">1M</text><text style="text-anchor: middle; visibility: inherit; font-family: Roboto, sans-serif; font-size: 12px; font-weight: 200;" x="168.4964160124461" y="0" dx="0em" dy="0.95em" fill="rgb(33, 33, 33)" stroke="none" stroke-width="1px">1.2M</text><text style="text-anchor: middle; visibility: hidden; font-family: Roboto, sans-serif; font-size: 12px; font-weight: 200;" x="192.56733258565265" y="0" dx="0em" dy="0.95em" fill="rgb(33, 33, 33)" stroke="none" stroke-width="1px">1.4M</text><text style="text-anchor: middle; visibility: inherit; font-family: Roboto, sans-serif; font-size: 12px; font-weight: 200;" x="216.63824915885925" y="0" dx="0em" dy="0.95em" fill="rgb(33, 33, 33)" stroke="none" stroke-width="1px">1.6M</text><text style="text-anchor: middle; visibility: hidden; font-family: Roboto, sans-serif; font-size: 12px; font-weight: 200;" x="240.70916573206586" y="0" dx="0em" dy="0.95em" fill="rgb(33, 33, 33)" stroke="none" stroke-width="1px">1.8M</text><text style="text-anchor: middle; visibility: inherit; font-family: Roboto, sans-serif; font-size: 12px; font-weight: 200;" x="264.7800823052724" y="0" dx="0em" dy="0.95em" fill="rgb(33, 33, 33)" stroke="none" stroke-width="1px">2M</text><text style="text-anchor: middle; visibility: hidden; font-family: Roboto, sans-serif; font-size: 12px; font-weight: 200;" x="288.850998878479" y="0" dx="0em" dy="0.95em" fill="rgb(33, 33, 33)" stroke="none" stroke-width="1px">2.2M</text></g><line x1="0" y1="0" x2="288.850998878479" y2="0" fill="rgb(0, 0, 0)" stroke="rgb(204, 204, 204)" stroke-width="1px"></line></g></g></g></g></svg>