<svg viewBox="0 0 330 200" xmlns="http://www.w3.org/2000/svg"><g><g><g><g><g><line x1="51.53200149536133" y1="176.89999961853027" x2="46.53200149536133" y2="176.89999961853027" style="visibility: inherit;" fill="rgb(0, 0, 0)" stroke="rgb(204, 204, 204)" stroke-width="1px"></line><line x1="51.53200149536133" y1="154.787499666214" x2="46.53200149536133" y2="154.787499666214" style="visibility: inherit;" fill="rgb(0, 0, 0)" stroke="rgb(204, 204, 204)" stroke-width="1px"></line><line x1="51.53200149536133" y1="132.6749997138977" x2="46.53200149536133" y2="132.6749997138977" style="visibility: inherit;" fill="rgb(0, 0, 0)" stroke="rgb(204, 204, 204)" stroke-width="1px"></line><line x1="51.53200149536133" y1="110.56249976158142" x2="46.53200149536133" y2="110.56249976158142" style="visibility: inherit;" fill="rgb(0, 0, 0)" stroke="rgb(204, 204, 204)" stroke-width="1px"></line><line x1="51.53200149536133" y1="88.44999980926514" x2="46.53200149536133" y2="88.44999980926514" style="visibility: inherit;" fill="rgb(0, 0, 0)" stroke="rgb(204, 204, 204)" stroke-width="1px"></line><line x1="51.53200149536133" y1="66.33749985694885" x2="46.53200149536133" y2="66.33749985694885" style="visibility: inherit;" fill="rgb(0, 0, 0)" stroke="rgb(204, 204, 204)" stroke-width="1px"></line><line x1="51.53200149536133" y1="44.22499990463255" x2="46.53200149536133" y2="44.22499990463255" style="visibility: inherit;" fill="rgb(0, 0, 0)" stroke="rgb(204, 204, 204)" stroke-width="1px"></line><line x1="51.53200149536133" y1="22.112499952316305" x2="46.53200149536133" y2="22.112499952316305" style="visibility: inherit;" fill="rgb(0, 0, 0)" stroke="rgb(204, 204, 204)" stroke-width="1px"></line><line x1="51.53200149536133" y1="0" x2="46.53200149536133" y2="0" style="visibility: inherit;" fill="rgb(0, 0, 0)" stroke="rgb(204, 204, 204)" stroke-width="1px"></line></g><g transform="translate(41.53200149536133, 0)"><text style="text-anchor: end; visibility: hidden; font-family: Roboto, sans-serif; font-size: 12px; font-weight: 200;" x="0" y="176.89999961853027" dx="0em" dy="0.3em" fill="rgb(33, 33, 33)" stroke="none" stroke-width="1px">0.15</text><text style="text-anchor: end; visibility: inherit; font-family: Roboto, sans-serif; font-size: 12px; font-weight: 200;" x="0" y="154.787499666214" dx="0em" dy="0.3em" fill="rgb(33, 33, 33)" stroke="none" stroke-width="1px">0.2</text><text style="text-anchor: end; visibility: hidden; font-family: Roboto, sans-serif; font-size: 12px; font-weight: 200;" x="0" y="132.6749997138977" dx="0em" dy="0.3em" fill="rgb(33, 33, 33)" stroke="none" stroke-width="1px">0.25</text><text style="text-anchor: end; visibility: inherit; font-family: Roboto, sans-serif; font-size: 12px; font-weight: 200;" x="0" y="110.56249976158142" dx="0em" dy="0.3em" fill="rgb(33, 33, 33)" stroke="none" stroke-width="1px">0.3</text><text style="text-anchor: end; visibility: hidden; font-family: Roboto, sans-serif; font-size: 12px; font-weight: 200;" x="0" y="88.44999980926514" dx="0em" dy="0.3em" fill="rgb(33, 33, 33)" stroke="none" stroke-width="1px">0.35</text><text style="text-anchor: end; visibility: inherit; font-family: Roboto, sans-serif; font-size: 12px; font-weight: 200;" x="0" y="66.33749985694885" dx="0em" dy="0.3em" fill="rgb(33, 33, 33)" stroke="none" stroke-width="1px">0.4</text><text style="text-anchor: end; visibility: hidden; font-family: Roboto, sans-serif; font-size: 12px; font-weight: 200;" x="0" y="44.22499990463255" dx="0em" dy="0.3em" fill="rgb(33, 33, 33)" stroke="none" stroke-width="1px">0.45</text><text style="text-anchor: end; visibility: inherit; font-family: Roboto, sans-serif; font-size: 12px; font-weight: 200;" x="0" y="22.112499952316305" dx="0em" dy="0.3em" fill="rgb(33, 33, 33)" stroke="none" stroke-width="1px">0.5</text><text style="text-anchor: end; visibility: hidden; font-family: Roboto, sans-serif; font-size: 12px; font-weight: 200;" x="0" y="0" dx="0em" dy="0.3em" fill="rgb(33, 33, 33)" stroke="none" stroke-width="1px">0.55</text></g><line x1="51.53200149536133" y1="0" x2="51.53200149536133" y2="176.89999961853027" fill="rgb(0, 0, 0)" stroke="rgb(204, 204, 204)" stroke-width="1px"></line></g></g><g transform="translate(51, 0)" clip-path="url(#clip_0)"><clipPath id="clip_0"><rect width="278" height="176"></rect></clipPath><g><g><g><line x1="0" y1="0" x2="0" y2="176.89999961853027" fill="rgb(0, 0, 0)" stroke="rgb(66, 66, 66)" stroke-width="1px" opacity="0.25"></line><line x1="23.205666542053223" y1="0" x2="23.205666542053223" y2="176.89999961853027" fill="rgb(0, 0, 0)" stroke="rgb(66, 66, 66)" stroke-width="1px" opacity="0.25"></line><line x1="46.411333084106445" y1="0" x2="46.411333084106445" y2="176.89999961853027" fill="rgb(0, 0, 0)" stroke="rgb(66, 66, 66)" stroke-width="1px" opacity="0.25"></line><line x1="69.61699962615967" y1="0" x2="69.61699962615967" y2="176.89999961853027" fill="rgb(0, 0, 0)" stroke="rgb(66, 66, 66)" stroke-width="1px" opacity="0.25"></line><line x1="92.82266616821289" y1="0" x2="92.82266616821289" y2="176.89999961853027" fill="rgb(0, 0, 0)" stroke="rgb(66, 66, 66)" stroke-width="1px" opacity="0.25"></line><line x1="116.02833271026611" y1="0" x2="116.02833271026611" y2="176.89999961853027" fill="rgb(0, 0, 0)" stroke="rgb(66, 66, 66)" stroke-width="1px" opacity="0.25"></line><line x1="139.23399925231934" y1="0" x2="139.23399925231934" y2="176.89999961853027" fill="rgb(0, 0, 0)" stroke="rgb(66, 66, 66)" stroke-width="1px" opacity="0.25"></line><line x1="162.43966579437256" y1="0" x2="162.43966579437256" y2="176.89999961853027" fill="rgb(0, 0, 0)" stroke="rgb(66, 66, 66)" stroke-width="1px" opacity="0.25"></line><line x1="185.64533233642578" y1="0" x2="185.64533233642578" y2="176.89999961853027" fill="rgb(0, 0, 0)" stroke="rgb(66, 66, 66)" stroke-width="1px" opacity="0.25"></line><line x1="208.850998878479" y1="0" x2="208.850998878479" y2="176.89999961853027" fill="rgb(0, 0, 0)" stroke="rgb(66, 66, 66)" stroke-width="1px" opacity="0.25"></line><line x1="232.05666542053223" y1="0" x2="232.05666542053223" y2="176.89999961853027" fill="rgb(0, 0, 0)" stroke="rgb(66, 66, 66)" stroke-width="1px" opacity="0.25"></line><line x1="255.26233196258545" y1="0" x2="255.26233196258545" y2="176.89999961853027" fill="rgb(0, 0, 0)" stroke="rgb(66, 66, 66)" stroke-width="1px" opacity="0.25"></line><line x1="278.4679985046387" y1="0" x2="278.4679985046387" y2="176.89999961853027" fill="rgb(0, 0, 0)" stroke="rgb(66, 66, 66)" stroke-width="1px" opacity="0.25"></line></g><g><line x1="0" y1="176.89999961853027" x2="278.4679985046387" y2="176.89999961853027" fill="rgb(0, 0, 0)" stroke="rgb(66, 66, 66)" stroke-width="1px" opacity="0.25"></line><line x1="0" y1="154.787499666214" x2="278.4679985046387" y2="154.787499666214" fill="rgb(0, 0, 0)" stroke="rgb(66, 66, 66)" stroke-width="1px" opacity="0.25"></line><line x1="0" y1="132.6749997138977" x2="278.4679985046387" y2="132.6749997138977" fill="rgb(0, 0, 0)" stroke="rgb(66, 66, 66)" stroke-width="1px" opacity="0.25"></line><line x1="0" y1="110.56249976158142" x2="278.4679985046387" y2="110.56249976158142" fill="rgb(0, 0, 0)" stroke="rgb(66, 66, 66)" stroke-width="1px" opacity="0.25"></line><line x1="0" y1="88.44999980926514" x2="278.4679985046387" y2="88.44999980926514" fill="rgb(0, 0, 0)" stroke="rgb(66, 66, 66)" stroke-width="1px" opacity="0.25"></line><line x1="0" y1="66.33749985694885" x2="278.4679985046387" y2="66.33749985694885" fill="rgb(0, 0, 0)" stroke="rgb(66, 66, 66)" stroke-width="1px" opacity="0.25"></line><line x1="0" y1="44.22499990463255" x2="278.4679985046387" y2="44.22499990463255" fill="rgb(0, 0, 0)" stroke="rgb(66, 66, 66)" stroke-width="1px" opacity="0.25"></line><line x1="0" y1="22.112499952316305" x2="278.4679985046387" y2="22.112499952316305" fill="rgb(0, 0, 0)" stroke="rgb(66, 66, 66)" stroke-width="1px" opacity="0.25"></line><line x1="0" y1="0" x2="278.4679985046387" y2="0" fill="rgb(0, 0, 0)" stroke="rgb(66, 66, 66)" stroke-width="1px" opacity="0.25"></line></g></g></g><g><g><line x1="0" y1="243.23749947547913" x2="278.4679985046387" y2="243.23749947547913" fill="rgb(0, 0, 0)" stroke="rgb(153, 153, 153)" stroke-width="1.5px"></line></g></g><g><g><line x1="23.205666542053223" y1="0" x2="23.205666542053223" y2="176.89999961853027" fill="rgb(0, 0, 0)" stroke="rgb(153, 153, 153)" stroke-width="1.5px"></line></g></g><g><g><g><g><g><path style="fill: none;" stroke="rgb(255, 112, 67)" stroke-width="2px" d="M23.656784699630737,174.3168402720067L23.899051858329774,73.51681429611723L24.188658576774596,90.35640076224516L24.23878281650543,53.76397825381668L24.798503493499755,77.52787811301154L25.04355533218384,92.1556654529971L25.207851451301575,74.49746968845515L25.308099930763245,64.64038676248491L25.372147570419312,67.19964341486671L25.519735609626768,62.70986171664572L25.759218088340763,70.79031928864072L26.154642646217347,73.01449101749814L26.29109196548462,81.03516398480595L26.52222040424347,73.63508100157439L26.59740676383972,80.89570464607567L27.087510441207886,85.18878694587221L27.13763468093872,81.43098428996316L27.179404880714415,79.3993145132298L27.527489878845216,71.17469295448402L27.549767318725586,79.3935932106941L27.666723878097535,83.43340593033986L27.711278757858274,78.74627272999805L27.73912555770874,80.93129340372654L28.025947596168518,81.95038241412226L28.089995235824585,79.95504097247851L28.493773833656313,84.24490737805158L28.652500592803957,88.2410093125453L28.8112273519516,86.96080353588606L28.939322631263735,83.89265488278419L29.006154950904847,82.17945202077918L29.02007835083008,80.59670618471647L29.167666390037535,85.51405070876908L29.231714029693602,85.27060561842961L29.629923267555238,85.81362205100197L30.74657994155884,88.83372202432825L30.830120341110227,88.71999383284427L30.83290502109528,85.82809711292349L32.47865089225769,84.22028694175242L32.801673770523074,83.49847468972526L32.82673589038849,85.85318596841417L32.918630329895024,84.80414609486607L33.08849580898285,85.57061779384632L33.392025927352904,85.73432012208248L33.65378584594726,84.57702540994275L33.68720200576782,83.40676594171715L33.85428280487061,85.5306516910882L33.89048364467621,87.52306013090987L33.957315964317324,88.40507911457885L33.99073212413788,89.26795828313679L34.18565972309113,89.2296368354369L34.26084608268738,89.46499181076047L34.51146728134155,89.69721178934881L35.06004923839569,91.49810312411863L35.49167463607788,91.85008310992384L35.56964567565918,91.27656090003025L35.57521503562927,92.69871983772717L35.73672647476196,91.73934356869033L36.02354851322174,93.21600990993565L36.12658167266846,95.7512220976612L36.22126079216004,95.61057739296348L36.560991750335695,95.88133819915669L36.764273389244075,96.89244277577804L37.17640602703094,95.43972816796558L37.28222386646271,96.75226872665723L37.440950625610355,98.98193926269089L37.580184624862675,95.27386143447283L37.655370984458926,92.8620898118011L37.83080582351684,92.02419203639676L37.88371474323272,88.89957581395508L37.89206878318787,89.30316824555818L38.0563649023056,90.30145507926603L38.35711034069061,92.4360323887886L38.66342513904572,93.74515293361516L38.95024717750549,90.95467689116877L39.387441935157774,89.54971924384544L39.72995757331849,90.91233371945566L39.777297133064266,88.46698817493949L40.03905705165863,88.86566711092202L40.08639661140442,89.25358864638325L40.21727657070159,89.63016668755598L40.58485432872772,87.2596945454359L40.61827048854828,87.82431342635805L41.51772212371826,88.69058085829764L41.62353996315003,88.95385065692942L41.97719432125092,90.11403985385797L42.147059800338745,90.29623242335902L42.759689397048945,89.86636983504145L42.77918215694427,91.52431574437415L42.965755715942386,91.74823544486888L43.79837503147125,93.39379160032273L43.83179119129181,92.85595885442528L43.84292991123199,93.2584511224919L44.00444135036468,93.52279037072095L44.01836475028992,92.23551866440111L44.09633578987122,92.40013202189617L44.23556978912354,93.44834504214815L44.29404806880951,93.17564152662521L44.40543526821137,93.73212882701922L44.558592667388915,93.05426444714023L44.70618070659638,93.03204705343076L44.99857210502625,93.40043476895102L45.171222264099114,94.4793561489748L45.39121198291779,95.89534052535863L46.32129509792328,96.05804898032828L47.045311894035336,96.8868561082838L47.19568461322785,96.01534140417006L47.24859353294373,96.6087917768334L47.56326237125397,97.93966078603832L47.67464957065582,98.70703951293858L47.73591253032684,97.9610419176946L47.969825649070735,96.16666128128436L48.187030687904354,96.22126146194671L48.28449448738098,95.8349967413688L48.301202567291256,95.79185863296773L48.674349685287474,94.19668940632502L48.89155472412109,93.47710536172016L49.14217592277527,94.26871454988574L49.14774528274536,92.73762497504076L49.25356312217712,93.30806270525346L49.256347802162175,93.97414604971746L49.27584056205749,93.93133514756887L49.30368736190796,93.5322293625752L50.08896711769104,94.76762842398226L50.16693815727234,95.63737562720337L50.239339836883545,96.03729520945954L50.258832596778866,96.29531813478395L50.31174151649475,96.40621295617326L50.87703155345917,96.71445968126856L50.968925992965694,96.72325679561624L51.202839111709594,97.41676086344613L51.411690110588076,96.74441985467533L51.69851214904785,96.8455137878587L52.004826947402954,96.51300609793479L52.021535027313234,95.3670284654706L52.03267374725342,95.61654869531945L52.297218345832825,96.00451393669582L52.7761833032608,96.66687824619635L52.95440282230377,97.2113481865511L53.14933042125702,97.293810699359L53.380458860015864,97.53570726455379L53.923471457099915,98.0532852227144L54.037643336486816,98.24672387443684L54.057136096382145,98.53768761236587L54.371804934692385,98.31023950572688L54.61407209339142,98.26002247082275L54.77001417255401,98.0436797244279L55.10417577075958,98.74073328595466L55.118099170684815,97.93522071136846L55.21277829017639,97.9446526179205L55.37985908927918,96.98686355216186L55.491246288681026,97.63427623611601L55.6332649679184,97.94193555351812L55.79199172706604,97.74866301534419L56.15121544513703,97.11370787455937L56.71372080211639,98.10120882556701L57.41824483833313,96.82878887072528L57.861008955955505,96.45427415310155L58.51540875244141,95.48174216723075L58.546040232276916,95.53226616653761L58.81615419082642,95.69196841025617L58.98601966991425,96.67074022593096L59.13082302913666,97.62020537146405L59.25891830844879,97.771544273776L59.38144422779084,97.74321263992618L59.481692707252506,97.97039996539073L59.49004674720764,98.22013921876294L59.682189666175844,98.32853683632209L59.72952922592163,99.23167783635562L59.902179384994504,98.7877147047805L59.92445682487487,98.88111661686185L60.68745914077759,98.46446956362837L60.97706585922241,99.3617883663014L61.1023764585495,99.09332543796438L61.55070993614197,99.26308208215946L61.737283495140076,100.12851926775542L61.89044089431763,100.28684665617385L62.02410553359986,100.67568694123891L62.78710784950256,100.61349340466455L62.8316627292633,101.2826541928987L63.35518256645203,101.10942948999748L63.53061740550995,101.34003749010553L63.70048288459778,101.47521148625009L63.70605224456787,101.5971426651181L64.05413724269867,101.59442576532494L64.17666316204071,101.58216772262323L64.27969632148742,101.80586040215236L64.35766736106872,101.22620675472037L64.47183924045562,100.86454534241327L64.48019328041077,101.34299265870207L64.57765707988739,101.6834190367426L64.60550387973785,101.43151911443806L64.66955151939392,102.01653938430432L64.99814375762939,101.62708677242924L65.10117691707612,102.0585412701955L65.23205687637329,102.40417926361896L65.29610451602936,102.51473389238242L65.52444827480316,102.6705504760815L65.59406527442933,102.62401993294944L65.62469675426483,102.99831085506362L66.17049403133392,102.49248772218286L66.17884807128907,102.42256142111233L66.39883779010773,102.33607178886534L66.61604282894135,102.5807016459098L66.67730578861237,101.92544892019804L66.86109466762542,102.35186723300565L66.94463506717682,102.0581406205754L67.11728522624969,102.44057825560982L67.4653702243805,101.89269268144342L67.47372426433563,101.94936692033548L67.73826886291504,102.58407089613112L67.78560842266083,102.87719156908936L67.81067054252624,103.58000605078232L69.10833141555786,103.1639464938448L69.12225481548309,103.26315484642961L69.16402501525879,102.98308434673196L69.23364201488495,102.60818599429986L69.40072281398773,102.5246898188879L69.50932533340453,102.66202751828462L69.5316027732849,103.01955905019685L69.9325966911316,102.16694769653189L69.95487413101196,102.6709690777172L70.45054716835023,103.098831981713L70.69838368701936,103.38431777488078L70.76800068664551,102.06691438513856L70.91280404586793,101.88511759666672L72.36083763809204,102.29762519800634L72.51121035728454,102.39860241705274L72.63095159664155,102.09704304951651L72.70892263622285,101.65217662358525L73.14890207386017,102.26713467603487L73.36332243270874,101.32181923828801L73.55546535167694,101.62047106270859L73.99266010932924,102.27580010400952L74.00658350925445,101.84852248552001L74.23492726802826,102.09922333716396L74.51617994651795,102.4056611414884L74.58022758617402,101.85306920610554L74.72781562538147,102.4878244771869L74.91995854434968,102.55509826119001L74.93109726428986,102.27067361480043L75.07590062351225,102.9014282778796L75.2457661026001,103.18526224866315L75.27082822246551,102.99846011395533L75.58549706077577,102.68123573195123L75.79991741962434,103.0117854399113L76.25660493717193,102.15240403278538L77.05023873291016,101.55025984282985L77.06694681282043,101.6484704505664L77.23124293193817,101.3544622656085L77.34541481132509,101.38019356639323L77.36490757122039,101.02696970883349L78.7878790435791,100.94356958734876L78.9744526025772,101.13383915267353L79.14431808166503,100.65805024700127L79.27519804096222,100.49554431215037L79.43114012012482,100.66829317781604L79.71239279861452,100.34800204508862L79.84327275791168,100.69503594185703L79.88225827770233,100.99225892673749L80.12452543640137,101.31537004753994L80.19692711601257,100.99841543474606L80.21363519592285,101.41938229956968L80.84854223251342,101.48314637127605L81.04625451145172,101.47628918976119L81.60597518844604,101.78064640755343L81.64217602825165,101.50100360099974L81.75634790763854,101.39990657855371L81.9095053068161,101.34283147019099L82.45530258388519,100.95886330389396L82.50264214363098,100.21363654031713L82.57225914325714,100.52462345965219L82.7727561021805,99.9712750670805L82.7922488620758,100.27744685765609L83.15982662010192,100.49589078363039L83.18488873996735,100.1949481178461L83.34918485908509,100.32715271249839L83.4104478187561,100.47260030195952L83.88662809619903,100.78593710015696L84.03978549537659,100.97478676575794L84.23471309432983,100.92934186756325L84.32103817386627,100.7500975326666L84.72481677169799,100.6363146267538L85.04505496997834,101.19477696322598L85.17036556930542,101.64986958871367L85.22605916900635,101.75373878895014L85.48503440761566,102.28566069134264L85.55465140724183,102.3765016804431L85.88881300544739,102.6236498780062L86.09209464435578,102.84897416364161L86.09487932434082,102.77895565587646L86.11437208423614,103.30685908441617L86.2675294834137,103.26500045180617L86.32043840312957,103.11737746551276L86.3817013628006,102.8923812465096L86.44017964248657,101.94755668052537L86.55713620185853,102.08443614711696L86.6156144815445,102.3347907280795L87.16976579856872,102.3348671618517L87.3424159576416,102.08062006499664L87.55126695652008,101.70667937323603L87.73505583553313,101.6266554033156L87.8826438747406,101.69812931026358L88.386670952034,101.58400583732198L88.51198155136107,101.89955091739256L88.82665038967133,102.23349669599885L89.04664010849,101.87230121416442L89.18308942775727,102.18342881706283L89.29726130714415,102.2367970775699L89.52282038593293,101.9906483719351L89.72888670482635,102.20592376600135L90.1939282623291,101.7671150722031L90.38885586128235,101.25651179493897L90.56986006031036,101.45153494118873L90.8538974187851,101.02074353675002L90.85668209877015,100.98604777101936L91.07388713760375,101.47339131269567L91.37741725597382,101.52642190095015L91.5138665752411,101.79164300766827L91.7060094942093,102.08633709780779L91.86195157337188,101.94550636166448L93.21252136611939,101.88392298445156L93.23201412601472,101.46013124482126L93.63857740383149,101.56209709516322L93.76945736312867,101.95601548011669L93.82793564281464,102.28265709060311L93.83907436275483,102.52871925662491L93.93096880226136,102.778054139082L94.1008342813492,102.99146741863855L94.83320511741638,103.3343062632179L94.86105191726683,102.46545690142747L94.86383659725189,102.92129215877151L95.42355727424622,102.7310800311538L95.9749239112854,102.86991841052243L96.1364353504181,102.78849610583904L96.71007942733765,103.13578708686396L97.0136095457077,103.31122439048794L97.23359926452636,103.15105652346841L97.272584784317,103.42820265095133L97.41460346355437,103.14837933252488L98.03280242023467,103.37244067389089L98.55075289745331,103.3832928500484L99.03528721485138,102.9992446916416L99.06591869468689,103.05198702044561L99.07984209461213,103.05687362767422L99.09933485450745,103.18768597962983L99.68133297138215,103.19398995572425L100.24105364837646,103.2476771357908L100.49167484703064,102.6124447587597L100.55015312671661,101.92397512203199L100.59192332649232,101.48042691477153L100.73951136569977,101.61004451026278L101.20733760318757,101.90902332021976L101.70301064052582,101.57305124085215L101.72807276039123,101.71942615927074L101.74478084030152,101.24868833974614L101.7921204000473,101.27192517750453L101.85616803970338,100.51467705374775L102.31564023723602,100.80426830501803L102.674863955307,100.52243646142588L103.14547487277984,100.63736460019517L103.16496763267517,100.40693927994262L103.55482283058167,100.47497318326896L103.84721422901154,100.30194777104334L104.01986438808441,99.6471848274835L104.27883962669372,99.43127322008381L104.39301150608063,98.34588272015569L104.4570591457367,98.77716779399172L104.80235946388244,98.46069973479192L104.81628286380767,98.34221978777059L105.00007174282074,98.2510426653331L105.29524782123565,98.33069680601761L105.46232862033844,98.21019930124595L106.21976157627107,97.80587693004497L106.3005172958374,97.8144772759142L106.44532065505982,97.29603695732939L106.52050701465606,97.27761811922662L106.5650618944168,97.07177442717085L106.83796053295136,97.22850680763547L106.89086945266723,97.02481039032429L106.9549170923233,97.23801692345191L108.18853032569885,97.3506700943575L108.40016600456238,97.49765377432283L108.54218468379973,97.43154857684291L108.58395488357544,97.80586679465948L108.66192592315674,98.2467133529733L108.73432760276795,98.64547564708738L108.97102540149689,98.8433166693993L109.31911039962769,99.05836463811767L109.33024911956787,99.25539795539956L109.48062183876038,99.51333370991983L109.59757839813233,99.77309039438687L109.67833411769867,99.68956830350763L109.68390347766875,99.59296513945141L110.0765433555603,99.84942210483825L110.40235091381074,100.00645225210016L110.84233035144807,100.4272864326827L110.86182311134338,100.82663779425245L110.94257883090972,100.31673304348803L110.96207159080505,100.5917654016369L110.98434903068542,100.65733672226177L111.06788943023682,100.88761419042918L111.23775490932465,100.84039046966087L111.3073719089508,100.63174296954564L111.62761010723115,100.1559274201539L112.0815129447937,99.9413888224141L112.21517758407593,100.30831468095596L112.40732050304412,100.48801628680773L112.7359127412796,100.14932750824705L112.85008462066651,100.12756368330844L113.52119249706269,100.19634636259572L113.56853205680846,100.22783940865148L113.5880248167038,100.2734875596628L113.6910579761505,99.93614774907208L113.9194017349243,99.93671524232884L113.92775577487946,100.00490323407296L114.49861517181397,100.2407713644079L115.58185568599701,100.26474691692368L115.69045820541382,100.63893831199981L115.91880196418762,100.52282578211432L115.98841896381379,100.60110298168205L116.29194908218383,100.35039710951985L116.5954792005539,100.32273262566093L116.88787059898375,100.42284182284672L116.89343995895386,100.04541315215855L117.04659735813141,100.10000041342637L118.24400975170136,99.76930394724427L118.46956883049012,99.57591845169405L118.57817134990692,99.52284598791424L119.19915498657227,99.62733851405221L119.81735394325257,99.93868710094466L119.9092483827591,100.26901852375221L119.95937262248994,100.19275818135075L120.77806853809358,100.16940290985727L120.91451785736083,100.23955266581778L121.21247861576082,100.03362254025579L121.21526329574584,100.09566449149875L121.60511849365234,100.19369572236988L121.99218901157379,100.28234241559976L121.99775837154388,100.43337934225393L122.2149634103775,100.60692593414711L122.22610213031768,100.48909079951811L124.01386668071746,100.71203300898742L125.31431223373413,100.45882132325781L125.7153061515808,100.38565640739719L125.73201423149109,100.31814378888842L125.81833931102753,99.90913744504127L126.2973042684555,99.6955623754217L126.69272882633209,99.5811952497347L126.75399178600311,99.35338114244884L126.92942662506104,98.82763353861046L127.21624866352082,98.99556139399623L127.28308098316192,99.04848123824459L127.4195303024292,99.21974661841115L127.45016178226471,99.50315856747781L127.68407490100861,99.65988066385772L127.76761530056001,99.41226986456117L127.77596934051513,99.36919933319749L127.89014121990205,99.23044879470206L128.1351930585861,99.30890595071915L128.38024489727022,99.32942156827694L128.70605245552062,98.98946733082902L128.98173577404023,99.15941264201112L129.59993473072052,99.289106862578L129.79764700965882,99.53226776695844L130.67760588493346,99.0825014748704L130.91151900367737,98.5755879737237L130.95050452346803,98.25101459135354L130.95885856342315,98.62278173115202L131.14821680240632,98.69634326996295L131.3932686410904,98.54480774953713L131.8026165988922,98.72656260847486L131.849956158638,98.83540841593671L132.5572648748398,98.757116513014L132.59625039463043,98.57457104040924L132.6547286743164,98.47671863838795L132.7995320335388,98.55288820956754L133.26457359104157,98.32936585840874L133.37039143047332,98.52694793008439L133.41773099021913,98.420295240004L133.43165439014436,98.58160552526736L133.73796918849945,98.67715177837867L133.9273274274826,98.69194273659593L134.4981868244171,98.66880782720439L134.65134422359466,98.69078510079838L134.67083698349,98.84117039383918L134.89918074226378,98.84883133896916L135.09689302120208,98.81706418711902L135.35865293979643,98.79518104051814L135.62876689834596,98.68755537170317L135.631551578331,98.77789268983122L136.03811485614776,98.61050444955276L136.2803820148468,98.90025690871667L136.4558168539047,98.7569386521868L136.52264917354583,98.8991582151578L136.64795977287292,98.88436158115783L136.85681077175138,98.86358688059295L136.9403511713028,98.23076353579519L137.01275285091398,98.44511657657048L137.7144922071457,98.45797838881418L137.9623287258148,98.59526496879622L138.28256692409516,98.60257123566632L138.30205968399048,98.47594265780046L138.3382605237961,98.1350009513523L138.61394384231568,98.44213488572316L138.68634552192688,98.43376885297965L139.07063135986328,98.57494302695532L139.17366451931,98.78479600514625L139.74730859622954,98.96658822347335L139.89211195545198,98.89119586748517L139.9227434352875,99.22246902987584L140.16779527397156,99.39084450888818L140.66625299129487,99.533448667129L140.85839591026306,99.25305518065281L141.095093708992,99.25801265897127L141.50444166679384,99.24398214469967L141.58519738636016,99.1955163208014L142.17276486320495,99.40639124981843L142.56262006111146,99.61899399788581L142.59882090091705,99.47447411254169L142.835518699646,99.71082305316476L143.2866368572235,99.79073842683414L143.33676109695435,99.80553651946278L144.0245770532608,99.65448884660391L144.26962889194488,99.64287917729465L144.3782314113617,99.30363122270553L144.75694788932802,99.49147209061245L144.80707212905884,99.26671582790941L145.41970172576904,99.2999669688467L145.9877764427185,99.15812189423887L146.19384276161193,99.33238773689007L146.57812859954834,99.48482790756339L146.69786983890532,99.54769815271762L146.93735231761934,98.95037006902382L147.26872923583983,98.90158911023009L147.49707299461366,98.93499483598255L147.5611206342697,98.92054438095761L147.71427803344727,98.87491764128612L147.7393401533127,98.97051071077962L148.19324299087526,99.12471751266763L148.22944383068085,98.95029932134554L148.30184551029208,99.1160082070865L148.39095526981356,99.1137524918635L148.4605722694397,99.26166894950856L148.56917478885651,99.55384567539569L148.9116904270172,99.6225877939741L148.959029986763,99.79788853076747L149.0620631462097,99.69165474644369L149.31546902484894,99.17721473316725L149.36280858459475,99.22458468251554L149.41293282432557,99.36939606862984L149.92252926158903,99.55755785771107L150.16201174030303,99.79747111673585L150.17593514022826,99.8071391720688L150.34858529930116,100.02445597999403L150.48224993858335,99.97706312413872L150.54629757823943,99.52778517926521L151.69915509204867,99.71288224286137L152.02496265029907,99.6808465877313L152.07787157001493,99.91766362535337L152.2727991689682,100.22340690563965L152.86315132579804,99.86087069060274L152.99124660511018,99.73985235017672L153.13326528434754,99.35113706485247L153.1555427242279,99.09672714885943L153.18895888404847,99.04449801731909L153.33654692325592,98.80291070218112L154.3334623579025,98.93386567450635L154.6564852361679,99.21796935273377L154.91824515476225,99.19024381130083L155.06304851398468,99.32191536119667L155.322023752594,99.26342027421445L155.90123718948362,99.19999642159043L155.99034694900513,99.1973042074965L156.12122690830233,99.15332976138772L156.26881494750975,99.46397756693078L156.2883077074051,99.2912038722722L156.32729322719575,99.01362571370822L156.59740718574525,98.73072190058117L157.17662062263489,98.88627891496817L157.24623762226105,98.94012414247153L157.30193122196195,98.84442068272077L157.39104098148346,98.77238059845047L157.48015074100496,98.70943218531934L157.5497677406311,98.53571508683302L157.63052346019745,98.80221599671289L158.30998537654878,98.86700842075038L158.4575734157562,98.45053053624507L158.6608550546646,98.41641622271023L159.705110049057,98.43658761578199L159.76080364875793,98.56797025703054L159.96130060768127,98.69242079974606L160.16458224658967,98.7520993753604L160.71594888362884,98.93583339038157L161.02504836196897,98.92169514977512L161.03061772193908,98.68008774569445L161.08352664165497,98.71831707982966L161.0918806816101,98.4762598003685L161.42604227981565,98.67342740967433L161.69894091835022,98.8205648539317L161.7936200378418,98.99946701104064L161.90222255725863,98.85047473405503L162.64573211326598,98.96332007513723L163.066218791008,99.05922141781986L163.56189182834626,99.22427863140125L163.62593946800231,99.13239611809728L163.70112582759856,99.26927084879331L163.75960410728456,99.06783807512649L164.8790454612732,99.07305298230615L164.91524630107878,99.27574325656887L165.0851117801666,99.39594324172079L165.30510149898527,99.29449160845873L165.4192733783722,99.07810593045069L165.5445839776993,98.79336061952526L165.56129205760956,98.74226339606857L165.56686141757964,98.67620499719506L165.647617137146,98.92917702969525L166.21569185409547,98.42531892581842L166.49972921257017,98.25774763956989L166.5721308921814,98.37725411539071L166.97034013004304,98.44070426029288L167.30728640823364,98.2582185280888L167.32399448814394,98.08054217004404L167.67486416625977,98.1881010131534L168.08699680404663,98.14723772281023L168.12876700382233,98.24418971734981L168.229015483284,98.00780781719826L168.76924340038298,98.03042811699368L169.25656239776612,97.76250411246374L169.54616911621093,97.90523162863668L169.83856051464082,98.05663768226069L169.96665579395295,97.9387139287311L170.05298087348936,97.86780617712411L170.0836123533249,98.0187747572722L170.1281672330856,98.27982674880258L170.13930595302583,98.10312351658003L170.1448753129959,97.9868546540227L170.20892295265196,98.02310740215232L170.55422327079773,97.96769760864869L170.67674919013976,98.01072653994949L170.84104530925748,98.07318571651187L170.94686314868926,98.35806238494112L171.09445118789674,98.43601169880759L171.29773282680512,98.537776445889L171.9632713432312,98.52372151731048L172.33641846122742,98.4030853289883L172.3837580209732,98.6439024760391L172.59817837982177,98.59279197904478L172.71513493919372,98.57450014623416L172.83487617855073,98.16915914711744L173.07714333724977,97.9538506626371L173.37231941566466,97.90017632408836L173.6257252943039,97.77244428944795L173.97102561244964,97.88402776772014L174.07962813186646,97.83219357705738L174.25506297092437,97.93858240490711L174.40822037010196,98.07468131350427L174.66998028869628,98.12702416116221L175.2575477655411,98.12206077468993L175.4469060045242,98.07781925294334L175.74765144290924,98.14125574265174L176.71950475769043,98.29759313949951L176.83367663707733,98.47189995597064L177.12885271549226,98.50203643180093L177.20125439510346,98.69821575956777L177.27922543468475,98.81758018974614L177.5103538734436,98.90752480354615L177.54377003326417,98.87595486151265L177.69971211242677,98.81814662886404L178.2733561893463,99.07523750451438L178.35968126888275,99.3128841780382L178.37081998882294,99.41799769350374L178.38474338874818,99.53891901361135L178.4292982685089,99.53952830710679L178.49334590816497,99.64991865751537L178.5852403476715,99.85217494594471L178.83586154632567,99.69010460608816L179.15888442459106,99.8430305476491L179.21736270427704,99.8536438997871L179.36773542346955,100.00655490186965L179.6239259820938,100.16901970292912L179.6656961818695,100.00378521972686L179.76872934131623,100.12509900602826L180.43426785774233,99.93358237008687L180.9912038547516,99.79056770996019L181.1109450941086,99.78279899087437L181.1192991340637,99.87107385626324L181.30030333309173,99.87894580388655L181.46738413219452,99.92296711276495L181.61218749141693,99.9229144338894L181.72914405078888,99.86981525369171L182.05773628902438,99.62073970738804L182.29721876773834,99.83408886983898L182.3194962076187,99.86150129670459L182.8903556045532,99.79345002606141L183.07971384353638,99.88891119054603L183.89005571918486,100.01952738919216L184.7505218345642,100.20620270260503L184.75330651454925,100.33286030724324L184.81178479423522,100.3668938078825L184.84241627407073,100.30176939166061L185.17100851230623,99.9897450034444L185.29074975166318,99.91877031005211L185.48289267063143,100.11374415338338L186.5438557449341,100.01626264915103L186.6830897441864,99.94343922219967L186.87244798316954,99.7991932168289L186.9532037027359,99.89884486782798L187.00889730243682,100.1442093355154L187.499000979805,100.20660872362895L187.5769720193863,100.2478924680816L188.2508645757675,99.92260424881123L188.37895985507964,99.91682075245444L188.38174453506468,100.16518826345113L189.2589187303543,99.97521586243639L189.36473656978606,100.02756444708042L189.67383604812622,99.94275883792645L189.82977812728882,99.9876571417738L189.8882564069748,99.96739643841315L190.29481968479155,100.0640204556419L190.3560826444626,99.92895610105637L190.40063752422333,99.88041464621973L190.4117762441635,100.05904704084813L190.76821528224946,100.1966097846997L191.1859172800064,100.45968626103372L191.3724908390045,100.40912773943404L191.56741843795774,100.20250562707288L191.59526523780823,100.30671315136479L191.7177911571503,100.22114851580366L191.8041162366867,100.25494145370908L192.04916807537077,100.45700367876267L192.32485139389038,100.5718395323333L192.3304207538605,100.61705575249671L192.40560711345674,100.67034865419194L192.5893959924698,100.79250651777893L192.63952023220062,100.9028741733936L192.7898929513931,100.83848763022971L192.95418907051086,100.57337468936238L192.97925119037626,100.5774789946376L193.13797794952393,100.66231575858178L193.33847490844727,100.58325072919783L193.79237774600983,100.70220074441993L193.8759181455612,100.72528451507264L194.10704658432007,100.59142175435251L194.21286442375182,100.7126781944293L194.98422077960967,100.61753333665071L195.01763693943022,100.54126002326971L195.22370325832367,100.77686167920399L195.37407597751618,100.93631594469838L195.55508017654418,100.92584403201809L195.66089801597596,100.87114029705695L195.95885877437593,100.96046904831937L196.084169373703,101.1891760040688L196.1927718931198,101.30783340355521L196.20112593307496,101.257971821126L196.2150493330002,101.289485497993L196.44896245174408,101.18397519637489L196.4545318117142,100.89577019525294L197.0365299285889,101.00925049555649L197.15070180797576,100.79507781271512L197.50157148609162,100.7870161419407L197.93041220378876,100.90309317106318L198.15318660259248,100.93296047600394L198.18381808242796,100.57350499198525L198.2033108423233,100.4768349964142L198.2255882822037,100.73227350994874L198.3174827217102,100.76673617612283L198.34811420154574,100.71568514556068L198.42330056114199,100.7958661767422L198.42886992111204,100.8810511173837L198.50405628070834,100.83621216694011L198.69619919967653,100.8924340573182L198.75746215934754,100.89016628223429L199.19744159698487,100.73127974010256L199.80171715373993,100.68031588703306L199.9325971130371,100.73199918981307L199.99386007270815,100.7959977666917L200.03006091251373,100.86541761952064L200.224988511467,100.89325232637398L200.3809305906296,100.88608101370463L200.38649995059967,100.8843979692736L200.64825986919402,100.72326263950484L200.68724538898468,100.71613454343459L200.69838410892487,100.64581443220912L201.68137614364622,100.52106242710552L201.69251486358644,100.47909729442364L201.9487054222107,100.61330267554432L202.07401602153777,100.62049860840582L202.3803308198929,100.74163427759915L203.07928549613953,100.73959292693887L203.18231865558624,100.77988563678097L203.39673901443481,100.88372775357658L203.71976189270018,101.06849820825562L203.75596273250582,101.10510531212783L203.80608697223664,101.05838692175448L203.88405801181796,101.18542364187L203.9425362915039,101.113788155938L204.16809537029266,101.00882016858738L204.26277448978422,100.7707690436912L204.98400660591125,100.77707881593628L205.40170860366823,100.9058397136088L205.41284732360842,100.8954607695895L205.67460724220277,100.76727513647292L206.00876884040832,101.00119663912905L206.49887251777648,100.84366921127346L206.55456611747744,100.86159083522679L206.75506307640075,100.99519204544278L206.91100515556334,101.0063187544326L207.00011491508482,100.79481746868555L207.62666791172026,100.95637087919324L207.69350023136138,101.11491726850446L208.1279103090286,101.07378428312136L208.26157494831085,101.09937737034566L209.28912186279297,101.32086651444092L209.42557118206022,101.33708252353114L209.75137874031066,101.25422049936098L209.76251746025085,101.20808387034788L209.85441189975737,101.1610232326885L210.14123393821717,101.25409846628276L210.20249689788818,100.9690069972075L210.3974244968414,100.85397729556054L210.51159637622834,100.96091673192527L210.63133761558532,101.17739520324173L210.67310781536102,101.22802390157315L210.71209333515168,101.02523646127227L210.72323205509184,100.94521301392187L210.8875281742096,100.82984413590275L211.30801485195158,100.94732371748914L211.47509565105437,101.07980951362849L211.67002325000763,101.2238590422814L211.73407088966368,101.34032819300481L211.7591330095291,101.36563658354348L211.76191768951415,101.29820074223842L211.88722828884127,101.05371644927155L212.12392608757017,101.0371425416226L212.71149356441498,101.00924129003965L212.83401948375703,100.88874438311726L212.99831560287475,101.12418197637695L213.12919556217193,100.91602424368449L213.20716660175324,100.7848819453995L213.5413281999588,100.70651528801427L213.78638003864287,100.591538976108L213.99244635753632,100.82419281859927L214.5911525543213,100.97400330513857L214.79443419322968,101.04401607511448L215.22605959091186,101.04620863911398L215.40706378993988,101.16349488167934L215.4571880296707,100.88810126110602L215.54629778919218,100.97379430290839L215.56300586910248,100.84291667669987L215.61591478881834,100.73917891783444L216.20905162563324,100.84458772667024L216.41233326454164,101.00473967147518L217.12521134071352,101.0913889744288L217.17812026042938,100.90532666094506L217.30064617977143,100.9035544309138L218.4952738933563,100.87435935054341L219.19144388961791,100.67392058263438L219.40864892845156,100.7738842985601L219.46155784816744,100.87591937550282L219.91546068572995,101.01209854651569L220.4027796831131,100.91994982828018L221.09338031940462,101.01678209168304L221.16021263904574,101.24237067217501L221.24096835861207,101.12837542035648L221.2437530385971,101.11636962972061L221.6698090763092,101.06998598175001L221.68930183620455,101.18400736478915L221.75613415584564,100.9233116356064L221.76727287578584,100.89066161791251L221.81461243553161,100.97519276983483L221.89536815509797,100.3913903494066L221.9092915550232,100.51915768228201L221.97055451469421,100.64687157180398L222.03181747436523,100.81770626233295L222.09029575405123,101.03297355102396L222.257376553154,101.18929077076218L222.28800803298952,101.32342880550861L222.36876375255585,101.33139688651345L222.9006376296997,101.32994750581078L222.90899166965485,101.30022710541463L222.9953167491913,101.29701173523101L223.10113458862304,101.3100645838706L223.58566890602114,101.35215327791789L223.939323264122,100.90561808739652L224.21779126262666,100.86089378147157L224.27905422229767,100.6323717461004L224.62435454044342,100.49815702019696L224.9167459388733,100.71053998875443L225.64633209495545,100.59719350944756L225.8774605337143,100.57310445802428L226.41490377082823,100.3182360395537L226.7128645292282,100.34024522335392L226.75185004901886,100.40075200876862L226.95791636791228,100.41283026849474L227.3839724056244,100.5577496368663L227.51206768493654,100.5928926695397L227.53156044483185,100.61400392484673L227.69307188396454,100.73141038077496L228.07735772190094,100.72443319170151L228.5201218395233,100.53367866241567L228.61201627902986,100.48050608138294L228.63150903892515,100.50001582014517L228.87656087760928,100.70576408305114L228.88769959754944,100.43837028020398L228.9712399971008,100.26454260150527L229.06870379657747,100.47894660395535L229.4808364343643,100.61454072292221L230.56129226856234,100.30857440073353L230.6142011882782,100.2348502109116L230.70609562778472,100.43840067537194L230.86482238693236,100.32312048632723L231.04861126594542,100.37193664424272L231.34378734436035,100.32703901862324L231.54985366325377,100.39988926252455L231.65567150268555,100.44457715313925L231.7559199821472,100.51736822282425L232.3017172592163,100.46318388105269L232.4827214582443,100.31231475300612L233.1649680545807,100.18930315677626L233.21230761432648,99.90798938341712L233.42115861320497,99.69107354457587L233.8332912509918,99.58624812209132L233.8750614507675,99.5365545761931L234.2983328084946,99.42187594015321L234.3484570482254,99.56765921391535L234.40972000789642,99.41591625416159L234.4681982875824,99.25891001646228L234.48212168750763,99.32231829436112L234.58793952693938,99.33750505022941L234.68818800640105,99.36022768972138L235.18107636375427,99.47931998789949L235.49296052207947,99.54126315858123L235.55700816173552,99.46129291606799L235.80484468040464,99.55937581769027L236.2392547580719,99.25262898653139L236.3172257976532,99.38799856215545L236.59847847614287,99.47290837707406L236.9966877140045,99.4873135808619L237.02453451385497,99.32648929645993L237.08858215351103,99.38176078836172L237.16933787307738,99.28772457688557L237.43666715164187,99.44141413708114L237.50349947128294,99.55167785011855L237.66501091041565,99.67093250659036L237.70121175022126,99.63703660894242L237.70956579017638,99.84402385327519L237.95183294887542,99.89515108773115L238.0103112285614,99.76812586083766L238.28320986709593,99.71935808853964L238.6173714653015,99.83723058672521L238.73154334468842,99.82305450393683L238.8568539440155,99.8331618738822L239.13810662250518,99.87226705372963L239.18544618225098,99.99016092810614L240.3828585758209,99.97007317332783L240.78663717365265,99.78001528811454L241.34357317066193,99.60428693041953L241.35192721061708,99.5287167533293L242.19846992607117,99.56093973422621L242.7470518831253,99.49249446300075L242.76097528305053,99.47965728601659L242.78046804294584,99.35855037243856L242.84451568260195,99.40112308798781L242.92805608215332,99.01118148113035L243.10627560119627,99.21520336685944L244.03357403621675,98.76061524940116L244.1923007953644,98.65758139098385L244.34545819454195,98.58421258329072L244.58494067325591,98.60658415767324L244.63506491298673,98.6832283684754L244.73809807243344,98.78414725285968L244.79100699214933,98.64434645052697L245.39249786891938,98.48675960059357L245.42869870872497,98.69378743149704L245.84361602649687,98.6067718688443L245.94943386592865,98.63592931359912L246.5175085828781,98.70643635222602L247.2554487789154,98.65518419443406L247.6174571769714,98.67150439627547L247.6675814167023,98.72019345395782L247.70935161647796,98.51043223661692L247.74555245628358,98.49443750481953L248.51133945217134,98.59667771884318L248.6839896112442,98.46009290995995L250.0345594039917,98.43435569025641L250.08189896373747,98.53773812263563L250.34922824230193,98.58323734064504L250.9061642393112,98.47116527525766L251.02869015865323,98.42272368947357L251.62739635543824,98.49394039394461L251.8835869140625,98.65588044417473L252.34862847156526,98.64077466207793L252.81645470905306,98.61323733033133L253.6435046646118,98.49192881237519L254.19765598163605,98.62351927075058L254.21436406154632,98.61645364102829L254.2199334215164,98.58986491615337L254.27005766124728,98.41933795426067L254.9272421377182,98.28419194001201L255.2808964958191,98.36321326710254" fill="none"></path></g></g></g></g><g opacity="0.2"><g><g><g><path style="fill: none;" stroke="rgb(255, 112, 67)" stroke-width="2px" d="M23.656784699630737,174.3168402720067L23.899051858329774,-27.18241165379148L24.188658576774596,123.98507177468477L24.23878281650543,-55.79388106950837L24.798503493499755,172.34607607139674L25.04355533218384,165.0754776792404L25.207851451301575,-31.08150020691831L25.308099930763245,-4.083746704593597L25.372147570419312,87.58177804985112L25.519735609626768,22.503328777006907L25.759218088340763,151.1518004547974L26.154642646217347,97.3340729194037L26.29109196548462,176.65991528905545L26.52222040424347,-21.895276466480386L26.59740676383972,181.7853638811859L27.087510441207886,149.0722478982371L27.13763468093872,21.814656571196075L27.179404880714415,45.17012214158816L27.527489878845216,-75.47002269146425L27.549767318725586,234.00043688284958L27.666723878097535,163.3866485067543L27.711278757858274,-18.607980729746107L27.73912555770874,128.45278839187347L28.025947596168518,105.11021293683388L28.089995235824585,32.66088465561713L28.493773833656313,190.10845073593475L28.652500592803957,190.74864661836475L28.8112273519516,52.87499748242231L28.939322631263735,-0.78097755740551L29.006154950904847,33.23490337119144L29.02007835083008,33.84324300739754L29.167666390037535,235.53694225738766L29.231714029693602,77.60758340312623L29.629923267555238,103.43175648498419L30.74657994155884,189.73977103072252L30.830120341110227,84.81035052875743L30.83290502109528,-16.376461884827695L32.47865089225769,25.848155550053683L32.801673770523074,56.59793430580881L32.82673589038849,175.87330193070437L32.918630329895024,43.69168653901189L33.08849580898285,116.3447392711524L33.392025927352904,92.4639949101078L33.65378584594726,35.89298222967633L33.68720200576782,33.057473173977506L33.85428280487061,178.9391855531171L33.89048364467621,177.05200940114264L33.957315964317324,128.8801392100628L33.99073212413788,129.68712896752936L34.18565972309113,87.39808731603961L34.26084608268738,100.93750598420019L34.51146728134155,101.23757679834145L35.06004923839569,182.7044897341729L35.49167463607788,110.00995929956377L35.56964567565918,61.14318931626817L35.57521503562927,168.76624193455388L35.73672647476196,39.51774065913573L36.02354851322174,174.9900061171711L36.12658167266846,238.53705688345576L36.22126079216004,87.5567359034608L36.560991750335695,111.6410992748128L36.764273389244075,156.6955056119544L37.17640602703094,8.151740581100077L37.28222386646271,176.8501038008514L37.440950625610355,237.13903952098505L37.655370984458926,-61.096120625115944L37.83080582351684,37.75245385969688L37.88371474323272,-116.40502230755239L37.89206878318787,116.19809773392151L38.0563649023056,157.75689062655397L38.35711034069061,238.6601814563372L39.777297133064266,-90.39980768736946L40.03905705165863,118.39648186514242L40.08639661140442,118.34638439228473L40.21727657070159,118.22019833463162L40.58485432872772,-94.89611189167427L40.61827048854828,131.73237378353494L41.51772212371826,156.8546286821493L41.62353996315003,109.91207086733172L41.97719432125092,183.54033727033504L42.147059800338745,105.1349519414521L42.759689397048945,54.461681057789995L42.77918215694427,229.59712718341814L42.965755715942386,110.60119119576217L43.79837503147125,233.44702357022948L43.83179119129181,46.589510998991464L43.84292991123199,128.24985474557255L44.00444135036468,116.74470188923695L44.01836475028992,-22.022780531838254L44.09633578987122,107.16105928558466L44.23556978912354,188.39508025998614L44.29404806880951,68.22653176377162L44.40543526821137,145.14907934434444L44.558592667388915,29.808056978677847L44.70618070659638,90.93899409532258L44.99857210502625,128.4387647898949L45.171222264099114,198.0736457785348L45.39121198291779,233.13186074411396L46.32129509792328,111.9744497834991L47.045311894035336,178.70899550748186L47.19568461322785,9.192386744465372L47.24859353294373,156.2638646786861L47.56326237125397,232.91760211660994L47.67464957065582,177.2240687169597L47.73591253032684,20.962775471305598L47.969825649070735,-90.64801489832867L48.187030687904354,101.95459934988153L48.28449448738098,54.92962651328573L48.301202567291256,91.1850134134919L48.674349685287474,-77.5793358619979L48.89155472412109,15.347219124123987L49.14217592277527,180.92370316412615L49.14774528274536,-76.22792984200579L49.25356312217712,156.76644078662423L49.256347802162175,168.66394476654943L49.27584056205749,89.09286070327414L49.30368736190796,48.07182154421971L50.08896711769104,236.5800184974586L50.16693815727234,196.24535162077018L50.239339836883545,142.65123727256497L50.258832596778866,126.5977189075868L50.31174151649475,109.52754211946984L50.87703155345917,133.45838395337213L50.968925992965694,97.77963860407272L51.202839111709594,181.3041790382959L51.411690110588076,14.826579720592198L51.69851214904785,109.25144586547805L52.004826947402954,55.41732890427573L52.021535027313234,-47.27116876779753L52.03267374725342,126.89218818898286L52.297218345832825,144.9722290705206L52.7761833032608,180.84645473255054L52.95440282230377,166.88251237272732L53.14933042125702,107.91766160849849L53.380458860015864,128.9103347665787L53.923471457099915,165.63445133686497L54.037643336486816,123.67237444673196L54.057136096382145,137.03450130848762L54.371804934692385,68.01992087597444L54.61407209339142,91.52890798381623L54.77001417255401,68.85787063442567L55.10417577075958,193.37935704686043L55.118099170684815,-12.12417362698098L55.21277829017639,99.24149366972318L55.37985908927918,-35.529591689383224L55.491246288681026,187.7652966384237L55.6332649679184,141.0379431216383L55.79199172706604,70.5096110701L56.15121544513703,7.080859320987733L56.71372080211639,238.96944043169023L57.41824483833313,-85.77312616091042L57.861008955955505,42.388176919010526L58.51540875244141,-45.74713009863679L58.546040232276916,102.91238236884897L58.81615419082642,119.15612878585424L58.98601966991425,241.31021428966196L59.13082302913666,238.73704931318807L59.25891830844879,120.39339533861468L59.38144422779084,93.48418559389532L59.481692707252506,132.31573717373595L59.49004674720764,136.18652810144172L59.682189666175844,114.8993988420425L59.72952922592163,238.06000111157834L59.902179384994504,30.167662200842834L59.92445682487487,113.39642193600372L60.68745914077759,33.363145520863974L60.97706585922241,240.32454428704898L61.1023764585495,56.693582124942786L61.55070993614197,126.21640609852452L61.737283495140076,238.26655433653843L61.89044089431763,125.69140408948999L62.02410553359986,163.39344942651084L62.78710784950256,90.5299240439982L62.8316627292633,210.33510440605068L63.35518256645203,72.73435535541597L63.53061740550995,139.3073858252197L63.70048288459778,123.84306962457461L63.70605224456787,121.8752841213774L64.05413724269867,101.14032100980768L64.17666316204071,99.52315191622904L64.27969632148742,139.56600529704647L64.35766736106872,2.8973183450209685L64.47183924045562,39.2145725268883L64.48019328041077,183.2970791783072L64.57765707988739,160.2774287910093L64.60550387973785,57.86634538063259L64.66955151939392,203.67692158892737L64.99814375762939,33.629580778379925L65.10117691707612,177.74516942318814L65.23205687637329,163.32136099509933L65.29610451602936,122.09046205925549L65.52444827480316,130.3888099093861L65.59406527442933,94.3084807925253L65.62469675426483,170.1953972290494L66.17049403133392,11.266693630360768L66.17884807128907,89.75402608828676L66.39883779010773,86.59602690738882L66.61604282894135,147.3001799491573L66.67730578861237,-18.39261827078936L66.86109466762542,180.9988559634512L66.94463506717682,47.645050649420476L67.11728522624969,173.59866446372496L67.4653702243805,-0.4947853643953015L67.47372426433563,112.5865325615867L67.73826886291504,222.22635279190717L67.78560842266083,158.36828145059658L67.81067054252624,237.19987216659794L69.10833141555786,23.725701842703636L69.12225481548309,122.28517133747874L69.16402501525879,49.056821422290305L69.23364201488495,30.12092564763227L69.40072281398773,86.31328789456506L69.50932533340453,129.43769600940473L69.5316027732849,173.01218398530222L69.9325966911316,-65.43046804266062L70.45054716835023,187.88996039717784L70.69838368701936,160.18868733224824L70.76800068664551,-161.11661484068756L70.91280404586793,65.42146868605262L72.36083763809204,185.36514529772057L72.51121035728454,122.81313886384896L72.63095159664155,40.89057748440714L72.70892263622285,11.005042740813073L73.14890207386017,228.06161608094231L73.36332243270874,-92.80084868327329L73.55546535167694,163.1863245157088L73.99266010932924,237.8887849088149L74.00658350925445,13.089788247730118L74.23492726802826,154.37589113205024L74.51617994651795,166.54694761109704L74.58022758617402,-14.247747640880068L74.72781562538147,236.35210119135928L74.91995854434968,116.7955638065634L74.93109726428986,41.839938434141196L75.07590062351225,237.4118312825346L75.2457661026001,163.9367651526029L75.27082822246551,62.86890952441032L75.58549706077577,34.28511827049325L75.79991741962434,174.5398998959592L76.25660493717193,-84.48290205857298L77.05023873291016,-29.690580315937684L77.06694681282043,123.1307523605405L77.23124293193817,36.814625477379415L77.34541481132509,107.04871230883145L77.36490757122039,22.937889097341234L78.7878790435791,82.44098125799883L78.9744526025772,143.49362871698122L79.14431808166503,-5.636412501101592L79.27519804096222,64.06457975400873L79.43114012012482,139.52939104300842L79.71239279861452,28.04829263152191L79.84327275791168,179.29977269102213L79.88225827770233,168.54420376657254L80.12452543640137,175.00044473819275L80.19692711601257,28.472967894070585L80.21363519592285,198.0690986519534L80.84854223251342,116.17179030013463L81.04625451145172,99.89140326893721L81.60597518844604,172.35979653160325L81.64217602825165,36.438505618673865L81.75634790763854,77.8009087732595L81.9095053068161,87.97613913519046L82.45530258388519,10.741862962327863L82.50264214363098,-75.45391663731216L82.57225914325714,174.06895597293516L82.7727561021805,-31.310306344463545L82.7922488620758,173.14975103948586L83.15982662010192,152.6542172075617L83.18488873996735,28.109435008945432L83.34918485908509,132.09483908241924L83.4104478187561,135.532822640038L83.88662809619903,176.55344003662694L84.03978549537659,146.78323755723733L84.23471309432983,89.87159237555079L84.32103817386627,57.000532939302865L84.72481677169799,72.77853497367931L85.04505496997834,238.34581025859936L85.17036556930542,213.7575288827148L85.22605916900635,127.41908812911223L85.48503440761566,234.11978000925058L85.55465140724183,124.9592112692682L85.88881300544739,164.2491725188607L86.09209464435578,159.20169726254346L86.09487932434082,85.21516341519546L86.11437208423614,236.1237456476981L86.2675294834137,92.70236978358955L86.32043840312957,65.75588678097976L86.3817013628006,45.780886911971L86.44017964248657,-138.58427144206823L86.55713620185853,137.03287356897224L86.6156144815445,166.4421857686847L87.16976579856872,102.35449606758084L87.3424159576416,36.59889397626534L87.55126695652008,5.120428300783052L87.73505583553313,80.89775239665687L87.8826438747406,120.2651663690192L88.386670952034,71.85337264540453L88.51198155136107,184.33613055234974L88.82665038967133,189.7236517964934L89.04664010849,6.976815792774479L89.18308942775727,184.1538500867823L89.29726130714415,116.33658080345998L89.52282038593293,36.7778003421086L89.72888670482635,159.39744776685347L90.1939282623291,-15.131577247533773L90.38885586128235,-35.142334665572506L90.56986006031036,153.69133111027824L90.8538974187851,-14.687988574421883L90.85668209877015,91.64157128241857L91.07388713760375,233.0833457042568L91.37741725597382,115.88629665120794L91.5138665752411,173.80261297595854L91.7060094942093,182.3139904114085L91.86195157337188,63.50333253309349L93.21252136611939,85.02896846674491L93.23201412601472,-14.836185360744384L93.63857740383149,129.6173009193315L93.76945736312867,210.62509575626981L93.82793564281464,192.6285012375393L93.83907436275483,170.76484245788822L93.93096880226136,172.1016844927428L94.1008342813492,162.4815264856303L94.83320511741638,199.14934106178876L94.86383659725189,230.97168977502795L95.42355727424622,49.16128671296908L95.9749239112854,142.0708262196226L96.1364353504181,79.74062071234545L96.71007942733765,201.6906477326517L97.0136095457077,153.22261462027524L97.23359926452636,57.46933509980669L97.272584784317,182.67129571012867L97.41460346355437,22.940274691286838L98.03280242023467,167.75663485263553L98.55075289745331,106.5093967361233L99.03528721485138,-7.903622994664733L99.06591869468689,118.32002423818966L99.07984209461213,104.47493322314261L99.09933485450745,141.24124581009656L99.68133297138215,105.03229232132884L100.24105364837646,118.94137261044168L100.49167484703064,-83.52592302430544L100.59192332649232,-29.11582351604871L100.73951136569977,139.86536438702717L101.20733760318757,190.36002875159886L101.70301064052582,1.9415782379959037L101.72807276039123,145.22927352314017L101.74478084030152,-39.008156704231354L101.7921204000473,108.21165640712084L101.85616803970338,-126.16942966791164L102.31564023723602,187.69674046766096L102.674863955307,15.76120534418711L103.14547487277984,135.28237481598072L103.16496763267517,30.784647967592115L103.55482283058167,121.07861436423906L103.84721422901154,47.78183348901981L104.01986438808441,-99.55484736551291L104.27883962669372,33.59332238642215L104.39301150608063,-233.3757018898002L104.4570591457367,230.8873586995489L104.80235946388244,1.3017645778002898L104.81628286380767,61.885675776664094L105.00007174282074,70.13260814623226L105.29524782123565,122.95052798699248L105.46232862033844,60.883199116428464L106.21976157627107,-27.721371364419344L106.3005172958374,100.49049049105594L106.44532065505982,-64.37421666807104L106.52050701465606,91.52123717897456L106.5650618944168,32.59879331264619L106.83796053295136,146.42665716275476L106.89086945266723,32.94513937730135L106.9549170923233,164.45534187407677L108.18853032569885,132.94370194466583L108.40016600456238,144.0378868185822L108.54218468379973,76.45519654655192L108.58395488357544,216.83884472784055L108.73432760276795,225.99449892707634L108.97102540149689,162.1604334485982L109.31911039962769,168.02840804135573L109.33024911956787,162.58143805968916L109.48062183876038,182.58805034349643L109.59757839813233,183.61011918826324L109.67833411769867,72.67615213517405L109.68390347766875,68.28349605677107L110.0765433555603,183.14122476722008L110.40235091381074,151.1123986144638L110.84233035144807,237.67252167396742L110.96207159080505,190.84177374776337L110.98434903068542,122.21811110546088L111.06788943023682,176.76041996658145L111.23775490932465,85.24929981474858L111.3073719089508,31.606425771506018L111.62761010723115,-57.572558827227525L112.0815129447937,28.680606827877476L112.21517758407593,222.4304759401616L112.40732050304412,160.41694649659598L112.7359127412796,-13.02584905795705L112.85008462066651,92.84056289143297L113.52119249706269,123.2719637060278L113.56853205680846,110.81420760100445L113.5880248167038,115.64834354019172L113.6910579761505,-13.907411691358579L113.9194017349243,100.12860511556173L113.92775577487946,123.10677780039103L114.49861517181397,180.30786406408L115.58185568599701,108.4192294405425L115.69045820541382,228.15417811453753L115.91880196418762,60.87809842661107L115.98841896381379,127.37904705504181L116.29194908218383,14.421424152150925L116.5954792005539,90.82262719506988L116.88787059898375,134.86641158436046L116.89343995895386,-30.059886074809658L117.04659735813141,118.95276019701075L118.24400975170136,-14.659229646304158L118.46956883049012,32.53384189295593L118.57817134990692,81.08928527631167L119.19915498657227,135.98862924457296L119.81735394325257,208.48440741232452L119.9092483827591,215.64757829148564L119.95937262248994,73.50690557155733L120.77806853809358,91.98151182962863L120.91451785736083,124.8781406153488L121.21247861576082,27.571714225560036L121.21526329574584,121.96689883693483L121.60511849365234,134.81536514595535L121.99218901157379,131.64692734403576L121.99775837154388,153.9700501996025L122.2149634103775,162.23424847010295L122.22610213031768,58.569331150117044L124.01386668071746,180.16696245040333L125.31431223373413,10.053362097518649L125.7153061515808,74.2162441381787L125.73201423149109,76.12713124876169L125.81833931102753,-46.907398641285525L126.2973042684555,22.894157601697508L126.69272882633209,58.381752293576504L126.75399178600311,17.14044768690362L126.92942662506104,-91.23821874851735L127.21624866352082,159.81111766506746L127.28308098316192,118.24725703281021L127.4195303024292,161.4620277558878L127.45016178226471,202.6825407910182L127.68407490100861,156.81587266559103L127.76761530056001,8.952430261737922L127.77596934051513,83.606917233778L127.89014121990205,48.36485419721759L128.1351930585861,128.12071635066079L128.38024489727022,106.87633008112672L128.70605245552062,-26.28121070558912L128.98173577404023,161.890182558777L129.59993473072052,147.2439537404725L129.79764700965882,189.59478688818038L130.95885856342315,237.2521830686448L131.14821680240632,126.17299092472993L131.3932686410904,41.84859774476143L131.8026165988922,166.84274808027493L131.849956158638,139.69544683373033L132.5572648748398,69.31800030423221L132.59625039463043,29.820578051873007L132.6547286743164,61.56065507667184L132.7995320335388,127.33618544448322L133.26457359104157,13.724909800496809L133.37039143047332,173.43546215968382L133.41773099021913,57.91936883059483L133.43165439014436,159.9384240292696L133.73796918849945,135.07872944551923L133.9273274274826,104.33619973214024L134.4981868244171,89.82620019019907L134.65134422359466,107.10447721481958L134.67083698349,156.50674054847957L134.89918074226378,101.79115321441503L135.09689302120208,86.59679135185758L135.35865293979643,90.36367055212057L135.62876689834596,57.153659074441144L135.631551578331,133.69541445899503L136.03811485614776,33.80844760399204L136.2803820148468,211.25122849649009L136.4558168539047,43.097950428174464L136.52264917354583,154.21830354083136L136.64795977287292,93.11988826430141L136.85681077175138,90.75751761445505L136.9403511713028,-149.07550733129094L137.01275285091398,182.34428481850227L137.7144922071457,103.49998974385929L137.9623287258148,152.49686685772969L138.28256692409516,101.47559580974291L138.30205968399048,48.60540378341218L138.3382605237961,-36.345491178933926L138.61394384231568,219.77322577902112L138.68634552192688,95.12377399853182L139.07063135986328,154.51524408667385L139.17366451931,182.06557890925507L139.74730859622954,171.22084017354035L139.89211195545198,68.88076442825724L139.9227434352875,231.28704288850582L140.16779527397156,166.61609688532695L140.66625299129487,156.55482146954898L140.85839591026306,-13.032439096480818L141.095093708992,101.24623610896168L141.50444166679384,93.60857916106997L141.58519738636016,79.70010515550132L142.17276486320495,184.35681668327584L142.56262006111146,185.3922105859377L142.59882090091705,41.082782547991364L142.835518699646,195.34566638142832L143.2866368572235,132.17472352940436L143.33676109695435,105.81093173306616L144.0245770532608,38.26638460401147L144.26962889194488,94.9176507735854L144.3782314113617,-38.97383578359957L144.75694788932802,176.16649933466536L144.80707212905884,7.390353890217986L145.41970172576904,112.9120672845838L145.9877764427185,41.007023465122124L146.19384276161193,170.87742008598974L146.57812859954834,162.15901000027708L146.69786983890532,125.43310093951237L146.93735231761934,-147.33676520702582L147.26872923583983,78.75986481908416L147.49707299461366,112.7478435245715L147.5611206342697,92.93700151518979L147.71427803344727,79.9554296080662L147.7393401533127,138.66479116876707L148.19324299087526,163.24791501575194L148.22944383068085,26.32096445397996L148.30184551029208,168.2152488135816L148.39095526981356,98.17182497669921L148.4605722694397,161.1137046796755L148.56917478885651,221.89877186194843L148.9116904270172,128.4472791196676L148.959029986763,173.40596514725144L149.0620631462097,55.02299417909048L149.31546902484894,-117.42961513707378L149.36280858459475,119.19725062624255L149.41293282432557,160.51005715089832L149.92252926158903,179.1096764397655L150.16201174030303,201.3676139292744L150.17593514022826,103.90579113607589L150.34858529930116,192.27818796969285L150.48224993858335,79.83097014050631L150.54629757823943,-91.71233248007134L151.69915509204867,178.6076143548322L152.02496265029907,86.00780006875726L152.07787157001493,201.12837246572678L152.86315132579804,-55.493876155752346L152.99124660511018,47.81179180414886L153.13326528434754,-67.66520282637863L153.1555427242279,-10.3584914252307L153.18895888404847,76.54416206662279L153.33654692325592,-5.410295099274055L154.3334623579025,155.49807584207014L154.6564852361679,222.093774396886L154.91824515476225,87.18314661954838L155.06304851398468,156.41941594800113L155.322023752594,73.86478420362909L155.90123718948362,71.62546275309853L155.99034694900513,98.02530206016175L156.12122690830233,79.98513750173134L156.26881494750975,235.04838480889921L156.2883077074051,23.785723913578117L156.32729322719575,-22.449445986021107L156.59740718574525,-25.221585231275373L157.17662062263489,167.129731077908L157.24623762226105,122.59239893345682L157.30193122196195,56.75175898503061L157.39104098148346,67.04715210940395L157.48015074100496,70.95285706120865L157.5497677406311,21.8396723574323L157.63052346019745,216.61085575507227L158.30998537654878,127.54505012545553L158.4575734157562,-86.12018394972615L158.6608550546646,83.2789969168353L159.705110049057,107.39836657282555L159.76080364875793,157.01174179059444L159.96130060768127,154.12150905499425L160.16458224658967,125.36540806379622L160.71594888362884,180.97254852966432L161.02504836196897,92.60119951217266L161.03061772193908,-9.463775074935729L161.08352664165497,115.8509081443353L161.0918806816101,-10.135774483281427L161.42604227981565,187.25179424661314L161.69894091835022,165.0035605888305L161.7936200378418,179.56860672256073L161.90222255725863,31.66959788079486L162.64573211326598,149.9073309899305L163.066218791008,142.40637780117584L163.56189182834626,173.9199947421439L163.62593946800231,57.50127042649287L163.70112582759856,161.36067955343077L163.75960410728456,7.580674202784413L164.8790454612732,101.44441174744844L164.91524630107878,191.554789555881L165.0851117801666,154.18489204551588L165.30510149898527,52.9962146510285L165.4192733783722,0.21132408334940156L165.5445839776993,-31.461350027428313L165.56129205760956,75.34053107048766L165.56686141757964,68.38674878036147L165.647617137146,215.06001375172573L166.21569185409547,-133.15081103937538L166.49972921257017,21.15061792938709L166.5721308921814,153.43198673421387L166.97034013004304,127.70533304243062L167.30728640823364,13.993572491033794L167.32399448814394,15.941218836502363L167.67486416625977,147.97000464479015L168.08699680404663,79.21240276451132L168.12876700382233,143.22079453205868L168.229015483284,-11.77764304124715L168.76924340038298,108.54831511514607L169.25656239776612,-26.958693025986594L169.54616911621093,164.42240486153497L169.83856051464082,168.69907626191963L169.96665579395295,42.855529271039124L170.05298087348936,64.70847923808908L170.0836123533249,168.69799549560173L170.1281672330856,220.63556197502953L170.13930595302583,15.188161954314316L170.1448753129959,43.36808928734077L170.20892295265196,115.07247961383075L170.55422327079773,71.87962735888323L170.67674919013976,118.29235925646688L170.84104530925748,127.54619679215867L170.94686314868926,232.9348029409118L171.09445118789674,135.3005896824604L171.29773282680512,146.7189253712839L171.9632713432312,91.86194217065338L172.33641846122742,41.16040002172431L172.3837580209732,213.03957054570435L172.59817837982177,74.28692889138463L172.71513493919372,89.86614900373016L172.83487617855073,-95.01699955835427L173.07714333724977,-4.774989025428699L173.37231941566466,72.2628512791174L173.6257252943039,36.69517443909759L173.97102561244964,151.29770390771364L174.07962813186646,72.99281666631816L174.25506297092437,148.97629693733103L174.40822037010196,163.4358299642572L174.66998028869628,123.29169428136797L175.2575477655411,95.73326030144105L175.4469060045242,76.76216054098904L175.74765144290924,128.73789981856578L176.71950475769043,173.78291535081098L176.83367663707733,182.7234756351599L177.12885271549226,113.0841068302853L177.20125439510346,193.72413468234691L177.27922543468475,156.69710040127714L177.5103538734436,142.56768876416064L177.54377003326417,83.53532305525579L177.69971211242677,70.69800709141748L178.2733561893463,224.2658659219067L178.35968126888275,215.1568280076784L178.37081998882294,150.71070940628604L178.38474338874818,158.6072296574299L178.4292982685089,99.83747039365869L178.49334590816497,153.6866587729649L178.5852403476715,198.96089232016308L178.83586154632567,20.190633837552717L179.15888442459106,174.93470910391818L179.21736270427704,105.07054090492079L179.36773542346955,175.2461675046285L179.6239259820938,180.19192551633137L179.6656961818695,18.532975547284046L179.76872934131623,160.0016686289822L180.43426785774233,5.310353211038054L180.9912038547516,29.058650977831967L181.1109450941086,95.93664207036159L181.1192991340637,143.61889875927955L181.30030333309173,103.78413902492713L181.46738413219452,121.78362986558884L181.61218749141693,99.89672802006442L181.72914405078888,73.44781928615322L182.05773628902438,-24.44340712223472L182.29721876773834,206.20984573078812L182.3194962076187,113.54303711308052L182.8903556045532,65.79505796996504L183.07971384353638,147.62895038106956L183.89005571918486,165.40573086982053L184.7505218345642,193.7485244149234L184.75330651454925,163.86358936483498L184.81178479423522,117.45483126048117L184.84241627407073,67.57098109158125L185.17100851230623,-56.985043712756536L185.29074975166318,64.17726941276517L185.48289267063143,198.3954439496889L186.5438557449341,50.829897647264254L186.6830897441864,63.162825242570385L186.87244798316954,26.87423772828145L186.9532037027359,150.32786770828625L187.00889730243682,224.43260048659656L187.499000979805,131.84549838483395L187.5769720193863,121.2006486976222L188.2508645757675,-65.33093210079763L188.37895985507964,96.97583842525165L188.38174453506468,226.58508499949943L189.2589187303543,3.1855402698964976L189.36473656978606,126.72444534839886L189.67383604812622,56.65188036116438L189.82977812728882,122.92891266063452L189.8882564069748,89.6050912176496L190.29481968479155,149.52933297024566L190.3560826444626,30.71886620304786L190.40063752422333,74.98303466065028L190.4117762441635,191.76815523316506L190.76821528224946,170.88753579512374L191.1859172800064,235.77739958304292L191.3724908390045,74.37901808971577L191.56741843795774,-6.277148766690534L191.59526523780823,154.05892345913404L191.7177911571503,56.04394930734676L191.8041162366867,117.71861732251057L192.04916807537077,204.9771230095898L192.32485139389038,160.02795629265353L192.3304207538605,124.04945645106199L192.40560711345674,128.31394946025472L192.5893959924698,164.21577420362223L192.63952023220062,158.25772696432185L192.7898929513931,67.34781602701236L192.95418907051086,-37.45211680799919L192.97925119037626,102.71626282238162L193.13797794952393,144.91192362798958L193.33847490844727,59.30634787853824L193.79237774600983,162.85829875814972L193.8759181455612,112.79846820051108L194.10704658432007,30.515326273202753L194.21286442375182,164.24712301687978L194.98422077960967,50.719514501991135L195.01763693943022,60.50408738023312L195.22370325832367,224.55991344083725L195.37407597751618,184.78771294219098L195.55508017654418,95.41407837558086L195.66089801597596,72.05262905020919L195.95885877437593,148.0619884025049L196.084169373703,221.89031849003206L196.1927718931198,163.98573572887304L196.20112593307496,74.89632293375453L196.2150493330002,117.96548016561093L196.44896245174408,45.30184383160124L196.4545318117142,-51.88345765012066L197.0365299285889,161.21905962555496L197.15070180797576,-12.939914955607112L197.50157148609162,96.50214645616319L197.93041220378876,162.65361875164L198.15318660259248,116.8356839610961L198.18381808242796,-90.98479222704732L198.2033108423233,48.91513559402929L198.2255882822037,237.09662809243312L198.3174827217102,119.18045920808399L198.34811420154574,73.41492181384257L198.42330056114199,143.71181830246468L198.42886992111204,146.51479233797164L198.50405628070834,76.79512391368493L198.69619919967653,131.06268088867256L198.75746215934754,99.67216586732849L199.19744159698487,15.321438893419005L199.80171715373993,73.26105759438963L199.9325971130371,128.56215667121393L199.99386007270815,135.28709328356373L200.03006091251373,138.31016801572605L200.224988511467,115.91995856798735L200.3809305906296,97.01131919266362L200.38649995059967,99.97425323325803L200.64825986919402,13.511814314792238L200.68724538898468,96.85492439841755L200.69838410892487,62.52203625667325L201.68137614364622,32.830248645677976L201.69251486358644,77.68953712220781L201.9487054222107,173.55598737424503L202.07401602153777,104.53487621355481L202.3803308198929,166.6910256233422L203.07928549613953,99.62730088505867L203.18231865558624,122.75289273166467L203.39673901443481,157.55953215284416L203.71976189270018,201.99777647805195L203.75596273250582,121.1179964344571L203.80608697223664,75.49658318273049L203.88405801181796,170.75052230417606L203.9425362915039,61.85397769136477L204.16809537029266,43.43380515149979L204.26277448978422,-29.907682545064706L204.98400660591125,104.24367559126654L205.40170860366823,171.70512892457504L205.41284732360842,95.18392787017677L205.67460724220277,30.169204269857396L206.00876884040832,229.9380158724208L206.49887251777648,13.944489884108767L206.55456611747744,110.75597802060844L206.75506307640075,174.81507354455766L206.91100515556334,107.15922725487505L207.00011491508482,-16.256654984465587L207.69350023136138,189.00069821028194L208.1279103090286,78.2545670252357L208.26157494831085,115.3089433761406L209.28912186279297,224.3923913665438L209.42557118206022,110.35477647528143L209.75137874031066,55.13809579194662L209.76251746025085,75.51073858547954L209.85441189975737,74.92821872020957L210.14123393821717,153.1777166878128L210.20249689788818,-58.199930494690264L210.3974244968414,36.581245853098686L210.51159637622834,160.7603006837614L210.63133761558532,222.32504026631022L210.67310781536102,129.58355992208982L210.71209333515168,-12.638618394300426L210.72323205509184,56.05639130007963L210.8875281742096,36.063611507133736L211.30801485195158,166.94988233655582L211.47509565105437,175.57110253411994L211.67002325000763,182.27987378197093L211.73407088966368,166.9278057075012L211.7591330095291,115.6286261449286L211.76191768951415,63.26418003506594L211.88722828884127,-36.94252230903324L212.12392608757017,91.67499595781112L212.71149356441498,85.23647559978133L212.83401948375703,32.71877155400991L212.99831560287475,234.42275455911638L213.12919556217193,-17.02750497066781L213.20716660175324,26.42209518516571L213.5413281999588,56.235719428388414L213.78638003864287,35.29621470111797L213.99244635753632,233.04916646945327L214.5911525543213,186.18084049607705L214.79443419322968,140.89489315540288L215.22605959091186,102.29514618063578L215.40706378993988,168.022938309381L215.4571880296707,-56.21914943552419L215.54629778919218,149.89689895894736L215.56300586910248,26.067406131739453L215.61591478881834,41.42537229068798L216.20905162563324,161.1588793937559L216.41233326454164,192.71108101028065L217.12521134071352,150.74553116984563L217.17812026042938,-5.796418636458686L217.30064617977143,99.88647392012143L218.4952738933563,84.1069298167304L219.19144388961791,-14.527956078910695L219.40864892845156,158.27028757774815L219.46155784816744,159.60695827160112L219.91546068572995,179.45401913270945L220.4027796831131,47.80147180382064L221.09338031940462,156.8759738169278L221.16021263904574,231.47186793269825L221.24096835861207,35.27225332104555L221.2437530385971,94.17545427488452L221.6698090763092,74.2346567058141L221.68930183620455,167.1991900839485L221.75613415584564,-50.12170311133055L221.76727287578584,81.95980300514736L221.81461243553161,150.02276869475133L221.89536815509797,-238.59321991014622L221.9092915550232,174.7606530064284L221.97055451469421,174.91068841349903L222.03181747436523,200.2269837014265L222.28800803298952,179.54647737319792L222.36876375255585,105.98132376913671L222.9006376296997,100.48353141037484L222.90899166965485,83.93163479199816L222.9953167491913,99.4166173534538L223.10113458862304,108.94896309723708L223.58566890602114,126.00106999972186L223.939323264122,-160.78882632451533L224.21779126262666,74.63149564563838L224.27905422229767,-33.48288388482537L224.62435454044342,21.674763233413522L224.9167459388733,225.5290494486715L225.64633209495545,33.93629435135315L225.8774605337143,86.39604559834655L226.41490377082823,-49.78334417336619L226.7128645292282,113.31130499843073L226.75185004901886,136.0850678683298L226.95791636791228,107.54101454671104L227.3839724056244,186.14355405810957L227.51206768493654,121.36185421999062L227.53156044483185,113.0990266775031L227.69307188396454,170.212478608903L228.07735772190094,96.59249588432405L228.5201218395233,-12.510007202470565L228.61201627902986,68.94811462197015L228.63150903892515,112.07759706647312L228.87656087760928,222.88552633777599L230.56129226856234,-82.0024115582266L230.6142011882782,56.27634042584892L230.70609562778472,221.88861826009293L230.86482238693236,31.493775652980723L231.04861126594542,129.53779869458077L231.34378734436035,73.4843280995749L231.54985366325377,143.98371011187828L231.65567150268555,127.19772873509885L231.7559199821472,144.12409770255013L232.3017172592163,67.98146141114972L232.4827214582443,9.810980480614452L233.1649680545807,26.349670661789496L233.21230761432648,-69.0671676219251L233.42115861320497,-30.688944792134482L233.8332912509918,36.53788339961229L233.8750614507675,69.6280879769296L234.2983328084946,30.35605822216032L234.3484570482254,187.42424896474165L234.40972000789642,7.907566473717415L234.4681982875824,4.514381997983227L234.48212168750763,137.61076722719852L234.58793952693938,108.51387557382085L234.68818800640105,113.09901349742606L235.18107636375427,171.5330432486039L235.49296052207947,137.04278498691198L235.55700816173552,51.01437918569862L235.80484468040464,159.0177165670369L236.2392547580719,-86.81930795663568L236.3172257976532,181.55599759036613L236.59847847614287,151.04561516406395L236.9966877140045,108.24241870694979L237.02453451385497,1.5187877264650265L237.08858215351103,133.01754991636318L237.16933787307738,42.02472311434766L237.43666715164187,193.09004776562847L237.50349947128294,166.78233060708902L237.66501091041565,172.43001998211253L237.70121175022126,78.9434501122793L237.70956579017638,226.2910111204148L237.95183294887542,131.14824594886517L238.0103112285614,22.0707981885379L238.28320986709593,69.87075955552885L238.6173714653015,172.02738839842584L238.73154334468842,91.13553540425545L238.8568539440155,106.03115764045344L239.13810662250518,123.86725506595684L239.18544618225098,172.37542810298163L240.3828585758209,87.62872548429445L240.78663717365265,-17.059268956352373L241.34357317066193,-8.493352362079708L241.35192721061708,53.013427831652585L242.19846992607117,119.40732787430323L242.7470518831253,57.31029111007407L242.76097528305053,91.5633079849103L242.78046804294584,24.62880072200084L242.84451568260195,125.68713374452659L242.92805608215332,-141.90235583878555L244.03357403621675,-182.43918532726764L244.1923007953644,34.8835464887596L244.34545819454195,53.14383151396091L244.58494067325591,112.47073240464704L244.63506491298673,146.2103720984047L244.73809807243344,161.4022758765928L244.79100699214933,11.847855947694844L245.39249786891938,0.5880634056761861L245.42869870872497,227.38523100195906L245.84361602649687,44.483822349645884L245.94943386592865,116.78260779082567L246.5175085828781,142.61435941698596L247.2554487789154,66.71886275030391L247.6174571769714,108.84710746181372L247.6675814167023,129.09597615179325L247.70935161647796,-32.43258990506128L247.74555245628358,88.50376397955745L248.51133945217134,162.49651882327188L248.6839896112442,13.043895219450595L250.0345594039917,82.32942508586848L250.08189896373747,163.26734244932L250.34922824230193,127.08808367414039L250.9061642393112,28.217287579425424L251.02869015865323,68.03843888422622L251.62739635543824,143.19006518242236L251.8835869140625,200.350784165134L252.34862847156526,89.14906055180484L252.81645470905306,81.2999556278395L253.6435046646118,22.177873134472087L254.19765598163605,181.45452417717718L254.21436406154632,94.16630730141353L254.2199334215164,81.83366966780244L254.27005766124728,-9.109520964052042L254.9272421377182,13.015637134260677L255.2808964958191,148.24973860004707" fill="none"></path></g></g></g></g></g></g><g transform="translate(51, 176)" clip-path="url(#clip_1)"><clipPath id="clip_1"><rect width="278" height="23"></rect></clipPath><g><g><line x1="0" y1="0" x2="0" y2="5" style="visibility: inherit;" fill="rgb(0, 0, 0)" stroke="rgb(204, 204, 204)" stroke-width="1px"></line><line x1="23.205666542053223" y1="0" x2="23.205666542053223" y2="5" style="visibility: inherit;" fill="rgb(0, 0, 0)" stroke="rgb(204, 204, 204)" stroke-width="1px"></line><line x1="46.411333084106445" y1="0" x2="46.411333084106445" y2="5" style="visibility: inherit;" fill="rgb(0, 0, 0)" stroke="rgb(204, 204, 204)" stroke-width="1px"></line><line x1="69.61699962615967" y1="0" x2="69.61699962615967" y2="5" style="visibility: inherit;" fill="rgb(0, 0, 0)" stroke="rgb(204, 204, 204)" stroke-width="1px"></line><line x1="92.82266616821289" y1="0" x2="92.82266616821289" y2="5" style="visibility: inherit;" fill="rgb(0, 0, 0)" stroke="rgb(204, 204, 204)" stroke-width="1px"></line><line x1="116.02833271026611" y1="0" x2="116.02833271026611" y2="5" style="visibility: inherit;" fill="rgb(0, 0, 0)" stroke="rgb(204, 204, 204)" stroke-width="1px"></line><line x1="139.23399925231934" y1="0" x2="139.23399925231934" y2="5" style="visibility: inherit;" fill="rgb(0, 0, 0)" stroke="rgb(204, 204, 204)" stroke-width="1px"></line><line x1="162.43966579437256" y1="0" x2="162.43966579437256" y2="5" style="visibility: inherit;" fill="rgb(0, 0, 0)" stroke="rgb(204, 204, 204)" stroke-width="1px"></line><line x1="185.64533233642578" y1="0" x2="185.64533233642578" y2="5" style="visibility: inherit;" fill="rgb(0, 0, 0)" stroke="rgb(204, 204, 204)" stroke-width="1px"></line><line x1="208.850998878479" y1="0" x2="208.850998878479" y2="5" style="visibility: inherit;" fill="rgb(0, 0, 0)" stroke="rgb(204, 204, 204)" stroke-width="1px"></line><line x1="232.05666542053223" y1="0" x2="232.05666542053223" y2="5" style="visibility: inherit;" fill="rgb(0, 0, 0)" stroke="rgb(204, 204, 204)" stroke-width="1px"></line><line x1="255.26233196258545" y1="0" x2="255.26233196258545" y2="5" style="visibility: inherit;" fill="rgb(0, 0, 0)" stroke="rgb(204, 204, 204)" stroke-width="1px"></line><line x1="278.4679985046387" y1="0" x2="278.4679985046387" y2="5" style="visibility: inherit;" fill="rgb(0, 0, 0)" stroke="rgb(204, 204, 204)" stroke-width="1px"></line></g><g transform="translate(0, 8)"><text style="text-anchor: middle; visibility: hidden; font-family: Roboto, sans-serif; font-size: 12px; font-weight: 200;" x="0" y="0" dx="0em" dy="0.95em" fill="rgb(33, 33, 33)" stroke="none" stroke-width="1px">-200k</text><text style="text-anchor: middle; visibility: inherit; font-family: Roboto, sans-serif; font-size: 12px; font-weight: 200;" x="23.205666542053223" y="0" dx="0em" dy="0.95em" fill="rgb(33, 33, 33)" stroke="none" stroke-width="1px">0</text><text style="text-anchor: middle; visibility: hidden; font-family: Roboto, sans-serif; font-size: 12px; font-weight: 200;" x="46.411333084106445" y="0" dx="0em" dy="0.95em" fill="rgb(33, 33, 33)" stroke="none" stroke-width="1px">200k</text><text style="text-anchor: middle; visibility: inherit; font-family: Roboto, sans-serif; font-size: 12px; font-weight: 200;" x="69.61699962615967" y="0" dx="0em" dy="0.95em" fill="rgb(33, 33, 33)" stroke="none" stroke-width="1px">400k</text><text style="text-anchor: middle; visibility: hidden; font-family: Roboto, sans-serif; font-size: 12px; font-weight: 200;" x="92.82266616821289" y="0" dx="0em" dy="0.95em" fill="rgb(33, 33, 33)" stroke="none" stroke-width="1px">600k</text><text style="text-anchor: middle; visibility: inherit; font-family: Roboto, sans-serif; font-size: 12px; font-weight: 200;" x="116.02833271026611" y="0" dx="0em" dy="0.95em" fill="rgb(33, 33, 33)" stroke="none" stroke-width="1px">800k</text><text style="text-anchor: middle; visibility: hidden; font-family: Roboto, sans-serif; font-size: 12px; font-weight: 200;" x="139.23399925231934" y="0" dx="0em" dy="0.95em" fill="rgb(33, 33, 33)" stroke="none" stroke-width="1px">1M</text><text style="text-anchor: middle; visibility: inherit; font-family: Roboto, sans-serif; font-size: 12px; font-weight: 200;" x="162.43966579437256" y="0" dx="0em" dy="0.95em" fill="rgb(33, 33, 33)" stroke="none" stroke-width="1px">1.2M</text><text style="text-anchor: middle; visibility: hidden; font-family: Roboto, sans-serif; font-size: 12px; font-weight: 200;" x="185.64533233642578" y="0" dx="0em" dy="0.95em" fill="rgb(33, 33, 33)" stroke="none" stroke-width="1px">1.4M</text><text style="text-anchor: middle; visibility: inherit; font-family: Roboto, sans-serif; font-size: 12px; font-weight: 200;" x="208.850998878479" y="0" dx="0em" dy="0.95em" fill="rgb(33, 33, 33)" stroke="none" stroke-width="1px">1.6M</text><text style="text-anchor: middle; visibility: hidden; font-family: Roboto, sans-serif; font-size: 12px; font-weight: 200;" x="232.05666542053223" y="0" dx="0em" dy="0.95em" fill="rgb(33, 33, 33)" stroke="none" stroke-width="1px">1.8M</text><text style="text-anchor: middle; visibility: inherit; font-family: Roboto, sans-serif; font-size: 12px; font-weight: 200;" x="255.26233196258545" y="0" dx="0em" dy="0.95em" fill="rgb(33, 33, 33)" stroke="none" stroke-width="1px">2M</text><text style="text-anchor: middle; visibility: hidden; font-family: Roboto, sans-serif; font-size: 12px; font-weight: 200;" x="278.4679985046387" y="0" dx="0em" dy="0.95em" fill="rgb(33, 33, 33)" stroke="none" stroke-width="1px">2.2M</text></g><line x1="0" y1="0" x2="278.4679985046387" y2="0" fill="rgb(0, 0, 0)" stroke="rgb(204, 204, 204)" stroke-width="1px"></line></g></g></g></g></svg>