<svg viewBox="0 0 330 200" xmlns="http://www.w3.org/2000/svg"><g><g><g><g><g><line x1="41.149001121520996" y1="176.89999961853027" x2="36.149001121520996" y2="176.89999961853027" style="visibility: inherit;" fill="rgb(0, 0, 0)" stroke="rgb(204, 204, 204)" stroke-width="1px"></line><line x1="41.149001121520996" y1="160.8181814713912" x2="36.149001121520996" y2="160.8181814713912" style="visibility: inherit;" fill="rgb(0, 0, 0)" stroke="rgb(204, 204, 204)" stroke-width="1px"></line><line x1="41.149001121520996" y1="144.73636332425198" x2="36.149001121520996" y2="144.73636332425198" style="visibility: inherit;" fill="rgb(0, 0, 0)" stroke="rgb(204, 204, 204)" stroke-width="1px"></line><line x1="41.149001121520996" y1="128.65454517711294" x2="36.149001121520996" y2="128.65454517711294" style="visibility: inherit;" fill="rgb(0, 0, 0)" stroke="rgb(204, 204, 204)" stroke-width="1px"></line><line x1="41.149001121520996" y1="112.57272702997386" x2="36.149001121520996" y2="112.57272702997386" style="visibility: inherit;" fill="rgb(0, 0, 0)" stroke="rgb(204, 204, 204)" stroke-width="1px"></line><line x1="41.149001121520996" y1="96.49090888283467" x2="36.149001121520996" y2="96.49090888283467" style="visibility: inherit;" fill="rgb(0, 0, 0)" stroke="rgb(204, 204, 204)" stroke-width="1px"></line><line x1="41.149001121520996" y1="80.4090907356956" x2="36.149001121520996" y2="80.4090907356956" style="visibility: inherit;" fill="rgb(0, 0, 0)" stroke="rgb(204, 204, 204)" stroke-width="1px"></line><line x1="41.149001121520996" y1="64.32727258855641" x2="36.149001121520996" y2="64.32727258855641" style="visibility: inherit;" fill="rgb(0, 0, 0)" stroke="rgb(204, 204, 204)" stroke-width="1px"></line><line x1="41.149001121520996" y1="48.245454441417344" x2="36.149001121520996" y2="48.245454441417344" style="visibility: inherit;" fill="rgb(0, 0, 0)" stroke="rgb(204, 204, 204)" stroke-width="1px"></line><line x1="41.149001121520996" y1="32.16363629427826" x2="36.149001121520996" y2="32.16363629427826" style="visibility: inherit;" fill="rgb(0, 0, 0)" stroke="rgb(204, 204, 204)" stroke-width="1px"></line><line x1="41.149001121520996" y1="16.081818147139064" x2="36.149001121520996" y2="16.081818147139064" style="visibility: inherit;" fill="rgb(0, 0, 0)" stroke="rgb(204, 204, 204)" stroke-width="1px"></line><line x1="41.149001121520996" y1="0" x2="36.149001121520996" y2="0" style="visibility: inherit;" fill="rgb(0, 0, 0)" stroke="rgb(204, 204, 204)" stroke-width="1px"></line></g><g transform="translate(31.149001121520996, 0)"><text style="text-anchor: end; visibility: hidden; font-family: Roboto, sans-serif; font-size: 12px; font-weight: 200;" x="0" y="176.89999961853027" dx="0em" dy="0.3em" fill="rgb(33, 33, 33)" stroke="none" stroke-width="1px">5.2</text><text style="text-anchor: end; visibility: inherit; font-family: Roboto, sans-serif; font-size: 12px; font-weight: 200;" x="0" y="160.8181814713912" dx="0em" dy="0.3em" fill="rgb(33, 33, 33)" stroke="none" stroke-width="1px">5.3</text><text style="text-anchor: end; visibility: hidden; font-family: Roboto, sans-serif; font-size: 12px; font-weight: 200;" x="0" y="144.73636332425198" dx="0em" dy="0.3em" fill="rgb(33, 33, 33)" stroke="none" stroke-width="1px">5.4</text><text style="text-anchor: end; visibility: inherit; font-family: Roboto, sans-serif; font-size: 12px; font-weight: 200;" x="0" y="128.65454517711294" dx="0em" dy="0.3em" fill="rgb(33, 33, 33)" stroke="none" stroke-width="1px">5.5</text><text style="text-anchor: end; visibility: hidden; font-family: Roboto, sans-serif; font-size: 12px; font-weight: 200;" x="0" y="112.57272702997386" dx="0em" dy="0.3em" fill="rgb(33, 33, 33)" stroke="none" stroke-width="1px">5.6</text><text style="text-anchor: end; visibility: inherit; font-family: Roboto, sans-serif; font-size: 12px; font-weight: 200;" x="0" y="96.49090888283467" dx="0em" dy="0.3em" fill="rgb(33, 33, 33)" stroke="none" stroke-width="1px">5.7</text><text style="text-anchor: end; visibility: hidden; font-family: Roboto, sans-serif; font-size: 12px; font-weight: 200;" x="0" y="80.4090907356956" dx="0em" dy="0.3em" fill="rgb(33, 33, 33)" stroke="none" stroke-width="1px">5.8</text><text style="text-anchor: end; visibility: inherit; font-family: Roboto, sans-serif; font-size: 12px; font-weight: 200;" x="0" y="64.32727258855641" dx="0em" dy="0.3em" fill="rgb(33, 33, 33)" stroke="none" stroke-width="1px">5.9</text><text style="text-anchor: end; visibility: hidden; font-family: Roboto, sans-serif; font-size: 12px; font-weight: 200;" x="0" y="48.245454441417344" dx="0em" dy="0.3em" fill="rgb(33, 33, 33)" stroke="none" stroke-width="1px">6</text><text style="text-anchor: end; visibility: inherit; font-family: Roboto, sans-serif; font-size: 12px; font-weight: 200;" x="0" y="32.16363629427826" dx="0em" dy="0.3em" fill="rgb(33, 33, 33)" stroke="none" stroke-width="1px">6.1</text><text style="text-anchor: end; visibility: hidden; font-family: Roboto, sans-serif; font-size: 12px; font-weight: 200;" x="0" y="16.081818147139064" dx="0em" dy="0.3em" fill="rgb(33, 33, 33)" stroke="none" stroke-width="1px">6.2</text><text style="text-anchor: end; visibility: hidden; font-family: Roboto, sans-serif; font-size: 12px; font-weight: 200;" x="0" y="0" dx="0em" dy="0.3em" fill="rgb(33, 33, 33)" stroke="none" stroke-width="1px">6.3</text></g><line x1="41.149001121520996" y1="0" x2="41.149001121520996" y2="176.89999961853027" fill="rgb(0, 0, 0)" stroke="rgb(204, 204, 204)" stroke-width="1px"></line></g></g><g transform="translate(41, 0)" clip-path="url(#clip_0)"><clipPath id="clip_0"><rect width="288" height="176"></rect></clipPath><g><g><g><line x1="0" y1="0" x2="0" y2="176.89999961853027" fill="rgb(0, 0, 0)" stroke="rgb(66, 66, 66)" stroke-width="1px" opacity="0.25"></line><line x1="24.07091657320658" y1="0" x2="24.07091657320658" y2="176.89999961853027" fill="rgb(0, 0, 0)" stroke="rgb(66, 66, 66)" stroke-width="1px" opacity="0.25"></line><line x1="48.14183314641316" y1="0" x2="48.14183314641316" y2="176.89999961853027" fill="rgb(0, 0, 0)" stroke="rgb(66, 66, 66)" stroke-width="1px" opacity="0.25"></line><line x1="72.21274971961975" y1="0" x2="72.21274971961975" y2="176.89999961853027" fill="rgb(0, 0, 0)" stroke="rgb(66, 66, 66)" stroke-width="1px" opacity="0.25"></line><line x1="96.28366629282633" y1="0" x2="96.28366629282633" y2="176.89999961853027" fill="rgb(0, 0, 0)" stroke="rgb(66, 66, 66)" stroke-width="1px" opacity="0.25"></line><line x1="120.35458286603293" y1="0" x2="120.35458286603293" y2="176.89999961853027" fill="rgb(0, 0, 0)" stroke="rgb(66, 66, 66)" stroke-width="1px" opacity="0.25"></line><line x1="144.4254994392395" y1="0" x2="144.4254994392395" y2="176.89999961853027" fill="rgb(0, 0, 0)" stroke="rgb(66, 66, 66)" stroke-width="1px" opacity="0.25"></line><line x1="168.4964160124461" y1="0" x2="168.4964160124461" y2="176.89999961853027" fill="rgb(0, 0, 0)" stroke="rgb(66, 66, 66)" stroke-width="1px" opacity="0.25"></line><line x1="192.56733258565265" y1="0" x2="192.56733258565265" y2="176.89999961853027" fill="rgb(0, 0, 0)" stroke="rgb(66, 66, 66)" stroke-width="1px" opacity="0.25"></line><line x1="216.63824915885925" y1="0" x2="216.63824915885925" y2="176.89999961853027" fill="rgb(0, 0, 0)" stroke="rgb(66, 66, 66)" stroke-width="1px" opacity="0.25"></line><line x1="240.70916573206586" y1="0" x2="240.70916573206586" y2="176.89999961853027" fill="rgb(0, 0, 0)" stroke="rgb(66, 66, 66)" stroke-width="1px" opacity="0.25"></line><line x1="264.7800823052724" y1="0" x2="264.7800823052724" y2="176.89999961853027" fill="rgb(0, 0, 0)" stroke="rgb(66, 66, 66)" stroke-width="1px" opacity="0.25"></line><line x1="288.850998878479" y1="0" x2="288.850998878479" y2="176.89999961853027" fill="rgb(0, 0, 0)" stroke="rgb(66, 66, 66)" stroke-width="1px" opacity="0.25"></line></g><g><line x1="0" y1="176.89999961853027" x2="288.850998878479" y2="176.89999961853027" fill="rgb(0, 0, 0)" stroke="rgb(66, 66, 66)" stroke-width="1px" opacity="0.25"></line><line x1="0" y1="160.8181814713912" x2="288.850998878479" y2="160.8181814713912" fill="rgb(0, 0, 0)" stroke="rgb(66, 66, 66)" stroke-width="1px" opacity="0.25"></line><line x1="0" y1="144.73636332425198" x2="288.850998878479" y2="144.73636332425198" fill="rgb(0, 0, 0)" stroke="rgb(66, 66, 66)" stroke-width="1px" opacity="0.25"></line><line x1="0" y1="128.65454517711294" x2="288.850998878479" y2="128.65454517711294" fill="rgb(0, 0, 0)" stroke="rgb(66, 66, 66)" stroke-width="1px" opacity="0.25"></line><line x1="0" y1="112.57272702997386" x2="288.850998878479" y2="112.57272702997386" fill="rgb(0, 0, 0)" stroke="rgb(66, 66, 66)" stroke-width="1px" opacity="0.25"></line><line x1="0" y1="96.49090888283467" x2="288.850998878479" y2="96.49090888283467" fill="rgb(0, 0, 0)" stroke="rgb(66, 66, 66)" stroke-width="1px" opacity="0.25"></line><line x1="0" y1="80.4090907356956" x2="288.850998878479" y2="80.4090907356956" fill="rgb(0, 0, 0)" stroke="rgb(66, 66, 66)" stroke-width="1px" opacity="0.25"></line><line x1="0" y1="64.32727258855641" x2="288.850998878479" y2="64.32727258855641" fill="rgb(0, 0, 0)" stroke="rgb(66, 66, 66)" stroke-width="1px" opacity="0.25"></line><line x1="0" y1="48.245454441417344" x2="288.850998878479" y2="48.245454441417344" fill="rgb(0, 0, 0)" stroke="rgb(66, 66, 66)" stroke-width="1px" opacity="0.25"></line><line x1="0" y1="32.16363629427826" x2="288.850998878479" y2="32.16363629427826" fill="rgb(0, 0, 0)" stroke="rgb(66, 66, 66)" stroke-width="1px" opacity="0.25"></line><line x1="0" y1="16.081818147139064" x2="288.850998878479" y2="16.081818147139064" fill="rgb(0, 0, 0)" stroke="rgb(66, 66, 66)" stroke-width="1px" opacity="0.25"></line><line x1="0" y1="0" x2="288.850998878479" y2="0" fill="rgb(0, 0, 0)" stroke="rgb(66, 66, 66)" stroke-width="1px" opacity="0.25"></line></g></g></g><g><g><line x1="0" y1="1013.1545432697646" x2="288.850998878479" y2="1013.1545432697646" fill="rgb(0, 0, 0)" stroke="rgb(153, 153, 153)" stroke-width="1.5px"></line></g></g><g><g><line x1="24.07091657320658" y1="0" x2="24.07091657320658" y2="176.89999961853027" fill="rgb(0, 0, 0)" stroke="rgb(153, 153, 153)" stroke-width="1.5px"></line></g></g><g><g><g><g><g><path style="fill: none;" stroke="rgb(255, 112, 67)" stroke-width="2px" d="M25.549833687464396,177.04564798554622L25.91956296602885,149.2819900724496L26.104427605311077,153.0089946374287L26.2892922445933,151.1851192136815L26.843886162439983,133.5290707623276L27.028750801722207,116.60351145165409L27.213615441004436,116.96418180867371L27.39848008028666,110.17069937187962L27.58334471956889,100.5701902089905L27.768209358851117,103.20870370001722L27.95307399813334,100.51931280382261L28.322803276697798,104.63691960416907L28.50766791598002,99.87014860686487L28.877397194544475,102.29814552250365L29.0622618338267,98.17543795028895L29.247126473108928,91.20522802758079L29.431991112391156,90.97366865526816L29.61685575167338,88.32746694276169L29.80172039095561,87.7765785888935L29.986585030237833,83.94091808644635L30.171449669520058,84.31884481613989L30.356314308802286,81.48462475074821L30.541178948084514,77.85561261035835L30.910908226648967,80.25869407019597L31.095772865931195,78.71179120693793L31.28063750521342,80.9400807297086L31.465502144495645,79.07842315808392L31.650366783777873,79.17392789489551L32.020096062342326,79.15160736756175L32.20496070162455,83.09117001006356L32.94441925875346,81.80921059301362L33.12928389803568,82.46459348165509L33.31414853731791,84.54094618997895L33.49901317660014,85.60459287126523L33.68387781588236,82.39129562363634L33.86874245516459,85.0910602651628L34.05360709444682,84.7010650236817L34.23847173372904,87.78833867257894L34.423336373011274,88.76603683352963L34.79306565157572,90.05634021536014L34.97793029085795,89.79374048915295L35.347659569422405,90.0278773439239L35.53252420870463,88.98842976124244L35.71738884798686,88.55600043689158L35.902253487269085,88.81497147122072L36.27198276583354,87.16476527139034L36.45684740511577,88.19783892633355L36.64171204439799,87.31825356654065L36.826576683680216,84.34121961549272L37.196305962244665,86.6825849617603L37.3811706015269,85.89320328926675L37.56603524080912,84.77835477367677L37.750899880091346,85.75268768679638L38.1206291586558,83.595271432092L38.49035843722026,82.21712008696538L38.67522307650248,82.28812789612746L38.86008771578471,81.06300695086664L39.04495235506694,80.53537139208362L39.229816994349164,79.74654076134262L39.41468163363139,79.68725895206474L39.59954627291362,79.32123742553473L39.96927555147806,77.85971159851371L40.154140190760295,78.91722218833347L40.33900483004252,79.47687814542103L40.708734108606976,81.07768367154098L40.8935987478892,81.45600983022585L41.26332802645366,81.44979338935195L41.633057305018106,79.44867067690234L41.81792194430034,78.24043759982465L42.00278658358256,78.18845423475845L42.55738050142924,77.86973990214209L42.74224514071147,77.74978569166852L43.29683905855814,78.71526880884791L43.48170369784037,77.18901767614861L43.85143297640482,77.63268928052425L44.036297615687054,79.6491362385445L44.22116225496928,80.53307238294632L44.406026894251504,79.76684020707047L44.590891533533735,80.88741289394063L44.77575617281596,80.80199030484845L44.960620812098185,80.4583768954221L45.33035009066264,79.75812286724292L45.515214729944866,78.98607420256198L45.7000793692271,80.93016551020254L45.88494400850932,81.31484220140834L46.25467328707377,82.11902365349403L46.439537926355996,81.59550852139037L46.62440256563822,81.28064780513692L46.99413184420268,79.76257671394359L47.36386112276713,79.81366051730414L47.54872576204936,79.61177008681754L47.73359040133158,79.14792914589037L47.918455040613814,78.47154011415742L48.10331967989604,78.50623537025209L48.288184319178264,79.60145571205219L48.473048958460495,78.8468342607821L48.65791359774272,78.43393659975838L49.027642876307176,79.02345343274584L49.39737215487162,78.22547454608952L49.58223679415385,77.12552816946713L49.767101433436075,75.16451103943196L49.9519660727183,74.41304323412696L50.13683071200053,74.38832253759709L50.321695351282756,73.30630299951382L50.69142462984721,73.18577957213996L50.87628926912944,72.96409349908022L51.06115390841166,73.47256485758044L51.24601854769389,73.7825579994301L51.43088318697612,73.28549587655051L51.61574782625834,74.0076383516171L51.9854771048228,73.77182043477654L52.54007102266947,73.72678546750002L52.7249356619517,74.7667003773184L53.094664940516154,72.20922120404113L53.27952957979838,72.55362758257624L53.46439421908061,72.70783236557786L53.649258858362835,72.08313374215936L53.83412349764506,71.62625149657882L54.01898813692729,72.40957730000703L54.203852776209516,73.23864334522983L54.38871741549174,72.8278399736986L54.57358205477397,73.97255201780041L54.94331133333842,73.15310548398126L55.31304061190287,73.41713744603194L55.497905251185095,72.76962345544773L55.68276989046732,73.07657700769022L55.86763452974955,73.57873240705649L56.052499169031776,73.34819149637966L56.42222844759623,72.97056342891545L56.60709308687846,73.44149954862162L56.79195772616069,73.79251429042917L56.976822365442914,73.26006180270387L57.16168700472514,72.23451828136508L57.531416283289595,72.04425353279632L57.71628092257182,71.27816887877688L57.90114556185405,70.81253611680971L58.086010201136276,70.47918626888452L58.27087484041849,69.87333956108455L58.45573947970072,69.52561678468722L58.64060411898295,68.77003443478499L59.19519803682963,69.70057303407725L59.380062676111855,70.00454316324841L59.56492731539408,69.58432682942993L59.74979195467631,69.35889254340964L59.934656593958536,69.61062614327075L60.30438587252299,69.58432816052992L60.67411515108745,68.95121877355L60.85897979036967,69.32226171983359L61.0438444296519,69.33517345558606L61.22870906893413,69.3430662268475L61.59843834749857,68.93824194481634L61.7833029867808,68.89545095987292L61.96816762606303,68.71261815311394L62.15303226534525,69.17855474188386L62.33789690462748,69.10067458973882L62.52276154390971,68.31182683136072L62.707626183191934,67.81750600773121L62.89249082247416,67.62262633092881L63.07735546175639,67.77620216083302L63.262220101038615,68.26635762867532L63.63194937960307,68.47826649763675L64.00167865816752,68.01729223218278L64.18654329744975,67.66652797065399L64.5562725760142,67.74812333926018L64.74113721529642,67.70316071844407L64.92600185457866,67.00463916092485L65.11086649386088,66.08141592362996L65.29573113314311,66.23835085570546L65.66546041170756,66.41805071478598L65.85032505098978,66.12764983723225L66.03518969027202,66.39699054581955L66.5897836081187,66.60846024304796L66.95951288668314,66.80040241614591L67.14437752596538,66.94133041442181L67.3292421652476,66.80076814871835L67.51410680452982,66.87771472549522L67.69897144381206,66.70684457389449L67.88383608309428,67.0925235535505L68.0687007223765,67.31506325360438L68.25356536165873,67.79738879329658L68.43843000094095,67.91079418888665L68.80815927950542,67.64031423452005L68.99302391878764,67.71723163523893L69.36275319735209,67.38337994213478L69.54761783663432,66.71888063697624L69.73248247591654,66.35413003537082L69.91734711519878,66.48349477714274L70.102211754481,66.53277319860382L70.28707639376323,66.25821774524894L70.8416703116099,66.41120784474748L71.02653495089213,65.91229305643174L71.21139959017435,66.01364053204166L71.39626422945658,65.92535033005773L71.76599350802104,65.52025495471965L71.95085814730326,65.97534103353793L72.13572278658549,66.2270755359558L72.32058742586771,66.56925787764976L72.69031670443218,66.82258687569427L72.87518134371439,67.27491913713837L73.24491062227885,67.34448732401512L73.79950454012554,67.5981275481398L74.16923381868999,67.03114666352978L74.35409845797221,68.05745487098429L74.72382773653666,68.16749208725282L74.9086923758189,68.33452847152155L75.09355701510111,69.25712666238852L75.27842165438334,68.75645272840312L75.64815093294779,68.88931981860671L75.83301557223002,68.50640971969057L76.01788021151225,67.81828533566079L76.20274485079447,68.10799423731558L76.3876094900767,67.73560505353599L76.57247412935894,68.49454995808074L76.75733876864115,68.51845587690102L76.94220340792339,68.23552755795328L77.12706804720561,68.23581172879994L77.31193268648784,67.89785517916953L77.49679732577006,67.77119976630051L77.86652660433451,67.96250279808034L78.05139124361675,68.11481094099469L78.79084980074563,68.114585479787L78.97571444002787,68.35229848450828L79.1605790793101,68.04151384611347L79.34544371859234,67.92357136988683L79.53030835787455,67.70825502643773L79.71517299715678,67.3206053575953L79.90003763643901,67.21613264247655L80.26976691500346,67.21663150624687L80.4546315542857,67.18544474073823L80.63949619356791,67.59022575082983L80.82436083285015,67.80002086950606L81.00922547213237,67.87856152236662L81.19409011141458,68.25346608584633L81.37895475069682,68.2608855397949L81.74868402926127,67.82728670343822L81.9335486685435,68.02679991824048L82.11841330782573,68.67402994256226L82.30327794710794,68.9345906073224L82.48814258639018,69.69184866011928L82.6730072256724,70.00247107607338L83.04273650423686,70.33930011735292L83.2276011435191,70.24238120895956L83.4124657828013,69.46631998765523L83.59733042208354,68.99374785808172L83.78219506136577,69.42198928419838L84.15192433993022,69.5077132336797L84.70651825777689,68.95176029143249L85.07624753634134,68.90226961721272L85.26111217562358,69.03380248554465L85.44597681490579,69.28966578014025L85.63084145418803,69.58715203386667L85.81570609347025,69.17780583778975L86.0005707327525,68.42769368150888L86.37030001131694,68.9014292285997L86.55516465059917,69.05601629136746L86.74002928988139,68.69317768440116L87.10975856844586,68.83193068437586L87.29462320772807,68.44415774896108L87.47948784701029,68.4976493447204L87.66435248629253,68.3282751640622L87.84921712557474,68.59230029214007L88.03408176485698,68.69718174886317L88.21894640413919,68.76108687294382L88.40381104342143,69.02252006008555L88.58867568270365,69.52786028015912L88.77354032198589,69.69351359073218L88.9584049612681,69.78380342572399L89.32813423983255,69.91017551153523L89.51299887911479,70.25833061918715L89.69786351839701,70.50765215899597L89.88272815767925,70.03111643109833L90.2524574362437,69.95815912933978L90.43732207552593,70.09768333417964L90.80705135409038,70.36443627552258L90.99191599337259,70.04193179030622L91.17678063265483,70.39761757482891L91.36164527193705,70.38380047730386L91.54650991121929,70.43631351986423L91.7313745505015,70.54250819628935L91.91623918978374,71.39271886880016L92.10110382906595,71.31126042616346L92.28596846834819,71.10693327185346L92.47083310763041,70.91942066306976L93.21029166475932,71.01825365419931L93.39515630404154,71.02493695706845L93.58002094332377,71.20120022245375L93.94975022188822,70.91179047612268L94.13461486117045,70.60521441885936L94.68920877901714,71.09252093467103L94.87407341829935,71.42895945235595L95.24380269686381,71.23406516542838L95.42866733614605,71.25752179312566L95.61353197542826,71.2972403857567L96.16812589327495,71.36251314266725L96.35299053255717,71.3210065904522L96.53785517183938,71.28821546320066L96.72271981112162,71.28985821167718L96.90758445040385,71.75510537953478L97.09244908968608,71.97293201434987L97.2773137289683,72.09871503589524L97.46217836825053,72.02032146303428L97.64704300753274,72.59751006915582L97.83190764681498,73.01596131317494L98.01677228609721,72.95068183295402L98.20163692537945,73.09863221082762L98.38650156466166,73.38033271309732L98.5713662039439,73.46481370714193L98.7562308432261,73.34976459920544L98.94109548250835,73.28178396316153L99.12596012179057,73.39168439431269L99.31082476107281,73.45970116752578L99.49568940035502,73.93506277065028L99.68055403963724,73.82388697408979L99.86541867891948,74.10755338560637L100.42001259676614,73.83840344479478L100.60487723604838,74.07014605878129L100.7897418753306,74.08908408938403L100.97460651461284,74.19928922098796L101.5292004324595,74.36570618332762L101.71406507174174,74.73166345252699L102.0837943503062,75.06241433145811L102.26865898958842,75.15309145500193L102.45352362887066,74.9321547514159L102.63838826815287,74.63819760245406L102.82325290743509,74.85392541468671L103.00811754671733,75.06621318871665L103.19298218599954,75.3959953628876L103.562711464564,75.4763547947293L103.74757610384624,75.54861936380624L103.93244074312845,75.74696984404592L104.48703466097514,75.837009944776L104.67189930025737,76.08449419816405L104.8567639395396,76.11631428498835L105.04162857882181,76.07121140223389L105.22649321810405,76.0882464824648L105.41135785738626,75.78260837928188L105.59622249666849,75.71210935172743L105.78108713595073,75.53299654592047L106.15081641451518,75.65701753575064L106.3356810537974,75.62696969155381L106.52054569307963,75.8521864048128L106.70541033236185,76.39903664807201L107.44486888949076,76.43039938430455L107.629733528773,76.71509021634952L107.81459816805521,76.76406813299296L107.99946280733745,76.88947201091383L108.18432744661966,76.91801641261824L108.3691920859019,76.8877632132436L108.55405672518413,76.99426243464336L108.92378600374857,76.94214226666779L109.29351528231302,76.86617910023591L109.47837992159525,76.9327244921735L109.66324456087749,76.7533230575978L109.8481092001597,76.72620800567607L110.03297383944194,76.7961625199775L110.21783847872416,76.83489511641181L110.4027031180064,76.71277352557482L110.77243239657085,76.84235387384142L110.95729703585306,77.14815807131129L111.1421616751353,77.14310857278443L111.32702631441752,77.20102948488845L111.69675559298197,77.44662262725262L111.8816202322642,77.90246579957658L112.06648487154642,78.40165046287404L112.6210787893931,78.23293766772383L112.80594342867533,77.7937970368269L112.99080806795756,77.96323459777769L113.17567270723978,78.18574159148841L113.36053734652201,78.25911813235044L113.54540198580425,78.25900939001652L113.73026662508646,78.21257648662657L114.09999590365092,78.3720511301699L114.28486054293316,78.44216398198768L114.46972518221537,78.68872785848522L114.65458982149761,78.52377713548402L114.83945446077982,78.44311581406977L115.02431910006204,78.78592948240801L115.57891301790873,78.7195089208294L115.76377765719096,78.82973214155714L116.1335069357554,79.05186932791143L116.31837157503765,79.34317526158164L116.50323621431986,79.44269574996677L116.87296549288432,79.48209826349701L117.05783013216656,79.60360938216175L117.24269477144877,79.41982465116523L117.79728868929546,79.39290747988599L117.98215332857768,79.45937577321709L118.16701796785989,79.58216531240292L118.35188260714213,79.65799698114387L118.53674724642435,79.67239142097526L118.72161188570658,79.52864683480679L118.9064765249888,79.86936955438252L119.09134116427104,80.11994976082408L119.27620580355325,79.84954449432354L119.64593508211772,80.05731251272829L119.83079972139994,80.0213062395137L120.01566436068217,80.28005424697967L120.2005289999644,80.32521439180967L120.38539363924662,80.36715259137662L120.57025827852885,80.09803187780116L120.93998755709329,80.0580708283051L121.49458147493998,79.9632853924347L121.6794461142222,79.9118161174145L122.23404003206889,79.81841796024065L122.41890467135111,79.81508757359897L122.60376931063334,79.98716584002672L122.78863394991556,79.76535606214037L122.9734985891978,79.49466088882735L123.15836322848001,79.58239189764224L123.34322786776225,79.7426767927327L123.52809250704448,79.5303761076566L123.7129571463267,79.37543273905575L123.89782178560893,79.45028680673954L124.08268642489115,79.64529397102602L124.26755106417338,79.64962514407824L124.4524157034556,79.2459850879463L124.63728034273784,78.9072038162646L124.82214498202005,78.75668516270721L125.19187426058451,78.79519850831414L125.37673889986674,78.65749487754812L125.56160353914896,78.74284855270466L125.93133281771341,78.7132372432405L126.30106209627787,78.94550965764216L126.4859267355601,79.19473886820661L126.67079137484232,79.05090315208473L126.85565601412456,79.02266525215016L127.04052065340677,78.97975604983802L127.41024993197124,78.44463765902711L127.59511457125345,78.35717554993877L127.96484384981791,78.45177840399053L128.14970848910014,78.22587039863217L128.33457312838237,78.30270450159526L128.51943776766458,78.52147327081707L128.88916704622906,78.30805627235114L129.07403168551127,78.08399889254503L129.2588963247935,77.8761694074271L129.44376096407572,78.00927653848638L129.81349024264017,78.08052094306952L129.9983548819224,78.04686129026463L130.18321952120462,78.03292820093814L130.5529487997691,77.97414057244048L130.7378134390513,77.87820247667662L130.92267807833355,77.69494655969937L131.4772719961802,77.52864123259026L132.21673055330913,77.3554862439577L132.40159519259134,77.16436931194659L132.58645983187358,77.33341450265952L132.95618911043803,77.5587274758701L133.14105374972024,77.77075856855726L133.32591838900248,77.9964362138842L133.5107830282847,77.93303269771275L133.69564766756693,78.15773518720323L133.88051230684917,77.85299222706428L134.06537694613138,77.48509704402093L134.25024158541362,77.00188070765535L134.43510622469586,76.84619964284177L134.61997086397807,76.62714504442916L134.8048355032603,76.66930498968061L134.98970014254252,76.82148925153025L135.35942942110697,76.71105166250267L135.5442940603892,76.94852182776461L135.72915869967142,77.01939701104389L135.91402333895365,77.03517114547128L136.0988879782359,77.17881612056765L136.46861725680034,77.1065432953087L136.65348189608255,77.05975226330347L136.8383465353648,76.98856797185407L137.023211174647,76.74910796972242L137.5778050924937,76.91443686110338L137.76266973177593,77.02521802413997L137.94753437105814,77.1102934521027L138.13239901034038,76.988881642163L138.31726364962262,76.90508886847437L138.50212828890483,77.05291571704917L138.68699292818707,77.08827049845208L138.87185756746928,77.46226274853554L139.05672220675152,77.70949020602369L139.24158684603373,77.68812575101191L139.42645148531597,77.54861903056502L139.79618076388041,77.70528473975149L139.98104540316265,77.62483814296974L140.16591004244486,77.53440063380587L140.3507746817271,77.14001677637191L140.5356393210093,76.94665306626543L141.090233238856,76.8629142534859L141.2750978781382,76.8470372824455L141.45996251742045,77.02882216356328L141.6448271567027,77.13348407590475L141.8296917959849,77.20095325913667L142.01455643526714,77.25037766445386L142.5691503531138,77.2636625645435L142.75401499239604,77.1496365332238L142.93887963167825,77.25907850608937L143.1237442709605,77.18940997295942L143.30860891024273,77.34344442283044L143.49347354952494,77.17490727729651L144.04806746737162,77.0292981896866L144.23293210665386,77.15195071685527L144.6026613852183,77.23766690121857L144.78752602450052,77.38015654669489L144.97239066378273,77.65945747597719L145.157255303065,77.69836957898032L145.3421199423472,77.85749519099356L145.89671386019387,78.06788144894085L146.08157849947614,78.02867938314657L146.26644313875835,78.00807943442565L146.45130777804056,77.84155826108919L146.82103705660504,77.64319517723192L147.19076633516949,77.58468347972342L147.56049561373393,77.6026827458158L147.93022489229838,77.62786318032514L148.1150895315806,77.99609205790142L148.29995417086286,77.97692050639156L148.48481881014507,78.35572945700603L148.66968344942728,78.38320687202565L149.03941272799173,78.4729403446553L149.22427736727397,78.24293442040646L149.4091420065562,78.58111449132036L149.59400664583842,78.66241260858098L149.77887128512063,78.44875261174819L149.9637359244029,78.2760468454192L150.33346520296732,78.37025042382881L150.51832984224953,78.38113863845606L150.7031944815318,78.15866756152302L150.888059120814,78.13315595229159L151.25778839937846,78.02010950183913L151.44265303866067,78.14994308121864L151.62751767794293,78.01732113292789L151.81238231722514,77.8781132932114L152.18211159578956,78.11934459494053L152.36697623507183,78.17448093032705L152.55184087435404,78.09031620328726L152.73670551363625,78.07643835711036L152.9215701529185,77.96774418796294L153.10643479220073,78.09483994948003L153.47616407076518,77.82871098619559L153.6610287100474,77.82118590617893L154.03075798861187,77.77649222464018L154.21562262789408,77.69615084767497L154.58535190645853,77.51002982536627L155.13994582430522,77.36487152714587L155.32481046358743,77.49544483104192L155.5096751028697,77.76191894839593L155.8794043814341,77.9521153023064L156.06426902071632,77.96157160288791L156.4339982992808,78.30211522784336L156.61886293856304,78.48035539049631L156.80372757784525,78.51877501523414L157.17345685640973,78.37061697722724L157.35832149569194,78.31220839086077L157.54318613497415,78.35764288377054L157.72805077425636,78.23976067415454L157.91291541353863,78.51639702999485L158.09778005282084,78.52387661506656L158.28264469210305,78.30511894270855L158.4675093313853,78.34821594138134L158.65237397066753,78.30035921717524L158.83723860994976,78.5683922566327L159.02210324923198,78.51126986783599L159.20696788851419,78.50269834233485L159.39183252779645,78.71671025807521L159.57669716707866,78.81711659233424L159.76156180636087,79.25049317072613L159.94642644564308,79.31555920613057L160.13129108492535,79.45776581371933L160.31615572420756,79.52252347957084L160.685885002772,79.40902780053466L160.87074964205422,79.50247581949594L161.0556142813365,79.65292181056766L161.4253435599009,79.78680550081911L161.61020819918312,79.71974661175574L161.7950728384654,79.50356701261983L161.9799374777476,79.54774231564879L162.1648021170298,79.78703037383315L163.08912531344095,79.4936024124823L163.2739899527232,79.22226997752247L163.45885459200542,79.22668800753699L163.82858387056984,79.15851763341988L164.01344850985208,79.09984356031158L164.19831314913432,78.97298907749632L164.38317778841656,78.69960961310173L164.56804242769877,78.50874632459396L165.12263634554546,78.6319990685802L165.30750098482767,78.69028238308307L165.49236562410988,78.50116120888654L165.67723026339215,78.76382304411023L165.86209490267436,78.78375544525571L166.04695954195657,78.86434794087361L166.2318241812388,78.87142397205244L166.41668882052105,78.73901200786317L166.60155345980328,78.81114406885268L166.7864180990855,78.80390828260607L166.9712827383677,78.83544142309474L167.15614737764992,78.75230724006873L167.5258766562144,78.96170995179033L167.7107412954966,78.94820103750067L167.89560593477884,78.92555502902898L168.08047057406108,78.77529546804188L168.26533521334332,78.91868455236724L168.45019985262553,78.79535365878382L168.63506449190774,78.54913259205848L168.81992913119,78.78622351613588L169.00479377047222,79.09819337025428L169.5593876883189,79.40603853049556L169.74425232760112,79.56641382856837L169.92911696688336,79.60375321431928L170.11398160616557,79.63889390678065L170.29884624544778,79.65430411032416L170.48371088473004,79.4677382385189L170.85344016329447,79.62130380148449L171.03830480257668,79.77134860035984L171.22316944185894,79.5894393551497L171.40803408114115,79.75302831852675L171.59289872042336,79.74891977719129L171.7777633597056,80.10000854773052L171.96262799898784,80.17932896053443L172.14749263827008,80.24723647337164L172.88695119539898,80.42203548997905L173.0718158346812,80.322544268141L173.2566804739634,80.46494505611183L173.44154511324564,80.69861892544085L173.62640975252788,80.70354495814418L173.99613903109233,80.71658485928805L174.18100367037454,80.84086521069467L174.55073294893901,80.95332690994097L174.73559758822122,80.99396851910713L174.92046222750344,80.96833289123492L175.2901915060679,81.06409527324905L175.47505614535012,80.91925234078255L175.65992078463236,80.95716983157841L175.8447854239146,80.87853375274265L176.02965006319684,80.88603496084991L176.21451470247905,80.79000230899662L176.39937934176126,80.64712426119154L176.58424398104347,80.81717920318492L176.76910862032574,80.94460064010788L176.95397325960795,81.00880458091005L177.13883789889016,80.88731584696833L177.3237025381724,80.88133349928836L177.50856717745464,80.92004193554236L177.69343181673688,80.87570908959161L178.0631610953013,80.68042762476578L178.24802573458356,80.74542184175742L178.43289037386577,80.55617786334228L178.61775501314798,80.57892764221252L178.8026196524302,80.71973296943469L178.98748429171243,80.85555904615822L179.35721357027688,80.89231590157341L179.54207820955912,80.92251680310964L179.9118074881236,80.8921326217017L180.0966721274058,81.11226630751568L180.46640140597023,81.30778728808987L180.8361306845347,81.27772640588833L181.3907246023814,81.09014183601352L181.57558924166364,80.91506199598209L182.13018315951027,80.69396258996882L182.49991243807474,80.86541813016937L182.68477707735696,80.75408933448873L182.8696417166392,80.94909946267425L183.23937099520364,80.97234178304477L183.42423563448588,81.00403469293421L183.6091002737681,81.05924484252375L184.16369419161478,81.11292127396064L184.348558830897,81.24651544811456L184.71828810946147,81.57449127149634L184.90315274874368,81.52553284105717L185.08801738802592,81.73186498568273L185.27288202730813,82.0363054287888L185.4577466665904,82.13095969465455L185.6426113058726,82.21947620424567L185.82747594515482,82.09210190851577L186.1972052237193,82.17898248327603L186.3820698630015,81.96419061700244L186.56693450228371,82.09025645018677L186.9366637808482,82.33143118450586L187.12152842013043,82.40952680446942L187.30639305941264,82.32281352055617L187.49125769869485,82.07709176714407L187.67612233797712,81.9351633774962L187.86098697725933,81.93298280192087L188.04585161654154,82.01549433354536L188.23071625582375,81.87509565945082L188.415580895106,81.70199097216756L188.60044553438823,81.63551996060716L188.78531017367044,81.48202441558865L189.1550394522349,81.44309678420876L189.33990409151716,81.35167137823437L189.70963337008158,81.33679576161913L190.07936264864605,81.29029811249256L190.26422728792826,81.3240296657017L190.81882120577495,81.32570357704807L191.0036858450572,81.37719074233313L191.3734151236216,81.10234818092589L191.55827976290382,81.06898368842923L191.7431444021861,81.03528591820786L191.9280090414683,80.94453742810865L192.1128736807505,80.68994692008116L192.482602959315,80.66542837512493L192.6674675985972,80.67380553985679L193.03719687716165,80.65723418968287L193.22206151644392,80.82626180965966L193.59179079500834,80.8223103531478L193.77665543429055,80.87793074426652L193.9615200735728,80.82794219135792L194.14638471285502,80.82820551801359L194.33124935213723,80.86503627550206L194.51611399141947,80.68604732554638L194.70097863070168,80.70830094284904L194.88584326998395,80.67289143442567L195.07070790926616,80.69580990982804L195.44043718783058,80.79231783659857L195.62530182711285,80.88769726126834L195.81016646639506,80.87848507150862L195.99503110567727,80.87904151067144L196.1798957449595,80.871724696893L196.36476038424175,80.73671563161977L196.54962502352396,80.73712123379399L196.7344896628062,80.84769584873703L196.9193543020884,80.80435562628853L197.10421894137068,80.6501415623399L197.4739482199351,80.67177274260241L197.84367749849955,80.52843855090784L198.02854213778178,80.76689793241367L198.213406777064,80.86965650686302L198.39827141634623,80.89616625232556L198.58313605562844,81.0313436000333L198.7680006949107,81.08844342702872L198.95286533419292,81.15857274704885L199.13772997347513,81.21437228180575L199.32259461275734,81.25504080127878L199.69232389132182,81.11277553390526L199.87718853060403,81.1278144068461L200.2469178091685,80.95021728498914L200.61664708773296,80.8516026008217L200.80151172701517,80.9872797325315L200.98637636629738,81.18300679411945L201.17124100557965,81.1942541625836L201.54097028414407,81.20951275306025L201.7258349234263,81.20594585623944L201.91069956270854,80.91079355555976L202.09556420199075,80.72011788151771L202.280428841273,80.82871594786332L202.4652934805552,80.91582294880631L202.65015811983747,80.93011699877205L203.0198873984019,80.95914348266503L203.2047520376841,80.81555661783284L203.7593459555308,80.73527001113857L203.94421059481303,80.82488483897735L204.68366915194193,80.59951946022316L204.86853379122414,80.46948608831653L205.0533984305064,80.3000261016823L205.23826306978862,80.40351497184517L205.42312770907083,80.36036522881402L205.60799234835306,80.20624965523992L205.7928569876353,80.12028455076661L205.9777216269175,79.90751499319971L206.53231554476417,80.03862658543639L206.71718018404644,79.97817178219084L206.90204482332865,80.05610191044204L207.08690946261086,79.87450913294539L207.2717741018931,79.68251334108375L207.64150338045755,79.56835209665488L207.8263680197398,79.5055634556549L208.011232659022,79.44366700124857L208.19609729830427,79.42892436860991L208.38096193758648,79.19549195861644L208.7506912161509,79.31793496971986L208.93555585543317,79.23372147734338L209.12042049471538,79.43443639239167L209.3052851339976,79.42578960821601L209.49014977327982,79.42775638787683L209.67501441256204,79.27909923152092L209.85987905184427,79.03270798073196L210.0447436911265,78.98708237926176L210.22960833040872,78.98409872283452L210.41447296969093,78.77019011056358L211.15393152681986,78.77753545192117L211.5236608053843,78.5859245827699L211.70852544466655,78.5275809626701L211.89339008394876,78.63163578786047L212.07825472323103,78.61570028174074L212.26311936251324,78.52965405764601L212.8177132803599,78.45310241955396L213.18744255892435,78.46547852245155L213.37230719820658,78.45158657492617L213.74203647677103,78.55569129768246L213.92690111605327,78.36755584213348L214.2966303946177,78.34320548159724L214.48149503389996,78.25219096827031L214.85122431246438,78.35773738161706L215.5906828695933,78.30101088028935L215.77554750887552,78.32809942459416L215.96041214815773,78.43072071212023L216.14527678744,78.4766753657923L216.3301414267222,78.66483771508197L217.0695999838511,78.61944007749467L217.25446462313334,78.54529250260359L217.43932926241555,78.59276968600622L217.6241939016978,78.61183282183696L217.99392318026224,78.58990161345413L218.17878781954445,78.83047245535603L218.36365245882672,78.74824057673676L218.73338173739114,78.93347707624608L218.91824637667338,78.87956701715585L219.1031110159556,78.89016397929602L219.47284029452007,78.78250042697432L219.8425695730845,78.70876771578513L220.02743421236676,78.66853456154843L220.21229885164897,78.63392850808862L220.58202813021342,78.58998507485829L220.76689276949566,78.73423166262914L220.95175740877787,78.72988536479725L221.1366220480601,78.54835473499705L221.32148668734231,78.73373852962169L221.50635132662458,78.70902381486592L221.6912159659068,78.88741622535721L221.876080605189,78.97452086168441L222.0609452444712,79.13261075235373L222.24580988375345,79.17473628094915L222.4306745230357,79.15872614050544L222.6155391623179,79.11990115074389L222.80040380160014,79.03852756028891L223.1701330801646,79.02669231930928L223.35499771944683,78.99193604744788L223.53986235872904,78.95872669095354L223.90959163729352,78.74802019011042L224.09445627657573,78.69583953451112L224.27932091585794,78.72908323252285L224.46418555514018,78.69383896873373L224.83391483370463,78.57200719529504L225.01877947298686,78.56679443451178L225.20364411226907,78.47480987897178L225.38850875155129,78.49988703765322L225.94310266939797,78.57908117014549L226.1279673086802,78.52748844893789L226.31283194796245,78.39934954595404L227.2371551443736,78.52342635840806L227.606884422938,78.52687385952487L227.79174906222028,78.73528904300385L227.9766137015025,78.84228992113445L228.1614783407847,78.83102142583206L228.34634298006694,78.92170942948022L228.71607225863139,79.01133564502575L228.90093689791362,78.99961081567359L229.08580153719583,79.03988856987252L229.27066617647804,78.9980793576255L229.4555308157603,79.01655462362346L229.64039545504252,78.93385499137311L229.82526009432473,79.05693436938957L230.01012473360697,78.9314902231452L230.1949893728892,78.88388626206289L230.56471865145366,78.95969880629268L230.74958329073587,78.93523620800343L230.93444793001808,78.86583414911418L231.11931256930035,79.02164201320997L231.30417720858256,79.07636433464037L231.48904184786477,79.29631974550638L231.673906487147,79.46193484006066L232.2285004049937,79.50555234913342L232.4133650442759,79.43304050966347L232.78309432284038,79.52234881545311L232.9679589621226,79.86582145992996L233.1528236014048,79.90080181818634L233.33768824068707,80.01125405143627L233.52255287996928,80.19508563556491L233.7074175192515,80.21102950464453L233.89228215853373,80.46834919581875L234.07714679781594,80.48248836022276L234.26201143709818,80.75225998324592L234.44687607638042,80.72838511070424L234.81660535494484,80.82311915205256L235.0014699942271,80.78606687784375L235.37119927279153,80.930209626878L235.55606391207377,80.92817789552603L235.92579319063822,81.06554464154749L236.11065782992046,81.04036006281069L236.4803871084849,81.27024786472168L236.66525174776714,81.3363582751261L236.85011638704935,81.41538615671487L237.03498102633156,81.5835006780247L237.2198456656138,81.81159573003973L237.40471030489604,81.92760363969663L237.7744395834605,82.17664345469336L237.9593042227427,82.37408865197935L238.14416886202494,82.55051851161335L238.5138981405894,82.74193222530432L238.6987627798716,82.91531121773107L239.06849205843608,83.24541317800907L239.2533566977183,83.59682985472864L239.43822133700053,83.66223058822114L239.62308597628277,83.72997685113734L239.80795061556498,83.70382757758799L239.99281525484722,83.90032311530797L240.17767989412943,84.12383832615413L240.91713845125832,84.18524726995865L241.10200309054056,84.35517756445984L241.2868677298228,84.33005501508876L241.65659700838725,84.49148791539737L241.84146164766946,84.41531090845353L242.0263262869517,84.54964945618678L242.39605556551615,84.62511825805795L242.58092020479836,84.85494814500849L242.76578484408063,85.02169636930616L243.13551412264505,85.21144944246977L243.5052434012095,85.18787276708888L243.87497267977398,85.23013553977245L244.0598373190562,85.26859221395911L244.2447019583384,85.62903082941246L244.42956659762066,85.88890051673614L244.79929587618508,85.98073470791476L244.98416051546732,86.19335905522917L245.16902515474956,86.38513331635093L245.35388979403177,86.41934701783022L245.538754433314,86.6300559490065L245.72361907259622,86.6421859408136L246.2782129904429,86.93002942282673L246.46307762972512,87.06095579832258L247.0176715475718,87.06163318897582L247.20253618685405,87.25936834507313L247.38740082613626,87.14854450911982L247.75713010470074,87.26216520804591L247.94199474398295,87.26335104706033L248.49658866182963,87.33047102360047L248.68145330111184,87.45752913481931L248.86631794039408,87.36724054639477L249.23604721895853,87.52924475487337L249.42091185824077,87.81260430102374L249.60577649752298,87.76235787402443L249.7906411368052,87.72214743109653L249.97550577608746,87.93319978088039L250.16037041536967,88.35065874960814L250.34523505465188,88.5367846907165L250.71496433321636,88.4459339833126L251.26955825106302,88.611152100481L251.45442289034526,88.77296273631845L252.00901680819192,88.76354176084536L252.19388144747418,88.75484266267146L252.3787460867564,88.84926912347768L252.5636107260386,88.81167308653865L252.74847536532084,88.82011635589217L253.1182046438853,88.8466341326002L253.30306928316753,88.75342766131223L253.48793392244974,88.82260571023066L253.67279856173195,88.79629797704499L253.85766320101422,88.83249708655232L254.04252784029643,88.71044126354832L254.22739247957864,88.87230575354081L254.41225711886088,88.95156439926461L254.59712175814312,89.11489359338859L254.78198639742533,89.27911349477534L254.96685103670757,89.48514147637671L255.15171567598978,89.4067616452508L255.33658031527202,89.42734081686758L255.52144495455425,89.44418464795048L255.70630959383647,89.47251032465971L255.89117423311868,89.5400890759659L256.0760388724009,89.42888989352234L256.44576815096536,89.40021125170084L256.6306327902476,89.47490975615781L257.18522670809426,89.4333999985869L257.3700913473765,89.3903729882977L257.739820625941,89.43769885887261L257.9246852652232,89.30449696511216L258.1095499045054,89.32386854390887L258.29441454378764,89.30666091105329L258.4792791830698,89.19220964108546L258.6641438223521,89.19539903784684L259.2187377401988,89.33030580600003L259.403602379481,89.53141909168653L259.9581962973277,89.59074034456306L260.1430609366099,89.73516527435335L260.32792557589215,89.51548921949596L260.51279021517433,89.69354081338142L260.6976548544566,89.8486901379009L260.8825194937388,89.93080782275841L261.2522487723033,89.92876509540316L261.43711341158547,90.0103760031432L261.80684269014995,90.10676447534749L261.9917073294322,90.2432813820134L262.3614366079966,90.33315325697514L262.7311658865611,90.37869018299106L262.9160305258433,90.51390559951473L263.1008951651255,90.70143073497256L263.28575980440775,90.70434587461324L263.6554890829722,90.6795758470267L263.8403537222544,90.81503917968891L264.2100830008189,90.83215721550383L264.3949476401011,90.78835100237859L264.57981227938336,90.7590605900682L264.76467691866554,90.81562189290558L264.9495415579478,90.63580976868872L265.31927083651226,90.62841303868987L265.50413547579444,90.59764149401566L265.68900011507674,90.62200396289316L265.8738647543589,90.65633214752039L266.2435940329234,90.75865976160834" fill="none"></path></g></g></g></g><g opacity="0.2"><g><g><g><path style="fill: none;" stroke="rgb(255, 112, 67)" stroke-width="2px" d="M24.625510491053262,261.1032961676882L24.81037513033549,115.53550866095L24.99523976961772,206.7965476345053L25.549833687464396,3.0218590497829685L25.91956296602885,10.879600518780924L26.104427605311077,175.29288524627458L26.2892922445933,138.46895774979055L26.843886162439983,-7.0851799898817065L27.028750801722207,-34.96689969238587L27.213615441004436,120.55110790092775L27.39848008028666,35.88927119925523L27.58334471956889,-13.889818924515605L27.768209358851117,137.27023213869475L27.95307399813334,63.14900629124266L28.322803276697798,165.90920717702105L28.50766791598002,24.24686341692424L28.877397194544475,143.20458339674687L29.0622618338267,24.667705673429715L29.247126473108928,-39.912332994917854L29.431991112391156,86.39080208442151L29.61685575167338,33.36444771247623L29.80172039095561,75.79543879376797L29.986585030237833,-3.2283539529021916L30.171449669520058,93.27657278060475L30.356314308802286,11.542917850918771L30.541178948084514,-15.235471241782038L30.910908226648967,144.24135222108256L31.095772865931195,36.02093777258248L31.28063750521342,144.60015705311412L31.465502144495645,24.0860568914337L31.650366783777873,82.08767467483597L32.020096062342326,78.44901485865789L32.20496070162455,210.91003530277558L32.94441925875346,38.97703255137803L33.12928389803568,104.99474443856029L33.31414853731791,157.92278981399681L33.49901317660014,124.22067140321585L33.68387781588236,-37.36205039203827L33.86874245516459,188.30249357365594L34.05360709444682,69.41693331747973L34.23847173372904,211.74351461873007L34.423336373011274,128.9584442045421L34.79306565157572,144.33567364519L34.97793029085795,78.49563878211913L35.347659569422405,100.32522047256383L35.53252420870463,42.28081296993232L35.71738884798686,68.71220657963616L35.902253487269085,100.94574808547245L36.27198276583354,8.294196605136156L36.45684740511577,138.555610765434L36.64171204439799,43.606527425192304L36.826576683680216,-66.43106977702689L37.196305962244665,207.48179661485023L37.3811706015269,44.41838182927823L37.56603524080912,25.148054779616004L37.750899880091346,138.7884236464017L38.1206291586558,-35.876909724811306L38.49035843722026,4.598177093647177L38.67522307650248,86.35430046013278L38.86008771578471,9.754261576685796L39.04495235506694,49.327696927944665L39.229816994349164,32.348767011416605L39.41468163363139,76.06958439635673L39.59954627291362,56.64144150050494L39.96927555147806,-14.070333259758666L40.154140190760295,146.42462479487406L40.33900483004252,115.72652871578877L40.708734108606976,186.2594761906714L40.8935987478892,106.66722432456334L41.26332802645366,81.02974104313961L41.633057305018106,-57.633488166678504L41.81792194430034,-5.650957554855789L42.00278658358256,74.53076486988158L42.55738050142924,55.148172320306074L42.74224514071147,69.0868083331036L43.29683905855814,149.33631948866292L43.48170369784037,-35.862953221406784L43.85143297640482,110.90655057572822L44.036297615687054,232.73900352054318L44.22116225496928,148.45797998319392L44.406026894251504,20.180153040284473L44.590891533533735,169.06199663291875L44.77575617281596,74.00172136994877L44.960620812098185,52.78829629958816L45.33035009066264,22.72575791400098L45.515214729944866,15.397980153951535L45.7000793692271,242.833006265819L45.88494400850932,113.70275903804892L46.25467328707377,150.56288142248314L46.439537926355996,36.56071704436493L46.62440256563822,53.907653883081345L46.99413184420268,-53.59829494882585L47.36386112276713,84.3478613855216L47.54872576204936,61.508196932196036L47.73359040133158,37.133393788458044L47.918455040613814,16.590034249683633L48.10331967989604,81.71192266009894L48.288184319178264,181.7878738471313L48.473048958460495,7.755567594623298L48.65791359774272,39.1621479316995L49.027642876307176,135.62681552077035L49.39737215487162,0.8857471880452166L49.58223679415385,-30.472982280215493L49.9519660727183,-0.45047298681047565L50.13683071200053,71.90333807785397L50.321695351282756,-36.43309939070676L50.69142462984721,60.85400500613038L50.87628926912944,50.08272842531218L51.06115390841166,126.41000201969392L51.24601854769389,106.3336485563784L51.43088318697612,20.646699011235537L51.61574782625834,151.12735296951973L51.9854771048228,48.3777344874217L52.54007102266947,68.83704826943043L52.7249356619517,188.6029418172763L53.094664940516154,-210.02500894512605L53.27952957979838,110.86713495622314L53.46439421908061,89.99924837125137L53.649258858362835,1.479895475837573L53.83412349764506,19.584777807137858L54.01898813692729,162.32813710840776L54.203852776209516,169.14082787192888L54.38871741549174,24.945302059827295L54.57358205477397,208.4083704095579L54.94331133333842,-23.8056845411722L55.31304061190287,104.89053076753424L55.497905251185095,-4.985646436517325L55.68276989046732,110.20619483070914L55.86763452974955,134.76120557335165L56.052499169031776,45.05693020207728L56.42222844759623,26.298316049219206L56.60709308687846,132.0582449579534L56.79195772616069,117.78979069711833L56.976822365442914,6.0556348063190635L57.16168700472514,-58.10133776706845L57.531416283289595,47.697700024832294L57.71628092257182,-27.418425136741927L57.90114556185405,10.418729170093236L58.086010201136276,26.953044763877337L58.27087484041849,-9.759384073539824L58.45573947970072,23.5191314536886L58.64060411898295,-31.854369380924293L59.19519803682963,194.43039546133997L59.380062676111855,111.01176113985457L59.56492731539408,12.531759122354295L59.74979195467631,38.557187187972865L59.934656593958536,104.22276575848728L60.30438587252299,65.94582822624051L60.67411515108745,-19.188535804985026L60.85897979036967,121.2968606240538L61.0438444296519,71.1549014117655L61.22870906893413,70.46221407521045L61.59843834749857,11.189557588896658L61.7833029867808,62.75462004393804L61.96816762606303,42.31831148732138L62.15303226534525,136.84080126470954L62.33789690462748,57.72460419604793L62.52276154390971,-47.58917670824953L62.707626183191934,-5.231495611873844L62.89249082247416,38.658103443359394L63.07735546175639,90.73242490449643L63.262220101038615,141.9502618242869L63.63194937960307,100.51386332077877L64.00167865816752,-2.061912341439932L64.18654329744975,14.044812796390348L64.5562725760142,80.29073651946187L64.74113721529642,60.75362553933634L64.92600185457866,-41.550458411002076L65.11086649386088,-78.1727067648823L65.29573113314311,90.89177443237878L65.66546041170756,94.7989819129669L65.85032505098978,20.018886410286115L66.03518969027202,109.38820569985201L66.5897836081187,100.54001259364108L66.95951288668314,97.75960105275624L67.14437752596538,89.79028424060677L67.3292421652476,43.89347926991599L67.51410680452982,79.48194947876154L67.69897144381206,38.57474784335548L67.88383608309428,130.91258473342864L68.0687007223765,104.3252156955666L68.25356536165873,148.4136565822719L68.43843000094095,86.9597979924519L68.80815927950542,21.982305713414107L68.99302391878764,80.76502758296158L69.36275319735209,10.473941711034206L69.54761783663432,-47.104379925154085L69.73248247591654,3.57344767060003L69.91734711519878,88.85665551011219L70.102211754481,75.0960032577646L70.28707639376323,18.321484196775007L70.8416703116099,93.24904319421893L71.02653495089213,-22.01925210539382L71.21139959017435,83.95907307639573L71.39626422945658,50.21937946414104L71.76599350802104,-6.874912229798222L71.95085814730326,147.67771942197976L72.13572278658549,111.62768770768477L72.32058742586771,128.56237090737542L72.69031670443218,112.92533578796645L72.87518134371439,149.96336524876594L73.24491062227885,80.11865743352924L73.79950454012554,114.37857587598312L74.16923381868999,-38.00251586695335L74.35409845797221,259.01702896096657L74.72382773653666,88.73097029538688L74.9086923758189,99.68552183849519L75.09355701510111,243.1677322952735L75.27842165438334,-26.026839052775973L75.64815093294779,94.15015787282607L75.83301557223002,-4.602609433739456L76.01788021151225,-64.12134514766367L76.20274485079447,123.8900863143319L76.3876094900767,-4.266503090761408L76.57247412935894,215.84933387853633L76.75733876864115,73.17920787809783L76.94220340792339,12.847697551071974L77.12706804720561,68.29167105946925L77.31193268648784,1.194707365060635L77.49679732577006,42.67144169708955L77.86652660433451,106.02691221781754L78.05139124361675,98.54208545242497L78.79084980074563,68.06936389809727L78.97571444002787,116.22106437763351L79.1605790793101,5.2102694572453645L79.34544371859234,43.98519343514569L79.53030835787455,23.834839830152358L79.71517299715678,-11.97616759231909L79.90003763643901,45.76242378076725L80.26976691500346,67.31947023440063L80.4546315542857,60.73169389112924L80.63949619356791,151.6757208587819L80.82436083285015,111.5469393665586L81.00922547213237,84.31810796068119L81.19409011141458,147.02176376196738L81.37895475069682,69.82558280452741L81.74868402926127,-23.95659881974417L81.9335486685435,110.41669264304653L82.11841330782573,206.69785521757333L82.30327794710794,124.70470134546485L82.48814258639018,232.3689261280695L82.6730072256724,136.9751517809992L83.04273650423686,143.22620830861544L83.2276011435191,49.1941132525014L83.4124657828013,-99.68075208843061L83.59733042208354,-34.375205295301996L83.78219506136577,163.4283236707409L84.15192433993022,88.39241006170033L84.70651825777689,-53.95571946733391L85.07624753634134,57.92260250258897L85.26111217562358,98.31701766400592L85.44597681490579,126.45125805723035L85.63084145418803,136.2783235038736L85.81570609347025,-22.90756054186605L86.0005707327525,-100.89604146180872L86.37030001131694,176.20465901264672L86.55516465059917,104.19009833843053L86.74002928988139,-14.051699027191088L87.10975856844586,100.58134531526215L87.29462320772807,-20.584569565860097L87.47948784701029,80.81993338756399L87.66435248629253,29.181177527183348L87.84921712557474,129.81860958195136L88.03408176485698,93.09920249283196L88.21894640413919,83.67840932661255L88.40381104342143,130.24880729678296L88.58867568270365,188.2623877973891L88.77354032198589,108.74191223450428L88.9584049612681,91.13616661012713L89.32813423983255,99.89187871026196L89.51299887911479,153.1231329563659L89.69786351839701,130.03869290486878L89.88272815767925,-44.11462083320149L90.2524574362437,52.42711426093277L90.43732207552593,103.73007051467391L90.80705135409038,134.8675663987476L90.99191599337259,-8.186593497569058L91.17678063265483,156.94384078947985L91.36164527193705,67.01135358231625L91.54650991121929,83.29322516946475L91.7313745505015,96.62252944571117L91.91623918978374,280.833881093361L92.10110382906595,51.18345177623781L92.28596846834819,20.46549451923071L92.47083310763041,24.304529848573665L93.21029166475932,95.6619079174232L93.39515630404154,72.69640488120305L93.58002094332377,115.41595817299591L93.94975022188822,-1.901719288626535L94.68920877901714,194.42357057780697L94.87407341829935,156.82820118984242L95.24380269686381,21.61820967954239L95.42866733614605,77.24653172741472L95.61353197542826,81.46783721868913L96.16812589327495,88.12516602672919L96.35299053255717,60.630931003912L96.53785517183938,62.81849788644334L96.72271981112162,71.71538538640081L96.90758445040385,192.61405623255192L97.09244908968608,128.71957328088783L97.2773137289683,104.95969981187972L97.46217836825053,51.4820596018268L97.64704300753274,224.24002973578374L97.83190764681498,183.2621253743394L98.01677228609721,55.70397856577833L98.20163692537945,112.29552940081638L98.38650156466166,148.21880232320112L98.5713662039439,95.97056135810008L98.7562308432261,42.61638252431789L98.94109548250835,55.07217839242762L99.12596012179057,102.9104710180393L99.31082476107281,91.77839581898893L99.49568940035502,202.30922505361397L99.68055403963724,43.71917634552878L99.86541867891948,151.12666281275798L100.42001259676614,0.564900977910558L100.60487723604838,137.3282819907674L100.7897418753306,79.27229519135521L100.97460651461284,104.44162213605044L101.5292004324595,120.15419107883001L101.71406507174174,175.68719480949454L102.0837943503062,166.54484155460375L102.26865898958842,100.29899451561687L102.45352362887066,13.504189999676836L102.63838826815287,-7.303882999275575L102.82325290743509,135.14454931246806L103.00811754671733,134.54817718622112L103.19298218599954,168.0363470008559L103.562711464564,98.10813021744599L103.74757610384624,95.95246391412499L103.93244074312845,131.89322080780767L104.48703466097514,101.38875204243892L104.67189930025737,146.49302699837313L104.8567639395396,85.19176973698713L105.04162857882181,63.17515556410497L105.22649321810405,80.97115440247448L105.41135785738626,-12.042729377786786L105.59622249666849,55.40399042666583L105.78108713595073,23.809994186728932L106.15081641451518,111.55905545193177L106.3356810537974,66.90729327945948L106.52054569307963,141.36815293778307L106.70541033236185,235.86602712400176L107.44486888949076,85.59827206966492L107.629733528773,160.1363526012212L107.81459816805521,91.15035316578559L107.99946280733745,113.81280069950763L108.18432744661966,85.34260733147444L108.3691920859019,67.93754395660073L108.55405672518413,108.57627461168144L108.92378600374857,61.44945692336162L109.29351528231302,54.23287108604049L109.47837992159525,96.80664793293231L109.66324456087749,23.049058014844118L109.8481092001597,68.59027888505824L110.03297383944194,97.8350581920422L110.21783847872416,88.51081028838483L110.4027031180064,39.814116019310596L110.77243239657085,116.08495012739714L110.95729703585306,169.9719299812595L111.1421616751353,75.60687262963768L111.32702631441752,94.86285975547219L111.69675559298197,152.5058260750122L111.8816202322642,217.5352334793514L112.06648487154642,231.65645429767727L112.6210787893931,26.319634224749187L112.80594342867533,-57.634331691609546L112.99080806795756,130.33369657847967L113.17567270723978,147.11263440226602L113.36053734652201,101.03983945732597L113.54540198580425,78.2251740155931L113.73026662508646,63.73295559577788L114.09999590365092,128.21215469282356L114.28486054293316,100.40244134579653L114.46972518221537,156.08490235742485L114.65458982149761,26.632888710504442L114.83945446077982,53.01313403575327L115.02431910006204,187.09870681297386L115.57891301790873,57.688409308097754L115.76377765719096,113.8055157114668L116.1335069357554,149.69136680054712L116.31837157503765,172.17667409875025L116.50323621431986,111.22563305191613L116.87296549288432,92.09249382967525L117.05783013216656,118.57457561932628L117.24269477144877,20.351848705793916L117.79728868929546,70.72355343566431L117.98215332857768,100.9121604564L118.16701796785989,119.29578943536748L118.35188260714213,104.23534194836827L118.53674724642435,84.34740128101375L118.72161188570658,32.74652735844539L118.9064765249888,190.98812358592548L119.09134116427104,162.00943805264302L119.27620580355325,-8.700530232827784L119.64593508211772,148.2349826650602L119.83079972139994,68.1819361343491L120.01566436068217,165.53345516228399L120.2005289999644,95.23500761823117L120.38539363924662,94.24125856537864L120.57025827852885,-9.113013924107488L120.93998755709329,66.78467542811978L121.49458147493998,48.41630658199572L121.6794461142222,62.747258371812585L122.23404003206889,48.608783634442666L122.41890467135111,78.70000186768529L122.60376931063334,137.71699361580863L122.78863394991556,5.204134730474146L122.9734985891978,-11.67878671208434L123.15836322848001,109.18936386837993L123.34322786776225,133.94076255178598L123.52809250704448,7.603579738866403L123.7129571463267,26.778818523574767L123.89782178560893,104.90939505235575L124.08268642489115,146.09894748740706L124.26755106417338,81.12843346007156L124.4524157034556,-58.835741245667734L124.63728034273784,-37.209449063604254L124.82214498202005,27.067917522668367L125.19187426058451,92.04609995846792L125.37673889986674,31.188996915318036L125.56160353914896,108.22138066796651L125.93133281771341,68.46704756104141L126.30106209627787,159.4687409603435L126.4859267355601,165.7590597392955L126.67079137484232,28.998976142078202L126.85565601412456,69.17806239382546L127.04052065340677,63.99237785411572L127.41024993197124,-108.80983899667864L127.59511457125345,47.69470934553132L127.96484384981791,111.67898936030906L128.14970848910014,-1.2657781747052197L128.33457312838237,105.3885172131878L128.51943776766458,155.78399400929663L128.88916704622906,2.797788154464276L129.07403168551127,-1.335560691727831L129.2588963247935,4.07480821597773L129.44376096407572,125.36203731900078L129.81349024264017,103.4714917812671L129.9983548819224,66.0291838262444L130.18321952120462,73.04938172280197L130.5529487997691,56.90945237632248L130.7378134390513,43.440353013776964L130.92267807833355,11.796282066570024L131.4772719961802,17.61905798147066L132.21673055330913,14.867786392749101L132.40159519259134,8.07265628461057L132.58645983187358,138.55361697923334L132.95618911043803,159.2999592900504L133.14105374972024,154.8283569465103L133.32591838900248,160.1569806199894L133.5107830282847,54.80999550704274L133.69564766756693,160.24846473296518L133.88051230684917,-33.67208892323588L134.25024158541362,-100.44958672103337L134.43510622469586,19.57710939867385L134.61997086397807,-4.092890323135942L134.8048355032603,92.23152207512794L134.98970014254252,133.09209978707278L135.35942942110697,35.80691249235164L135.5442940603892,165.05256926750525L135.72915869967142,103.35937964952312L135.91402333895365,82.90735085555521L136.0988879782359,130.74303622228913L136.46861725680034,50.11125490479835L136.65348189608255,59.55313619429381L136.8383465353648,50.31086357711681L137.023211174647,-13.142685887865996L137.5778050924937,139.0809734293041L137.76266973177593,118.7498754368138L137.94753437105814,109.2060809988315L138.13239901034038,31.10924546729221L138.31726364962262,45.18905687991238L138.50212828890483,133.09792777750542L138.68699292818707,90.51410531552574L138.87185756746928,219.71589879426512L139.05672220675152,171.89915439643732L139.24158684603373,69.53541022824885L139.42645148531597,24.226465450409925L139.79618076388041,137.6825624618052L139.98104540316265,46.7774143250651L140.16591004244486,42.80027095928512L140.3507746817271,-74.57261904327825L140.5356393210093,2.444197840188261L141.090233238856,44.547211091473805L141.2750978781382,70.7102104049369L141.45996251742045,147.4043406602374L141.6448271567027,117.7159439236098L141.8296917959849,103.40324294593732L142.01455643526714,96.4749892668634L142.5691503531138,82.43919451882671L142.75401499239604,32.65788055660132L142.93887963167825,120.02881260044327L143.1237442709605,49.92069495446743L143.30860891024273,137.72711591498114L143.49347354952494,11.003675367728794L144.04806746737162,19.771810289575335L144.23293210665386,125.45658879536215L144.6026613852183,111.04741923921229L144.78752602450052,133.66968431258286L144.97239066378273,188.16400211679573L145.157255303065,93.11729993680704L145.3421199423472,141.00697089912768L145.89671386019387,161.68698147673092L146.08157849947614,62.42403495505409L146.26644313875835,69.79575269560236L146.45130777804056,11.35665220932769L146.82103705660504,-1.673814189075809L147.19076633516949,54.15327300618396L147.56049561373393,84.82138560817492L147.93022489229838,87.7416689194435L148.1150895315806,226.11641260284512L148.29995417086286,70.25371004907373L148.48481881014507,231.183773599955L148.66968344942728,89.48515826782338L149.03941272799173,114.78216421344455L149.22427736727397,-14.962015795955065L149.4091420065562,215.82211102848902L149.59400664583842,111.70322153105539L149.77887128512063,-8.512577541374599L149.9637359244029,7.881176125263959L150.33346520296732,116.82334117839774L150.51832984224953,82.83204708443851L150.7031944815318,-12.914857472399918L150.888059120814,67.67436417811552L151.25778839937846,31.608765594638573L151.44265303866067,131.52966156252842L151.62751767794293,23.413230732800486L151.81238231722514,20.48067796798947L152.18211159578956,177.7240774657079L152.36697623507183,100.97266419918115L152.55184087435404,43.239977500612085L152.73670551363625,72.32187981182025L152.9215701529185,32.83333374225813L153.10643479220073,130.9445619967236L153.47616407076518,-32.98983062219193L153.6610287100474,74.68328951423098L154.03075798861187,59.11358302113611L154.21562262789408,44.10098640295241L154.58535190645853,-0.4255506593024423L155.13994582430522,16.497629927692174L155.32481046358743,132.32265168179288L155.5096751028697,189.80764878697406L155.8794043814341,158.03497862982545L156.06426902071632,81.94864642938326L156.4339982992808,222.08267638260065L156.61886293856304,153.83775194112806L156.80372757784525,94.78418188463135L157.17345685640973,15.560857149727353L157.35832149569194,53.51702515592412L157.54318613497415,97.6712609872507L157.72805077425636,28.061896627774814L157.91291541353863,196.42832260255608L158.09778005282084,81.7162169688388L158.28264469210305,-15.187390320712625L158.4675093313853,96.79161785234282L158.65237397066753,57.79269966320845L158.83723860994976,193.57935549000288L159.02210324923198,53.96792757360857L159.20696788851419,74.8149560875582L159.39183252779645,170.9131504361335L159.57669716707866,122.12926636282334L159.76156180636087,266.44158203583197L159.94642644564308,107.45684034410361L160.13129108492535,141.04316578707787L160.31615572420756,107.60376705027424L160.685885002772,30.129069497421014L160.87074964205422,120.13049569667619L161.0556142813365,145.14660784026026L161.4253435599009,138.14588770120133L161.61020819918312,50.45142550426233L161.7950728384654,-14.971141202027237L161.9799374777476,98.87803842723372L162.1648021170298,184.62940260347438L163.2739899527232,-39.964324804303885L163.45885459200542,81.16984286577726L163.82858387056984,49.137443713952294L164.01344850985208,53.228002840915146L164.19831314913432,22.966775992025166L164.38317778841656,-42.149744532465334L164.56804242769877,-5.970040031043735L165.12263634554546,133.25397988974825L165.30750098482767,104.55212390201699L165.49236562410988,-5.521898240406311L165.67723026339215,195.6053490061973L165.86209490267436,87.66145736690983L166.04695954195657,114.80409586165165L166.2318241812388,82.03085176811759L166.41668882052105,19.544288610447826L166.60155345980328,111.09757063056699L166.7864180990855,75.56116891519213L166.9712827383677,92.9844831022102L167.15614737764992,41.403930462071486L167.5258766562144,173.15186560311986L167.7107412954966,72.86441971064977L167.89560593477884,68.71443041809073L168.08047057406108,10.940641050154541L168.26533521334332,143.7301761128709L168.45019985262553,22.982649597545674L168.63506449190774,-33.011378849975834L169.5593876883189,219.391525116237L169.74425232760112,152.58066974162105L169.92911696688336,96.62360302289612L170.11398160616557,95.67563436857381L170.29884624544778,86.69523790044315L170.48371088473004,-5.875488554682345L170.85344016329447,149.95193932015454L171.03830480257668,148.57070558761504L171.22316944185894,-3.918894135087317L171.40803408114115,154.939472185154L171.59289872042336,77.85839403875896L171.7777633597056,241.8410209469132L171.96262799898784,116.76368096054765L172.14749263827008,111.60422237778486L172.88695119539898,161.2311712776295L173.0718158346812,34.27461111307091L173.2566804739634,146.44924038604356L173.44154511324564,189.10131168335303L173.62640975252788,82.99139661232088L173.99613903109233,86.7798204458013L174.18100367037454,138.69456232680207L174.55073294893901,133.36532518064584L174.73559758822122,99.9563700254444L174.92046222750344,68.99371385435037L175.2901915060679,125.84645068167299L175.47505614535012,13.107886650256212L175.65992078463236,98.72919461894708L175.8447854239146,43.97990223330551L176.02965006319684,84.40982212591088L176.21451470247905,35.62662820936251L176.39937934176126,13.37720115551264L176.58424398104347,160.9723624919688L176.76910862032574,141.07176895064865L176.95397325960795,111.33897212901435L177.13883789889016,23.43163491311412L177.3237025381724,78.04895398908991L177.50856717745464,99.26713347269819L177.69343181673688,59.839474566340364L178.0631610953013,-12.084368835746451L178.24802573458356,111.65376029646244L178.43289037386577,-9.538840646114576L178.61775501314798,91.42150808907337L178.8026196524302,147.9013302127906L178.98748429171243,145.73232087874223L179.35721357027688,98.46823867891645L179.54207820955912,95.37932706552402L179.9118074881236,66.33177922423468L180.0966721274058,186.71659001921168L180.46640140597023,175.20623223063114L180.8361306845347,66.82547136114837L181.3907246023814,-9.191385058609779L182.13018315951027,-25.946550816157657L182.49991243807474,163.6503240957743L182.68477707735696,26.9430758328741L182.8696417166392,175.3082220632026L183.23937099520364,92.23052518202762L183.42423563448588,96.37184917302228L183.6091002737681,107.85889499987223L184.16369419161478,107.19565435181903L184.348558830897,146.23184100608856L184.71828810946147,241.28260744256318L184.90315274874368,57.66011288086551L185.08801738802592,182.41668334118108L185.27288202730813,230.75104531033028L185.4577466665904,128.4165177783897L185.6426113058726,125.54883974918434L185.82747594515482,19.676722024621473L186.1972052237193,124.79603209027137L186.3820698630015,-23.505696402059716L186.56693450228371,144.05677362935356L186.9366637808482,201.0010712537366L187.12152842013043,120.87594168346368L187.30639305941264,39.56780673944623L187.49125769869485,-39.2032352642498L187.67612233797712,11.812155672090553L187.86098697725933,80.85451790973673L188.04585161654154,122.86551025945401L188.23071625582375,12.295418773493164L188.415580895106,-4.173485296092808L188.60044553438823,48.626497657994555L188.78531017367044,5.1801326119817634L189.1550394522349,62.07282184740191L189.33990409151716,35.81281716686894L189.70963337008158,73.919822767553L190.07936264864605,58.08333234399485L190.26422728792826,98.17630236869115L190.81882120577495,82.1628250777834L191.0036858450572,107.15156100315093L191.3734151236216,-56.62026135632736L191.55827976290382,64.33354534668003L191.7431444021861,64.1159159144711L191.9280090414683,35.335382055898975L192.1128736807505,-47.390718297200635L192.482602959315,68.31835712092403L192.6674675985972,84.89653601112231L193.03719687716165,72.29580722304259L193.22206151644392,166.196312389914L193.59179079500834,78.82461350522564L193.77665543429055,109.02479982274201L193.9615200735728,55.50644036374515L194.14638471285502,80.96172226006372L194.33124935213723,99.55776615348458L194.51611399141947,-10.244257540719873L194.70097863070168,92.02455173068402L194.88584326998395,62.64933279572703L195.07070790926616,92.37262079086594L195.44043718783058,130.00970632087478L195.62530182711285,129.57621119040365L195.81016646639506,76.17142086075893L195.99503110567727,81.16363145492141L196.1798957449595,77.12598434636028L196.36476038424175,11.554957252207267L196.54962502352396,80.94515849778145L196.7344896628062,137.61623072859138L196.9193543020884,58.53262439590186L197.10421894137068,1.3276008837421074L197.4739482199351,91.80860934833719L197.84367749849955,6.663279493008117L198.02854213778178,203.76875323657114L198.213406777064,133.92412210541906L198.39827141634623,94.59599914092426L198.58313605562844,150.9541236223175L198.7680006949107,110.65180604655343L198.95286533419292,117.50168859112505L199.13772997347513,110.15819059372437L199.32259461275734,102.36977153724116L199.69232389132182,7.181663905175958L199.87718853060403,88.95028677745789L200.2469178091685,-11.5119988279919L200.61664708773296,29.462761485982217L200.80151172701517,151.75447541370738L200.98637636629738,183.36480536367267L201.17124100557965,87.07145001968803L201.54097028414407,89.1900012260432L201.7258349234263,79.33870360865365L201.91069956270854,-73.73944646366236L202.09556420199075,-19.278332868098712L202.280428841273,137.83370679263103L202.4652934805552,126.68108025889705L202.65015811983747,88.4468557617949L203.0198873984019,96.23688518405551L203.2047520376841,5.172464203517735L203.7593459555308,38.40151849615323L203.94421059481303,128.1195203185782L204.68366915194193,-38.44429287856559L204.86853379122414,11.721285031791902L205.0533984305064,-9.372589550614586L205.23826306978862,135.21502198625242L205.42312770907083,57.48642342915544L205.60799234835306,-1.5636191594478126L205.7928569876353,34.46908195171849L205.9777216269175,-33.18192425421564L206.53231554476417,149.78722190634738L206.71718018404644,47.78926082189271L206.90204482332865,121.58603630723208L207.08690946261086,-16.983178214817155L207.2717741018931,-22.813315801843213L207.64150338045755,18.570937524109617L207.8263680197398,45.927831351336195L208.011232659022,46.31431913792286L208.19609729830427,71.53126689917966L208.38096193758648,-45.9628606411999L208.7506912161509,145.02429672525912L208.93555585543317,34.00345618978312L209.12042049471538,187.32921917140237L209.3052851339976,74.77370005002177L209.49014977327982,80.48681772388689L209.67501441256204,-0.8374975619896537L209.85987905184427,-53.86960324028294L210.0447436911265,54.3558723578034L210.22960833040872,77.3719868898861L210.41447296969093,-36.90578008842901L211.15393152681986,82.7530624772591L211.5236608053843,-25.207546292479957L211.70852544466655,46.89681144484992L211.89339008394876,135.09209739857417L212.07825472323103,69.96177373884844L212.26311936251324,31.762210448003632L212.8177132803599,36.8112439488845L213.18744255892435,85.20334903376782L213.37230719820658,70.88213612270027L213.74203647677103,135.32759422250425L213.92690111605327,-24.314560126844672L214.2966303946177,65.04202960467094L214.48149503389996,28.49508502190738L214.85122431246438,136.107087942872L215.5906828695933,47.237672201075654L215.77554750887552,93.17396947535616L215.96041214815773,134.71856922229168L216.14527678744,103.7035378213884L216.3301414267222,182.04146811503648L217.0695999838511,53.65751039898499L217.25446462313334,37.74188200007812L217.43932926241555,104.74076675023193L217.6241939016978,89.11937518408956L217.99392318026224,66.49166554070952L218.17878781954445,211.64773619701444L218.36365245882672,33.311919114497684L218.73338173739114,181.36657148611798L218.91824637667338,49.04404249886051L219.1031110159556,84.7595782359549L219.47284029452007,19.102204862496993L219.8425695730845,37.804302844975254L220.02743421236676,56.33064090545816L220.21229885164897,59.40490585868429L220.58202813021342,54.153119638014665L220.76689276949566,159.01339086574993L220.95175740877787,76.30906879268811L221.1366220480601,-22.641466768164516L221.32148668734231,182.15327351044192L221.50635132662458,64.91059308359763L221.6912159659068,178.56399824477214L221.876080605189,127.6824977202136L222.0609452444712,167.60430886799293L222.24580988375345,102.76791530469315L222.4306745230357,70.18492442515145L222.6155391623179,57.34118377284688L222.80040380160014,33.356702619927574L223.1701330801646,72.37739908909977L223.35499771944683,59.44991941636808L223.53986235872904,60.271972803711165L223.90959163729352,-39.907501897585504L224.09445627657573,49.2885113606935L224.27932091585794,97.47863056663448L224.46418555514018,58.8006352717194L224.83391483370463,9.752574526823711L225.01877947298686,75.61998560811116L225.20364411226907,26.43542719255589L225.38850875155129,92.69791467790971L225.94310266939797,123.45099324568204L226.1279673086802,49.27240770291907L226.31283194796245,5.684253784406512L227.2371551443736,148.9869467990421L227.606884422938,80.48620425120977L227.79174906222028,197.27437810839155L227.9766137015025,139.74659128398113L228.1614783407847,72.41221366352643L228.34634298006694,130.61873132108735L228.71607225863139,130.1415262623713L228.90093689791362,72.30577615404582L229.08580153719583,102.05214605866142L229.27066617647804,55.092959779365124L229.4555308157603,89.5879916253259L229.64039545504252,31.578322013036402L229.82526009432473,149.58722981360572L230.01012473360697,6.992637636537826L230.1949893728892,51.56403488830718L230.56471865145366,122.50064738473587L230.74958329073587,64.87539508874778L230.93444793001808,38.94766254696084L231.11931256930035,168.70411200990287L231.30417720858256,110.59751371462814L231.48904184786477,206.08806337651438L231.673906487147,174.99956862252577L232.2285004049937,104.68540084112168L232.4133650442759,37.54227332775966L232.78309432284038,131.15421628412994L232.9679589621226,278.58243636832435L233.1528236014048,100.15344812296973L233.33768824068707,144.00639218574494L233.52255287996928,186.78276838425623L233.7074175192515,89.4621530424313L233.89228215853373,229.88091100191778L234.07714679781594,88.69830287533013L234.26201143709818,237.62063566465443L234.44687607638042,66.83551697623625L234.81660535494484,135.9886877161875L235.0014699942271,59.194331362262254L235.37119927279153,164.98754116373033L235.55606391207377,79.742521998369L235.92579319063822,161.28561697772406L236.11065782992046,66.32250044999321L236.4803871084849,215.71191599886106L236.66525174776714,120.02605197339619L236.85011638704935,127.69745111671844L237.03498102633156,180.10795560491815L237.2198456656138,215.5821665276498L237.40471030489604,150.01044927673505L237.7744395834605,228.43602947912692L239.2533566977183,290.8473655497646L239.43822133700053,122.25955262262706L239.62308597628277,123.7392487198446L239.80795061556498,68.2500316015096L239.99281525484722,200.1061679859853L240.17767989412943,216.40000229033768L240.91713845125832,120.55202810994342L241.10200309054056,185.05814332069784L241.2868677298228,69.43188671398457L241.65659700838725,180.2899269377694L241.84146164766946,39.17901843032035L242.0263262869517,164.37851616351776L242.39605556551615,129.50198099647193L242.58092020479836,221.61421330953357L243.13551412264505,198.27640904238518L243.5052434012095,71.13013245242672L243.87497267977398,110.4465994360562L244.0598373190562,108.22958586502304L244.2447019583384,300.9778699193292L244.42956659762066,241.25584469702372L244.79929587618508,140.9220049333463L244.98416051546732,213.4844733923168L245.16902515474956,201.27076917941622L245.35388979403177,106.92933052586358L245.538754433314,213.02728287969185L245.72361907259622,93.92340303454495L246.2782129904429,259.82734968335967L246.46307762972512,165.75591569182527L247.0176715475718,87.46905699854754L247.20253618685405,206.26788755499567L247.38740082613626,20.404300619687813L247.75713010470074,155.73591308822722L247.94199474398295,87.97846937281247L248.49658866182963,127.83364205103946L248.68145330111184,164.1802878047228L248.86631794039408,32.81170883038958L249.23604721895853,185.481822888335L249.42091185824077,259.2519889963042L249.60577649752298,57.34225735003184L249.7906411368052,63.36218804654245L249.97550577608746,215.87417952195975L250.34523505465188,201.51339762321783L250.71496433321636,33.264835086528585L251.26955825106302,189.02639133265956L251.45442289034526,187.18052873128497L252.00901680819192,83.03035212731811L252.19388144747418,83.45755916284872L252.3787460867564,146.3867428570618L252.5636107260386,65.88839184684498L252.74847536532084,93.97148395561436L253.1182046438853,105.03584710792745L253.30306928316753,31.814278941474335L253.48793392244974,131.1098161991233L253.67279856173195,72.7046867623442L253.85766320101422,110.98837249403933L254.04252784029643,13.958236464831538L254.22739247957864,188.06761022240295L254.41225711886088,137.55419330411746L254.59712175814312,189.3338945120668L254.96685103670757,216.0628990542593L255.15171567598978,41.22226586555881L255.33658031527202,102.08642384449558L255.52144495455425,99.8119738940669L255.70630959383647,106.91851806992929L255.89117423311868,131.18826401771022L256.0760388724009,20.855279721456895L256.44576815096536,71.70388277370478L256.6306327902476,135.5966019914221L257.18522670809426,63.78786140038028L257.3700913473765,62.79104498414214L257.739820625941,118.71260697167865L257.9246852652232,6.857596963486405L258.1095499045054,101.32150010020948L258.29441454378764,78.64271885645906L258.4792791830698,18.220874677727046L258.6641438223521,91.17435528427796L259.2187377401988,173.0882944969531L259.403602379481,214.47032398445137L259.9581962973277,126.46567466514271L260.1430609366099,179.56625923101973L260.6976548544566,186.52556996437292L260.8825194937388,141.1309690639909L261.2522487723033,88.65436289483131L261.43711341158547,140.95582261467266L261.80684269014995,150.3131980428946L261.9917073294322,175.56595727167837L262.3614366079966,146.53643019027948L262.7311658865611,118.87318344491527L262.9160305258433,175.17471507184402L263.1008951651255,208.1842228301546L263.28575980440775,92.53174026649437L263.6554890829722,75.14293391756439L263.8403537222544,175.83281788622634L264.2100830008189,101.58191925164762L264.3949476401011,63.2627287887641L264.57981227938336,72.34358140777343L264.76467691866554,126.39780925023612L264.9495415579478,-22.548832393919117L265.31927083651226,85.96972977566209L265.50413547579444,71.20543622354342L265.68900011507674,105.98419918267295L265.8738647543589,112.31523721056892L266.2435940329234,155.35855070771274" fill="none"></path></g></g></g></g></g></g><g transform="translate(41, 176)" clip-path="url(#clip_1)"><clipPath id="clip_1"><rect width="288" height="23"></rect></clipPath><g><g><line x1="0" y1="0" x2="0" y2="5" style="visibility: inherit;" fill="rgb(0, 0, 0)" stroke="rgb(204, 204, 204)" stroke-width="1px"></line><line x1="24.07091657320658" y1="0" x2="24.07091657320658" y2="5" style="visibility: inherit;" fill="rgb(0, 0, 0)" stroke="rgb(204, 204, 204)" stroke-width="1px"></line><line x1="48.14183314641316" y1="0" x2="48.14183314641316" y2="5" style="visibility: inherit;" fill="rgb(0, 0, 0)" stroke="rgb(204, 204, 204)" stroke-width="1px"></line><line x1="72.21274971961975" y1="0" x2="72.21274971961975" y2="5" style="visibility: inherit;" fill="rgb(0, 0, 0)" stroke="rgb(204, 204, 204)" stroke-width="1px"></line><line x1="96.28366629282633" y1="0" x2="96.28366629282633" y2="5" style="visibility: inherit;" fill="rgb(0, 0, 0)" stroke="rgb(204, 204, 204)" stroke-width="1px"></line><line x1="120.35458286603293" y1="0" x2="120.35458286603293" y2="5" style="visibility: inherit;" fill="rgb(0, 0, 0)" stroke="rgb(204, 204, 204)" stroke-width="1px"></line><line x1="144.4254994392395" y1="0" x2="144.4254994392395" y2="5" style="visibility: inherit;" fill="rgb(0, 0, 0)" stroke="rgb(204, 204, 204)" stroke-width="1px"></line><line x1="168.4964160124461" y1="0" x2="168.4964160124461" y2="5" style="visibility: inherit;" fill="rgb(0, 0, 0)" stroke="rgb(204, 204, 204)" stroke-width="1px"></line><line x1="192.56733258565265" y1="0" x2="192.56733258565265" y2="5" style="visibility: inherit;" fill="rgb(0, 0, 0)" stroke="rgb(204, 204, 204)" stroke-width="1px"></line><line x1="216.63824915885925" y1="0" x2="216.63824915885925" y2="5" style="visibility: inherit;" fill="rgb(0, 0, 0)" stroke="rgb(204, 204, 204)" stroke-width="1px"></line><line x1="240.70916573206586" y1="0" x2="240.70916573206586" y2="5" style="visibility: inherit;" fill="rgb(0, 0, 0)" stroke="rgb(204, 204, 204)" stroke-width="1px"></line><line x1="264.7800823052724" y1="0" x2="264.7800823052724" y2="5" style="visibility: inherit;" fill="rgb(0, 0, 0)" stroke="rgb(204, 204, 204)" stroke-width="1px"></line><line x1="288.850998878479" y1="0" x2="288.850998878479" y2="5" style="visibility: inherit;" fill="rgb(0, 0, 0)" stroke="rgb(204, 204, 204)" stroke-width="1px"></line></g><g transform="translate(0, 8)"><text style="text-anchor: middle; visibility: hidden; font-family: Roboto, sans-serif; font-size: 12px; font-weight: 200;" x="0" y="0" dx="0em" dy="0.95em" fill="rgb(33, 33, 33)" stroke="none" stroke-width="1px">-100k</text><text style="text-anchor: middle; visibility: inherit; font-family: Roboto, sans-serif; font-size: 12px; font-weight: 200;" x="24.07091657320658" y="0" dx="0em" dy="0.95em" fill="rgb(33, 33, 33)" stroke="none" stroke-width="1px">0</text><text style="text-anchor: middle; visibility: hidden; font-family: Roboto, sans-serif; font-size: 12px; font-weight: 200;" x="48.14183314641316" y="0" dx="0em" dy="0.95em" fill="rgb(33, 33, 33)" stroke="none" stroke-width="1px">100k</text><text style="text-anchor: middle; visibility: inherit; font-family: Roboto, sans-serif; font-size: 12px; font-weight: 200;" x="72.21274971961975" y="0" dx="0em" dy="0.95em" fill="rgb(33, 33, 33)" stroke="none" stroke-width="1px">200k</text><text style="text-anchor: middle; visibility: hidden; font-family: Roboto, sans-serif; font-size: 12px; font-weight: 200;" x="96.28366629282633" y="0" dx="0em" dy="0.95em" fill="rgb(33, 33, 33)" stroke="none" stroke-width="1px">300k</text><text style="text-anchor: middle; visibility: inherit; font-family: Roboto, sans-serif; font-size: 12px; font-weight: 200;" x="120.35458286603293" y="0" dx="0em" dy="0.95em" fill="rgb(33, 33, 33)" stroke="none" stroke-width="1px">400k</text><text style="text-anchor: middle; visibility: hidden; font-family: Roboto, sans-serif; font-size: 12px; font-weight: 200;" x="144.4254994392395" y="0" dx="0em" dy="0.95em" fill="rgb(33, 33, 33)" stroke="none" stroke-width="1px">500k</text><text style="text-anchor: middle; visibility: inherit; font-family: Roboto, sans-serif; font-size: 12px; font-weight: 200;" x="168.4964160124461" y="0" dx="0em" dy="0.95em" fill="rgb(33, 33, 33)" stroke="none" stroke-width="1px">600k</text><text style="text-anchor: middle; visibility: hidden; font-family: Roboto, sans-serif; font-size: 12px; font-weight: 200;" x="192.56733258565265" y="0" dx="0em" dy="0.95em" fill="rgb(33, 33, 33)" stroke="none" stroke-width="1px">700k</text><text style="text-anchor: middle; visibility: inherit; font-family: Roboto, sans-serif; font-size: 12px; font-weight: 200;" x="216.63824915885925" y="0" dx="0em" dy="0.95em" fill="rgb(33, 33, 33)" stroke="none" stroke-width="1px">800k</text><text style="text-anchor: middle; visibility: hidden; font-family: Roboto, sans-serif; font-size: 12px; font-weight: 200;" x="240.70916573206586" y="0" dx="0em" dy="0.95em" fill="rgb(33, 33, 33)" stroke="none" stroke-width="1px">900k</text><text style="text-anchor: middle; visibility: inherit; font-family: Roboto, sans-serif; font-size: 12px; font-weight: 200;" x="264.7800823052724" y="0" dx="0em" dy="0.95em" fill="rgb(33, 33, 33)" stroke="none" stroke-width="1px">1M</text><text style="text-anchor: middle; visibility: hidden; font-family: Roboto, sans-serif; font-size: 12px; font-weight: 200;" x="288.850998878479" y="0" dx="0em" dy="0.95em" fill="rgb(33, 33, 33)" stroke="none" stroke-width="1px">1.1M</text></g><line x1="0" y1="0" x2="288.850998878479" y2="0" fill="rgb(0, 0, 0)" stroke="rgb(204, 204, 204)" stroke-width="1px"></line></g></g></g></g></svg>