<svg viewBox="0 0 330 200" xmlns="http://www.w3.org/2000/svg"><g><g><g><g><g><line x1="41.149001121520996" y1="176.89999961853027" x2="36.149001121520996" y2="176.89999961853027" style="visibility: inherit;" fill="rgb(0, 0, 0)" stroke="rgb(204, 204, 204)" stroke-width="1px"></line><line x1="41.149001121520996" y1="159.20999965667724" x2="36.149001121520996" y2="159.20999965667724" style="visibility: inherit;" fill="rgb(0, 0, 0)" stroke="rgb(204, 204, 204)" stroke-width="1px"></line><line x1="41.149001121520996" y1="141.51999969482424" x2="36.149001121520996" y2="141.51999969482424" style="visibility: inherit;" fill="rgb(0, 0, 0)" stroke="rgb(204, 204, 204)" stroke-width="1px"></line><line x1="41.149001121520996" y1="123.82999973297119" x2="36.149001121520996" y2="123.82999973297119" style="visibility: inherit;" fill="rgb(0, 0, 0)" stroke="rgb(204, 204, 204)" stroke-width="1px"></line><line x1="41.149001121520996" y1="106.13999977111816" x2="36.149001121520996" y2="106.13999977111816" style="visibility: inherit;" fill="rgb(0, 0, 0)" stroke="rgb(204, 204, 204)" stroke-width="1px"></line><line x1="41.149001121520996" y1="88.44999980926515" x2="36.149001121520996" y2="88.44999980926515" style="visibility: inherit;" fill="rgb(0, 0, 0)" stroke="rgb(204, 204, 204)" stroke-width="1px"></line><line x1="41.149001121520996" y1="70.75999984741212" x2="36.149001121520996" y2="70.75999984741212" style="visibility: inherit;" fill="rgb(0, 0, 0)" stroke="rgb(204, 204, 204)" stroke-width="1px"></line><line x1="41.149001121520996" y1="53.069999885559106" x2="36.149001121520996" y2="53.069999885559106" style="visibility: inherit;" fill="rgb(0, 0, 0)" stroke="rgb(204, 204, 204)" stroke-width="1px"></line><line x1="41.149001121520996" y1="35.37999992370609" x2="36.149001121520996" y2="35.37999992370609" style="visibility: inherit;" fill="rgb(0, 0, 0)" stroke="rgb(204, 204, 204)" stroke-width="1px"></line><line x1="41.149001121520996" y1="17.689999961853044" x2="36.149001121520996" y2="17.689999961853044" style="visibility: inherit;" fill="rgb(0, 0, 0)" stroke="rgb(204, 204, 204)" stroke-width="1px"></line><line x1="41.149001121520996" y1="0" x2="36.149001121520996" y2="0" style="visibility: inherit;" fill="rgb(0, 0, 0)" stroke="rgb(204, 204, 204)" stroke-width="1px"></line></g><g transform="translate(31.149001121520996, 0)"><text style="text-anchor: end; visibility: hidden; font-family: Roboto, sans-serif; font-size: 12px; font-weight: 200;" x="0" y="176.89999961853027" dx="0em" dy="0.3em" fill="rgb(33, 33, 33)" stroke="none" stroke-width="1px">1.2</text><text style="text-anchor: end; visibility: inherit; font-family: Roboto, sans-serif; font-size: 12px; font-weight: 200;" x="0" y="159.20999965667724" dx="0em" dy="0.3em" fill="rgb(33, 33, 33)" stroke="none" stroke-width="1px">1.3</text><text style="text-anchor: end; visibility: hidden; font-family: Roboto, sans-serif; font-size: 12px; font-weight: 200;" x="0" y="141.51999969482424" dx="0em" dy="0.3em" fill="rgb(33, 33, 33)" stroke="none" stroke-width="1px">1.4</text><text style="text-anchor: end; visibility: inherit; font-family: Roboto, sans-serif; font-size: 12px; font-weight: 200;" x="0" y="123.82999973297119" dx="0em" dy="0.3em" fill="rgb(33, 33, 33)" stroke="none" stroke-width="1px">1.5</text><text style="text-anchor: end; visibility: hidden; font-family: Roboto, sans-serif; font-size: 12px; font-weight: 200;" x="0" y="106.13999977111816" dx="0em" dy="0.3em" fill="rgb(33, 33, 33)" stroke="none" stroke-width="1px">1.6</text><text style="text-anchor: end; visibility: inherit; font-family: Roboto, sans-serif; font-size: 12px; font-weight: 200;" x="0" y="88.44999980926515" dx="0em" dy="0.3em" fill="rgb(33, 33, 33)" stroke="none" stroke-width="1px">1.7</text><text style="text-anchor: end; visibility: hidden; font-family: Roboto, sans-serif; font-size: 12px; font-weight: 200;" x="0" y="70.75999984741212" dx="0em" dy="0.3em" fill="rgb(33, 33, 33)" stroke="none" stroke-width="1px">1.8</text><text style="text-anchor: end; visibility: inherit; font-family: Roboto, sans-serif; font-size: 12px; font-weight: 200;" x="0" y="53.069999885559106" dx="0em" dy="0.3em" fill="rgb(33, 33, 33)" stroke="none" stroke-width="1px">1.9</text><text style="text-anchor: end; visibility: hidden; font-family: Roboto, sans-serif; font-size: 12px; font-weight: 200;" x="0" y="35.37999992370609" dx="0em" dy="0.3em" fill="rgb(33, 33, 33)" stroke="none" stroke-width="1px">2</text><text style="text-anchor: end; visibility: inherit; font-family: Roboto, sans-serif; font-size: 12px; font-weight: 200;" x="0" y="17.689999961853044" dx="0em" dy="0.3em" fill="rgb(33, 33, 33)" stroke="none" stroke-width="1px">2.1</text><text style="text-anchor: end; visibility: hidden; font-family: Roboto, sans-serif; font-size: 12px; font-weight: 200;" x="0" y="0" dx="0em" dy="0.3em" fill="rgb(33, 33, 33)" stroke="none" stroke-width="1px">2.2</text></g><line x1="41.149001121520996" y1="0" x2="41.149001121520996" y2="176.89999961853027" fill="rgb(0, 0, 0)" stroke="rgb(204, 204, 204)" stroke-width="1px"></line></g></g><g transform="translate(41, 0)" clip-path="url(#clip_0)"><clipPath id="clip_0"><rect width="288" height="176"></rect></clipPath><g><g><g><line x1="0" y1="0" x2="0" y2="176.89999961853027" fill="rgb(0, 0, 0)" stroke="rgb(66, 66, 66)" stroke-width="1px" opacity="0.25"></line><line x1="24.07091657320658" y1="0" x2="24.07091657320658" y2="176.89999961853027" fill="rgb(0, 0, 0)" stroke="rgb(66, 66, 66)" stroke-width="1px" opacity="0.25"></line><line x1="48.14183314641316" y1="0" x2="48.14183314641316" y2="176.89999961853027" fill="rgb(0, 0, 0)" stroke="rgb(66, 66, 66)" stroke-width="1px" opacity="0.25"></line><line x1="72.21274971961975" y1="0" x2="72.21274971961975" y2="176.89999961853027" fill="rgb(0, 0, 0)" stroke="rgb(66, 66, 66)" stroke-width="1px" opacity="0.25"></line><line x1="96.28366629282633" y1="0" x2="96.28366629282633" y2="176.89999961853027" fill="rgb(0, 0, 0)" stroke="rgb(66, 66, 66)" stroke-width="1px" opacity="0.25"></line><line x1="120.35458286603293" y1="0" x2="120.35458286603293" y2="176.89999961853027" fill="rgb(0, 0, 0)" stroke="rgb(66, 66, 66)" stroke-width="1px" opacity="0.25"></line><line x1="144.4254994392395" y1="0" x2="144.4254994392395" y2="176.89999961853027" fill="rgb(0, 0, 0)" stroke="rgb(66, 66, 66)" stroke-width="1px" opacity="0.25"></line><line x1="168.4964160124461" y1="0" x2="168.4964160124461" y2="176.89999961853027" fill="rgb(0, 0, 0)" stroke="rgb(66, 66, 66)" stroke-width="1px" opacity="0.25"></line><line x1="192.56733258565265" y1="0" x2="192.56733258565265" y2="176.89999961853027" fill="rgb(0, 0, 0)" stroke="rgb(66, 66, 66)" stroke-width="1px" opacity="0.25"></line><line x1="216.63824915885925" y1="0" x2="216.63824915885925" y2="176.89999961853027" fill="rgb(0, 0, 0)" stroke="rgb(66, 66, 66)" stroke-width="1px" opacity="0.25"></line><line x1="240.70916573206586" y1="0" x2="240.70916573206586" y2="176.89999961853027" fill="rgb(0, 0, 0)" stroke="rgb(66, 66, 66)" stroke-width="1px" opacity="0.25"></line><line x1="264.7800823052724" y1="0" x2="264.7800823052724" y2="176.89999961853027" fill="rgb(0, 0, 0)" stroke="rgb(66, 66, 66)" stroke-width="1px" opacity="0.25"></line><line x1="288.850998878479" y1="0" x2="288.850998878479" y2="176.89999961853027" fill="rgb(0, 0, 0)" stroke="rgb(66, 66, 66)" stroke-width="1px" opacity="0.25"></line></g><g><line x1="0" y1="176.89999961853027" x2="288.850998878479" y2="176.89999961853027" fill="rgb(0, 0, 0)" stroke="rgb(66, 66, 66)" stroke-width="1px" opacity="0.25"></line><line x1="0" y1="159.20999965667724" x2="288.850998878479" y2="159.20999965667724" fill="rgb(0, 0, 0)" stroke="rgb(66, 66, 66)" stroke-width="1px" opacity="0.25"></line><line x1="0" y1="141.51999969482424" x2="288.850998878479" y2="141.51999969482424" fill="rgb(0, 0, 0)" stroke="rgb(66, 66, 66)" stroke-width="1px" opacity="0.25"></line><line x1="0" y1="123.82999973297119" x2="288.850998878479" y2="123.82999973297119" fill="rgb(0, 0, 0)" stroke="rgb(66, 66, 66)" stroke-width="1px" opacity="0.25"></line><line x1="0" y1="106.13999977111816" x2="288.850998878479" y2="106.13999977111816" fill="rgb(0, 0, 0)" stroke="rgb(66, 66, 66)" stroke-width="1px" opacity="0.25"></line><line x1="0" y1="88.44999980926515" x2="288.850998878479" y2="88.44999980926515" fill="rgb(0, 0, 0)" stroke="rgb(66, 66, 66)" stroke-width="1px" opacity="0.25"></line><line x1="0" y1="70.75999984741212" x2="288.850998878479" y2="70.75999984741212" fill="rgb(0, 0, 0)" stroke="rgb(66, 66, 66)" stroke-width="1px" opacity="0.25"></line><line x1="0" y1="53.069999885559106" x2="288.850998878479" y2="53.069999885559106" fill="rgb(0, 0, 0)" stroke="rgb(66, 66, 66)" stroke-width="1px" opacity="0.25"></line><line x1="0" y1="35.37999992370609" x2="288.850998878479" y2="35.37999992370609" fill="rgb(0, 0, 0)" stroke="rgb(66, 66, 66)" stroke-width="1px" opacity="0.25"></line><line x1="0" y1="17.689999961853044" x2="288.850998878479" y2="17.689999961853044" fill="rgb(0, 0, 0)" stroke="rgb(66, 66, 66)" stroke-width="1px" opacity="0.25"></line><line x1="0" y1="0" x2="288.850998878479" y2="0" fill="rgb(0, 0, 0)" stroke="rgb(66, 66, 66)" stroke-width="1px" opacity="0.25"></line></g></g></g><g><g><line x1="0" y1="389.17999916076656" x2="288.850998878479" y2="389.17999916076656" fill="rgb(0, 0, 0)" stroke="rgb(153, 153, 153)" stroke-width="1.5px"></line></g></g><g><g><line x1="24.07091657320658" y1="0" x2="24.07091657320658" y2="176.89999961853027" fill="rgb(0, 0, 0)" stroke="rgb(153, 153, 153)" stroke-width="1.5px"></line></g></g><g><g><g><g><g><path style="fill: none;" stroke="rgb(255, 112, 67)" stroke-width="2px" d="M24.440645851771038,181.48113290752534L24.81037513033549,110.63089358161481L24.99523976961772,49.509387099497424L25.180104408899943,-9.555146963921015L35.53252420870463,-1.3569530906653624L35.71738884798686,2.894193899088388L35.902253487269085,3.721946121813848L36.08711812655131,3.5019859748018485L36.45684740511577,6.435869936933776L36.64171204439799,8.493508619902055L36.826576683680216,7.33592876732935L37.01144132296244,9.975768342316332L37.3811706015269,11.619382853574706L37.56603524080912,13.829184513826318L37.750899880091346,14.618153857885728L37.93576451937358,15.537644279022569L38.30549379793803,19.181945653142886L38.67522307650248,20.528984116030156L38.86008771578471,21.253735984736636L39.04495235506694,24.425188459533786L39.229816994349164,25.854983122465214L39.41468163363139,25.291902717495788L39.59954627291362,26.611522801683872L39.784410912195845,26.60848020221446L40.154140190760295,27.869861538187802L40.33900483004252,26.814439477763585L40.523869469324744,28.925402631880694L40.8935987478892,30.352553674783906L41.078463387171425,31.37747213342762L41.44819266573588,33.44956478656588L41.81792194430034,34.85139576167469L42.00278658358256,35.97928232428675L42.18765122286479,36.29558072652178L42.74224514071147,37.42380323672074L42.92710977999369,38.99696648989985L43.11197441927592,40.53641674004962L43.48170369784037,41.32427543458774L43.6665683371226,43.63347642234713L44.036297615687054,45.197260288633096L44.22116225496928,45.373403879077365L44.406026894251504,45.558274652229535L44.590891533533735,47.93134972386032L44.77575617281596,47.19749226327365L44.960620812098185,48.040523335762906L45.14548545138042,48.97024859705066L45.515214729944866,50.58879881774537L45.7000793692271,52.77686668671376L45.88494400850932,51.896119631048705L46.06980864779154,52.43336730118117L46.439537926355996,53.268583614953656L46.62440256563822,53.22720617923469L46.80926720492045,54.56702413395965L47.1789964834849,56.13354292355805L47.54872576204936,57.88937241758836L47.73359040133158,59.12159594603264L47.918455040613814,60.2841482941416L48.10331967989604,61.0051869041631L48.288184319178264,61.63847788590957L48.65791359774272,61.055061386229724L48.842778237024945,60.203906440380926L49.027642876307176,59.81224042270074L49.39737215487162,60.48057049663157L49.767101433436075,61.278678094569216L49.9519660727183,63.01352430774972L50.13683071200053,64.07549491164198L50.321695351282756,65.19435531499211L50.50655999056498,67.3990731632584L50.69142462984721,68.01754670172438L51.06115390841166,69.24037435527126L51.24601854769389,69.52901643205021L51.43088318697612,70.04075116927437L51.61574782625834,71.7444702227313L51.800612465540574,73.33717358738028L51.9854771048228,73.22514768505786L52.35520638338724,74.75702208015431L52.90980030123393,75.28366723023348L53.094664940516154,75.67939149362186L53.46439421908061,75.35068101137507L53.649258858362835,76.56663162680937L53.83412349764506,77.74605113563545L54.01898813692729,78.90486653102019L54.203852776209516,79.99026390187592L54.38871741549174,80.54072938580379L54.57358205477397,81.28921755670353L54.7584466940562,82.4963362565318L54.94331133333842,83.53434362389716L55.31304061190287,84.77715531323739L55.68276989046732,84.95653891892925L55.86763452974955,85.32635903796351L56.052499169031776,86.14868902277347L56.237363808314,87.44858402078032L56.42222844759623,88.15606248853061L56.79195772616069,88.88841866988032L56.976822365442914,88.6144748754048L57.16168700472514,89.70818850963133L57.34655164400737,90.54381529457089L57.531416283289595,91.13301742289073L57.90114556185405,90.9039772748872L58.086010201136276,91.2467805532994L58.27087484041849,91.84080335256525L58.45573947970072,92.45497620727616L58.64060411898295,93.14204602580064L58.825468758265174,93.75456631835037L59.0103333975474,94.40158498707848L59.56492731539408,94.77282202821077L59.74979195467631,95.04873882995338L59.934656593958536,95.46893310439101L60.11952123324077,95.42471582250543L60.30438587252299,94.74777217309021L60.67411515108745,95.74531980515964L61.0438444296519,95.97739434016472L61.22870906893413,96.84972147846251L61.41357370821635,97.78733380935532L61.59843834749857,98.00739777703006L61.96816762606303,98.6852840982914L62.15303226534525,99.07343253538549L62.33789690462748,99.0882933639964L62.52276154390971,99.54118299670075L62.707626183191934,100.46411620113963L62.89249082247416,100.38155754808331L63.07735546175639,101.05012076266989L63.262220101038615,101.05501225885403L63.44708474032085,101.32018292189899L63.63194937960307,101.57113310297069L64.00167865816752,100.70712991147866L64.18654329744975,101.4639643401088L64.37140793673197,101.78242071499423L64.5562725760142,102.0288062367467L64.92600185457866,102.27810760172328L65.11086649386088,102.34250426879068L65.29573113314311,102.30599882302823L65.48059577242533,102.45946876857887L65.66546041170756,102.69257042648321L65.85032505098978,103.01031983608975L66.03518969027202,103.52114189721567L66.22005432955424,102.01295350009012L66.40491896883647,102.67514284291242L66.95951288668314,101.42164198026202L67.3292421652476,101.4833905036362L67.51410680452982,102.26437495320103L67.69897144381206,102.9230412185148L67.88383608309428,103.241568429338L68.0687007223765,103.62032067245383L68.25356536165873,103.65357667663874L68.43843000094095,103.76563218663372L68.62329464022318,104.1207754823808L68.80815927950542,104.10333186827032L69.17788855806987,103.97218632410684L69.36275319735209,104.40234558625896L69.73248247591654,105.23155614066323L69.91734711519878,105.45679236887995L70.102211754481,106.25066034985849L70.28707639376323,106.47983968327092L70.47194103304545,106.77554109769868L70.65680567232768,107.30392692141893L71.21139959017435,107.9551704555121L71.39626422945658,108.38664986017575L71.58112886873882,108.97173352651592L71.76599350802104,109.04251530309861L72.13572278658549,108.74097479247712L72.32058742586771,108.27421361992768L72.50545206514994,108.48582794349414L72.87518134371439,108.97597427098698L73.24491062227885,108.79234940989673L73.42977526156108,109.5863499849804L73.79950454012554,109.86996895208623L74.35409845797221,110.27372789899168L74.72382773653666,110.21211077329335L74.9086923758189,110.83444193236802L75.27842165438334,111.31191135089715L75.46328629366558,111.61240813798078L75.64815093294779,112.0379891880026L75.83301557223002,112.75156221341157L76.20274485079447,113.15681374542613L76.3876094900767,113.49229534125512L76.57247412935894,113.47765270362508L76.75733876864115,114.03276540945062L76.94220340792339,114.44766956911046L77.12706804720561,114.68355564083227L77.31193268648784,114.4892099325533L77.49679732577006,114.46654670013571L77.6816619650523,114.91607165787828L77.86652660433451,115.33260386586367L78.05139124361675,115.7613585024211L78.42112052218118,115.84917101272474L78.60598516146342,116.50896339953134L79.34544371859234,117.10309313077204L79.53030835787455,117.69362143325539L79.71517299715678,118.16356423702476L79.90003763643901,118.27367999436449L80.08490227572123,118.537788013086L80.26976691500346,118.5880826816934L80.4546315542857,119.16534924799161L80.82436083285015,119.55859915057282L81.00922547213237,119.98798392220907L81.19409011141458,120.51861980611004L81.37895475069682,120.99936401109174L81.56381938997903,121.19020850302174L81.74868402926127,121.36881601803985L81.9335486685435,121.69238130758501L82.30327794710794,122.0422390687159L82.48814258639018,122.37529805719356L82.6730072256724,122.3449632452511L82.85787186495463,122.72719007462221L83.04273650423686,123.22602108579925L83.2276011435191,123.67177569529457L83.59733042208354,124.148967189757L83.78219506136577,124.85988016313956L83.967059700648,124.56091901168162L84.15192433993022,124.5766114926865L84.33678897921243,124.76863870340573L84.70651825777689,124.89837193836867L85.26111217562358,124.87985740002927L85.63084145418803,125.01601115980328L85.81570609347025,125.23532881660488L86.0005707327525,125.78634904554981L86.1854353720347,126.32780102018019L86.37030001131694,126.81595729486098L86.55516465059917,127.10183686085026L86.92489392916362,127.37773568213875L87.10975856844586,127.7957999091714L87.29462320772807,127.67811069557463L87.66435248629253,127.77446442153332L87.84921712557474,128.0627061202375L88.03408176485698,128.34623905443854L88.21894640413919,128.5642151970362L88.40381104342143,128.64834659368924L88.58867568270365,128.78482162550895L88.77354032198589,128.87791163836752L88.9584049612681,128.9177326273152L89.14326960055034,129.26893163815348L89.32813423983255,129.1216244374013L89.51299887911479,129.59139515890075L89.88272815767925,129.73756775784588L90.06759279696146,129.9703696082265L90.2524574362437,130.4726938069228L90.43732207552593,130.78318114553653L90.80705135409038,130.11820129113894L90.99191599337259,130.02285018889475L91.36164527193705,130.19987547318942L91.54650991121929,130.36504967953883L91.7313745505015,130.02567342521448L91.91623918978374,130.14979084847621L92.10110382906595,130.30553263588843L92.28596846834819,130.68556736685338L92.47083310763041,131.09863354020837L92.65569774691265,131.2001821092553L92.84056238619486,131.29966698730823L93.0254270254771,131.53988017643897L93.76488558260598,132.03963449984082L93.94975022188822,132.2161860585048L94.13461486117045,132.16105544251744L94.5043441397349,132.6635490004768L94.68920877901714,132.88717978208282L95.24380269686381,133.20224474419797L95.42866733614605,133.56973623348313L95.7983966147105,133.60810959679765L95.98326125399271,133.38117894635886L96.16812589327495,133.78420070939114L96.72271981112162,134.0159621149908L97.09244908968608,134.1586913921159L97.2773137289683,133.80351228315823L97.46217836825053,134.34589460243689L97.64704300753274,134.31241920107436L97.83190764681498,134.0964814953134L98.01677228609721,133.98766157828365L98.20163692537945,134.3279998398946L98.38650156466166,134.16766816846027L98.5713662039439,134.70041410012954L98.7562308432261,134.88893129048432L98.94109548250835,134.95675132298538L99.12596012179057,135.3606841658873L99.31082476107281,135.53743322868843L99.49568940035502,135.68581419070242L99.68055403963724,135.5170681322554L99.86541867891948,135.7882575668314L100.05028331820169,135.70993309657888L100.23514795748393,135.85148390806748L100.42001259676614,135.7045299414444L100.60487723604838,136.0779589714571L101.15947115389505,136.26499810617742L101.3443357931773,136.4494923979658L101.5292004324595,136.77542271576084L101.71406507174174,137.2339713473482L102.26865898958842,137.42464810908348L102.45352362887066,137.6240768551197L102.82325290743509,137.61219551663825L103.00811754671733,137.78457249039099L103.19298218599954,138.02350231389073L103.37784682528178,138.2362404429226L103.562711464564,138.5905476387145L103.74757610384624,138.73932176226052L103.93244074312845,138.858693849842L104.3021700216929,139.291391325967L104.48703466097514,139.57799014290887L104.67189930025737,139.94849369075519L105.22649321810405,140.4207440382563L105.41135785738626,140.51867283227045L105.59622249666849,140.87654903288447L105.78108713595073,141.07131152447022L105.96595177523294,141.094702647995L106.15081641451518,141.3993777770592L106.3356810537974,141.6671756512823L106.52054569307963,141.91059341233262L106.89027497164409,141.88056773294934L107.0751396109263,141.85088024986246L107.26000425020854,141.991518908767L107.44486888949076,142.02722473536292L108.18432744661966,142.322145377099L108.3691920859019,142.6122124086222L108.55405672518413,142.807515816473L108.73892136446634,142.96385738768822L108.92378600374857,143.1493191219883L109.1086506430308,143.33336523596537L109.29351528231302,143.35216687597213L109.66324456087749,143.61312143038236L110.03297383944194,143.7364948866211L110.21783847872416,144.0660399155746L110.4027031180064,144.09950884115432L110.58756775728861,144.48933182066162L110.77243239657085,144.70029009125182L110.95729703585306,145.00589876449493L111.1421616751353,145.2659458147201L111.51189095369976,145.21674454695992L111.69675559298197,145.34754664775875L111.8816202322642,145.80929188225738L112.06648487154642,145.87575455662983L112.43621415011089,146.0401189328255L112.6210787893931,145.95158355667044L112.80594342867533,146.15388308851922L113.36053734652201,146.38797857537568L113.54540198580425,146.7729676385391L113.73026662508646,146.95811063543388L113.9151312643687,146.92833462827227L114.09999590365092,147.20536861690618L114.28486054293316,147.21808717582033L114.46972518221537,147.35504670333637L114.83945446077982,147.3750933817807L115.02431910006204,147.61868981109026L115.20918373934428,147.5362591734179L115.3940483786265,147.71194389701617L115.57891301790873,147.76000589762958L115.76377765719096,148.17719152201198L116.31837157503765,148.33824523854767L116.50323621431986,148.41391444460487L116.87296549288432,148.34116998970424L117.05783013216656,148.35691092528614L117.24269477144877,148.6685739338577L117.61242405001322,148.88308057436382L117.79728868929546,148.94003164386632L117.98215332857768,149.07532915927516L118.53674724642435,149.2664262208056L118.72161188570658,149.32200688334868L118.9064765249888,149.39598700059653L119.09134116427104,149.7080310625356L119.27620580355325,149.65520036383512L119.46107044283549,149.8307477258751L119.64593508211772,150.03800502556385L119.83079972139994,150.21353210235634L120.01566436068217,150.46104311221583L120.38539363924662,150.50554382240173L120.57025827852885,150.64140970124606L120.75512291781108,150.68711570763472L120.93998755709329,150.78037694109787L121.30971683565775,150.86856979262893L121.49458147493998,150.9177382592084L121.86431075350444,151.03450863453872L122.41890467135111,151.211355576654L122.60376931063334,151.52108076078727L123.15836322848001,151.85827013433266L123.34322786776225,151.43366397314998L123.52809250704448,151.79128641954995L123.7129571463267,151.9845632786083L123.89782178560893,152.11081945263203L124.08268642489115,152.1963289252923L124.26755106417338,152.4021868679381L124.4524157034556,152.6607936683168L124.63728034273784,153.0241330389803L124.82214498202005,153.18707055244292L125.00700962130229,153.42683543552664L125.19187426058451,153.26530353797506L125.37673889986674,153.67789202500532L125.56160353914896,153.89856739984197L125.7464681784312,153.808135501539L126.11619745699565,153.70617452164453L126.30106209627787,153.62067404440972L126.4859267355601,153.80908513548866L126.85565601412456,153.83065446134216L127.225385292689,154.09290905189124L127.41024993197124,154.12035784082744L127.59511457125345,154.1947552481918L127.77997921053569,154.05911542763337L127.96484384981791,154.02190804859768L128.33457312838237,154.3088993604766L128.51943776766458,154.2670280205829L128.88916704622906,154.329313931086L129.07403168551127,154.38543004658146L129.2588963247935,154.3812098664797L129.44376096407572,154.48558342894725L129.81349024264017,154.52842976816896L129.9983548819224,154.37317270459002L130.18321952120462,154.4413990540421L130.36808416048686,154.42774567653413L130.7378134390513,154.1732279381296L130.92267807833355,154.1696100584044L131.10754271761576,154.2855225044407L131.4772719961802,154.37471484484848L131.66213663546245,154.42582612553662L131.84700127474466,154.5877296242499L132.40159519259134,154.65522784884115L133.14105374972024,154.66537182038763L133.32591838900248,154.79965263040418L133.5107830282847,154.90838872199856L133.88051230684917,154.82692509510545L134.06537694613138,154.71764425294552L134.25024158541362,154.86954415522172L134.43510622469586,154.8556970931905L134.61997086397807,154.90890344405318L134.8048355032603,155.20025194407083L134.98970014254252,155.47695319050752L135.17456478182476,154.81941350787886L135.35942942110697,154.62872771507918L135.5442940603892,154.76807023638727L135.72915869967142,154.7241213915794L135.91402333895365,154.7500211893297L136.2837526175181,154.49526392255206L136.46861725680034,154.51238422079547L136.65348189608255,154.68146429354235L136.8383465353648,154.6480782442124L137.023211174647,154.89057767256477L137.39294045321145,155.04020882180862L137.5778050924937,154.93669608660483L137.76266973177593,154.90582353136753L137.94753437105814,155.01034717636745L138.31726364962262,155.0379647987655L138.50212828890483,155.16768849936722L138.68699292818707,155.06818168673402L138.87185756746928,155.00750538048226L139.05672220675152,155.02976803910238L139.24158684603373,155.27258789062245L139.42645148531597,155.44884217362045L139.61131612459818,155.52508179929103L139.79618076388041,155.33972126643107L139.98104540316265,155.39865364901434L140.16591004244486,155.47074222523153L140.3507746817271,155.53098048482312L140.72050396029155,155.62731469240862L140.90536859957376,155.882627417059L141.090233238856,155.82914248861064L141.2750978781382,155.90668454044973L141.45996251742045,155.86297811772926L142.01455643526714,155.88802026930074L142.19942107454938,155.85073591763668L142.3842857138316,155.60052366621184L142.5691503531138,155.37407332922652L142.75401499239604,155.20665804166137L142.93887963167825,155.20259569382108L143.49347354952494,155.1414557787246L143.67833818880717,155.33106145636881L143.8632028280894,155.3213386395295L144.04806746737162,155.22827925466694L144.23293210665386,155.28674601867283L144.41779674593607,155.23489873055772L144.97239066378273,154.91409952345168L145.157255303065,155.04165279523028L145.71184922091166,155.09008200114835L145.89671386019387,154.9029969118737L146.08157849947614,154.6129532098646L146.26644313875835,154.67427911938873L146.45130777804056,154.6746929454644L147.00590169588725,154.47170252491574L147.19076633516949,154.46497549005508L147.3756309744517,154.5752930708092L147.56049561373393,154.5651627614206L147.93022489229838,154.65395669923862L148.29995417086286,154.30528826931135L148.66968344942728,154.35634027738146L149.03941272799173,154.48966791564024L149.22427736727397,154.35912951820177L149.4091420065562,154.43416993870622L149.59400664583842,154.26849216111404L149.77887128512063,154.55037637884635L150.1486005636851,154.65881335967853L150.33346520296732,154.8546279330903L150.51832984224953,154.83105343979707L150.7031944815318,154.9370800115712L150.888059120814,154.96651140476257L151.07292376009624,155.0249548557085L151.44265303866067,154.93682710089828L151.62751767794293,154.96186447732612L151.81238231722514,154.83932232042633L151.99724695650735,154.6291435031863L152.36697623507183,154.3231962876135L152.55184087435404,154.30713239521359L152.73670551363625,154.36093086450947L152.9215701529185,154.34026177714716L153.29129943148297,154.41817730421803L153.47616407076518,154.33221779624668L153.6610287100474,153.99532798606245L153.84589334932966,154.0540278038965L154.03075798861187,153.83394604152207L154.21562262789408,153.93653015816795L154.4004872671763,153.96726013614554L154.58535190645853,153.79033962338164L154.77021654574077,153.9478101321751L155.13994582430522,153.85589053846573L155.32481046358743,153.81289729579024L155.6945397421519,153.63305599905337L156.2491336599986,153.73014728564843L156.4339982992808,153.76179980904195L156.61886293856304,153.71120764412163L156.9885922171275,153.4742246710596L157.17345685640973,153.5039460073041L157.54318613497415,153.34770189055726L157.72805077425636,153.36180547852936L157.91291541353863,153.1740191589876L158.09778005282084,152.97264474453246L158.28264469210305,152.89732934567434L158.4675093313853,153.0787584336685L158.65237397066753,153.0960499661321L158.83723860994976,152.77637168474828L159.02210324923198,152.5279807885957L159.20696788851419,152.66762817913886L159.39183252779645,152.65614117354534L159.57669716707866,152.69805844966425L159.76156180636087,152.51566928513608L159.94642644564308,152.15964043227376L160.13129108492535,152.25388308482388L160.31615572420756,152.05336572056007L160.5010203634898,151.98404652417375L160.685885002772,151.83116173841287L160.87074964205422,151.67559094735736L161.0556142813365,151.7525823293338L161.2404789206187,151.6384702205102L161.4253435599009,151.58608680634543L161.7950728384654,151.53358650335957L161.9799374777476,151.74546976785155L162.1648021170298,151.48634423413154L162.53453139559429,151.48773739850813L162.71939603487652,151.4036109308925L162.90426067415873,151.20200915478435L163.08912531344095,151.11922713439978L163.2739899527232,151.38160236262135L164.19831314913432,151.2852664192187L164.38317778841656,151.41003153211102L164.56804242769877,151.2316360176646L164.93777170626325,151.11156482458563L165.12263634554546,151.22903888818993L165.30750098482767,151.4627295399178L165.49236562410988,151.4651649954615L165.67723026339215,151.52952224408682L166.2318241812388,151.63001121016214L166.41668882052105,151.45838349636972L166.60155345980328,151.54107273393862L166.7864180990855,151.78007531898137L166.9712827383677,151.83921655616717L167.15614737764992,151.83689397322593L167.34101201693218,152.04079630557695L167.5258766562144,152.15655089732772L167.7107412954966,152.13662889653656L167.89560593477884,152.34617318818658L168.08047057406108,152.26996708832544L168.26533521334332,152.4258295724065L168.63506449190774,152.50117880856078L168.81992913119,152.6178777581954L169.00479377047222,152.3699074610425L169.18965840975443,152.03797336419333L169.37452304903664,152.1027396777286L169.74425232760112,151.92326133845125L169.92911696688336,151.86373873861908L170.11398160616557,151.8781992310672L170.29884624544778,151.73950809569402L170.85344016329447,151.69948931437477L171.03830480257668,151.82126615110744L171.22316944185894,151.95855929793095L171.40803408114115,151.92714938620696L171.59289872042336,151.77344634308687L171.7777633597056,151.71925577235731L172.14749263827008,151.36131523378629L172.3323572775523,151.23066559820606L172.5172219168345,151.08714480022294L172.70208655611677,151.1871060443756L172.88695119539898,151.2542455629491L173.0718158346812,151.12508963071986L173.2566804739634,150.792791814056L173.44154511324564,150.6854088511495L173.81127439181012,150.5034283761417L174.18100367037454,150.52976042898678L174.3658683096568,150.54219484321473L174.55073294893901,150.59812052451315L174.73559758822122,150.38436617488532L174.92046222750344,150.38802676869588L175.2901915060679,150.36594244951948L175.47505614535012,150.34488307016042L175.8447854239146,150.19584009532824L176.02965006319684,150.32758103031318L176.21451470247905,150.28807077860043L176.58424398104347,150.436553293367L176.76910862032574,150.49350078999964L176.95397325960795,150.38117499545646L177.13883789889016,150.3878839994102L177.3237025381724,150.38581048873107L177.50856717745464,150.367793566026L177.69343181673688,150.28906290951133L177.8782964560191,150.2449786765978L178.0631610953013,150.34599095306612L178.24802573458356,150.44480886538506L178.43289037386577,150.3096636818873L178.61775501314798,150.43273041109498L178.8026196524302,150.3979847339177L178.98748429171243,150.16508253817534L179.35721357027688,150.24184438082858L179.54207820955912,150.31670059585684L179.72694284884133,150.3634424308429L179.9118074881236,150.5317954942533L180.0966721274058,150.6209235997365L180.28153676668802,150.5375138049787L180.6512660452525,150.51579217962475L180.8361306845347,150.56227216810925L181.20585996309916,150.4574689467109L181.3907246023814,150.23729746368048L181.76045388094585,150.25418567256233L182.13018315951027,150.26380207344872L182.68477707735696,150.26244874624282L182.8696417166392,150.24678168537122L183.42423563448588,150.18140495026174L183.79396491305036,150.04423917419948L183.97882955233257,149.95504157761107L184.16369419161478,149.7424788803203L184.53342347017926,149.58742334516634L184.71828810946147,149.5385178922633L184.90315274874368,149.44252976630418L185.4577466665904,149.3861203244093L185.6426113058726,149.24642731414488L186.01234058443703,149.26115915769896L186.1972052237193,149.09527913503857L186.3820698630015,149.09674118135186L186.56693450228371,149.3433328979122L186.75179914156595,149.30316315174937L186.9366637808482,149.13922653506248L187.12152842013043,149.2040809258303L187.49125769869485,149.35099625546988L187.67612233797712,149.4377112913117L187.86098697725933,149.17851032243436L188.23071625582375,148.94128020894104L188.415580895106,148.92614148866633L188.60044553438823,149.02879148166915L188.78531017367044,149.06815226311318L188.97017481295268,149.09120943986568L189.1550394522349,149.29638682150457L189.33990409151716,149.33765845364286L189.52476873079937,149.35425437923107L189.70963337008158,149.47541998369545L189.8944980093638,149.59055157617507L190.07936264864605,149.36460450167166L190.44909192721047,149.58254679589785L190.6339565664927,149.4008593305397L191.0036858450572,149.42399806613946L191.3734151236216,149.56557509437081L191.55827976290382,149.77291577557307L192.1128736807505,149.820617086472L192.29773832003275,149.99169685429484L192.6674675985972,150.1772090123621L192.85233223787944,150.30724045707473L193.03719687716165,150.06233103453823L193.22206151644392,149.91776217945608L193.40692615572613,150.00554280458812L193.9615200735728,149.80922060930288L194.14638471285502,149.90250489939513L194.51611399141947,150.04771550337804L194.70097863070168,150.10004105601325L195.07070790926616,150.17395771453465L195.25557254854837,150.12200090149904L195.44043718783058,150.07861361688543L195.62530182711285,149.87010757798598L195.81016646639506,149.76108407748472L195.99503110567727,149.76092685791372L196.1798957449595,149.75568570125742L196.36476038424175,149.65871855644014L196.54962502352396,149.70325903381539L196.9193543020884,149.64618470932191L197.10421894137068,149.62028981775146L197.28908358065289,149.6054047820046L197.4739482199351,149.60306581144704L197.6588128592173,149.47767521952417L197.84367749849955,149.17801708085864L198.02854213778178,149.27967388381813L198.213406777064,148.91667279218495L198.39827141634623,148.84680735503574L198.58313605562844,148.81593896464435L198.95286533419292,148.9331023681097L199.32259461275734,148.97927391210868L199.5074592520396,149.1879421566778L199.69232389132182,149.28695779371552L199.87718853060403,149.3261571929743L200.06205316988627,149.37744957226735L200.2469178091685,149.48289711599992L200.43178244845072,149.5384961162139L200.61664708773296,149.7047749297961L200.80151172701517,149.79449113999425L201.17124100557965,149.90624805287487L201.35610564486186,149.9801935305241L201.7258349234263,149.82210548550643L202.09556420199075,150.02609055580967L202.280428841273,150.2153990136183L202.4652934805552,150.175612102282L202.65015811983747,150.0887529234801L203.0198873984019,150.04994019418905L203.2047520376841,149.99739303095652L203.38961667696637,150.0264442795254L203.57448131624858,150.07714675298746L203.7593459555308,150.06454987596916L203.94421059481303,150.3071912403251L204.12907523409524,150.37804484048308L204.49880451265972,150.45742365766475L204.68366915194193,150.34969381010347L205.23826306978862,150.3219402645779L205.42312770907083,150.36250375215423L206.16258626619975,150.40270644655274L206.34745090548196,150.40491515870028L206.53231554476417,150.41304026663423L206.71718018404644,150.30101235769433L206.90204482332865,150.2683106441209L207.08690946261086,150.24667193848742L207.2717741018931,150.33762107073346L207.45663874117534,150.4537960016447L208.011232659022,150.506938220467L208.19609729830427,150.39458440121516L208.38096193758648,150.2644050662853L208.5658265768687,150.17393637408622L208.7506912161509,150.20607765780426L209.12042049471538,150.3950824324579L209.3052851339976,150.16648139759636L209.49014977327982,150.04963318384335L209.67501441256204,149.97108491143547L209.85987905184427,149.83229298677406L210.22960833040872,149.80602880963718L210.41447296969093,149.88320734319274L210.5993376089732,149.95816518711894L210.7842022482554,149.8141174444954L210.96906688753762,149.52446472651025L211.15393152681986,149.41544020290348L211.3387961661021,149.58808834233434L211.5236608053843,149.44800504173367L211.70852544466655,149.51108532410908L211.89339008394876,149.45752262814577L212.63284864107766,149.56727756376668L213.00257791964214,149.55228556228082L213.18744255892435,149.44823110555527L213.37230719820658,149.4339474517125L213.5571718374888,149.3744198769553L213.74203647677103,149.43793404070095L214.2966303946177,149.47698212730188L214.66635967318217,149.48811207096932L214.85122431246438,149.28247982261794L215.22095359102886,149.30640496636386L215.40581823031107,149.23832686408556L215.77554750887552,149.15540684665967L215.96041214815773,149.15999331058399L216.3301414267222,149.04096136521005L217.0695999838511,148.8567457794064L217.25446462313334,148.81971778964146L217.43932926241555,148.75936176612046L217.6241939016978,148.61677131483194L217.80905854098003,148.57473438576227L218.73338173739114,148.5650970237922L218.91824637667338,148.57206724482165L219.1031110159556,148.5985012210359L219.28797565523783,148.5600890000594L219.65770493380228,148.61343317179944L219.8425695730845,148.5644696337536L220.02743421236676,148.54954597421127L220.39716349093118,148.41781805866228L220.58202813021342,148.1778012632453L220.76689276949566,148.02155192373965L221.1366220480601,147.9716156278159L221.50635132662458,147.90912180836855L221.6912159659068,147.99829412384335L221.876080605189,148.0119705961375L222.24580988375345,148.12687604595249L222.4306745230357,148.03474034816054L222.6155391623179,148.01717134199507L222.80040380160014,148.0927140153149L222.98526844088235,148.21800222749124L223.1701330801646,148.2434858961892L223.35499771944683,148.25137637072976L223.53986235872904,148.21343469460103L223.72472699801125,148.18576878155503L223.90959163729352,148.2302463689895L224.09445627657573,148.21042706259178L224.27932091585794,148.07405922155885L224.46418555514018,147.92445272367155L224.83391483370463,147.94884102619392L225.01877947298686,148.16730816715236L225.20364411226907,148.17734503503883L225.57337339083355,148.2334371924947L225.75823803011576,148.29112430986433L225.94310266939797,148.30303553925722L226.1279673086802,148.28081205390524L226.49769658724466,148.27191364100594L226.6825612265269,148.3551811593868L226.8674258658091,148.34096190008276L227.05229050509135,148.34549980345867L227.606884422938,148.42363066791611L227.79174906222028,148.58935707641794L227.9766137015025,148.72052171633314L228.90093689791362,148.81977373073872L229.27066617647804,148.74405310964272L229.4555308157603,148.8070745827911L229.64039545504252,148.66960348423657L229.82526009432473,148.66222384978232L230.01012473360697,148.69906186346248L230.37985401217142,148.78145301347178L230.56471865145366,148.81699931634103L230.74958329073587,148.84833641034078L230.93444793001808,148.8820426663557L231.11931256930035,149.05991629172456L231.30417720858256,149.01214098115446L231.48904184786477,149.09916867138102L231.673906487147,149.04367489786148L231.85877112642925,149.09023827978925L232.2285004049937,148.9833555671705L232.4133650442759,148.97983461225976L232.59822968355815,148.9722648609751L232.78309432284038,148.77611436183295L232.9679589621226,148.86065400374457L233.1528236014048,148.57845086449754L233.33768824068707,148.42360693086135L233.89228215853373,148.45622132289515L234.07714679781594,148.42217343732733L234.44687607638042,148.25018527928577L234.63174071566263,148.2853144009177L234.81660535494484,148.22413070751603L235.0014699942271,148.1586787970477L235.18633463350932,148.2131133903444L235.37119927279153,148.05714042420888L235.55606391207377,147.88333327361343L235.740928551356,147.74085570936128L235.92579319063822,147.61114901231545L236.11065782992046,147.5011416191731L236.4803871084849,147.38891605814274L236.66525174776714,147.15524026894914L237.03498102633156,146.91726532762613L237.2198456656138,146.86506278817376L237.58957494417825,146.6307284919643L237.7744395834605,146.52568881888666L237.9593042227427,146.53138772807068L238.14416886202494,146.28272012101874L238.32903350130718,146.26304230802208L238.5138981405894,146.21028048788725L238.6987627798716,145.95337505209912L238.88362741915387,145.8373514720586L239.06849205843608,145.62051968204244L239.43822133700053,145.50641339565547L239.62308597628277,145.55899010258042L239.80795061556498,145.49060073402677L240.17767989412943,145.384590403011L240.36254453341164,145.4484440868307L240.7322738119761,145.5667441278014L240.91713845125832,145.36225628854092L241.10200309054056,145.46163988246315L241.2868677298228,145.42340500837696L241.471732369105,145.41612252330313L241.65659700838725,145.376754079071L241.84146164766946,145.39479686737204L242.76578484408063,145.2910953787113L242.95064948336284,145.30489530352614L243.13551412264505,145.34680249045886L243.5052434012095,145.46108160085828L243.69010804049174,145.4435084231787L243.87497267977398,145.38577268887036L244.2447019583384,145.5451059892024L244.42956659762066,145.58160274107965L244.61443123690287,145.66735302824915L244.98416051546732,145.61698318678935L245.35388979403177,145.63562260203764L245.72361907259622,145.6195780683554L245.90848371187846,145.88300070841987L246.0933483511607,145.92118622774137L246.2782129904429,145.94748271489652L246.64794226900736,146.01555520443208L246.8328069082896,145.9634769630309L247.0176715475718,145.81847292229705L247.20253618685405,145.89308051486134L247.38740082613626,145.83940079040207L247.5722654654185,145.84749424505372L248.12685938326516,145.89863009817077L248.31172402254742,145.95217798077763L248.86631794039408,145.8535636198649L249.05118257967632,145.92397622064195L249.23604721895853,145.90444012023553L249.60577649752298,145.74715147990344L249.7906411368052,145.7385208198874L250.34523505465188,145.5500906836237L250.53009969393412,145.39819321290295L250.71496433321636,145.12781811105341L251.0846936117808,145.0698443093077L251.26955825106302,144.7924516145108L251.45442289034526,144.50957868988476L251.6392875296275,144.26191030883328L251.8241521689097,144.20491625558603L252.00901680819192,144.1710469430963L252.19388144747418,144.14459525698223L252.5636107260386,144.0565238086924L253.1182046438853,143.8881044348471L253.30306928316753,143.65821178610585L253.85766320101422,143.6221900989891L254.04252784029643,143.42164273445502L254.22739247957864,143.32102623032253L254.41225711886088,142.9615292542485L254.59712175814312,142.80689478224042L254.96685103670757,142.7898493471888L255.15171567598978,142.36523509622967L255.33658031527202,142.172428625521L255.52144495455425,142.10284277798743L255.70630959383647,141.93107784258603L255.89117423311868,141.87176061261027L256.0760388724009,141.80753384989606L256.2609035116832,141.6899628322892L256.44576815096536,141.46752959683985L256.6306327902476,141.50512130859994L256.81549742952984,141.4322168622324L257.0003620688121,141.4894145768967L257.18522670809426,141.48100731662927L257.3700913473765,141.39247976200417L257.55495598665874,141.3461754673523L257.739820625941,141.10797499751692L257.9246852652232,141.14248674774277L258.29441454378764,141.15418966774357L258.4792791830698,141.19934866057835L259.03387310091654,140.95890679588177L259.2187377401988,140.8593598845759L259.58846701876325,140.70580343691424L259.77333165804544,140.72796597992533L259.9581962973277,140.61822402070953L260.1430609366099,140.64657598721553L260.32792557589215,140.43185563867917L260.51279021517433,140.47503217545534L261.06738413302105,140.32166929324413L261.2522487723033,140.25782120366608L261.80684269014995,140.26921039083084L261.9917073294322,140.28746658052242L262.17657196871437,140.0862841563127L262.3614366079966,140.04432024329586L262.54630124727885,140.10672698671758L262.7311658865611,140.0084580561559L263.1008951651255,139.99371386811305L263.28575980440775,139.91539541808456L263.6554890829722,139.8705153627019L263.8403537222544,139.63444657954912L264.2100830008189,139.550718710581L264.57981227938336,139.32164248326248L264.76467691866554,139.02927534786303L264.9495415579478,138.92720283208226L265.13440619723,138.83447901474003L265.50413547579444,138.83724077834614L265.68900011507674,138.80664478514396L266.05872939364116,138.7030149329585L266.2435940329234,138.59723965895733" fill="none"></path></g></g></g></g><g opacity="0.2"><g><g><g><path style="fill: none;" stroke="rgb(255, 112, 67)" stroke-width="2px" d="M24.440645851771038,181.48113290752534L24.81037513033549,39.85150449503825L24.99523976961772,-72.55032246680427L27.58334471956889,-98.85037541054055L27.768209358851117,35.48596774316828L27.95307399813334,-86.21631205086776L28.13793863741557,56.46500215751968L28.50766791598002,-224.02614325374597L28.692532555262247,101.1682385218067L29.0622618338267,16.941177574818845L29.247126473108928,41.48699389571296L29.431991112391156,-56.78804690036092L30.356314308802286,-88.35452122232043L30.541178948084514,86.66163416771298L30.72604358736674,-20.394965099223704L31.095772865931195,162.35199084319632L31.28063750521342,67.13955710238116L31.465502144495645,-44.55461570668664L31.650366783777873,115.09574192261657L31.835231423060097,76.10829375544228L32.20496070162455,73.54503237123737L32.38982534090678,106.21473186238387L33.12928389803568,-1.985497417936736L33.31414853731791,-14.55954397876591L33.49901317660014,15.713089627714302L33.68387781588236,-98.0413928254244L33.86874245516459,-21.524191924410083L34.05360709444682,71.40150899271913L34.23847173372904,11.754131892606742L34.423336373011274,20.834045131579238L34.6082010122935,45.58062038606141L34.97793029085795,64.91473900863372L35.16279493014018,133.840215530267L35.53252420870463,38.63678641809073L35.71738884798686,193.91964610005928L35.902253487269085,41.70675322837277L36.08711812655131,-6.80143430673676L36.45684740511577,146.6590108498381L36.64171204439799,108.79429436588117L36.826576683680216,-50.19096494341844L37.01144132296244,143.67080269349734L37.3811706015269,96.41919316003833L37.56603524080912,129.93414680833578L37.750899880091346,56.81803842928417L37.93576451937358,65.58814604920809L38.30549379793803,220.99401275424592L38.67522307650248,96.3956166382157L38.86008771578471,62.75573694763085L39.04495235506694,209.0210831474008L39.229816994349164,110.42200224906702L39.41468163363139,-8.541415358244345L39.59954627291362,107.14138617538043L39.784410912195845,26.41995157743471L40.154140190760295,107.21080827720522L40.33900483004252,-40.55963945702357L40.523869469324744,165.6552555612814L40.8935987478892,124.12428449328858L41.078463387171425,99.67684426747729L41.44819266573588,173.4633440854748L41.81792194430034,130.88049742847218L42.00278658358256,114.2919681039496L42.18765122286479,58.55118692885031L42.74224514071147,117.856282700069L42.92710977999369,152.60929897778058L43.11197441927592,153.1407618605838L43.48170369784037,99.68228500328252L43.6665683371226,216.8156963608208L44.036297615687054,163.92067306933248L44.22116225496928,58.90892585210537L44.406026894251504,59.934905225732166L44.590891533533735,234.66167884410984L44.77575617281596,-11.22298111402794L44.960620812098185,115.92709900652862L45.14548545138042,124.6919556837568L45.515214729944866,183.89713592689353L45.88494400850932,-22.25852255312899L46.06980864779154,98.15849939160108L46.439537926355996,125.11711333712542L46.62440256563822,49.629982905653435L46.80926720492045,172.26855428502316L47.1789964834849,195.17782679907876L47.54872576204936,215.33510976967037L47.73359040133158,170.73593274968906L47.918455040613814,166.6437824279699L48.10331967989604,127.62594627515482L48.288184319178264,120.72589125110521L48.65791359774272,6.092645612929878L48.842778237024945,-20.75169179256151L49.027642876307176,22.20582755068684L49.39737215487162,125.2547976939948L49.767101433436075,139.35083737602693L49.9519660727183,234.28235622668174L50.13683071200053,169.8722475727948L50.321695351282756,177.66492067887341L50.50655999056498,291.0035558850699L50.69142462984721,131.29882252989935L51.06115390841166,195.45473494581668L51.24601854769389,99.57981781228415L51.43088318697612,123.77588760864482L51.61574782625834,252.16803710203794L51.800612465540574,243.42664096195438L51.9854771048228,61.16162244482376L52.35520638338724,241.08251681077266L52.90980030123393,132.93386907998527L53.094664940516154,119.35010208857516L53.46439421908061,38.78326452236623L53.649258858362835,212.9145938919211L54.203852776209516,204.58384677639222L54.38871741549174,144.2158041514438L54.57358205477397,168.53171775238232L54.7584466940562,224.2612378696522L55.31304061190287,232.92399639803935L55.68276989046732,106.49741815489944L55.86763452974955,130.06042249051282L56.052499169031776,186.34114397397232L56.237363808314,246.9676426377921L56.42222844759623,175.59556422991707L56.79195772616069,180.0437453369059L56.976822365442914,54.27751004197086L57.16168700472514,227.75317802668818L57.34655164400737,196.74324036610713L57.531416283289595,166.52817733617056L57.90114556185405,61.396164551900085L58.086010201136276,135.70927698434733L58.27087484041849,169.40352185673785L58.45573947970072,173.182091785342L58.64060411898295,184.04684051403027L58.825468758265174,175.32673283439388L59.0103333975474,181.12826534074705L59.56492731539408,144.85471102233853L59.74979195467631,132.5098290971503L59.934656593958536,152.88123032742536L60.11952123324077,89.34505567834486L60.30438587252299,1.0881387257953379L60.67411515108745,234.62116855929654L61.0438444296519,128.4857090611197L61.22870906893413,219.79198972751058L61.41357370821635,230.7351651866625L61.59843834749857,129.39979485264374L61.96816762606303,195.96711307705507L62.15303226534525,155.10773547103489L62.33789690462748,101.24634893042122L62.52276154390971,165.69544952424556L62.707626183191934,236.06554684278197L62.89249082247416,88.18132868347885L63.07735546175639,200.4171499388922L63.262220101038615,101.78618379816504L63.44708474032085,141.18265720440175L63.63194937960307,139.50885068373444L64.00167865816752,-30.64219031401914L64.18654329744975,217.16206878563005L64.37140793673197,150.7346491710321L64.5562725760142,140.11076898640297L64.92600185457866,141.02126979697007L65.11086649386088,112.40451780637254L65.29573113314311,96.57123852885871L65.48059577242533,126.69777361728238L65.66546041170756,139.70357841406556L65.85032505098978,153.7283613275479L66.03518969027202,185.4855355482928L66.95951288668314,-102.86011334649686L67.3292421652476,111.59810797229606L67.51410680452982,230.84581456949198L67.69897144381206,211.91555459577947L67.88383608309428,156.21522044112365L68.0687007223765,166.92526669745874L68.25356536165873,109.23967552947153L68.43843000094095,122.68101333627514L68.62329464022318,164.3651052673754L68.80815927950542,101.129837049321L69.17788855806987,81.5080342490167L69.36275319735209,178.44113232041857L69.73248247591654,248.640500192912L69.91734711519878,144.59663456968613L70.102211754481,244.85813440211814L70.28707639376323,146.68294586975642L70.47194103304545,158.8916196067046L70.65680567232768,200.8643446810843L71.58112886873882,214.0128000877684L71.76599350802104,121.80809156138598L72.13572278658549,54.11093495621327L72.32058742586771,23.32944493508179L72.50545206514994,147.16991281244717L72.87518134371439,198.97706308849345L73.24491062227885,74.92527112777867L73.42977526156108,256.6755918201105L73.79950454012554,162.64140424703695L74.35409845797221,185.72718435291316L74.72382773653666,98.64721664852374L74.9086923758189,228.14443652189053L75.27842165438334,201.70232343570504L75.46328629366558,168.74318945259463L75.64815093294779,193.2941723636914L76.3876094900767,178.35825599594367L76.57247412935894,110.63467597230606L76.75733876864115,222.2587940358508L76.94220340792339,195.6719215274368L77.12706804720561,161.0515706332549L77.31193268648784,76.1308158711011L77.49679732577006,109.97529253371027L77.6816619650523,204.3600385240634L78.05139124361675,201.75824913863315L78.42112052218118,133.53216022545033L78.60598516146342,249.89900775784224L79.71517299715678,214.29404184383955L79.90003763643901,140.88620036738692L80.08490227572123,172.98257705102722L80.26976691500346,128.99599946815377L80.4546315542857,239.08141207279928L81.37895475069682,222.38406803217222L81.56381938997903,161.58803140127455L81.74868402926127,159.31694596505943L81.9335486685435,190.69369044190424L82.48814258639018,193.9243065753033L82.6730072256724,115.80453483404817L82.85787186495463,205.43778924033293L83.78219506136577,280.9174650202268L83.967059700648,58.70078607537067L84.15192433993022,128.0458318977044L84.33678897921243,167.37050024418616L84.70651825777689,153.78093401887512L85.26111217562358,120.74358418653382L85.63084145418803,155.53928282575615L85.81570609347025,174.57241066480927L86.0005707327525,250.16881975109777L87.10975856844586,223.77910010719168L87.29462320772807,100.56731136093214L87.66435248629253,150.04449816057652L87.84921712557474,194.9047356026538L88.21894640413919,179.4462133638788L88.40381104342143,148.35148035960472L88.58867568270365,160.85093822840648L88.77354032198589,150.82142679831307L88.9584049612681,138.33487486095626L89.14326960055034,212.59069086246248L89.32813423983255,94.06086615783016L89.51299887911479,241.75956155261215L89.88272815767925,164.7506383371083L90.06759279696146,185.91075646603124L90.80705135409038,-31.18310067605004L90.99191599337259,106.82181675525504L91.36164527193705,173.40781905688894L91.54650991121929,170.80510179403453L91.7313745505015,46.67931160874406L91.91623918978374,160.72491560370875L92.10110382906595,168.7882336839123L92.28596846834819,224.8752291228963L92.47083310763041,233.78524589669522L92.65569774691265,156.52095605237994L92.84056238619486,156.18044612584143L93.0254270254771,191.7961564386533L93.76488558260598,257.7743990274712L93.94975022188822,176.767304711628L94.13461486117045,118.20820130129987L94.5043441397349,260.2130612352995L95.42866733614605,227.67195711989044L95.7983966147105,143.46274726925574L95.98326125399271,74.934845135746L96.16812589327495,237.88188798867216L96.72271981112162,194.04997070190532L97.09244908968608,171.23599541693423L97.2773137289683,41.27478411118599L97.46217836825053,276.04401027519134L97.64704300753274,125.54222881424748L97.83190764681498,77.36400714403845L98.01677228609721,105.31770636259017L98.20163692537945,224.24466260475722L98.38650156466166,91.69056110160119L98.5713662039439,276.2333183578405L98.7562308432261,185.10993498462292L98.94109548250835,153.07370162856594L99.12596012179057,243.55999170949053L99.31082476107281,183.01147692554562L99.49568940035502,175.64868521244946L99.68055403963724,89.94621480857546L99.86541867891948,209.22222166720783L100.05028331820169,114.4438236796605L100.23514795748393,174.38734129493858L100.42001259676614,95.59091494212458L100.60487723604838,238.28296300525952L102.45352362887066,193.07209333747122L102.82325290743509,134.30021076328765L103.00811754671733,185.95970200015498L103.74757610384624,180.74557916765642L103.93244074312845,172.6488575001836L104.3021700216929,262.08306111086563L105.22649321810405,275.4490721413272L105.41135785738626,168.5888243902139L105.59622249666849,243.71254319326954L105.78108713595073,197.17506186643098L105.96595177523294,147.8494354087716L106.15081641451518,229.59781943401484L106.52054569307963,212.72127906584947L106.89027497164409,133.12477986000343L107.0751396109263,133.1727131642099L107.26000425020854,183.2020292074681L107.44486888949076,152.51509833110643L108.18432744661966,229.15719364222323L109.1086506430308,198.1701049632118L109.29351528231302,148.96731682363546L109.66324456087749,221.73051545966226L110.21783847872416,243.17706302298225L110.4027031180064,154.18869397054098L110.58756775728861,262.27312836595274L111.1421616751353,224.38145071638738L111.51189095369976,130.2137964110996L111.69675559298197,185.32383181901199L111.8816202322642,287.2499648384862L112.06648487154642,166.28047624016997L112.43621415011089,196.61540416280766L112.6210787893931,118.64784649535913L112.80594342867533,208.68145892203987L113.73026662508646,204.56568990225153L113.9151312643687,137.64299462439206L114.09999590365092,233.78592071664005L114.28486054293316,151.20170892535023L114.46972518221537,190.3465166684105L114.83945446077982,153.68146134138195L115.02431910006204,224.41699474816917L115.20918373934428,121.49210712221752L115.3940483786265,203.33994273683064L115.57891301790873,163.01093143120332L115.76377765719096,280.84198008296016L116.31837157503765,199.6629121218007L116.50323621431986,172.57968845583812L116.87296549288432,125.06000669929385L117.05783013216656,153.40533345520524L117.24269477144877,248.83632450565347L117.61242405001322,217.9703554626781L117.79728868929546,167.32111185947363L117.98215332857768,192.83438801190348L118.53674724642435,211.20174271100817L118.72161188570658,167.37343149332153L118.9064765249888,173.4730446221818L119.09134116427104,251.47391098034484L119.27620580355325,132.39015399755866L119.46107044283549,207.31754237291423L120.01566436068217,232.01202996290456L120.38539363924662,165.19762219806765L120.57025827852885,195.58891867422224L120.75512291781108,165.83823720694775L120.93998755709329,181.75787234927705L121.30971683565775,180.22137059926015L121.49458147493998,167.31499630372358L121.86431075350444,190.05412983918794L123.15836322848001,265.2042720607085L123.34322786776225,8.421111832579149L123.52809250704448,272.4797167671952L125.00700962130229,235.60580466724062L125.19187426058451,97.79453947197959L125.37673889986674,295.6330843081712L125.56160353914896,229.96866462588596L125.7464681784312,122.57574142488106L126.11619745699565,118.42534570667344L126.30106209627787,123.9797254082312L126.4859267355601,219.2495610206038L126.85565601412456,161.3363446499748L127.225385292689,245.52294803245752L127.41024993197124,163.70770411236757L127.59511457125345,180.22870926616022L127.77997921053569,106.50650713603142L127.96484384981791,140.95361909750048L128.33457312838237,255.29430920146706L128.51943776766458,139.5064044614344L128.88916704622906,176.32681599263768L129.07403168551127,174.24018837071824L129.2588963247935,152.8853214233409L129.44376096407572,191.54919342696738L129.81349024264017,169.77098240482317L129.9983548819224,99.04072102885499L130.18321952120462,178.80060046978227L130.36808416048686,149.54424570022186L130.7378134390513,62.9748425484691L130.92267807833355,152.87093932326664L131.10754271761576,195.9675348395206L131.4772719961802,186.50523066118333L131.66213663546245,172.870725645171L131.84700127474466,213.11833679495274L132.40159519259134,179.09990420343937L133.14105374972024,158.34550047822452L133.32591838900248,203.6007817336322L133.5107830282847,194.49501445552326L133.88051230684917,125.11742965897456L134.06537694613138,114.79399196665945L134.25024158541362,210.45950403606074L134.43510622469586,149.7793993628732L134.61997086397807,174.44786420874087L134.8048355032603,262.37618602440284L135.17456478182476,-87.8937879049851L135.35942942110697,84.12205474594708L135.5442940603892,206.3780875690891L135.72915869967142,138.4186157984855L135.91402333895365,164.37539627153413L136.2837526175181,59.65770184526838L136.46861725680034,160.89642531031294L136.65348189608255,217.83611901396435L136.8383465353648,142.15686523538582L137.023211174647,245.7719776802245L137.39294045321145,211.21081060401687L137.5778050924937,116.01410860316564L137.76266973177593,143.27797313311092L137.94753437105814,194.44322202475726L138.31726364962262,165.4742351110797L138.50212828890483,204.26883239089446L138.68699292818707,117.34255492894094L138.87185756746928,131.9659242216142L139.05672220675152,163.49770858078458L139.24158684603373,247.78302546832253L139.61131612459818,184.66533408159378L139.79618076388041,84.3770312444779L139.98104540316265,177.99640488864978L140.90536859957376,254.41053758715236L141.090233238856,135.15594571770683L141.2750978781382,185.9260242672831L141.45996251742045,138.91589483345822L142.01455643526714,165.61337454845514L142.19942107454938,141.34824114836536L142.3842857138316,58.12282388074374L142.5691503531138,67.01553784939466L142.75401499239604,89.78105262707737L142.93887963167825,153.61256644263906L143.49347354952494,131.17374887074905L143.67833818880717,229.77424267334234L143.8632028280894,151.49806032174868L144.04806746737162,118.57840330541107L144.23293210665386,178.3482813136341L144.41779674593607,134.7529938581479L144.97239066378273,27.99089023276141L145.157255303065,205.58466801895068L145.71184922091166,174.30935741506372L145.89671386019387,80.54506618773877L146.08157849947614,39.15911814351542L146.26644313875835,179.12232087848182L146.45130777804056,154.83991630542894L147.00590169588725,73.30441688465754L147.19076633516949,151.7710882538038L147.3756309744517,198.81875454706008L147.56049561373393,150.4962901136428L147.93022489229838,190.37137956575296L148.29995417086286,13.845103667921043L148.66968344942728,174.95294584932574L149.03941272799173,208.35925348650497L149.22427736727397,101.53884120026015L149.4091420065562,184.84268519834544L149.59400664583842,87.03276404924833L149.77887128512063,269.1124706830906L150.33346520296732,234.66864846885258L150.51832984224953,145.20814796844527L150.7031944815318,198.27885641494643L150.888059120814,167.01491230950526L151.07292376009624,178.98455216911933L151.44265303866067,118.75588095090238L151.62751767794293,165.2557199776932L151.81238231722514,104.38535825630908L151.99724695650735,67.96933257704751L152.36697623507183,27.997174493497674L152.55184087435404,147.6649143301061L152.73670551363625,176.63742296037074L152.9215701529185,145.76966142691688L153.29129943148297,186.77199542062547L153.47616407076518,118.58801948962495L153.6610287100474,13.711320613857728L153.84589334932966,178.53136839991683L154.03075798861187,61.93357428546716L154.21562262789408,196.83261183255107L154.4004872671763,166.8350095298372L154.58535190645853,79.6046835064895L154.77021654574077,220.06904549111144L155.13994582430522,115.2059906311038L155.32481046358743,135.7104368311275L155.6945397421519,77.80628835350723L156.2491336599986,194.72295598001418L156.4339982992808,167.14403488832457L156.61886293856304,132.29241054617412L156.9885922171275,53.00823699010817L157.17345685640973,166.1210289400797L157.54318613497415,86.93033903449651L157.72805077425636,159.3651534148685L157.91291541353863,73.13303370679301L158.09778005282084,67.02460574240337L158.28264469210305,120.70908401685419L158.4675093313853,230.72151062684125L158.65237397066753,160.50585217911706L158.83723860994976,15.604823202815018L159.02210324923198,45.80375381844539L159.20696788851419,212.74836676019757L159.39183252779645,147.707533427247L159.57669716707866,170.77985931047309L159.76156180636087,73.73516289069431L159.94642644564308,-1.8240467461352323L160.13129108492535,193.0675383028436L160.31615572420756,65.10185392646218L160.5010203634898,121.88556932630222L160.685885002772,85.3620574827026L160.87074964205422,83.95092462556187L161.0556142813365,185.31265511367567L161.2404789206187,101.83344228242669L161.4253435599009,128.693511427882L161.7950728384654,128.56042428188678L161.9799374777476,244.58062524386685L162.1648021170298,37.806989855301104L162.53453139559429,152.09970447881463L162.71939603487652,114.40278619176529L162.90426067415873,62.420014025076L163.08912531344095,114.61718914111297L163.2739899527232,267.22018066122166L164.19831314913432,108.69927128239925L164.38317778841656,206.6328320982639L164.56804242769877,72.17200575285648L164.93777170626325,97.83281441572564L165.12263634554546,203.42060480836156L165.30750098482767,255.41682065363932L165.49236562410988,152.54989373451193L165.67723026339215,180.2292575573654L166.2318241812388,196.4980487567764L166.41668882052105,74.73227262355618L166.60155345980328,188.5529085194119L166.9712827383677,178.3761176363585L167.15614737764992,150.79346394684902L167.34101201693218,243.75685988433418L167.5258766562144,204.28698926503515L167.7107412954966,143.15376408701493L167.89560593477884,246.9449096409005L168.08047057406108,117.82500901325061L168.26533521334332,222.96052242598492L168.81992913119,205.556810608103L169.00479377047222,39.746232583644165L169.18965840975443,1.0985984349402629L169.37452304903664,181.5889775699591L169.74425232760112,70.11435321231835L169.92911696688336,124.70011678746464L170.11398160616557,158.4852092949284L170.29884624544778,88.2962378672101L170.85344016329447,133.3715109023333L171.03830480257668,207.65904344124672L171.22316944185894,214.98516290796582L171.40803408114115,137.49097034369495L171.59289872042336,81.0477226941469L171.7777633597056,126.75452175701825L172.14749263827008,-13.728882802921968L172.3323572775523,90.9018652910766L172.5172219168345,84.73784903373127L172.70208655611677,197.4525815687439L172.88695119539898,182.3647041846689L173.0718158346812,91.20888727785274L173.2566804739634,-3.5399451608615577L173.44154511324564,100.7549534818425L173.81127439181012,65.78976959585049L174.18100367037454,162.80163180768844L174.3658683096568,156.34379472873778L174.55073294893901,176.7214802197491L174.73559758822122,50.42420380447635L174.92046222750344,152.10181329114224L175.2901915060679,140.01496564235984L175.47505614535012,140.46313043822263L175.8447854239146,80.18102191562417L176.02965006319684,212.2842698871997L176.21451470247905,131.68583176826158L176.58424398104347,220.4236001077518L176.76910862032574,177.36568020958615L176.95397325960795,97.31807441468032L177.13883789889016,153.56077401187306L177.3237025381724,149.40409403292918L177.50856717745464,141.82810139351207L177.69343181673688,112.9308351870964L177.8782964560191,129.30359083425836L178.0631610953013,198.3829052151905L178.24802573458356,197.48990754694253L178.43289037386577,85.89925633503691L178.61775501314798,209.1508172817951L178.8026196524302,133.80185623402784L178.98748429171243,38.79889082171379L179.35721357027688,186.98682013243868L179.54207820955912,186.1884237852071L179.72694284884133,172.78681600265557L179.9118074881236,231.38291852527155L180.0966721274058,193.47070104363527L180.28153676668802,110.39368089950727L180.6512660452525,140.05026716072396L180.8361306845347,172.98046823869961L181.20585996309916,99.85470149918757L181.3907246023814,43.81693628399156L181.76045388094585,158.4258462279063L182.13018315951027,154.92182257623315L182.68477707735696,149.6062236945302L182.8696417166392,142.64180771824206L183.42423563448588,118.41319894766643L183.79396491305036,83.3215495863879L183.97882955233257,106.52019332803758L184.16369419161478,46.12604360647339L184.53342347017926,73.924281180234L184.71828810946147,125.64891362990106L184.90315274874368,102.50471942255018L185.4577466665904,121.77335942235031L185.6426113058726,80.79468630295747L186.01234058443703,156.48748920074084L186.1972052237193,67.64271972374792L186.3820698630015,149.81539678930542L186.56693450228371,270.6783903650776L186.75179914156595,129.5173400517845L186.9366637808482,68.30834524683343L187.12152842013043,181.21411509060388L187.67612233797712,192.32506765854012L187.86098697725933,20.85264485630872L188.23071625582375,31.37325650125498L188.415580895106,141.41597620032806L188.60044553438823,200.00403360391422L188.78531017367044,168.63420603150396L188.97017481295268,160.5643928093314L189.1550394522349,251.49492529518943L189.33990409151716,169.9156680186202L189.52476873079937,157.63727694612137L189.70963337008158,210.00971545470568L189.8944980093638,207.1677534332844L190.07936264864605,36.255958388347004L190.44909192721047,258.7926390598557L190.6339565664927,58.26746731829422L191.0036858450572,161.04176465593153L191.3734151236216,220.7205736037869L191.55827976290382,254.08290195987388L192.1128736807505,173.8420867795128L192.29773832003275,236.22895871004815L192.85233223787944,215.98166108525268L193.03719687716165,26.24601673665378L193.22206151644392,76.75825080293367L193.40692615572613,194.47046788002993L193.9615200735728,50.2663170255085L194.14638471285502,197.24711998366527L194.51611399141947,223.81788116589635L194.70097863070168,176.70825796645502L195.07070790926616,187.79778500114278L195.25557254854837,123.65035001078245L195.44043718783058,127.95184213226302L195.62530182711285,43.43363855532592L195.81016646639506,94.05439210398441L195.99503110567727,149.68051715283175L196.1798957449595,147.0725489472816L196.36476038424175,99.97051747221968L196.54962502352396,172.54849912151283L196.9193543020884,120.34447036541114L197.10421894137068,136.31338845183657L197.28908358065289,141.94904178050027L197.4739482199351,148.39884428448275L197.6588128592173,84.85948532878757L197.84367749849955,-5.391313679513282L198.213406777064,-38.676765282197415L198.39827141634623,112.70772284283571L198.58313605562844,132.8338691994102L198.95286533419292,209.6506901559308L199.32259461275734,172.9289499535362L199.5074592520396,257.52662412303914L199.69232389132182,200.74249750479524L199.87718853060403,169.7157315218399L200.06205316988627,176.0817509120466L200.2469178091685,204.43239187502357L201.35610564486186,188.69006567319937L201.7258349234263,66.98909334280648L202.09556420199075,257.0045559991554L202.280428841273,249.5866610199389L202.4652934805552,129.27191647309772L202.65015811983747,104.41256193533519L203.0198873984019,129.62132558765873L203.2047520376841,122.3149867805726L203.38961667696637,165.3446696816716L203.57448131624858,176.83560914291914L203.7593459555308,143.4105541641475L203.94421059481303,278.59085455542584L204.49880451265972,192.49936099741674L204.68366915194193,93.24144495169236L205.23826306978862,135.59660314168335L205.42312770907083,171.90347669486803L206.16258626619975,171.77089566383145L206.34745090548196,151.57990332818306L206.53231554476417,154.73922051678576L206.71718018404644,90.59994663013327L206.90204482332865,132.82591897693513L207.08690946261086,138.69497565401824L207.2717741018931,198.93258823650424L208.011232659022,178.95068464313798L208.19609729830427,90.20642116167875L208.38096193758648,80.46676598601476L208.5658265768687,101.62589297314372L208.7506912161509,167.4688552511457L209.12042049471538,251.99505122680443L209.3052851339976,27.175960796881405L209.49014977327982,87.12981159256475L209.67501441256204,107.63864412222989L209.85987905184427,74.96856504486442L210.22960833040872,135.62718092043363L210.41447296969093,191.58386230163322L210.5993376089732,190.4933321826584L210.7842022482554,71.85100234034832L210.96906688753762,-7.377182248419708L211.15393152681986,90.30821353273228L211.3387961661021,243.26748889558996L211.5236608053843,73.37445054205733L211.70852544466655,183.79618708077103L211.89339008394876,120.32097819608161L212.63284864107766,209.32070320290703L213.00257791964214,141.3834372261131L213.18744255892435,92.70373998439942L213.37230719820658,141.63809740279478L213.5571718374888,116.85799203230367L213.74203647677103,184.16075855596753L214.2966303946177,170.84200600976763L214.66635967318217,155.58285088844448L214.85122431246438,36.58577663638456L215.22095359102886,162.42936316749618L215.40581823031107,111.86677066283305L215.77554750887552,103.59904540371468L215.96041214815773,151.6818644042228L216.3301414267222,83.53768176184423L217.0695999838511,47.40025127918267L217.25446462313334,128.41000269855866L217.43932926241555,115.46427796498897L217.6241939016978,69.89370817848095L217.80905854098003,125.34769087702584L218.73338173739114,143.23577579843553L218.91824637667338,152.4296070793453L219.1031110159556,163.23967430437872L219.28797565523783,127.26734273884544L219.65770493380228,178.20701197580777L219.8425695730845,121.37937001518371L220.02743421236676,140.2571416500621L220.39716349093118,75.16415738824986L220.58202813021342,14.598582312574612L220.76689276949566,60.993233780464436L221.1366220480601,120.1358455618411L221.50635132662458,113.0458708995673L221.6912159659068,197.78393924978062L221.876080605189,155.65368589452876L222.24580988375345,212.38076913931096L222.4306745230357,96.47292569814573L222.6155391623179,138.17732549196083L222.80040380160014,190.434939169307L222.98526844088235,218.49790649861362L223.1701330801646,162.54960764641626L223.35499771944683,152.6844148728899L223.53986235872904,126.88039676485305L223.72472699801125,132.61828531515906L223.90959163729352,173.27698834008427L224.09445627657573,137.04090761673731L224.27932091585794,71.16217988165914L224.46418555514018,63.48085206647812L224.83391483370463,161.7251252906922L225.01877947298686,271.6682563275941L225.20364411226907,153.85560706339564L225.57337339083355,179.9913413505649L225.75823803011576,180.97702132061116L225.94310266939797,155.0571661514189L226.1279673086802,135.66963131258834L226.49769658724466,143.21848353734916L226.6825612265269,195.67890169624118L226.8674258658091,140.25355666910517L227.05229050509135,150.92844902393907L227.606884422938,192.92886280418023L228.90093689791362,205.48384570156784L229.27066617647804,105.48189849041756L229.4555308157603,184.84066073851093L229.64039545504252,70.00946088714323L229.82526009432473,144.43649136152774L230.01012473360697,169.80898320296663L230.37985401217142,196.03056723999273L230.56471865145366,169.21697631823784L230.74958329073587,166.84597535394076L230.93444793001808,168.25466198878146L231.11931256930035,251.36797479306756L231.30417720858256,121.51283674739788L231.48904184786477,199.2288552804096L231.673906487147,117.05468095809947L231.85877112642925,175.9510467239816L232.2285004049937,87.28128758205668L232.4133650442759,146.94574606202266L232.59822968355815,144.5959597497413L232.78309432284038,35.29294815082252L232.9679589621226,197.80673551104204L233.1528236014048,-14.927784787412444L233.33768824068707,58.64329985132014L233.89228215853373,167.38009534027677L234.07714679781594,128.6522841468773L234.44687607638042,48.31338810515928L234.63174071566263,168.7124007926116L234.81660535494484,112.62113500866421L235.0014699942271,110.04469354741178L235.18633463350932,179.93417144836351L235.37119927279153,57.10097777927905L235.55606391207377,46.454828536470416L235.740928551356,64.53614393145864L235.92579319063822,71.81059749615139L236.11065782992046,83.16724778837698L236.4803871084849,81.7113237573979L236.66525174776714,10.304829532336347L237.03498102633156,7.450720751908043L237.2198456656138,116.24991599763852L237.58957494417825,9.104367026723443L237.7744395834605,84.83660471503305L237.9593042227427,149.88066453084483L238.14416886202494,0.03727536670279237L238.32903350130718,134.68211667581707L238.5138981405894,115.13686376300488L238.6987627798716,-5.45322840945179L238.88362741915387,77.41160303827252L239.06849205843608,17.653660907823756L239.43822133700053,78.11805516802048L239.62308597628277,176.63096999464827L239.80795061556498,105.0456906604523L240.17767989412943,82.64774187147128L240.36254453341164,183.26301605998245L240.7322738119761,215.6729309604912L240.91713845125832,24.09692609359066L241.10200309054056,204.43842307828052L241.2868677298228,122.71833931447377L241.471732369105,141.08860417459053L241.65659700838725,121.96665316029866L241.84146164766946,156.13107882925217L242.76578484408063,83.54208917960892L242.95064948336284,153.5276234820831L243.13551412264505,170.33422508940342L243.5052434012095,213.64674189988094L243.69010804049174,134.95124330506613L243.87497267977398,110.89079122949379L244.2447019583384,240.8048811237817L244.42956659762066,167.4163669123116L244.61443123690287,197.0031936617311L244.98416051546732,115.44207217117928L245.35388979403177,156.80933613818004L245.72361907259622,135.99499996661464L245.90848371187846,304.00655596145737L246.0933483511607,168.85786666696984L246.2782129904429,161.7533201115123L246.64794226900736,186.95847769475566L246.8328069082896,114.61976189215265L247.0176715475718,58.48901914143249L247.20253618685405,190.85549961180143L247.38740082613626,113.46792859881434L247.5722654654185,150.73144377629413L248.12685938326516,176.77649913337635L248.31172402254742,178.30768667632768L248.86631794039408,86.22837867500635L249.05118257967632,188.52530416604353L249.23604721895853,134.07692971404074L249.60577649752298,50.45984273281289L249.7906411368052,140.50657197217132L250.34523505465188,31.24879439767968L250.53009969393412,53.19792465897632L250.71496433321636,-19.093195249392615L251.0846936117808,109.83488780893828L251.26955825106302,-23.908077732028836L251.6392875296275,-6.554829793146532L251.8241521689097,109.476368625122L252.00901680819192,123.52004649705968L252.19388144747418,128.0060175209592L252.5636107260386,90.28853831371572L253.1182046438853,41.00194597224034L253.30306928316753,3.129258177685037L253.85766320101422,121.58885943180807L254.04252784029643,20.675462444543278L254.22739247957864,81.6991769983909L254.41225711886088,-77.34875621328517L254.59712175814312,47.982641979697576L254.96685103670757,132.33074875429L255.15171567598978,-118.34225428334105L255.33658031527202,23.71759293210092L255.52144495455425,99.32450390378091L255.70630959383647,36.27150033520146L255.89117423311868,105.36055742908712L256.0760388724009,102.24976401214263L256.2609035116832,69.23200504632479L256.44576815096536,4.29880549457524L256.6306327902476,164.7013132167656L256.81549742952984,96.41824419449091L257.0003620688121,176.8272793342251L257.18522670809426,136.28363310989405L257.3700913473765,86.63097203646959L257.55495598665874,112.68558031339585L257.739820625941,-6.419570570453893L257.9246852652232,162.53016439675574L258.29441454378764,148.41118083659924L258.4792791830698,169.21959124552407L259.03387310091654,-8.321424056228503L259.2187377401988,79.01718948014178L259.58846701876325,45.25293203847474L259.77333165804544,154.51288168966383L259.9581962973277,72.31827297589922L260.1430609366099,158.3026283236043L260.32792557589215,6.634989967343549L260.51279021517433,167.3954896702683L261.06738413302105,44.64272610335871L261.2522487723033,100.4007784514211L261.80684269014995,147.38315591501467L261.9917073294322,151.69753287981692L262.17657196871437,14.2726021029733L262.3614366079966,113.78562117596816L262.54630124727885,179.18071389183322L262.7311658865611,78.44386667263558L263.1008951651255,130.75112179217356L263.28575980440775,90.79127917261695L263.6554890829722,111.70346423618325L263.8403537222544,-8.611723161246724L264.2100830008189,86.94033480492936L264.57981227938336,-4.703250393262047L264.76467691866554,-44.89615895126568L264.9495415579478,74.67657888998411L265.13440619723,80.4342270117998L265.50413547579444,140.57770221198146L265.68900011507674,119.51378810144392L266.05872939364116,73.3191574828275L266.2435940329234,71.82082523594028" fill="none"></path></g></g></g></g></g></g><g transform="translate(41, 176)" clip-path="url(#clip_1)"><clipPath id="clip_1"><rect width="288" height="23"></rect></clipPath><g><g><line x1="0" y1="0" x2="0" y2="5" style="visibility: inherit;" fill="rgb(0, 0, 0)" stroke="rgb(204, 204, 204)" stroke-width="1px"></line><line x1="24.07091657320658" y1="0" x2="24.07091657320658" y2="5" style="visibility: inherit;" fill="rgb(0, 0, 0)" stroke="rgb(204, 204, 204)" stroke-width="1px"></line><line x1="48.14183314641316" y1="0" x2="48.14183314641316" y2="5" style="visibility: inherit;" fill="rgb(0, 0, 0)" stroke="rgb(204, 204, 204)" stroke-width="1px"></line><line x1="72.21274971961975" y1="0" x2="72.21274971961975" y2="5" style="visibility: inherit;" fill="rgb(0, 0, 0)" stroke="rgb(204, 204, 204)" stroke-width="1px"></line><line x1="96.28366629282633" y1="0" x2="96.28366629282633" y2="5" style="visibility: inherit;" fill="rgb(0, 0, 0)" stroke="rgb(204, 204, 204)" stroke-width="1px"></line><line x1="120.35458286603293" y1="0" x2="120.35458286603293" y2="5" style="visibility: inherit;" fill="rgb(0, 0, 0)" stroke="rgb(204, 204, 204)" stroke-width="1px"></line><line x1="144.4254994392395" y1="0" x2="144.4254994392395" y2="5" style="visibility: inherit;" fill="rgb(0, 0, 0)" stroke="rgb(204, 204, 204)" stroke-width="1px"></line><line x1="168.4964160124461" y1="0" x2="168.4964160124461" y2="5" style="visibility: inherit;" fill="rgb(0, 0, 0)" stroke="rgb(204, 204, 204)" stroke-width="1px"></line><line x1="192.56733258565265" y1="0" x2="192.56733258565265" y2="5" style="visibility: inherit;" fill="rgb(0, 0, 0)" stroke="rgb(204, 204, 204)" stroke-width="1px"></line><line x1="216.63824915885925" y1="0" x2="216.63824915885925" y2="5" style="visibility: inherit;" fill="rgb(0, 0, 0)" stroke="rgb(204, 204, 204)" stroke-width="1px"></line><line x1="240.70916573206586" y1="0" x2="240.70916573206586" y2="5" style="visibility: inherit;" fill="rgb(0, 0, 0)" stroke="rgb(204, 204, 204)" stroke-width="1px"></line><line x1="264.7800823052724" y1="0" x2="264.7800823052724" y2="5" style="visibility: inherit;" fill="rgb(0, 0, 0)" stroke="rgb(204, 204, 204)" stroke-width="1px"></line><line x1="288.850998878479" y1="0" x2="288.850998878479" y2="5" style="visibility: inherit;" fill="rgb(0, 0, 0)" stroke="rgb(204, 204, 204)" stroke-width="1px"></line></g><g transform="translate(0, 8)"><text style="text-anchor: middle; visibility: hidden; font-family: Roboto, sans-serif; font-size: 12px; font-weight: 200;" x="0" y="0" dx="0em" dy="0.95em" fill="rgb(33, 33, 33)" stroke="none" stroke-width="1px">-100k</text><text style="text-anchor: middle; visibility: inherit; font-family: Roboto, sans-serif; font-size: 12px; font-weight: 200;" x="24.07091657320658" y="0" dx="0em" dy="0.95em" fill="rgb(33, 33, 33)" stroke="none" stroke-width="1px">0</text><text style="text-anchor: middle; visibility: hidden; font-family: Roboto, sans-serif; font-size: 12px; font-weight: 200;" x="48.14183314641316" y="0" dx="0em" dy="0.95em" fill="rgb(33, 33, 33)" stroke="none" stroke-width="1px">100k</text><text style="text-anchor: middle; visibility: inherit; font-family: Roboto, sans-serif; font-size: 12px; font-weight: 200;" x="72.21274971961975" y="0" dx="0em" dy="0.95em" fill="rgb(33, 33, 33)" stroke="none" stroke-width="1px">200k</text><text style="text-anchor: middle; visibility: hidden; font-family: Roboto, sans-serif; font-size: 12px; font-weight: 200;" x="96.28366629282633" y="0" dx="0em" dy="0.95em" fill="rgb(33, 33, 33)" stroke="none" stroke-width="1px">300k</text><text style="text-anchor: middle; visibility: inherit; font-family: Roboto, sans-serif; font-size: 12px; font-weight: 200;" x="120.35458286603293" y="0" dx="0em" dy="0.95em" fill="rgb(33, 33, 33)" stroke="none" stroke-width="1px">400k</text><text style="text-anchor: middle; visibility: hidden; font-family: Roboto, sans-serif; font-size: 12px; font-weight: 200;" x="144.4254994392395" y="0" dx="0em" dy="0.95em" fill="rgb(33, 33, 33)" stroke="none" stroke-width="1px">500k</text><text style="text-anchor: middle; visibility: inherit; font-family: Roboto, sans-serif; font-size: 12px; font-weight: 200;" x="168.4964160124461" y="0" dx="0em" dy="0.95em" fill="rgb(33, 33, 33)" stroke="none" stroke-width="1px">600k</text><text style="text-anchor: middle; visibility: hidden; font-family: Roboto, sans-serif; font-size: 12px; font-weight: 200;" x="192.56733258565265" y="0" dx="0em" dy="0.95em" fill="rgb(33, 33, 33)" stroke="none" stroke-width="1px">700k</text><text style="text-anchor: middle; visibility: inherit; font-family: Roboto, sans-serif; font-size: 12px; font-weight: 200;" x="216.63824915885925" y="0" dx="0em" dy="0.95em" fill="rgb(33, 33, 33)" stroke="none" stroke-width="1px">800k</text><text style="text-anchor: middle; visibility: hidden; font-family: Roboto, sans-serif; font-size: 12px; font-weight: 200;" x="240.70916573206586" y="0" dx="0em" dy="0.95em" fill="rgb(33, 33, 33)" stroke="none" stroke-width="1px">900k</text><text style="text-anchor: middle; visibility: inherit; font-family: Roboto, sans-serif; font-size: 12px; font-weight: 200;" x="264.7800823052724" y="0" dx="0em" dy="0.95em" fill="rgb(33, 33, 33)" stroke="none" stroke-width="1px">1M</text><text style="text-anchor: middle; visibility: hidden; font-family: Roboto, sans-serif; font-size: 12px; font-weight: 200;" x="288.850998878479" y="0" dx="0em" dy="0.95em" fill="rgb(33, 33, 33)" stroke="none" stroke-width="1px">1.1M</text></g><line x1="0" y1="0" x2="288.850998878479" y2="0" fill="rgb(0, 0, 0)" stroke="rgb(204, 204, 204)" stroke-width="1px"></line></g></g></g></g></svg>