<svg viewBox="0 0 330 200" xmlns="http://www.w3.org/2000/svg"><g><g><g><g><g><line x1="40" y1="177" x2="35" y2="177" style="visibility: inherit;" fill="rgb(0, 0, 0)" stroke="rgb(204, 204, 204)" stroke-width="1px"></line><line x1="40" y1="163.3846153846154" x2="35" y2="163.3846153846154" style="visibility: inherit;" fill="rgb(0, 0, 0)" stroke="rgb(204, 204, 204)" stroke-width="1px"></line><line x1="40" y1="149.76923076923077" x2="35" y2="149.76923076923077" style="visibility: inherit;" fill="rgb(0, 0, 0)" stroke="rgb(204, 204, 204)" stroke-width="1px"></line><line x1="40" y1="136.15384615384613" x2="35" y2="136.15384615384613" style="visibility: inherit;" fill="rgb(0, 0, 0)" stroke="rgb(204, 204, 204)" stroke-width="1px"></line><line x1="40" y1="122.53846153846153" x2="35" y2="122.53846153846153" style="visibility: inherit;" fill="rgb(0, 0, 0)" stroke="rgb(204, 204, 204)" stroke-width="1px"></line><line x1="40" y1="108.92307692307693" x2="35" y2="108.92307692307693" style="visibility: inherit;" fill="rgb(0, 0, 0)" stroke="rgb(204, 204, 204)" stroke-width="1px"></line><line x1="40" y1="95.3076923076923" x2="35" y2="95.3076923076923" style="visibility: inherit;" fill="rgb(0, 0, 0)" stroke="rgb(204, 204, 204)" stroke-width="1px"></line><line x1="40" y1="81.6923076923077" x2="35" y2="81.6923076923077" style="visibility: inherit;" fill="rgb(0, 0, 0)" stroke="rgb(204, 204, 204)" stroke-width="1px"></line><line x1="40" y1="68.07692307692307" x2="35" y2="68.07692307692307" style="visibility: inherit;" fill="rgb(0, 0, 0)" stroke="rgb(204, 204, 204)" stroke-width="1px"></line><line x1="40" y1="54.46153846153847" x2="35" y2="54.46153846153847" style="visibility: inherit;" fill="rgb(0, 0, 0)" stroke="rgb(204, 204, 204)" stroke-width="1px"></line><line x1="40" y1="40.84615384615384" x2="35" y2="40.84615384615384" style="visibility: inherit;" fill="rgb(0, 0, 0)" stroke="rgb(204, 204, 204)" stroke-width="1px"></line><line x1="40" y1="27.230769230769234" x2="35" y2="27.230769230769234" style="visibility: inherit;" fill="rgb(0, 0, 0)" stroke="rgb(204, 204, 204)" stroke-width="1px"></line><line x1="40" y1="13.615384615384606" x2="35" y2="13.615384615384606" style="visibility: inherit;" fill="rgb(0, 0, 0)" stroke="rgb(204, 204, 204)" stroke-width="1px"></line><line x1="40" y1="0" x2="35" y2="0" style="visibility: inherit;" fill="rgb(0, 0, 0)" stroke="rgb(204, 204, 204)" stroke-width="1px"></line></g><g transform="translate(30, 0)"><text x="0" y="177" dx="0em" dy="0.3em" style="text-anchor: end; visibility: hidden; font-family: Roboto, sans-serif; font-size: 12px; font-weight: 200;" fill="rgb(33, 33, 33)" stroke="none" stroke-width="1px">1.5</text><text x="0" y="163.3846153846154" dx="0em" dy="0.3em" style="text-anchor: end; visibility: inherit; font-family: Roboto, sans-serif; font-size: 12px; font-weight: 200;" fill="rgb(33, 33, 33)" stroke="none" stroke-width="1px">2</text><text x="0" y="149.76923076923077" dx="0em" dy="0.3em" style="text-anchor: end; visibility: hidden; font-family: Roboto, sans-serif; font-size: 12px; font-weight: 200;" fill="rgb(33, 33, 33)" stroke="none" stroke-width="1px">2.5</text><text x="0" y="136.15384615384613" dx="0em" dy="0.3em" style="text-anchor: end; visibility: inherit; font-family: Roboto, sans-serif; font-size: 12px; font-weight: 200;" fill="rgb(33, 33, 33)" stroke="none" stroke-width="1px">3</text><text x="0" y="122.53846153846153" dx="0em" dy="0.3em" style="text-anchor: end; visibility: hidden; font-family: Roboto, sans-serif; font-size: 12px; font-weight: 200;" fill="rgb(33, 33, 33)" stroke="none" stroke-width="1px">3.5</text><text x="0" y="108.92307692307693" dx="0em" dy="0.3em" style="text-anchor: end; visibility: inherit; font-family: Roboto, sans-serif; font-size: 12px; font-weight: 200;" fill="rgb(33, 33, 33)" stroke="none" stroke-width="1px">4</text><text x="0" y="95.3076923076923" dx="0em" dy="0.3em" style="text-anchor: end; visibility: hidden; font-family: Roboto, sans-serif; font-size: 12px; font-weight: 200;" fill="rgb(33, 33, 33)" stroke="none" stroke-width="1px">4.5</text><text x="0" y="81.6923076923077" dx="0em" dy="0.3em" style="text-anchor: end; visibility: inherit; font-family: Roboto, sans-serif; font-size: 12px; font-weight: 200;" fill="rgb(33, 33, 33)" stroke="none" stroke-width="1px">5</text><text x="0" y="68.07692307692307" dx="0em" dy="0.3em" style="text-anchor: end; visibility: hidden; font-family: Roboto, sans-serif; font-size: 12px; font-weight: 200;" fill="rgb(33, 33, 33)" stroke="none" stroke-width="1px">5.5</text><text x="0" y="54.46153846153847" dx="0em" dy="0.3em" style="text-anchor: end; visibility: inherit; font-family: Roboto, sans-serif; font-size: 12px; font-weight: 200;" fill="rgb(33, 33, 33)" stroke="none" stroke-width="1px">6</text><text x="0" y="40.84615384615384" dx="0em" dy="0.3em" style="text-anchor: end; visibility: hidden; font-family: Roboto, sans-serif; font-size: 12px; font-weight: 200;" fill="rgb(33, 33, 33)" stroke="none" stroke-width="1px">6.5</text><text x="0" y="27.230769230769234" dx="0em" dy="0.3em" style="text-anchor: end; visibility: inherit; font-family: Roboto, sans-serif; font-size: 12px; font-weight: 200;" fill="rgb(33, 33, 33)" stroke="none" stroke-width="1px">7</text><text x="0" y="13.615384615384606" dx="0em" dy="0.3em" style="text-anchor: end; visibility: hidden; font-family: Roboto, sans-serif; font-size: 12px; font-weight: 200;" fill="rgb(33, 33, 33)" stroke="none" stroke-width="1px">7.5</text><text x="0" y="0" dx="0em" dy="0.3em" style="text-anchor: end; visibility: hidden; font-family: Roboto, sans-serif; font-size: 12px; font-weight: 200;" fill="rgb(33, 33, 33)" stroke="none" stroke-width="1px">8</text></g><line x1="40" y1="0" x2="40" y2="177" fill="rgb(0, 0, 0)" stroke="rgb(204, 204, 204)" stroke-width="1px"></line></g></g><g transform="translate(40, 0)" clip-path="url(#clip_0)"><clipPath id="clip_0"><rect width="290" height="177"></rect></clipPath><g><g><g><line x1="0" y1="0" x2="0" y2="177" fill="rgb(0, 0, 0)" stroke="rgb(66, 66, 66)" stroke-width="1px" opacity="0.25"></line><line x1="22.30769230769231" y1="0" x2="22.30769230769231" y2="177" fill="rgb(0, 0, 0)" stroke="rgb(66, 66, 66)" stroke-width="1px" opacity="0.25"></line><line x1="44.61538461538462" y1="0" x2="44.61538461538462" y2="177" fill="rgb(0, 0, 0)" stroke="rgb(66, 66, 66)" stroke-width="1px" opacity="0.25"></line><line x1="66.92307692307692" y1="0" x2="66.92307692307692" y2="177" fill="rgb(0, 0, 0)" stroke="rgb(66, 66, 66)" stroke-width="1px" opacity="0.25"></line><line x1="89.23076923076924" y1="0" x2="89.23076923076924" y2="177" fill="rgb(0, 0, 0)" stroke="rgb(66, 66, 66)" stroke-width="1px" opacity="0.25"></line><line x1="111.53846153846155" y1="0" x2="111.53846153846155" y2="177" fill="rgb(0, 0, 0)" stroke="rgb(66, 66, 66)" stroke-width="1px" opacity="0.25"></line><line x1="133.84615384615384" y1="0" x2="133.84615384615384" y2="177" fill="rgb(0, 0, 0)" stroke="rgb(66, 66, 66)" stroke-width="1px" opacity="0.25"></line><line x1="156.15384615384616" y1="0" x2="156.15384615384616" y2="177" fill="rgb(0, 0, 0)" stroke="rgb(66, 66, 66)" stroke-width="1px" opacity="0.25"></line><line x1="178.46153846153848" y1="0" x2="178.46153846153848" y2="177" fill="rgb(0, 0, 0)" stroke="rgb(66, 66, 66)" stroke-width="1px" opacity="0.25"></line><line x1="200.76923076923077" y1="0" x2="200.76923076923077" y2="177" fill="rgb(0, 0, 0)" stroke="rgb(66, 66, 66)" stroke-width="1px" opacity="0.25"></line><line x1="223.0769230769231" y1="0" x2="223.0769230769231" y2="177" fill="rgb(0, 0, 0)" stroke="rgb(66, 66, 66)" stroke-width="1px" opacity="0.25"></line><line x1="245.3846153846154" y1="0" x2="245.3846153846154" y2="177" fill="rgb(0, 0, 0)" stroke="rgb(66, 66, 66)" stroke-width="1px" opacity="0.25"></line><line x1="267.6923076923077" y1="0" x2="267.6923076923077" y2="177" fill="rgb(0, 0, 0)" stroke="rgb(66, 66, 66)" stroke-width="1px" opacity="0.25"></line><line x1="290" y1="0" x2="290" y2="177" fill="rgb(0, 0, 0)" stroke="rgb(66, 66, 66)" stroke-width="1px" opacity="0.25"></line></g><g><line x1="0" y1="177" x2="290" y2="177" fill="rgb(0, 0, 0)" stroke="rgb(66, 66, 66)" stroke-width="1px" opacity="0.25"></line><line x1="0" y1="163.3846153846154" x2="290" y2="163.3846153846154" fill="rgb(0, 0, 0)" stroke="rgb(66, 66, 66)" stroke-width="1px" opacity="0.25"></line><line x1="0" y1="149.76923076923077" x2="290" y2="149.76923076923077" fill="rgb(0, 0, 0)" stroke="rgb(66, 66, 66)" stroke-width="1px" opacity="0.25"></line><line x1="0" y1="136.15384615384613" x2="290" y2="136.15384615384613" fill="rgb(0, 0, 0)" stroke="rgb(66, 66, 66)" stroke-width="1px" opacity="0.25"></line><line x1="0" y1="122.53846153846153" x2="290" y2="122.53846153846153" fill="rgb(0, 0, 0)" stroke="rgb(66, 66, 66)" stroke-width="1px" opacity="0.25"></line><line x1="0" y1="108.92307692307693" x2="290" y2="108.92307692307693" fill="rgb(0, 0, 0)" stroke="rgb(66, 66, 66)" stroke-width="1px" opacity="0.25"></line><line x1="0" y1="95.3076923076923" x2="290" y2="95.3076923076923" fill="rgb(0, 0, 0)" stroke="rgb(66, 66, 66)" stroke-width="1px" opacity="0.25"></line><line x1="0" y1="81.6923076923077" x2="290" y2="81.6923076923077" fill="rgb(0, 0, 0)" stroke="rgb(66, 66, 66)" stroke-width="1px" opacity="0.25"></line><line x1="0" y1="68.07692307692307" x2="290" y2="68.07692307692307" fill="rgb(0, 0, 0)" stroke="rgb(66, 66, 66)" stroke-width="1px" opacity="0.25"></line><line x1="0" y1="54.46153846153847" x2="290" y2="54.46153846153847" fill="rgb(0, 0, 0)" stroke="rgb(66, 66, 66)" stroke-width="1px" opacity="0.25"></line><line x1="0" y1="40.84615384615384" x2="290" y2="40.84615384615384" fill="rgb(0, 0, 0)" stroke="rgb(66, 66, 66)" stroke-width="1px" opacity="0.25"></line><line x1="0" y1="27.230769230769234" x2="290" y2="27.230769230769234" fill="rgb(0, 0, 0)" stroke="rgb(66, 66, 66)" stroke-width="1px" opacity="0.25"></line><line x1="0" y1="13.615384615384606" x2="290" y2="13.615384615384606" fill="rgb(0, 0, 0)" stroke="rgb(66, 66, 66)" stroke-width="1px" opacity="0.25"></line><line x1="0" y1="0" x2="290" y2="0" fill="rgb(0, 0, 0)" stroke="rgb(66, 66, 66)" stroke-width="1px" opacity="0.25"></line></g></g></g><g><g><line x1="0" y1="217.84615384615387" x2="290" y2="217.84615384615387" fill="rgb(0, 0, 0)" stroke="rgb(153, 153, 153)" stroke-width="1.5px"></line></g></g><g><g><line x1="22.30769230769231" y1="0" x2="22.30769230769231" y2="177" fill="rgb(0, 0, 0)" stroke="rgb(153, 153, 153)" stroke-width="1.5px"></line></g></g><g><g><g><g><g><path stroke="rgb(255, 112, 67)" stroke-width="2px" d="M22.401384615384615,127.12136518038237L22.68023076923077,146.89181515442587L22.81853846153846,159.1426890097833L22.82969230769231,157.98456329281493L22.916692307692305,114.58581097042938L23.365076923076924,125.01421207617932L23.50338461538462,131.48761360555372L23.599307692307693,137.51286043448826L23.61492307692308,114.57802555361117L23.721999999999998,96.85942997258206L23.751,103.79714754225716L23.90046153846154,107.90414864087906L24.110153846153846,113.86220309761197L24.56969230769231,99.08432708920088L25.281307692307696,88.52393858896845L25.290230769230767,78.8314466723777L25.39730769230769,71.08297274345183L25.41292307692308,62.84216775211064L25.511076923076924,68.543194767675L26.079923076923077,73.11410648446552L26.175846153846155,66.65067312997732L26.18253846153846,60.12119986316504L26.494846153846154,53.75037553585529L26.58407692307692,58.945079858964384L26.84953846153846,54.62973349957957L27.213153846153844,49.85098752232624L27.454076923076922,45.170812087810184L27.637,50.27706709756887L27.85115384615385,46.852625561900766L27.853384615384616,43.65649559185364L27.880153846153846,48.24567888837218L28.29730769230769,45.20211179257633L28.42,42.343018572186885L29.084769230769233,39.65212212045326L29.513076923076923,37.11500557139411L29.54876923076923,34.718853933023404L29.680384615384618,32.45223761789127L30.378615384615387,36.326955673999315L30.383076923076924,34.00863440027341L30.494615384615386,31.92698976017143L30.653000000000002,29.946901974539337L30.815846153846156,33.24191414592754L30.83146153846154,31.320820307285857L31.132615384615384,29.377074434109172L31.311076923076925,27.6273277796485L31.937923076923077,25.953669631308L32.12307692307692,24.35124327581995L32.32830769230769,22.7354365549218L32.36623076923077,21.183992246710478L32.73876923076923,19.77321809680391L32.988615384615386,18.34253989124119L33.396846153846155,16.95953117270625L33.698,20.058379992844415L33.76046153846154,18.770915992904996L34.231153846153845,17.458945735710266L34.26238461538461,20.38698380765016L34.68623076923077,22.84382830044878L35.074384615384616,21.526980132691445L35.264,24.23929953197239L35.38892307692308,23.005373449831882L35.484846153846156,21.811915906412043L35.67,24.39209399220332L36.13846153846154,23.212678153751384L36.180846153846154,21.908473879740903L36.336999999999996,20.803661406888185L36.97276923076923,19.732339716725438L37.251615384615384,18.588010814148028L37.27838461538461,21.162130886283794L37.59738461538462,20.07299759560979L37.84723076923077,18.870401065510872L38.268846153846155,17.54014429743504L38.77523076923077,16.829217750476676L38.949230769230766,15.913695881117595L38.95592307692308,14.779474727775948L39.062999999999995,16.891617138401823L39.68092307692308,16.01007775397217L39.70323076923077,14.867098010554482L39.78130769230769,13.85291611821344L40.13376923076923,12.81433754573946L40.30107692307692,11.62864164240097L40.55538461538461,13.784970164124383L40.64684615384615,15.857125228185707L40.96361538461538,18.135612152656154L40.994846153846154,20.10645375616923L41.26476923076923,19.108307049812638L41.287076923076924,18.241076953851383L41.49453846153846,20.11283261773781L42.11246153846154,18.94870721180795L42.239615384615384,20.564153564890134L42.369,22.216297817894564L42.964615384615385,21.064713553489714L43.428615384615384,19.93779898471504L43.62046153846154,21.78216507100862L43.64946153846154,20.67031617251728L43.94169230769231,19.656021200045238L44.265153846153844,18.79883783023447L44.407923076923076,17.752240137809494L45.23107692307693,16.726821028103554L45.24669230769231,18.59375503402896L45.50546153846154,17.507709203539797L45.68392307692307,16.51382279690737L45.77984615384616,18.027696659145224L45.96946153846154,17.137448869432678L46.35538461538462,16.41292113478116L46.627538461538464,18.02325617888527L46.634230769230776,17.157770433439627L46.77030769230769,18.262830513358875L46.78815384615385,17.619244365497337L46.89076923076923,16.75963868727243L47.07369230769231,18.29723024690589L47.780846153846156,17.540254312848162L47.89907692307692,16.796809570976688L48.032923076923076,18.295438546644206L48.108769230769234,17.620468737119523L48.37423076923076,16.894613318529352L48.539307692307695,16.243413657687427L49.00776923076923,15.603357999114339L49.01892307692308,17.052727966857127L49.44276923076923,16.415601771375343L49.723846153846154,17.798648745134464L50.57376923076923,17.164896857221798L51.033307692307694,16.600792851769633L51.171615384615386,17.986043411458557L51.383538461538464,17.423455795470463L51.44376923076923,16.869881030516012L52.20446153846154,16.325104524620883L52.5256923076923,17.329348929466036L52.63946153846154,16.788736691868174L52.69076923076923,17.830774363635424L53.11461538461539,17.293846537536794L53.716923076923074,18.871061263199394L54.031461538461535,18.14308964957834L54.194307692307696,17.58493334273025L54.29246153846154,19.063910171461014L54.53561538461538,18.42807695228634L54.96169230769231,17.855120870577235L55.028615384615385,17.29054191735463L55.071000000000005,18.687335549009617L55.27623076923077,17.96082902650339L55.34315384615385,17.382099051704866L55.48592307692307,16.759827424350252L55.52830769230769,16.222065723677197L56.824384615384616,15.69183772288508L56.90023076923077,16.894063181001634L57.42,16.41607377647481L57.47353846153846,15.894552175783764L58.25876923076923,16.879557022977277L58.555461538461536,16.31175037425366L58.71607692307692,15.80073386548058L59.80469230769231,15.247692566699506L59.91176923076923,16.338178810639235L60.378,15.884582510315692L60.447153846153846,15.436926921124858L60.88215384615385,16.68193722760919L60.93792307692308,16.186685829342693L60.986999999999995,17.158193567776728L61.442076923076925,16.665498082629792L61.4733076923077,17.76204443794759L61.538,18.705904272609278L61.555846153846154,18.211277083140253L63.467615384615385,17.722807364312654L64.95107692307693,17.169869145880778L65.06930769230769,18.10353390190444L65.29684615384616,19.191398160542597L65.87684615384616,20.348412972926965L66.12,19.90402380400108L66.15123076923078,19.267076230380386L66.323,18.746537486870476L66.57953846153846,18.18170936839304L66.91192307692307,17.56665254528977L67.0413076923077,18.580533672756644L67.06138461538461,19.525604658784893L67.23092307692308,20.430747262358608L67.46738461538462,21.47884116756071L67.48523076923077,20.901112249892872L67.64361538461539,20.28726249742063L67.90461538461538,19.678915229629702L68.12546153846154,19.037769597600274L68.12769230769231,18.50234302650913L68.21246153846154,19.488849626111772L68.66084615384615,20.439773048917257L68.66753846153846,21.363854801947877L68.77684615384615,20.923024053317544L68.83038461538462,21.851275809200814L69.3323076923077,22.89033041620744L69.47507692307693,22.265160206284552L69.62007692307692,23.23581222249742L69.67138461538462,22.78266929325835L69.86546153846153,22.37384816140413L70.02607692307693,21.94763191692251L70.32053846153846,21.469226594613897L71.04553846153846,21.046620290190983L71.93115384615385,21.997078831820836L72.036,21.52510656795538L72.12076923076923,22.28705384814827L72.18323076923076,21.894278314271638L72.43753846153847,21.4293928104108L73.25846153846155,20.981199906774336L73.92323076923078,20.563307993946285L73.94553846153846,20.166507053673293L74.04369230769231,20.990056207826612L74.1016923076923,20.614927599216035L74.25338461538462,20.243507347661698L74.4206923076923,19.87574091799667L74.56792307692308,19.401439531600957L74.82000000000001,20.21105145304402L75.11,19.848262790781355L75.13453846153845,20.793425615070923L75.17915384615384,20.410824809204897L75.70784615384615,21.176663019234663L76.02238461538462,20.671904660353256L76.17407692307692,20.27878510935394L76.47523076923078,19.92484025008481L76.47969230769232,19.663929515228936L76.56446153846153,19.316115489095722L76.61576923076923,18.971534313755154L77.23146153846155,19.761630969849957L77.45007692307692,20.51010396113893L77.46792307692307,20.043662680544784L77.85607692307693,19.62648815180202L77.9296923076923,20.145271005567427L78.09476923076924,19.686677433430727L78.64130769230769,19.232229340035772L78.81753846153846,18.89908895481735L78.94915384615385,18.568922145946196L79.60723076923077,18.24168944061881L79.88830769230769,19.028452564766425L79.96638461538463,18.701524950858104L80.13146153846154,18.377464916116768L80.45492307692307,18.056235056775645L80.65346153846153,18.628545761015886L80.98361538461538,18.30856652278286L81.35615384615384,18.960413400142592L82.08561538461538,19.39141184735421L82.08784615384616,19.006437455543345L82.157,18.68947931349813L82.85523076923077,18.225796448874206L82.882,17.828727622980544L82.89092307692307,17.50149173363882L82.89315384615385,18.238553220183977L83.1496923076923,17.931008584012954L83.66499999999999,17.626017890151143L83.88361538461538,18.269834206721548L83.92153846153847,17.96548867205877L83.96169230769232,17.632324495602823L84.37884615384614,17.33308550410329L84.58184615384616,17.036281669495217L84.6576923076923,17.764260142653526L84.69784615384616,18.332004113035566L85.4853076923077,18.033825819518363L85.74630769230768,17.738035772991974L85.7753076923077,17.44460554132921L85.98053846153847,18.132511775842463L86.04523076923076,17.794671388097125L86.93307692307692,17.504024658380832L86.99107692307692,17.21566086094081L87.13830769230769,16.929553346138597L87.44838461538461,17.633145810313568L87.58669230769232,17.34714680328684L88.05069230769232,18.091722563128283L88.08638461538462,17.760115765382924L88.25146153846153,17.476434744994883L88.36300000000001,18.165940624535594L88.8493076923077,17.882390958420572L89.24192307692309,18.628738279893565L89.29992307692308,18.345070684787185L89.436,19.10896016910529L89.61892307692307,18.825098397694326L89.77284615384615,18.543359704861224L89.96023076923076,19.28987692353003L90.25469230769231,19.93780690033617L90.27923076923076,19.65410566406763L90.596,20.31242593609291L90.80569230769231,20.028964027121052L90.83692307692309,20.68156238286383L92.36723076923077,20.272529146309147L92.44976923076923,19.97643718259919L93.01415384615385,20.68369035057327L93.264,20.375168954933695L93.409,20.0967291152575L93.4246153846154,20.555298963524816L93.54953846153846,21.191685746031105L93.56961538461539,21.82354540698494L93.70123076923078,22.450925769763533L94.08046153846153,22.140911085562102L94.15407692307693,21.86043612608198L94.66269230769231,21.581928966948713L94.90138461538461,22.234280566715515L95.15792307692307,21.955948369765004L95.26723076923078,22.625643775647053L95.39215384615383,22.347411805038607L95.68661538461538,22.044227225455167L95.70446153846153,21.71633407459218L95.99892307692308,22.32568838576243L96.26215384615384,22.05187978930797L96.32238461538462,22.576706634309087L96.32684615384615,22.303506581208485L96.52761538461539,22.005747592299016L96.68376923076923,21.73632510382283L96.75961538461537,22.335144108558737L96.82207692307692,22.065990544906708L97.54707692307692,22.607911209084126L97.56715384615384,22.339237021008824L97.59392307692308,22.072343897589388L97.6363076923077,22.66144684571967L97.67423076923077,22.39482443252519L97.7946923076923,23.02060884659397L97.82146153846155,23.601229493336827L97.87723076923076,23.333285505265167L97.95976923076923,23.06708388973142L98.19176923076922,22.777149016293016L98.23415384615384,22.51447688501412L98.46838461538461,22.25349673280241L98.96138461538462,21.994192393408678L99.00823076923076,21.711364649704006L99.13092307692307,21.455457163093623L99.325,21.20117761829105L99.49007692307693,20.89854832005741L99.90053846153846,20.633963620979607L101.12746153846153,20.31016251687864L101.17430769230769,20.062744681807004L101.19215384615384,19.81687674834686L101.22561538461538,19.572544320285438L101.46207692307692,19.31262442407732L101.66284615384616,19.0713821595089L102.10453846153847,18.831632885752164L102.12015384615384,18.593362904802166L102.27853846153846,19.15959596625266L102.51053846153846,18.908036354141544L102.54846153846154,18.67132555781645L102.69792307692308,19.305390916065843L103.16415384615385,19.887428296572786L103.22884615384615,19.649060691447268L104.01853846153845,20.25474578204743L104.08546153846154,19.942494956255867L104.32638461538461,20.540304660684583L104.44238461538461,20.195636428432245L104.51153846153845,19.805962358939478L104.63869230769231,19.489549550083083L105.29676923076924,20.035795575809455L105.86115384615384,20.46105235009122L105.937,20.191131428658135L106.55046153846153,19.923054819148454L106.80030769230768,20.462480227018858L107.50523076923076,20.97915682164474L108.05623076923077,21.58215716333631L108.09192307692308,22.18164746145108L108.11646153846154,21.94413120341267L108.63846153846154,21.70798975275121L108.68307692307691,21.460542394316438L108.95076923076924,21.22715811789454L109.26530769230769,20.982504628972222L109.31884615384615,21.506850552731805L109.83638461538462,21.190647231244416L109.96799999999999,21.727375799744145L110.87369230769231,22.203746091246927L110.93615384615384,22.57037288214971L111.04992307692308,22.266091443111613L111.26630769230769,21.91126190948935L111.33546153846153,21.603431683817025L111.34661538461538,21.274877141179303L111.58307692307692,21.823415748992385L112.19876923076923,22.392924742149393L112.65384615384616,22.00538723560016L112.98176923076923,21.75543823594983L113.01746153846155,22.24952525341689L113.02638461538461,21.856864285438213L113.10000000000001,22.41466257439807L113.14461538461538,22.969403583889022L113.30746153846154,23.346483795029705L113.85846153846153,23.073603937645927L114.31353846153847,23.63462076785307L114.37376923076924,24.064945789331126L114.52992307692308,24.467648190811637L114.97161538461539,24.881231157051477L115.0073076923077,25.149284286239723L116.029,25.661939638858232L116.29892307692307,26.124371640264712L116.5443076923077,25.81600483207078L117.00384615384615,26.27905155777849L117.04400000000001,25.99294824070445L117.51246153846154,25.673505752690993L118.1883846153846,25.443146768186914L118.85092307692307,25.214002176522122L119.38630769230768,24.986062513779775L119.46438461538462,25.545571472287822L119.58484615384614,26.017332770897625L119.65623076923076,25.7883406995324L119.81684615384616,25.560540674679615L119.87707692307693,26.029284319407292L119.886,25.801693150921817L120.02653846153846,25.575277894308446L120.41692307692308,26.041051110291136L120.44592307692308,26.53786115627933L120.62438461538461,26.310595095707615L120.6333076923077,26.084491705408112L120.71361538461538,25.838774344365245L120.9076923076923,25.615033247345032L120.92330769230769,25.351062263928647L121.02146153846154,25.12971056990658L121.1396923076923,25.548050906266486L121.76653846153847,25.326999847729713L122.25061538461539,25.107060528337726L122.28184615384616,25.608116352659003L122.61200000000001,25.36778120868196L122.92430769230769,25.781221675623694L123.38384615384615,26.19260270482432L123.40392307692308,26.541003564095256L123.52215384615384,26.813052458957205L123.8233076923077,26.489771067776882L124.16015384615385,26.179231281756387L124.9966923076923,25.85679297474772L125.12384615384615,26.092386233428087L125.30007692307692,25.823485123257605L125.38038461538461,25.537360021686595L125.63246153846154,25.259304632405616L125.66815384615386,24.976193728673262L125.84438461538463,24.680980006365782L126.03623076923077,24.381078649700562L127.69146153846154,24.12778945921151L127.82530769230769,23.87572115408183L127.86992307692307,23.62648268410762L128.2446923076923,23.351429322298003L128.37853846153845,23.066766709139493L128.45884615384617,22.799303863297535L128.57707692307693,23.195084232779863L128.615,23.676625621288682L128.64623076923078,24.097251062174106L128.72653846153847,23.822649021230767L128.81353846153846,24.221818514318848L129.1213846153846,23.954577400557387L129.26638461538462,24.35189215880203L129.3176923076923,24.70861705387511L129.55415384615384,24.473263449543715L129.78838461538462,24.876150452465875L129.89100000000002,24.61017135592495L130.5490769230769,25.04044472212977L131.26738461538463,24.788335336505305L131.57523076923076,25.21654475315951L132.22215384615384,25.577778089615663L132.34261538461539,25.944980399004805L132.3983846153846,25.665780295869475L132.67946153846154,26.129527404140436L132.86015384615385,25.825982402395645L132.99623076923078,26.195906920315934L133.03861538461538,26.633767219720784L133.85953846153845,26.36124171098275L133.9710769230769,26.090978791282286L134.17853846153847,26.489183763614342L134.21423076923077,26.866810296957524L134.28115384615384,26.585942134025665L134.44400000000002,26.322837746072935L135.2493076923077,26.73630217672402L135.25376923076925,27.081709951323454L135.67315384615384,26.81849926832009L136.03007692307693,26.513696160597515L136.37584615384614,26.31158517123566L136.5833076923077,26.72151296555928L136.706,26.455292812253436L136.83984615384614,26.25437969751802L137.75,26.007582871275577L137.85707692307693,25.750342458935524L137.87492307692307,25.457922726728444L138.20507692307692,25.829309989582597L138.30992307692307,25.513567948284322L138.45715384615386,25.217467360971693L138.83638461538462,25.587624332972894L138.95907692307694,25.371673664869324L139.09515384615383,25.14851209374436L139.44538461538463,24.90118751200504L139.48553846153845,24.62444212014196L139.82907692307694,24.369636089864503L140.09676923076924,24.078152755183588L140.32876923076924,24.477369592454025L140.40238461538462,24.868327180751162L140.54515384615385,25.2698524188762L140.7436923076923,24.997649728359207L140.77715384615385,24.7800988008529L141.58246153846153,24.526620259701776L142.1133846153846,24.25464566875479L142.129,24.60672762660009L142.13792307692307,24.358861230665916L142.14684615384616,24.70388059759755L142.46138461538462,24.459355499643117L142.55953846153847,24.18008091272864L142.92984615384614,24.533172176402303L142.9633076923077,24.249627592281133L143.01015384615386,24.063492375462936L143.04361538461538,24.42357837462818L143.30684615384615,24.78216549577921L144.16346153846155,25.144523388473406L144.21253846153846,24.912438430508377L144.3106923076923,24.656127523994392L144.37315384615385,24.39822462148227L144.56946153846155,24.74709618687149L144.85946153846155,24.490356125952943L144.95984615384614,24.28043867904724L145.43053846153848,24.002450040471857L145.667,23.742639482809285L145.6736923076923,23.51487672270679L145.73169230769233,23.257110109101877L145.80084615384615,23.052117657164985L146.20015384615385,22.77931363666608L146.21130769230768,22.541954812448214L146.22915384615385,22.309299444025L146.59053846153847,22.056592872851994L146.7087692307692,21.805031808724916L147.15492307692307,21.537173218620264L147.43376923076923,21.270684169612334L147.90892307692306,21.055010996054982L147.98253846153844,21.359580888044764L148.36176923076923,21.772712731766834L148.393,22.195998089530736L148.58707692307692,21.963418348947265L148.98638461538462,21.71485459411376L149.06,21.482707967041517L149.45930769230768,21.85094008835415L150.12853846153848,22.18405448373468L150.14192307692306,21.953482535124756L150.54123076923076,21.672989927752173L151.15692307692308,22.01119647123296L152.3503846153846,22.341969253045157L152.46415384615383,22.109669543689023L152.67384615384614,22.480115203894897L152.9326153846154,22.25060923606501L153.05530769230768,22.02220686832982L153.12223076923075,21.777858636523536L153.2962307692308,21.58423330441198L153.35646153846153,21.34190848610993L153.3943846153846,21.571257556294313L153.99,21.386774418666228L154.51200000000003,21.738202507109804L154.61684615384615,22.104790660214118L154.8867692307692,21.882402027905435L155.35076923076923,22.282918036337943L155.4176923076923,22.098024146377654L155.56715384615384,21.906090675697765L156.3456923076923,21.666072643093248L156.55315384615383,21.98973491617883L156.56653846153847,21.750144884383857L156.61561538461538,21.52628278443277L156.81638461538464,21.91398363961073L157.21346153846156,22.293722670859417L157.4833846153846,22.668309266650727L157.65069230769228,22.87868636094837L158.6567692307692,22.63898787003356L158.84192307692308,22.40506446692364L159.0003076923077,22.739096789435013L159.2166923076923,22.572538139914716L159.3616923076923,22.406600281532025L159.57584615384616,22.225215836406857L159.90153846153845,22.036919367300403L160.92546153846152,21.84931986573157L161.10392307692308,21.659042774957975L161.76646153846153,21.51953996060512L161.83561538461538,21.909478832740522L161.85346153846152,21.714787783688507L162.56507692307693,21.552638472547297L162.8996923076923,21.336139118171225L163.33692307692306,21.683162864031708L163.6447692307692,22.044766773114652L163.80092307692308,22.420878727628807L163.80315384615383,22.258164903678924L163.99053846153845,22.096043227534004L164.343,22.46423995197497L164.5883846153846,22.302067976333714L164.7757692307692,22.67511503444696L165.05015384615388,22.512881099989112L165.29553846153848,22.340320002197807L165.46284615384616,22.17927905057581L165.57884615384614,21.971889444832136L166.21684615384618,22.35264283502951L166.23915384615387,22.19219901022511L166.60946153846155,22.546536311482903L167.06007692307693,22.33103142978763L167.3076923076923,22.17125573086972L167.42815384615386,21.880736523384595L167.85423076923078,21.722394951506903L167.95907692307694,21.564615459295744L168.14423076923077,21.942403822755463L168.31153846153848,21.69906363612824L168.3806923076923,21.53328428697672L168.48330769230768,21.322461120498897L168.6483846153846,21.643505771851245L168.74207692307692,21.43373689247586L168.8893076923077,21.200091099756108L169.331,21.596837357680343L169.64776923076923,21.43270583470517L170.20323076923077,21.277553340891036L170.9817692307692,21.122941894140936L171.29407692307691,21.44163522775369L171.6532307692308,21.6830625530752L171.71569230769234,21.528118755553862L171.8160769230769,21.37371184201772L172.75076923076924,21.219839103699268L172.8266153846154,21.06649785000786L172.91361538461538,21.458659441111273L174.5866923076923,21.295861571692186L174.5889230769231,21.14291323146161L174.62684615384615,20.98137567436906L174.84323076923076,20.814430279929123L174.957,20.66310239619187L175.14215384615383,21.008218950500435L175.31615384615387,20.856828994965646L176.07238461538464,20.70595461433837L176.204,20.55559325445441L176.6122307692308,20.405742377978253L176.61446153846154,20.256399464264625L176.64346153846154,20.59993111233479L177.24576923076924,20.867789269143458L177.29261538461537,20.717968741338808L177.70753846153846,20.568652950450492L177.83469230769228,20.419839424478447L178.01092307692306,20.27152570752406L178.27192307692306,20.61259164564806L179.48323076923077,20.952515566098846L179.49215384615385,20.803567474461566L179.56130769230768,20.65511660105772L179.6416153846154,20.50716053424525L179.7553846153846,20.34944889026715L179.92492307692308,20.68796234739131L180.5026923076923,20.540450610056492L180.6833846153846,20.921799490333626L181.39276923076923,20.77412500259085L181.64707692307692,20.626938298111508L181.92815384615383,20.48023703738987L181.98615384615383,20.334018895842387L182.24492307692307,20.713623209811647L182.58846153846153,20.567239567177072L182.7133846153846,20.829002971575665L182.82715384615383,21.162624355133104L182.87623076923077,21.015781540366834L182.94984615384615,20.86941801526486L183.0056153846154,20.72353150997142L183.36253846153843,20.578119768926395L183.53653846153847,20.433180550752784L183.5856153846154,20.28871162814548L183.5900769230769,20.14471078776089L183.81761538461538,19.98676340200937L183.8243076923077,19.843722619554935L184.16784615384614,20.161313383332534L184.5359230769231,20.492245479857132L184.87053846153847,20.348615585714246L185.03784615384615,20.2054470013088L185.17392307692307,20.06273757906752L185.55315384615386,20.363814201033392L185.86323076923077,20.606787165614957L186.91392307692308,20.46370670549319L186.92507692307692,20.321082483998357L187.02992307692307,20.17891239344455L187.16376923076925,20.03719433909368L187.21507692307694,20.387498093870796L187.40915384615386,20.24565310495111L187.80176923076922,20.104257189093595L187.8173846153846,20.430628228481602L189.31423076923076,20.289153235239386L189.39453846153845,20.113365643478176L189.92769230769233,19.97285267644619L189.99684615384615,19.832781419829235L190.6616153846154,20.15796440891547L190.70176923076923,20.48212804688484L190.88023076923076,20.341453594939406L191.01853846153847,20.68701131157897L191.17023076923076,21.039344485524776L191.68553846153847,21.3603188437513L191.69,21.680294072835526L191.9710769230769,21.53790231765691L192.067,21.395952565828292L192.33246153846156,21.25444283319732L192.8076153846154,21.113371147454483L192.9213846153846,20.97273554804498L193.2426153846154,21.333216796146104L193.34746153846154,21.19242572454556L193.41884615384618,21.532276481636742L193.60846153846154,21.391372331178975L193.8672307692308,21.737870121662937L193.88284615384615,21.541496113578L193.90738461538461,21.82947851251914L194.51861538461537,21.688552538765418L194.7996923076923,21.548056848313948L195.10307692307694,21.407989543516905L195.25923076923075,21.722591573358034L195.5113076923077,22.077489596922888L195.866,22.431309898171204L196.08684615384615,22.29003268102419L196.60884615384617,22.149183323495976L196.7716923076923,22.460698073636866L196.89884615384616,22.7712719365052L198.03653846153847,23.1219113737585L198.18823076923076,22.97996156464118L198.36,22.83843877318952L198.39123076923076,23.183561674168637L198.47823076923075,23.491133180860857L198.54961538461538,23.349013670550598L199.22776923076924,23.20731941356002L199.47092307692307,23.513924883974088L199.87023076923077,23.819615354223465L199.92153846153846,23.677406289345427L200.34984615384613,23.53562049656164L200.40561538461537,23.39425615958284L200.69784615384617,23.73949321575405L200.71346153846153,23.598002847148287L200.76476923076922,23.942158894538288L200.8383846153846,24.24490126639575L200.8473076923077,24.587106203356456L200.9923076923077,24.444495245679953L201.1373076923077,24.758788186382503L201.55223076923076,25.098982546409633L201.63923076923078,24.95577915845395L201.67492307692305,25.254766621872093L201.99615384615385,25.111533857169018L202.05415384615384,24.968720231862566L202.13669230769233,24.82632398002613L202.61184615384616,24.684343345623276L202.70330769230767,24.542776582438655L202.87953846153846,24.39236074185158L202.99107692307692,24.623959077495453L203.03346153846152,24.482915025181644L203.261,24.78025638182581L203.8499230769231,25.041179614924236L204.102,24.879338293995325L204.18007692307694,25.153310236726238L205.12369230769232,25.011904534285435L205.40923076923076,24.870906317136537L205.78846153846155,24.71711688595505L206.40415384615386,24.576954142005143L206.6763076923077,24.437193772128317L206.8726153846154,24.297834115776435L206.94846153846154,24.621145451753367L207.08453846153847,24.481690320065095L207.12469230769233,24.342633522409987L207.292,24.203973423844403L207.62884615384615,24.537272484451144L207.74484615384617,24.843449271371433L208.05715384615385,24.704211024788332L208.59923076923076,24.996441166299608L209.16138461538463,24.844114558573125L209.52053846153845,25.05730773069026L209.62761538461538,25.34599255434317L210.0603846153846,25.180400125288195L210.1317692307692,25.0412812489837L210.1496153846154,25.331269894246784L210.57123076923077,25.19211599969494L210.60469230769232,25.053353220092838L210.75192307692305,24.914979977973722L211.03300000000002,24.776994704326167L211.22261538461538,24.639395838537492L211.34307692307692,24.502181828337573L211.51707692307693,24.36535112974329L211.9676923076923,24.22890220700308L212.03907692307692,24.092833532542308L212.12161538461538,24.40982499900286L212.30007692307694,24.698152153104026L212.63692307692307,24.56156075551528L213.0563076923077,24.42534816467065L213.12546153846154,24.28951287483555L213.19907692307694,24.154053388228952L213.34184615384615,24.44158750789467L213.42884615384614,24.76671415119435L213.4533846153846,24.630716003079023L213.59392307692306,24.49509230834464L214.12038461538464,24.35984159020356L214.1850769230769,24.224962379607234L215.16215384615384,24.090453215195677L215.58599999999998,23.95631264324706L215.60161538461537,23.82253921762788L215.89384615384617,23.689131499743517L215.92284615384617,23.55608805848919L216.02546153846154,23.42340747020119L216.08346153846153,23.278414952313124L216.20392307692308,23.14647940122741L216.40246153846155,23.432404399878166L217.2613076923077,23.755475423182954L217.3884615384615,23.622993998266207L217.62492307692307,23.440394913748108L217.76992307692305,23.69958190737123L217.87030769230768,23.90567916522391L218.20715384615383,23.77337101868934L218.23392307692308,23.64141951674314L218.82284615384617,23.50982328506598L218.892,23.378580956374634L218.921,23.68172461748525L219.44969230769232,23.53785309812165L219.59915384615385,23.84720691893515L220.11892307692307,24.148725567916593L220.32415384615385,24.016860466749367L220.43346153846156,23.885347545218927L220.67215384615386,24.166072502721015L221.20084615384616,23.99138720981716L221.43061538461538,24.271451157212173L221.62023076923074,24.121572123924693L221.65592307692307,24.400934062108476L222.50807692307694,24.23662216042533L222.546,24.098473478730124L222.79361538461538,24.403988520330298L222.83599999999998,24.27274752785347L223.0166923076923,24.58785236386401L223.155,24.790717623562816L223.6056153846154,25.0672600217599L223.78853846153848,24.93524405774328L224.08076923076922,24.80357511136075L225.12923076923076,25.079418850983963L225.47276923076925,24.947702685650558L225.51738461538463,24.816331586589797L225.9769230769231,25.128407535920694L226.36507692307694,24.99692221813761L226.69969230769232,25.20986031979292L226.74430769230767,25.397685677375968L226.751,25.241494473274763L226.88930769230768,25.11022771930687L226.9406153846154,24.979302184256476L226.94730769230767,24.848716604661156L227.55853846153846,25.141613609368623L227.74815384615385,25.010944625245102L227.80615384615385,24.880613809012253L228.08723076923079,24.75061991459015L228.2277692307692,24.950115111166593L229.1646923076923,24.8202023811228L229.2963076923077,25.092288087262943L229.30076923076922,24.96232602663163L229.36992307692307,24.832698099482403L229.5283076923077,24.703403083509023L230.0503076923077,24.97484340424584L230.26669230769232,24.845497480356887L230.81992307692306,24.716482661598405L231.27053846153845,24.587797742554905L231.77915384615386,24.459441523638283L232.13607692307693,24.33141281105251L232.8476923076923,24.195307209775777L232.94584615384616,24.492238223930933L233.19569230769233,24.36444824604763L233.28046153846154,24.236982928126427L233.74892307692306,24.10984109805661L233.9876153846154,23.953430178396843L234.29769230769233,23.78542115703068L234.35792307692307,24.091800663950618L234.64123076923076,23.965303883157638L234.94684615384617,23.83912642201184L235.07176923076923,24.10205200220361L235.14315384615384,24.387380899129923L235.30153846153846,24.2292401443543L235.38407692307695,24.102981834025968L236.14923076923077,24.40717803290242L236.34776923076922,24.710611207278166L236.39907692307693,24.97749330843068L236.53292307692308,25.255628674821928L237.13299999999998,25.521156249365863L237.31146153846154,25.786020590044433L237.49884615384613,25.6577052932697L237.58807692307693,25.529709831244816L237.655,25.402033073465564L237.79999999999998,25.6663156030795L237.8713846153846,25.961753503067158L238.73246153846154,25.833608964538303L239.04030769230772,26.09655335990648L239.19646153846153,26.394344835271337L239.35261538461538,26.26573278695571L239.6203076923077,26.137438657028877L239.71846153846155,26.00946133211754L240.02184615384616,26.306528379343487L240.14899999999997,26.166656434783654L240.34753846153845,26.038909574988075L240.46800000000002,25.91147687238215L240.64646153846155,25.78435723306348L240.89184615384616,25.657549568185352L240.91415384615385,25.95392620820313L241.23315384615384,26.15567322688212L241.39600000000002,26.028501381120044L241.82430769230768,25.90164036622952L241.98046153846155,25.775089107273267L242.08976923076924,25.64884653424775L242.1299230769231,25.52291158205466L242.27269230769232,25.814315597406644L242.60507692307692,25.688277270996917L243.13153846153847,25.56254513734003L243.27653846153845,25.43711814471016L243.75615384615386,25.311995246175346L244.28261538461538,25.187175399570382L244.32946153846154,25.062657567469675L244.51907692307694,24.91967610149753L244.52353846153846,25.15603930612748L245.12584615384617,25.434596046826947L246.01815384615384,25.658143415030654L246.10515384615385,25.533262584573315L246.47546153846153,25.408682110068916L246.64723076923076,25.284400971349488L246.69853846153845,25.160418152844883L247.0599230769231,25.418339539398772L247.2986153846154,25.29430257118552L247.37,25.170562454057766L247.43023076923077,25.462546777576357L247.4503076923077,25.33869365742983L247.6086923076923,25.21513607296224L247.776,25.09187302925242L247.96115384615385,25.383182003620803L248.1373846153846,25.259805260504994L248.36269230769233,25.136721763287188L248.4073076923077,24.9970162183768L248.57684615384613,25.253255761010852L248.704,25.130436591693137L248.72853846153845,24.99102864482024L249.15684615384615,24.86881846887534L249.6743846153846,24.740604786365438L249.719,24.612693776583132L250.51538461538462,24.868531172042488L250.531,25.123765782280486L250.90576923076924,24.962285276112468L250.98161538461537,25.217017489233765L251.053,25.055598956773352L251.17346153846154,24.905924286910412L251.37423076923076,25.160236117529294L251.80923076923077,24.999238024086754L251.87838461538462,24.849958837629263L252.0010769230769,25.103852854985654L252.07915384615384,24.976281073164838L252.10146153846154,24.804674890928272L252.53646153846154,24.632417724684828L252.78407692307692,24.885997487979783L253.10753846153847,24.765352234334646L253.2302307692308,25.01837478054464L253.70315384615387,24.897669376057532L254.01992307692305,25.16143768693162L254.18946153846153,25.04065424655679L254.9233846153846,24.92015054113589L255.05276923076923,24.799925660095067L255.87815384615385,25.085702677241542L256.1101538461538,24.965361494315207L256.1413846153846,24.845297976294482L256.18376923076926,24.725511223180824L256.27523076923075,24.98818352137023L256.3064615384616,24.86831697339986L256.33992307692307,24.74872596312121L256.36892307692307,24.62940960120496L256.45592307692306,24.510367002127673L256.5451538461538,24.76133836193894L256.56523076923077,24.95574973534427L256.6923846153846,24.83640107480148L256.7459230769231,24.71732523764771L257.1251538461538,24.967311158961543L257.12961538461536,25.216726682707826L257.5066153846154,25.46557363448601L257.89923076923077,25.3457717885721L258.1044615384615,25.2262425432547L258.20707692307695,25.106985028786756L258.26507692307695,24.98799837909988L258.29630769230766,24.869281731784834L258.72684615384617,24.739715648614933L259.2376923076923,24.62155458114677L259.36484615384614,24.503660909516956L259.6392307692308,24.38603378589111L260.0318461538462,24.652402998531105L260.2549230769231,24.922606185487954L260.4846923076923,25.181123526592796L261.22976923076925,25.062690114291065L261.52646153846155,24.944523259355805L262.7043076923077,24.826622121833225L262.79353846153845,24.708985865277494L262.8671538461538,24.59161365673237L263.2776153846154,24.47450466671298L264.2323846153846,24.732621490914134L264.538,24.615429405826738L265.14923076923077,24.46545537430881L265.68015384615387,24.624037176279707L266.0013846153846,24.804267122066825L266.0036153846154,25.050060985294056L266.133,25.29530707233304L266.57023076923076,25.144697450946666L266.5791538461539,25.00539697804073L266.7553846153846,24.888340891763132L267.2952307692308,25.133247412241495L267.83284615384616,25.01612840976759L268.1183846153846,24.89926903381568L268.192,24.782668480335087L268.3749230769231,24.66632594857434L268.62476923076923,24.55024064106424L268.7586153846154,24.43441176360102L268.8656923076923,24.679007757537775L268.99953846153846,24.923064391110156L269.0798461538462,24.806847873575L269.1222307692308,25.073936875463225L269.33638461538465,24.957618579259186L269.41223076923075,24.84155588246675L269.43453846153847,24.725748001422303L269.8249230769231,24.610194155645072L270.02569230769234,24.494893567821038L270.35584615384613,24.73807762645155L270.4473076923077,24.62271033899586L270.6436153846154,24.897930016247447L271.13884615384615,25.17254858299732L271.21915384615386,25.056695024159527L271.4801538461539,25.29826648395451L271.788,25.539311686886954L271.9017692307692,25.7798322304906L271.96423076923077,25.663287607637223L272.90784615384615,25.852578539810914L273.20230769230767,25.703680286151883L273.6350769230769,25.58746100506426L273.72207692307694,25.471493606617237L274.166,25.711277989348947L274.63892307692305,25.59524984877029" style="fill: none;" fill="none"></path></g></g></g></g><g opacity="0.2"><g><g><g><path style="fill: none;" stroke="rgb(255, 112, 67)" stroke-width="2px" d="M22.401384615384615,127.12136518038237L22.68023076923077,166.64249467849731L22.81853846153846,183.60769634980423L22.82969230769231,154.51713026486908L22.916692307692305,-58.57564456646257L23.365076923076924,177L23.50338461538462,170.1923076923077L23.599307692307693,179.52121831820563L23.721999999999998,-61.812715970552894L23.751,172.79389120982242L23.90046153846154,152.81100016373856L24.110153846153846,184.8958280820113L25.41292307692308,-75.99737328749436L25.511076923076924,170.1923076923077L26.079923076923077,159.09814464128934L26.175846153846155,-61.26923076923079L26.494846153846154,-84.80716764009917L26.58407692307692,177L26.84953846153846,-47.65384615384614L29.680384615384618,-47.65384615384614L30.378615384615387,177L30.383076923076924,-52.390695718618545L30.653000000000002,-47.65384615384614L30.815846153846156,165.5378684080564L30.83146153846154,-47.65384615384614L33.396846153846155,-51.77023755587066L33.698,177L33.76046153846154,-47.65384615384614L34.231153846153845,-51.47314893282378L34.26238461538461,177L34.68623076923077,156.57692307692307L35.074384615384616,-51.3966953571026L35.264,177L35.38892307692308,-47.65384615384614L35.484846153846156,-47.65384615384614L35.67,177L36.13846153846154,-47.65384615384614L38.95592307692308,-65.0273758814885L39.062999999999995,167.4690515811627L39.68092307692308,-47.65384615384614L40.55538461538461,179.48519242726837L40.64684615384615,177L40.96361538461538,197.42307692307693L40.994846153846154,177L41.26476923076923,-61.26923076923079L41.287076923076924,-52.390695718618545L41.49453846153846,174.27588041012103L42.11246153846154,-77.99900788527268L42.239615384615384,156.57692307692307L42.369,162.83024256046002L42.964615384615385,-77.99900788527268L45.68392307692307,-78.01734220064604L45.77984615384616,163.3846153846154L45.96946153846154,-69.14493590134842L46.35538461538462,-54.46153846153847L46.627538461538464,177L46.634230769230776,-69.0645609635573L46.77030769230769,129.34615384615387L46.78815384615385,-47.65384615384614L46.89076923076923,-71.19391250610352L47.07369230769231,177L47.780846153846156,-61.26923076923079L47.89907692307692,-61.26923076923079L48.032923076923076,177L48.108769230769234,-54.46153846153847L49.00776923076923,-54.46153846153847L49.01892307692308,177L49.44276923076923,-54.46153846153847L49.723846153846154,172.8835956133329L50.57376923076923,-54.46153846153847L51.033307692307694,-47.65384615384614L51.171615384615386,177L51.383538461538464,-47.65384615384614L52.20446153846154,-47.65384615384614L52.5256923076923,136.15384615384613L52.63946153846154,-47.65384615384614L52.69076923076923,142.96153846153845L53.11461538461539,-47.65384615384614L56.824384615384616,-54.46153846153847L56.90023076923077,177L57.42,-47.65384615384614L57.47353846153846,-54.46153846153847L58.25876923076923,150.61318709300113L58.555461538461536,-61.26923076923079L59.80469230769231,-61.26923076923079L59.91176923076923,168.1526865225572L60.378,-47.65384615384614L60.93792307692308,-54.46153846153847L60.986999999999995,156.57692307692307L61.442076923076925,-54.46153846153847L61.4733076923077,177L61.538,156.57692307692307L61.555846153846154,-54.46153846153847L64.95107692307693,-65.01207997248724L65.06930769230769,157.6659645300645L65.29684615384616,182.72744145760169L66.91192307692307,-78.01744607778696L67.0413076923077,177L67.06138461538461,167.9899077965663L67.23092307692308,163.3846153846154L67.46738461538462,187.89126502550567L68.21246153846154,181.08357271781335L68.66084615384615,177L68.66753846153846,174.27588041012103L68.77684615384615,-52.390695718618545L68.83038461538462,177L69.3323076923077,197.42307692307693L72.036,-61.26923076923079L72.12076923076923,156.57692307692307L72.18323076923076,-47.65384615384614L73.94553846153846,-51.39700698852539L74.04369230769231,170.1923076923077L74.1016923076923,-47.65384615384614L74.56792307692308,-68.07692307692307L74.82000000000001,170.1923076923077L75.11,-47.65384615384614L75.17915384615384,-51.399370193481445L75.70784615384615,165.5378684080564L76.02238461538462,-74.88461538461539L76.61576923076923,-47.65384615384614L77.23146153846155,173.16475857221164L77.45007692307692,166.43409116451556L77.46792307692307,-71.26982072683481L77.85607692307693,-62.37731420076812L77.9296923076923,122.53846153846153L78.09476923076924,-71.19445786109337L80.45492307692307,-47.65384615384614L80.65346153846153,136.15384615384613L80.98361538461538,-47.65384615384614L81.35615384615384,153.8528034870441L82.08561538461538,108.92307692307693L82.08784615384616,-61.26923076923079L82.89092307692307,-51.767562719491806L82.89315384615385,174.8394950536581L83.1496923076923,-47.65384615384614L83.66499999999999,-47.65384615384614L83.88361538461538,156.57692307692307L83.92153846153847,-47.65384615384614L84.58184615384616,-47.65384615384614L84.6576923076923,177L84.69784615384616,142.96153846153845L85.4853076923077,-47.65384615384614L85.7753076923077,-47.65384615384614L85.98053846153847,171.28135239160977L86.04523076923076,-57.681158505953285L87.13830769230769,-47.65384615384614L87.44838461538461,177L87.58669230769232,-47.65384615384614L88.25146153846153,-47.65384615384614L88.36300000000001,177L88.8493076923077,-47.65384615384614L89.96023076923076,195.26162085166345L90.25469230769231,173.16475857221164L90.27923076923076,-47.65384615384614L90.596,177L90.80569230769231,-47.65384615384614L90.83692307692309,177L92.36723076923077,-78.01482317997858L93.409,-47.65384615384614L93.4246153846154,132.48202294569748L93.54953846153846,177L93.56961538461539,177L93.70123076923078,177L94.08046153846153,-54.46153846153847L95.70446153846153,-61.26923076923079L95.99892307692308,177L96.26215384615384,-47.65384615384614L96.32238461538462,156.57692307692307L96.32684615384615,-47.65384615384614L96.82207692307692,-47.65384615384614L97.54707692307692,163.3846153846154L97.56715384615384,-47.65384615384614L97.59392307692308,-47.65384615384614L97.6363076923077,177L97.67423076923077,-47.65384615384614L97.7946923076923,187.89126502550567L97.82146153846155,177L97.87723076923076,-47.65384615384614L102.12015384615384,-47.65384615384614L102.27853846153846,177L102.51053846153846,-51.3966953571026L104.63869230769231,-71.20650760944075L105.29676923076924,177L105.86115384615384,142.96153846153845L105.937,-57.75483336815468L106.55046153846153,-57.68071702810433L106.80030769230768,177L107.50523076923076,171.28135239160977L108.05623076923077,197.42307692307693L109.26530769230769,-51.3966953571026L109.31884615384615,177L109.83638461538462,-72.80058024479791L109.96799999999999,181.64623623627884L110.87369230769231,164.47275115893436L110.93615384615384,132.321013377263L111.04992307692308,-69.03420286912186L112.98176923076923,-54.46153846153847L113.01746153846155,173.25446622188275L113.02638461538461,-98.42208480834961L113.14461538461538,193.66444975596207L113.30746153846154,139.6355806864225L113.85846153846153,-61.26923076923079L114.31353846153847,197.42307692307693L114.37376923076924,157.6650620974027L114.52992307692308,149.76923076923077L114.97161538461539,153.8528034870441L115.0073076923077,108.92307692307693L116.029,186.2324120081388L116.29892307692307,171.28135239160977L116.5443076923077,-71.1913155775804L117.00384615384615,172.2631439429063L117.04400000000001,-64.40206146240234L119.46438461538462,204.23076923076923L119.58484615384614,177L119.65623076923076,-47.65384615384614L119.81684615384616,-47.65384615384614L119.87707692307693,177L119.886,-47.65384615384614L120.02653846153846,-47.65384615384614L120.41692307692308,177L120.44592307692308,187.89126502550567L121.02146153846154,-47.65384615384614L121.1396923076923,163.3846153846154L121.76653846153847,-47.65384615384614L122.61200000000001,-54.46153846153847L122.92430769230769,163.3846153846154L123.38384615384615,163.3846153846154L123.40392307692308,142.96153846153845L123.52215384615384,117.90092501273521L123.8233076923077,-81.96656931363619L124.9966923076923,-82.74437537560097L125.12384615384615,105.59908632131723L125.30007692307692,-65.10164803725021L128.45884615384617,-69.57413027836725L128.57707692307693,160.14413551183847L128.615,190.6153846153846L128.64623076923078,170.1923076923077L128.72653846153847,-71.73332052964432L128.81353846153846,163.3846153846154L129.1213846153846,-69.3877227489765L129.26638461538462,163.3846153846154L129.3176923076923,149.76923076923077L129.55415384615384,-58.18961114149827L129.78838461538462,166.64249467849731L129.89100000000002,-69.15366158118614L130.5490769230769,177L131.26738461538463,-64.41190382150504L131.57523076923076,177L132.22215384615384,153.85366696577805L132.34261538461539,156.57692307692307L132.3983846153846,-73.83904002262994L132.86015384615385,-82.74510251558745L132.99623076923078,158.74666335032535L133.03861538461538,183.80769230769232L133.9710769230769,-71.26813272329477L134.17853846153847,170.1923076923077L134.21423076923077,163.3846153846154L134.28115384615384,-75.13127165574295L134.44400000000002,-69.12873106736404L135.2493076923077,177L135.25376923076925,152.83138605264517L135.67315384615384,-69.17350211510292L136.37584615384614,-47.65384615384614L136.5833076923077,177L136.706,-71.30869674682617L137.87492307692307,-82.66519502493051L138.20507692307692,163.3846153846154L138.30992307692307,-91.63020779536322L138.45715384615386,-84.82506047762358L138.83638461538462,163.3846153846154L138.95907692307694,-55.15484046936035L140.09676923076924,-85.52464705247147L140.32876923076924,174.83854392858652L140.40238461538462,172.36205121187064L140.54515384615385,177L140.7436923076923,-78.03258617107683L142.1133846153846,-79.19502331660345L142.129,158.74426119144147L142.13792307692307,-70.22741361764761L142.14684615384616,156.57692307692307L142.46138461538462,-69.15366158118614L142.55953846153847,-82.90837141183707L142.92984615384614,160.14413551183847L142.9633076923077,-84.82506047762358L143.01015384615386,-47.65384615384614L143.04361538461538,163.3846153846154L143.30684615384615,163.3846153846154L144.16346153846155,165.42640174352206L144.21253846153846,-65.07806792626015L144.37315384615385,-75.91827084467963L144.56946153846155,160.66049579473642L144.85946153846155,-75.68691048255333L147.90892307692306,-64.92474526625412L147.98253846153844,142.96153846153845L148.36176923076923,186.96666757877057L149.06,-71.89843324514536L149.45930769230768,170.1923076923077L150.12853846153848,156.57692307692307L150.14192307692306,-71.20661148658165L150.54123076923076,-91.82388672461876L151.15692307692308,159.06211875035214L152.3503846153846,156.57692307692307L152.46415384615383,-72.30051568838266L152.67384615384614,173.25446622188275L152.9326153846154,-71.29602373563326L153.35646153846153,-78.00207226093L153.3943846153846,115.73076923076923L153.99,-54.46153846153847L154.51200000000003,166.43077683448792L154.61684615384615,173.25446622188275L154.8867692307692,-69.94216698866623L156.3456923076923,-77.99955324026254L156.55315384615383,156.57692307692307L156.56653846153847,-78.01734220064604L157.4833846153846,179.52121831820563L157.65069230769228,111.09323270504291L158.6567692307692,-78.0094475379357L158.84192307692308,-75.95390070401704L159.0003076923077,163.3846153846154L159.2166923076923,-47.65384615384614L162.8996923076923,-71.19121170043945L163.33692307692306,170.1923076923077L163.6447692307692,177L163.80092307692308,183.80769230769232L166.23915384615387,-47.65384615384614L166.60946153846155,177L167.06007692307693,-71.72758131760818L168.48330769230768,-71.63824697641226L168.6483846153846,163.3846153846154L168.74207692307692,-71.29610164348894L170.9817692307692,-47.65384615384614L171.29407692307691,163.3846153846154L171.6532307692308,129.34615384615387L171.71569230769234,-47.65384615384614L174.957,-47.65384615384614L175.14215384615383,177L175.31615384615387,-47.65384615384614L176.61446153846154,-47.65384615384614L176.64346153846154,177L177.24576923076924,142.96153846153845L177.29261538461537,-47.65384615384614L178.01092307692306,-47.65384615384614L178.27192307692306,177L179.48323076923077,177L179.49215384615385,-47.65384615384614L179.7553846153846,-52.390695718618545L179.92492307692308,177L180.5026923076923,-47.65384615384614L182.58846153846153,-47.65384615384614L182.7133846153846,142.96153846153845L182.82715384615383,177L182.87623076923077,-47.65384615384614L183.8243076923077,-47.65384615384614L184.16784615384614,170.1923076923077L184.5359230769231,177L184.87053846153847,-47.65384615384614L185.17392307692307,-47.65384615384614L185.55315384615386,163.3846153846154L185.86323076923077,136.15384615384613L186.91392307692308,-47.65384615384614L187.80176923076922,-47.65384615384614L187.8173846153846,177L189.31423076923076,-47.65384615384614L189.99684615384615,-47.65384615384614L190.6616153846154,177L190.70176923076923,177L190.88023076923076,-47.65384615384614L191.17023076923076,191.70352201278394L191.68553846153847,177L191.69,177L191.9710769230769,-47.65384615384614L193.88284615384615,-74.88461538461539L193.90738461538461,163.3846153846154L194.51861538461537,-47.65384615384614L195.10307692307694,-47.65384615384614L195.25923076923075,177L195.5113076923077,197.42307692307693L196.60884615384617,-47.65384615384614L196.7716923076923,177L196.89884615384616,177L198.03653846153847,197.42307692307693L198.39123076923076,195.26162085166345L198.47823076923075,177L198.54961538461538,-47.65384615384614L199.22776923076924,-47.65384615384614L199.47092307692307,177L199.87023076923077,177L199.92153846153846,-47.65384615384614L200.76476923076922,197.42307692307693L200.8383846153846,177L200.8473076923077,197.42307692307693L201.63923076923078,-47.65384615384614L201.67492307692305,177L201.99615384615385,-47.65384615384614L202.87953846153846,-52.390695718618545L202.99107692307692,142.96153846153845L203.03346153846152,-47.65384615384614L203.261,177L203.8499230769231,158.74426119144147L204.102,-58.130634894737845L204.18007692307694,165.8093350850619L205.12369230769232,-47.65384615384614L208.05715384615385,-47.65384615384614L208.59923076923076,177L209.16138461538463,-54.46153846153847L209.52053846153845,136.15384615384613L209.62761538461538,175.9197491499094L210.0603846153846,-61.26923076923079L210.1317692307692,-47.65384615384614L210.1496153846154,177L210.57123076923077,-47.65384615384614L212.12161538461538,191.70352201278394L212.30007692307694,177L212.63692307692307,-47.65384615384614L213.19907692307694,-47.65384615384614L213.34184615384615,177L213.42884615384614,197.42307692307693L216.20392307692308,-47.65384615384614L216.40246153846155,177L217.2613076923077,197.42307692307693L217.62492307692307,-74.88461538461539L217.76992307692305,163.3846153846154L217.87030769230768,135.07359530375552L218.20715384615383,-47.65384615384614L220.43346153846156,-47.65384615384614L220.67215384615386,177L221.20084615384616,-71.19121170043945L221.43061538461538,177L221.62023076923074,-57.68063912024864L221.65592307692307,177L222.50807692307694,-65.59174038813666L223.0166923076923,197.42307692307693L223.155,136.15384615384613L223.6056153846154,177L223.78853846153848,-47.65384615384614L224.08076923076922,-47.65384615384614L225.12923076923076,177L225.47276923076925,-47.65384615384614L226.36507692307694,-47.65384615384614L226.69969230769232,142.96153846153845L226.74430769230767,129.34615384615387L226.751,-61.26923076923079L228.08723076923079,-47.65384615384614L228.2277692307692,136.15384615384613L229.1646923076923,-47.65384615384614L229.2963076923077,177L229.30076923076922,-47.65384615384614L229.5283076923077,-47.65384615384614L230.0503076923077,177L230.26669230769232,-47.65384615384614L234.94684615384617,-47.65384615384614L235.07176923076923,173.1910881812756L235.14315384615384,186.3032205104828L236.34776923076922,197.42307692307693L236.39907692307693,177L236.53292307692308,183.80769230769232L237.13299999999998,177L237.31146153846154,177L237.49884615384613,-47.65384615384614L237.655,-47.65384615384614L237.79999999999998,177L237.8713846153846,195.26162085166345L238.73246153846154,-47.65384615384614L239.04030769230772,177L239.19646153846153,197.42307692307693L240.91415384615385,197.42307692307693L241.23315384615384,142.96153846153845L241.39600000000002,-47.65384615384614L244.51907692307694,-58.63864605243391L244.52353846153846,163.3846153846154L245.12584615384617,188.45392854397113L246.01815384615384,156.57692307692307L246.10515384615385,-47.65384615384614L246.69853846153845,-47.65384615384614L247.0599230769231,177L247.2986153846154,-47.65384615384614L248.4073076923077,-57.68063912024864L248.57684615384613,177L248.704,-47.65384615384614L249.719,-51.3966953571026L250.51538461538462,177L250.531,177L250.90576923076924,-71.19121170043945L250.98161538461537,177L251.053,-71.19121170043945L251.17346153846154,-64.39881530174843L251.37423076923076,177L251.80923076923077,-71.19121170043945L251.87838461538462,-64.39881530174843L252.0010769230769,177L252.07915384615384,-51.3966953571026L252.53646153846154,-78.63006151639497L252.78407692307692,177L253.10753846153847,-47.65384615384614L253.2302307692308,177L253.70315384615387,-47.65384615384614L256.45592307692306,-47.65384615384614L256.5451538461538,177L256.56523076923077,142.96153846153845L256.6923846153846,-47.65384615384614L256.7459230769231,-47.65384615384614L257.1251538461538,177L257.12961538461536,177L257.5066153846154,177L257.89923076923077,-47.65384615384614L265.14923076923077,-68.07692307692307L265.68015384615387,122.53846153846153L266.0013846153846,136.15384615384613L266.0036153846154,177L266.133,177L266.57023076923076,-68.07692307692307L266.7553846153846,-47.65384615384614L267.2952307692308,177L267.83284615384616,-47.65384615384614L268.7586153846154,-47.65384615384614L268.8656923076923,177L268.99953846153846,177L269.0798461538462,-47.65384615384614L270.02569230769234,-47.65384615384614L270.35584615384613,177L270.4473076923077,-47.65384615384614L271.21915384615386,-47.65384615384614L271.4801538461539,177L271.788,177L271.9017692307692,177L271.96423076923077,-47.65384615384614L272.90784615384615,145.0037565598121L273.20230769230767,-68.07692307692307L273.72207692307694,-47.65384615384614L274.166,177L274.63892307692305,-47.65384615384614" fill="none"></path></g></g></g></g></g></g><g transform="translate(40, 177)" clip-path="url(#clip_1)"><clipPath id="clip_1"><rect width="290" height="23"></rect></clipPath><g><g><line x1="0" y1="0" x2="0" y2="5" style="visibility: inherit;" fill="rgb(0, 0, 0)" stroke="rgb(204, 204, 204)" stroke-width="1px"></line><line x1="22.30769230769231" y1="0" x2="22.30769230769231" y2="5" style="visibility: inherit;" fill="rgb(0, 0, 0)" stroke="rgb(204, 204, 204)" stroke-width="1px"></line><line x1="44.61538461538462" y1="0" x2="44.61538461538462" y2="5" style="visibility: inherit;" fill="rgb(0, 0, 0)" stroke="rgb(204, 204, 204)" stroke-width="1px"></line><line x1="66.92307692307692" y1="0" x2="66.92307692307692" y2="5" style="visibility: inherit;" fill="rgb(0, 0, 0)" stroke="rgb(204, 204, 204)" stroke-width="1px"></line><line x1="89.23076923076924" y1="0" x2="89.23076923076924" y2="5" style="visibility: inherit;" fill="rgb(0, 0, 0)" stroke="rgb(204, 204, 204)" stroke-width="1px"></line><line x1="111.53846153846155" y1="0" x2="111.53846153846155" y2="5" style="visibility: inherit;" fill="rgb(0, 0, 0)" stroke="rgb(204, 204, 204)" stroke-width="1px"></line><line x1="133.84615384615384" y1="0" x2="133.84615384615384" y2="5" style="visibility: inherit;" fill="rgb(0, 0, 0)" stroke="rgb(204, 204, 204)" stroke-width="1px"></line><line x1="156.15384615384616" y1="0" x2="156.15384615384616" y2="5" style="visibility: inherit;" fill="rgb(0, 0, 0)" stroke="rgb(204, 204, 204)" stroke-width="1px"></line><line x1="178.46153846153848" y1="0" x2="178.46153846153848" y2="5" style="visibility: inherit;" fill="rgb(0, 0, 0)" stroke="rgb(204, 204, 204)" stroke-width="1px"></line><line x1="200.76923076923077" y1="0" x2="200.76923076923077" y2="5" style="visibility: inherit;" fill="rgb(0, 0, 0)" stroke="rgb(204, 204, 204)" stroke-width="1px"></line><line x1="223.0769230769231" y1="0" x2="223.0769230769231" y2="5" style="visibility: inherit;" fill="rgb(0, 0, 0)" stroke="rgb(204, 204, 204)" stroke-width="1px"></line><line x1="245.3846153846154" y1="0" x2="245.3846153846154" y2="5" style="visibility: inherit;" fill="rgb(0, 0, 0)" stroke="rgb(204, 204, 204)" stroke-width="1px"></line><line x1="267.6923076923077" y1="0" x2="267.6923076923077" y2="5" style="visibility: inherit;" fill="rgb(0, 0, 0)" stroke="rgb(204, 204, 204)" stroke-width="1px"></line><line x1="290" y1="0" x2="290" y2="5" style="visibility: inherit;" fill="rgb(0, 0, 0)" stroke="rgb(204, 204, 204)" stroke-width="1px"></line></g><g transform="translate(0, 8)"><text x="0" y="0" dx="0em" dy="0.95em" style="text-anchor: middle; visibility: hidden; font-family: Roboto, sans-serif; font-size: 12px; font-weight: 200;" fill="rgb(33, 33, 33)" stroke="none" stroke-width="1px">-10k</text><text x="22.30769230769231" y="0" dx="0em" dy="0.95em" style="text-anchor: middle; visibility: inherit; font-family: Roboto, sans-serif; font-size: 12px; font-weight: 200;" fill="rgb(33, 33, 33)" stroke="none" stroke-width="1px">0</text><text x="44.61538461538462" y="0" dx="0em" dy="0.95em" style="text-anchor: middle; visibility: hidden; font-family: Roboto, sans-serif; font-size: 12px; font-weight: 200;" fill="rgb(33, 33, 33)" stroke="none" stroke-width="1px">10k</text><text x="66.92307692307692" y="0" dx="0em" dy="0.95em" style="text-anchor: middle; visibility: inherit; font-family: Roboto, sans-serif; font-size: 12px; font-weight: 200;" fill="rgb(33, 33, 33)" stroke="none" stroke-width="1px">20k</text><text x="89.23076923076924" y="0" dx="0em" dy="0.95em" style="text-anchor: middle; visibility: hidden; font-family: Roboto, sans-serif; font-size: 12px; font-weight: 200;" fill="rgb(33, 33, 33)" stroke="none" stroke-width="1px">30k</text><text x="111.53846153846155" y="0" dx="0em" dy="0.95em" style="text-anchor: middle; visibility: inherit; font-family: Roboto, sans-serif; font-size: 12px; font-weight: 200;" fill="rgb(33, 33, 33)" stroke="none" stroke-width="1px">40k</text><text x="133.84615384615384" y="0" dx="0em" dy="0.95em" style="text-anchor: middle; visibility: hidden; font-family: Roboto, sans-serif; font-size: 12px; font-weight: 200;" fill="rgb(33, 33, 33)" stroke="none" stroke-width="1px">50k</text><text x="156.15384615384616" y="0" dx="0em" dy="0.95em" style="text-anchor: middle; visibility: inherit; font-family: Roboto, sans-serif; font-size: 12px; font-weight: 200;" fill="rgb(33, 33, 33)" stroke="none" stroke-width="1px">60k</text><text x="178.46153846153848" y="0" dx="0em" dy="0.95em" style="text-anchor: middle; visibility: hidden; font-family: Roboto, sans-serif; font-size: 12px; font-weight: 200;" fill="rgb(33, 33, 33)" stroke="none" stroke-width="1px">70k</text><text x="200.76923076923077" y="0" dx="0em" dy="0.95em" style="text-anchor: middle; visibility: inherit; font-family: Roboto, sans-serif; font-size: 12px; font-weight: 200;" fill="rgb(33, 33, 33)" stroke="none" stroke-width="1px">80k</text><text x="223.0769230769231" y="0" dx="0em" dy="0.95em" style="text-anchor: middle; visibility: hidden; font-family: Roboto, sans-serif; font-size: 12px; font-weight: 200;" fill="rgb(33, 33, 33)" stroke="none" stroke-width="1px">90k</text><text x="245.3846153846154" y="0" dx="0em" dy="0.95em" style="text-anchor: middle; visibility: inherit; font-family: Roboto, sans-serif; font-size: 12px; font-weight: 200;" fill="rgb(33, 33, 33)" stroke="none" stroke-width="1px">100k</text><text x="267.6923076923077" y="0" dx="0em" dy="0.95em" style="text-anchor: middle; visibility: hidden; font-family: Roboto, sans-serif; font-size: 12px; font-weight: 200;" fill="rgb(33, 33, 33)" stroke="none" stroke-width="1px">110k</text><text x="290" y="0" dx="0em" dy="0.95em" style="text-anchor: middle; visibility: hidden; font-family: Roboto, sans-serif; font-size: 12px; font-weight: 200;" fill="rgb(33, 33, 33)" stroke="none" stroke-width="1px">120k</text></g><line x1="0" y1="0" x2="290" y2="0" fill="rgb(0, 0, 0)" stroke="rgb(204, 204, 204)" stroke-width="1px"></line></g></g></g></g></svg>